ISO-10303-21;
HEADER;
/* Generated by software containing ST-Developer
 * from STEP Tools, Inc. (www.steptools.com) 
 */
/* OPTION: using custom renumber hook */

FILE_DESCRIPTION(
/* description */ ('STEP AP242 Edition 2',
'CAx-IF Rec.Pracs.---Representation and Presentation of Product Manufa
cturing Information (PMI)---4.0---2014-10-13',
'CAx-IF Rec.Pracs.---3D Tessellated Geometry---0.4---2014-09-14','2;1',
'CAx-IF Rec.Pracs.---User Defined Attributes---1.5---2016-08-15'),
/* implementation_level */ '2;1');

FILE_NAME(
/* name */ 'Kings_Cross_V2',
/* time_stamp */ '2026-06-17T11:02:29Z',
/* author */ (''),
/* organization */ (''),
/* preprocessor_version */ 'ST-DEVELOPER v20',
/* originating_system */ 'ONSHAPE BY PTC INC, 1.216',
/* authorisation */ '  ');

FILE_SCHEMA (('AP242_MANAGED_MODEL_BASED_3D_ENGINEERING_MIM_LF { 1 0 10303 442 3 1 4 }'));
ENDSEC;

DATA;
#10=SHAPE_REPRESENTATION_RELATIONSHIP('','',#31,#11);
#11=TESSELLATED_SHAPE_REPRESENTATION('',(#29),#37);
#12=STYLED_ITEM('',(#14),#27);
#13=STYLED_ITEM('',(#15),#29);
#14=PRESENTATION_STYLE_ASSIGNMENT((#16));
#15=PRESENTATION_STYLE_ASSIGNMENT((#17));
#16=SURFACE_STYLE_USAGE(.BOTH.,#18);
#17=SURFACE_STYLE_USAGE(.BOTH.,#19);
#18=SURFACE_SIDE_STYLE('',(#20));
#19=SURFACE_SIDE_STYLE('',(#21));
#20=SURFACE_STYLE_FILL_AREA(#22);
#21=SURFACE_STYLE_FILL_AREA(#23);
#22=FILL_AREA_STYLE('',(#24));
#23=FILL_AREA_STYLE('',(#25));
#24=FILL_AREA_STYLE_COLOUR('',#26);
#25=FILL_AREA_STYLE_COLOUR('',#26);
#26=COLOUR_RGB('',0.768627450980392,0.886274509803922,0.952941176470588);
#27=COMPLEX_TRIANGULATED_FACE('ConvergentBody',#28,444,((-0.999543959385584,
0.,-0.0301972392080917),(0.,-1.,0.),(0.,-1.,0.),(-0.99954388293228,0.,0.0301997697451573),
(-0.999543959385584,0.,-0.0301972392080917),(0.,1.,0.),(0.,-1.,0.),(-0.0302395300558725,
0.,0.999542680840593),(-0.99271295514476,0.,-0.120503065055452),(-0.99271295514476,
0.,-0.120503065055452),(0.,-1.,0.),(0.,-1.,0.),(-0.970944614407725,0.,-0.23930431620143),
(0.,-1.,0.),(-0.935005897252822,0.,-0.35463216450633),(0.,-1.,0.),(-0.885452321821509,
0.,-0.464730229037126),(0.,-1.,0.),(-0.822991022127389,0.,-0.568054378997042),
(0.,-1.,0.),(-0.748516046712926,0.,-0.663116677375296),(0.,-1.,0.),(-0.663135446923541,
0.,-0.748499418191835),(0.,-1.,0.),(-0.568075068588807,0.,-0.822976741134172),
(0.,-1.,0.),(-0.464715960063743,0.,-0.885459810754861),(0.,-1.,0.),(-0.354543062715408,
0.,-0.935039687222087),(0.,-1.,0.),(-0.239266114260148,0.,-0.970954029069785),
(0.,-1.,0.),(-0.120542391966921,0.,-0.99270818055403),(0.,-1.,0.),(-0.0301975106933468,
0.,-0.999543951183701),(-0.99954388293228,0.,0.0301997697451573),(0.,1.,
0.),(-0.992713544909704,0.,0.120498206429844),(0.,-1.,0.),(-0.970943456868892,
0.,0.239309012708436),(0.,-1.,0.),(-0.992713544909704,0.,0.120498206429844),
(0.,-1.,0.),(-0.935007617170063,0.,0.354627629823117),(0.,-1.,0.),(-0.88546027458612,
0.,0.46471507628855),(0.,-1.,0.),(-0.822976331425418,0.,0.56807566213803),
(0.,-1.,0.),(-0.748518646885979,0.,0.663113742327802),(0.,-1.,0.),(-0.663133207948467,
0.,0.748501401812966),(0.,-1.,0.),(-0.568048372396758,0.,0.822995168040126),
(0.,-1.,0.),(-0.464715806823138,0.,0.885459891180125),(0.,-1.,0.),(-0.354617225468323,
0.,0.93501156324462),(0.,-1.,0.),(-0.239303619442193,0.,0.970944786134549),
(0.,-1.,0.),(-0.120543227209775,0.,0.992708079131953),(0.,1.,0.),(-0.0301975106933468,
0.,-0.999543951183701),(0.,1.,0.),(-0.970944614407725,0.,-0.23930431620143),
(0.,1.,0.),(-0.99271295514476,0.,-0.120503065055452),(0.,1.,0.),(-0.935005897252822,
0.,-0.35463216450633),(0.,1.,0.),(-0.885452321821509,0.,-0.464730229037126),
(0.,1.,0.),(-0.822991022127389,0.,-0.568054378997042),(0.,1.,0.),(-0.748516046712926,
0.,-0.663116677375296),(0.,1.,0.),(-0.663135446923541,0.,-0.748499418191835),
(0.,1.,0.),(-0.568075068588807,0.,-0.822976741134172),(0.,1.,0.),(-0.464715960063743,
0.,-0.885459810754861),(0.,1.,0.),(-0.354543062715408,0.,-0.935039687222087),
(0.,1.,0.),(-0.239266114260148,0.,-0.970954029069785),(0.,1.,0.),(-0.120542391966921,
0.,-0.99270818055403),(0.,1.,0.),(-0.970943456868892,0.,0.239309012708436),
(0.,1.,0.),(-0.992713544909704,0.,0.120498206429844),(0.,1.,0.),(-0.935007617170063,
0.,0.354627629823117),(0.,1.,0.),(-0.88546027458612,0.,0.46471507628855),
(0.,1.,0.),(-0.822976331425418,0.,0.56807566213803),(0.,1.,0.),(-0.748518646885979,
0.,0.663113742327802),(0.,1.,0.),(-0.663133207948467,0.,0.748501401812966),
(0.,1.,0.),(-0.568048372396758,0.,0.822995168040126),(0.,1.,0.),(-0.464715806823138,
0.,0.885459891180125),(0.,1.,0.),(-0.354617225468323,0.,0.93501156324462),
(0.,1.,0.),(-0.239303619442193,0.,0.970944786134549),(0.,1.,0.),(-0.120543227209775,
0.,0.992708079131953),(0.,1.,0.),(-0.0302395300558725,0.,0.999542680840593),
(-0.970943456868892,0.,0.239309012708436),(-0.970944614407725,0.,-0.23930431620143),
(-0.935007617170063,0.,0.354627629823117),(-0.935005897252822,0.,-0.35463216450633),
(-0.88546027458612,0.,0.46471507628855),(-0.885452321821509,0.,-0.464730229037126),
(-0.822976331425418,0.,0.56807566213803),(-0.822991022127389,0.,-0.568054378997042),
(-0.748518646885979,0.,0.663113742327802),(-0.748516046712926,0.,-0.663116677375296),
(-0.663133207948467,0.,0.748501401812966),(-0.663135446923541,0.,-0.748499418191835),
(-0.568048372396758,0.,0.822995168040126),(-0.568075068588807,0.,-0.822976741134172),
(-0.464715806823138,0.,0.885459891180125),(-0.464715960063743,0.,-0.885459810754861),
(-0.354617225468323,0.,0.93501156324462),(-0.354543062715408,0.,-0.935039687222087),
(-0.239303619442193,0.,0.970944786134549),(-0.239266114260148,0.,-0.970954029069785),
(-0.120543227209775,0.,0.992708079131953),(-0.120542391966921,0.,-0.99270818055403),
(0.,-1.,0.),(-1.,0.,0.),(0.,0.,1.),(0.,0.,-1.),(0.,1.,0.),(-1.,0.,0.),(0.,
-1.,0.),(0.,0.,-1.),(-1.,0.,0.),(-1.,0.,0.),(0.,0.,1.),(0.,1.,0.),(-1.,
0.,0.),(0.,0.,-1.),(0.,-1.,0.),(-1.,0.,0.),(0.,1.,0.),(0.,0.,-1.),(0.,-1.,
0.),(1.,0.,0.),(0.,0.,-1.),(0.,0.,-1.),(0.,1.,0.),(1.,0.,0.),(0.,-1.,0.),
(0.,0.,-1.),(1.,0.,0.),(0.,-1.,0.),(0.,0.,1.),(1.,0.,0.),(-0.999542603292218,
0.,0.0302420932446144),(0.,-1.,0.),(0.,-1.,0.),(-0.030240169459787,0.,0.999542661496268),
(-0.999542603292218,0.,0.0302420932446144),(0.,1.,0.),(-0.992707770012269,
0.,0.120545772871834),(0.,-1.,0.),(-0.970944896258434,0.,0.239303172627732),
(0.,-1.,0.),(-0.992707770012269,0.,0.120545772871834),(0.,-1.,0.),(-0.935011570561162,
0.,0.354617206176955),(0.,-1.,0.),(-0.885459878615949,0.,0.46471583076266),
(0.,-1.,0.),(-0.822995402369517,0.,0.568048032897428),(0.,-1.,0.),(-0.748521518264237,
0.,0.663110501119837),(0.,-1.,0.),(-0.663111233868876,0.,0.748520869125836),
(0.,-1.,0.),(-0.568047938042519,0.,0.82299546784028),(0.,-1.,0.),(-0.464715076288573,
0.,0.885460274586108),(0.,-1.,0.),(-0.354617951927173,0.,0.935011287723831),
(0.,-1.,0.),(-0.239304289484267,0.,0.970944620992583),(0.,-1.,0.),(-0.120543776016074,
0.,0.992708012490977),(0.,1.,0.),(0.,0.,-1.),(1.,0.,0.),(1.,0.,0.),(0.,
1.,0.),(0.,0.,1.),(0.,1.,0.),(-0.030240169459787,0.,0.999542661496268),
(0.,1.,0.),(-0.970944896258434,0.,0.239303172627732),(0.,1.,0.),(-0.992707770012269,
0.,0.120545772871834),(0.,1.,0.),(-0.935011570561162,0.,0.354617206176955),
(0.,1.,0.),(-0.885459878615949,0.,0.46471583076266),(0.,1.,0.),(-0.822995402369517,
0.,0.568048032897428),(0.,1.,0.),(-0.748521518264237,0.,0.663110501119837),
(0.,1.,0.),(-0.663111233868876,0.,0.748520869125836),(0.,1.,0.),(-0.568047938042519,
0.,0.82299546784028),(0.,1.,0.),(-0.464715076288573,0.,0.885460274586108),
(0.,1.,0.),(-0.354617951927173,0.,0.935011287723831),(0.,1.,0.),(-0.239304289484267,
0.,0.970944620992583),(0.,1.,0.),(-0.120543776016074,0.,0.992708012490977),
(-0.970944896258434,0.,0.239303172627732),(-0.935011570561162,0.,0.354617206176955),
(-0.885459878615949,0.,0.46471583076266),(-0.822995402369517,0.,0.568048032897428),
(-0.748521518264237,0.,0.663110501119837),(-0.663111233868876,0.,0.748520869125836),
(-0.568047938042519,0.,0.82299546784028),(-0.464715076288573,0.,0.885460274586108),
(-0.354617951927173,0.,0.935011287723831),(-0.239304289484267,0.,0.970944620992583),
(-0.120543776016074,0.,0.992708012490977),(0.0302376646790066,0.,0.999542737272779),
(0.,-1.,0.),(0.0302376646790066,0.,0.999542737272779),(0.,1.,0.),(0.120541288362139,
0.,0.992708314561733),(0.,-1.,0.),(0.999543853869308,0.,0.0302007316482911),
(0.,-1.,0.),(0.120541288362139,0.,0.992708314561733),(0.,1.,0.),(0.999543853869308,
0.,0.0302007316482911),(0.,1.,0.),(0.120541288362139,0.,0.992708314561733),
(0.,-1.,0.),(0.239304289484267,0.,0.970944620992583),(0.239304289484267,
0.,0.970944620992583),(0.239304289484267,0.,0.970944620992583),(0.,1.,0.),
(0.,-1.,0.),(0.354617951927173,0.,0.935011287723831),(0.354617951927173,
0.,0.935011287723831),(0.354617951927173,0.,0.935011287723831),(0.,1.,0.),
(0.,-1.,0.),(0.464715076288573,0.,0.885460274586108),(0.464715076288573,
0.,0.885460274586108),(0.464715076288573,0.,0.885460274586108),(0.,1.,0.),
(0.,-1.,0.),(0.568047938042519,0.,0.82299546784028),(0.568047938042519,
0.,0.82299546784028),(0.568047938042519,0.,0.82299546784028),(0.,1.,0.),
(0.,-1.,0.),(0.663111233868876,0.,0.748520869125836),(0.663111233868876,
0.,0.748520869125836),(0.663111233868876,0.,0.748520869125836),(0.,1.,0.),
(0.,-1.,0.),(0.748521518264237,0.,0.663110501119837),(0.748521518264237,
0.,0.663110501119837),(0.748521518264237,0.,0.663110501119837),(0.,1.,0.),
(0.,-1.,0.),(0.822995402369517,0.,0.568048032897428),(0.822995402369517,
0.,0.568048032897428),(0.822995402369517,0.,0.568048032897428),(0.,1.,0.),
(0.,-1.,0.),(0.885459878615949,0.,0.46471583076266),(0.885459878615949,
0.,0.46471583076266),(0.885459878615949,0.,0.46471583076266),(0.,1.,0.),
(0.,-1.,0.),(0.935011570561162,0.,0.354617206176955),(0.935011570561162,
0.,0.354617206176955),(0.935011570561162,0.,0.354617206176955),(0.,1.,0.),
(0.,-1.,0.),(0.970944896258434,0.,0.239303172627732),(0.970944896258434,
0.,0.239303172627732),(0.970944896258434,0.,0.239303172627732),(0.,1.,0.),
(0.,-1.,0.),(0.992712757406421,0.,0.120504694026998),(0.992712757406421,
0.,0.120504694026998),(0.992712757406421,0.,0.120504694026998),(0.,1.,0.),
(0.,-1.,0.),(0.0302395300558725,0.,0.999542680840593),(0.0301975106933468,
0.,-0.999543951183701),(0.,1.,0.),(0.,-1.,0.),(0.0301975106933468,0.,-0.999543951183701),
(0.0302395300558725,0.,0.999542680840593),(0.,1.,0.),(0.,-1.,0.),(0.120543227209775,
0.,0.992708079131953),(0.120542391966921,0.,-0.99270818055403),(0.120542391966921,
0.,-0.99270818055403),(0.,-1.,0.),(0.120543227209775,0.,0.992708079131953),
(0.,1.,0.),(0.120542391966921,0.,-0.99270818055403),(0.,1.,0.),(0.120543227209775,
0.,0.992708079131953),(0.,-1.,0.),(0.239303619442193,0.,0.970944786134549),
(0.,-1.,0.),(0.239266114260148,0.,-0.970954029069785),(0.239303619442193,
0.,0.970944786134549),(0.239266114260148,0.,-0.970954029069785),(0.,1.,
0.),(0.239266114260148,0.,-0.970954029069785),(0.,1.,0.),(0.239303619442193,
0.,0.970944786134549),(0.,-1.,0.),(0.354617225468323,0.,0.93501156324462),
(0.,-1.,0.),(0.354543062715408,0.,-0.935039687222087),(0.354617225468323,
0.,0.93501156324462),(0.354543062715408,0.,-0.935039687222087),(0.,1.,0.),
(0.354543062715408,0.,-0.935039687222087),(0.,1.,0.),(0.354617225468323,
0.,0.93501156324462),(0.,-1.,0.),(0.464715806823138,0.,0.885459891180125),
(0.,-1.,0.),(0.464715960063743,0.,-0.885459810754861),(0.464715806823138,
0.,0.885459891180125),(0.464715960063743,0.,-0.885459810754861),(0.,1.,
0.),(0.464715960063743,0.,-0.885459810754861),(0.,1.,0.),(0.464715806823138,
0.,0.885459891180125),(0.,-1.,0.),(0.568048372396758,0.,0.822995168040126),
(0.,-1.,0.),(0.568075068588807,0.,-0.822976741134172),(0.568048372396758,
0.,0.822995168040126),(0.568075068588807,0.,-0.822976741134172),(0.,1.,
0.),(0.568075068588807,0.,-0.822976741134172),(0.,1.,0.),(0.568048372396758,
0.,0.822995168040126),(0.,-1.,0.),(0.663133207948467,0.,0.748501401812966),
(0.,-1.,0.),(0.663135446923541,0.,-0.748499418191835),(0.663133207948467,
0.,0.748501401812966),(0.663135446923541,0.,-0.748499418191835),(0.,1.,
0.),(0.663135446923541,0.,-0.748499418191835),(0.,1.,0.),(0.663133207948467,
0.,0.748501401812966),(0.,-1.,0.),(0.748518646885979,0.,0.663113742327802),
(0.,-1.,0.),(0.999543959385584,0.,-0.0301972392080917),(0.,-1.,0.),(0.748516046712926,
0.,-0.663116677375296),(0.,-1.,0.),(0.99954388293228,0.,0.0301997697451573),
(0.748518646885979,0.,0.663113742327802),(0.,1.,0.),(0.748516046712926,
0.,-0.663116677375296),(0.748516046712926,0.,-0.663116677375296),(0.,1.,
0.),(0.999543959385584,0.,-0.0301972392080917),(0.,1.,0.),(0.99954388293228,
0.,0.0301997697451573),(0.,1.,0.),(0.748518646885979,0.,0.663113742327802),
(0.,-1.,0.),(0.822991022127389,0.,-0.568054378997042),(0.,-1.,0.),(0.822976331425418,
0.,0.56807566213803),(0.822976331425418,0.,0.56807566213803),(0.,1.,0.),
(0.822991022127389,0.,-0.568054378997042),(0.822991022127389,0.,-0.568054378997042),
(0.,1.,0.),(0.822976331425418,0.,0.56807566213803),(0.,-1.,0.),(0.885452321821509,
0.,-0.464730229037126),(0.,-1.,0.),(0.88546027458612,0.,0.46471507628855),
(0.88546027458612,0.,0.46471507628855),(0.,1.,0.),(0.885452321821509,0.,
-0.464730229037126),(0.885452321821509,0.,-0.464730229037126),(0.,1.,0.),
(0.88546027458612,0.,0.46471507628855),(0.,-1.,0.),(0.935019605383453,0.,
-0.354596020209719),(0.,-1.,0.),(0.935021326099393,0.,0.354591482891697),
(0.935021326099393,0.,0.354591482891697),(0.,1.,0.),(0.935019605383453,
0.,-0.354596020209719),(0.935019605383453,0.,-0.354596020209719),(0.,1.,
0.),(0.935021326099393,0.,0.354591482891697),(0.,-1.,0.),(0.970944334389516,
0.,-0.23930545233425),(0.,-1.,0.),(0.970943178249249,0.,0.23931014314326),
(0.970943178249249,0.,0.23931014314326),(0.,1.,0.),(0.970944334389516,0.,
-0.23930545233425),(0.970944334389516,0.,-0.23930545233425),(0.,1.,0.),
(0.970943178249249,0.,0.23931014314326),(0.,-1.,0.),(0.99270815512935,0.,
-0.120542601347747),(0.,-1.,0.),(0.992708745463912,0.,0.12053773964807),
(0.992708745463912,0.,0.12053773964807),(0.,1.,0.),(0.99270815512935,0.,
-0.120542601347747),(0.99270815512935,0.,-0.120542601347747),(0.,1.,0.),
(0.992708745463912,0.,0.12053773964807)),$,(1,1,2,2,3,3,78,78,7,5,5,11,
11,17,17,23,23,29,29,35,35,41,41,47,47,53,53,59,59,65,65,71,71,77,77,4,
4,8,12,12,6,6,18,18,24,24,30,30,36,36,42,42,48,48,54,54,60,60,66,66,72,
72,79,79,15,15,9,9,21,21,27,27,33,33,39,39,45,45,51,51,57,57,63,63,69,69,
75,75,16,16,10,10,22,22,28,28,34,34,40,40,46,46,52,52,58,58,64,64,70,70,
76,76,80,80,14,13,20,19,26,25,32,31,38,37,44,43,50,49,56,55,62,61,68,67,
74,73,83,83,83,86,86,86,82,82,82,87,87,87,81,81,81,85,85,85,166,166,166,
169,169,169,165,165,165,167,167,167,84,84,125,125,88,88,90,92,92,89,89,
95,95,98,98,101,101,104,104,107,107,110,110,113,113,116,116,119,119,122,
122,170,170,170,171,171,171,126,126,94,94,91,91,97,97,100,100,103,103,106,
106,109,109,112,112,115,115,118,118,121,121,124,124,93,96,99,102,105,108,
111,114,117,120,123,127,127,128,128,130,168,168,129,129,172,172,131,131,
132,132,133,134,134,135,135,136,137,137,138,138,139,140,140,141,141,142,
143,143,144,144,145,146,146,147,147,148,149,149,150,150,151,152,152,153,
153,154,155,155,156,156,157,158,158,159,159,160,161,161,162,162,163,164,
164,174,174,175,175,173,173,176,176,178,178,179,177,177,180,181,181,182,
182,184,184,183,183,186,187,187,185,188,188,190,190,189,189,192,193,193,
191,194,194,196,196,195,195,198,199,199,197,200,200,202,202,201,201,204,
205,205,203,206,206,208,208,207,207,210,211,211,209,212,212,214,214,249,
249,213,213,250,250,216,217,217,215,251,251,252,252,218,218,219,219,220,
220,222,223,223,221,224,224,225,225,226,226,228,229,229,227,230,230,231,
231,232,232,234,235,235,233,236,236,237,237,238,238,240,241,241,239,242,
242,243,243,244,244,246,247,247,245,248,248),((1,4,5),(2,7,3),(1,5,9),(11,
12,2),(9,10,1),(2,12,14),(2,14,16),(16,18,2),(2,18,20),(2,20,22),(22,24,
2),(2,24,26),(2,26,28),(28,30,2),(2,30,32),(2,32,34),(34,7,2),(5,4,36),
(36,4,38),(39,41,3),(38,4,42),(3,43,39),(3,45,43),(47,45,3),(3,49,47),(3,
51,49),(53,51,3),(3,55,53),(3,57,55),(59,57,3),(3,61,59),(3,7,61),(63,6,
37),(6,65,67),(9,5,68),(69,65,6),(6,71,69),(6,73,71),(75,73,6),(6,77,75),
(6,79,77),(81,79,6),(6,83,81),(6,85,83),(87,85,6),(87,6,63),(89,37,91),
(38,92,36),(93,37,89),(95,37,93),(97,37,95),(99,37,97),(101,37,99),(103,
37,101),(105,37,103),(107,37,105),(109,37,107),(111,37,109),(113,37,111),
(63,37,113),(9,13,10),(115,42,40),(38,42,115),(116,68,66),(9,68,116),(38,
90,92),(116,15,13),(116,13,9),(117,40,44),(115,40,117),(118,66,70),(116,
66,118),(115,94,90),(115,90,38),(118,17,15),(118,15,116),(119,44,46),(117,
44,119),(120,70,72),(118,70,120),(117,96,94),(117,94,115),(120,19,17),(120,
17,118),(121,46,48),(119,46,121),(122,72,74),(120,72,122),(119,98,96),(119,
96,117),(122,21,19),(122,19,120),(123,48,50),(121,48,123),(124,74,76),(122,
74,124),(121,100,98),(121,98,119),(124,23,21),(124,21,122),(125,50,52),
(123,50,125),(126,76,78),(124,76,126),(123,102,100),(123,100,121),(126,
25,23),(126,23,124),(127,52,54),(125,52,127),(128,78,80),(126,78,128),(125,
104,102),(125,102,123),(128,27,25),(128,25,126),(129,54,56),(127,54,129),
(130,80,82),(128,80,130),(127,106,104),(127,104,125),(130,29,27),(130,27,
128),(131,56,58),(129,56,131),(132,82,84),(130,82,132),(129,108,106),(129,
106,127),(132,31,29),(132,29,130),(133,58,60),(131,58,133),(134,84,86),
(132,84,134),(131,110,108),(131,108,129),(134,33,31),(134,31,132),(135,
60,62),(133,60,135),(136,86,88),(134,86,136),(133,112,110),(133,110,131),
(136,35,33),(136,33,134),(135,62,8),(136,88,64),(135,114,112),(135,112,
133),(34,137,7),(64,140,35),(64,35,136),(143,137,34),(35,140,144),(8,139,
114),(8,114,135),(63,113,141),(114,139,147),(141,113,148),(149,145,152),
(143,151,155),(158,150,154),(155,151,161),(162,150,158),(143,164,137),(152,
145,142),(155,164,143),(167,146,138),(137,169,168),(164,169,137),(171,146,
167),(171,167,173),(174,176,168),(173,167,177),(168,178,174),(168,180,178),
(182,180,168),(168,184,182),(168,186,184),(188,186,168),(168,190,188),(168,
192,190),(194,192,168),(168,196,194),(168,169,196),(141,198,153),(153,198,
159),(141,148,202),(202,198,141),(148,172,204),(202,148,204),(206,172,208),
(173,209,171),(210,172,206),(212,172,210),(214,172,212),(216,172,214),(218,
172,216),(220,172,218),(222,172,220),(224,172,222),(226,172,224),(228,172,
226),(204,172,228),(230,177,175),(173,177,230),(173,207,209),(231,175,179),
(230,175,231),(230,211,207),(230,207,173),(232,179,181),(231,179,232),(231,
213,211),(231,211,230),(233,181,183),(232,181,233),(232,215,213),(232,213,
231),(234,183,185),(233,183,234),(233,217,215),(233,215,232),(235,185,187),
(234,185,235),(234,219,217),(234,217,233),(236,187,189),(235,187,236),(235,
221,219),(235,219,234),(237,189,191),(236,189,237),(236,223,221),(236,221,
235),(238,191,193),(237,191,238),(237,225,223),(237,223,236),(239,193,195),
(238,193,239),(238,227,225),(238,225,237),(240,195,197),(239,195,240),(239,
229,227),(239,227,238),(240,197,170),(240,205,229),(240,229,239),(241,205,
170),(170,205,240),(164,242,169),(243,205,241),(202,204,244),(243,241,245),
(246,248,242),(245,241,249),(246,242,164),(250,244,252),(245,253,243),(202,
244,250),(246,254,248),(256,249,255),(245,249,256),(250,252,258),(245,257,
253),(259,254,246),(261,255,260),(256,255,261),(258,263,250),(256,262,257),
(256,257,245),(246,264,259),(266,260,265),(261,260,266),(250,263,268),(261,
267,262),(261,262,256),(246,269,264),(271,265,270),(266,265,271),(250,268,
273),(266,272,267),(266,267,261),(274,269,246),(276,270,275),(271,270,276),
(273,278,250),(271,277,272),(271,272,266),(246,279,274),(281,275,280),(276,
275,281),(250,278,283),(276,282,277),(276,277,271),(246,284,279),(286,280,
285),(281,280,286),(250,283,288),(281,287,282),(281,282,276),(289,284,246),
(291,285,290),(286,285,291),(288,293,250),(286,292,287),(286,287,281),(246,
294,289),(296,290,295),(291,290,296),(250,293,298),(291,297,292),(291,292,
286),(246,299,294),(301,295,300),(296,295,301),(250,298,303),(296,302,297),
(296,297,291),(304,299,246),(306,300,305),(301,300,306),(303,308,250),(301,
307,302),(301,302,296),(306,305,247),(306,251,307),(306,307,301),(156,163,
200),(200,163,160),(155,309,164),(311,157,199),(313,309,155),(314,157,311),
(247,166,251),(251,166,201),(310,203,165),(247,251,306),(202,312,198),(315,
203,310),(316,312,202),(313,317,309),(314,311,319),(321,317,313),(319,320,
314),(315,310,322),(322,310,318),(316,323,312),(319,311,324),(325,323,316),
(322,326,315),(317,321,327),(327,321,329),(319,330,320),(331,318,328),(322,
318,331),(325,333,323),(334,324,332),(319,324,334),(335,333,325),(322,336,
326),(327,329,337),(337,329,339),(334,340,330),(334,330,319),(341,328,338),
(331,328,341),(335,343,333),(344,332,342),(334,332,344),(345,343,335),(331,
346,336),(331,336,322),(337,339,347),(347,339,349),(344,350,340),(344,340,
334),(351,338,348),(341,338,351),(345,353,343),(354,342,352),(344,342,354),
(355,353,345),(341,356,346),(341,346,331),(347,349,357),(357,349,359),(354,
360,350),(354,350,344),(361,348,358),(351,348,361),(355,363,353),(364,352,
362),(354,352,364),(365,363,355),(351,366,356),(351,356,341),(357,359,367),
(367,359,369),(364,370,360),(364,360,354),(371,358,368),(361,358,371),(365,
373,363),(374,362,372),(364,362,374),(375,373,365),(361,376,366),(361,366,
351),(367,369,377),(379,369,381),(374,382,370),(377,369,383),(383,369,379),
(374,370,364),(385,368,378),(371,368,385),(375,386,373),(388,372,387),(374,
372,388),(389,386,375),(391,375,393),(371,394,376),(389,375,391),(371,376,
361),(379,381,395),(388,396,382),(388,382,374),(377,383,397),(399,378,398),
(385,378,399),(389,400,386),(402,387,401),(388,387,402),(391,393,403),(385,
404,394),(385,394,371),(395,405,379),(402,406,396),(402,396,388),(397,383,
407),(409,398,408),(399,398,409),(410,400,389),(412,401,411),(402,401,412),
(403,413,391),(399,414,404),(399,404,385),(379,405,415),(412,416,406),(412,
406,402),(407,383,417),(419,408,418),(409,408,419),(389,420,410),(422,411,
421),(412,411,422),(391,413,423),(409,424,414),(409,414,399),(379,415,425),
(422,426,416),(422,416,412),(417,383,427),(429,418,428),(419,418,429),(389,
430,420),(432,421,431),(422,421,432),(391,423,433),(419,434,424),(419,424,
409),(425,435,379),(432,436,426),(432,426,422),(427,383,437),(439,428,438),
(429,428,439),(440,430,389),(442,431,441),(432,431,442),(433,443,391),(429,
444,434),(429,434,419),(442,380,436),(442,436,432),(439,438,384),(442,441,
390),(439,392,444),(439,444,429),(380,392,384),(390,392,380),(390,380,442),
(384,392,439)),());
#28=COORDINATES_LIST('',252,((-0.00502404011785984,-0.00144999998155981,
0.000950950023252517),(-0.00502404011785984,-0.00144999998155981,0.00295095006003976),
(-0.00502404011785984,0.00144999998155981,0.000950950023252517),(-0.00502404011785984,
0.00144999998155981,0.00295095006003976),(-0.00501675019040704,-0.00144999998155981,
0.000830409990157932),(-0.00501675019040704,-0.00144999998155981,0.00307147996500134),
(-0.00501675019040704,0.,0.000830409990157932),(-0.00501675019040704,0.,
0.00307147996500134),(-0.00501675019040704,0.00144999998155981,0.000830409990157932),
(-0.00501675019040704,0.00144999998155981,0.00307147996500134),(-0.00499498983845115,
-0.00144999998155981,0.000711629982106388),(-0.00499498983845115,-0.00144999998155981,
0.00319026992656291),(-0.00499498983845115,0.,0.000711629982106388),(-0.00499498983845115,
0.,0.00319026992656291),(-0.00499498983845115,0.00144999998155981,0.000711629982106388),
(-0.00499498983845115,0.00144999998155981,0.00319026992656291),(-0.00495905987918377,
-0.00144999998155981,0.000596339988987893),(-0.00495905987918377,-0.00144999998155981,
0.00330554996617139),(-0.00495905987918377,0.,0.000596339988987893),(-0.00495905987918377,
0.,0.00330554996617139),(-0.00495905987918377,0.00144999998155981,0.000596339988987893),
(-0.00495905987918377,0.00144999998155981,0.00330554996617139),(-0.00490950001403689,
-0.00144999998155981,0.000486230012029409),(-0.00490950001403689,-0.00144999998155981,
0.0034156700130552),(-0.00490950001403689,0.,0.000486230012029409),(-0.00490950001403689,
0.,0.0034156700130552),(-0.00490950001403689,0.00144999998155981,0.000486230012029409),
(-0.00490950001403689,0.00144999998155981,0.0034156700130552),(-0.0048470301553607,
-0.00144999998155981,0.000382889993488788),(-0.0048470301553607,-0.00144999998155981,
0.00351901003159582),(-0.0048470301553607,0.,0.000382889993488788),(-0.0048470301553607,
0.,0.00351901003159582),(-0.0048470301553607,0.00144999998155981,0.000382889993488788),
(-0.0048470301553607,0.00144999998155981,0.00351901003159582),(-0.00477254996076226,
-0.00144999998155981,0.000287820002995431),(-0.00477254996076226,-0.00144999998155981,
0.00361406989395619),(-0.00477254996076226,0.,0.000287820002995431),(-0.00477254996076226,
0.,0.00361406989395619),(-0.00477254996076226,0.00144999998155981,0.000287820002995431),
(-0.00477254996076226,0.00144999998155981,0.00361406989395619),(-0.00468717003241181,
-0.00144999998155981,0.000202440001885407),(-0.00468717003241181,-0.00144999998155981,
0.00369946006685496),(-0.00468717003241181,0.,0.000202440001885407),(-0.00468717003241181,
0.,0.00369946006685496),(-0.00468717003241181,0.00144999998155981,0.000202440001885407),
(-0.00468717003241181,0.00144999998155981,0.00369946006685496),(-0.00459210993722081,
-0.00144999998155981,0.000127959996461868),(-0.00459210993722081,-0.00144999998155981,
0.00377393001690507),(-0.00459210993722081,0.,0.000127959996461868),(-0.00459210993722081,
0.,0.00377393001690507),(-0.00459210993722081,0.00144999998155981,0.000127959996461868),
(-0.00459210993722081,0.00144999998155981,0.00377393001690507),(-0.00448876991868019,
-0.00144999998155981,6.54899995424785E-5),(-0.00448876991868019,-0.00144999998155981,
0.00383640010841191),(-0.00448876991868019,0.,6.54899995424785E-5),(-0.00448876991868019,
0.,0.00383640010841191),(-0.00448876991868019,0.00144999998155981,6.54899995424785E-5),
(-0.00448876991868019,0.00144999998155981,0.00383640010841191),(-0.00437864987179637,
-0.00144999998155981,1.59299997903872E-5),(-0.00437864987179637,-0.00144999998155981,
0.00388595997355879),(-0.00437864987179637,0.,1.59299997903872E-5),(-0.00437864987179637,
0.,0.00388595997355879),(-0.00437864987179637,0.00144999998155981,1.59299997903872E-5),
(-0.00437864987179637,0.00144999998155981,0.00388595997355879),(-0.00426336005330086,
-0.00144999998155981,-1.99799997062655E-5),(-0.00426336005330086,-0.00144999998155981,
0.00392189016565681),(-0.00426336005330086,0.,-1.99799997062655E-5),(-0.00426336005330086,
0.,0.00392189016565681),(-0.00426336005330086,0.00144999998155981,-1.99799997062655E-5),
(-0.00426336005330086,0.00144999998155981,0.00392189016565681),(-0.00414458010345697,
-0.00144999998155981,-4.1750001400942E-5),(-0.00414458010345697,-0.00144999998155981,
0.00394365005195141),(-0.00414458010345697,0.,-4.1750001400942E-5),(-0.00414458010345697,
0.,0.00394365005195141),(-0.00414458010345697,0.00144999998155981,-4.1750001400942E-5),
(-0.00414458010345697,0.00144999998155981,0.00394365005195141),(-0.00402403995394707,
-0.00144999998155981,-4.90400016133208E-5),(-0.00402403995394707,-0.00144999998155981,
0.00395095022395253),(-0.00402403995394707,0.00144999998155981,-4.90400016133208E-5),
(-0.00402403995394707,0.00144999998155981,0.00395095022395253),(-0.00200000009499491,
-0.00144999998155981,-0.00697499979287386),(-0.00200000009499491,-0.00144999998155981,
-4.90400016133208E-5),(-0.00200000009499491,-0.00144999998155981,0.00395095022395253),
(-0.00200000009499491,-0.00144999998155981,0.00597500009462237),(-0.00200000009499491,
0.00144999998155981,-0.00697499979287386),(-0.00200000009499491,0.00144999998155981,
-4.90400016133208E-5),(-0.00200000009499491,0.00144999998155981,0.00395095022395253),
(-0.00200000009499491,0.00144999998155981,0.00597500009462237),(-0.00199269992299378,
-0.00144999998155981,0.00609552999958396),(-0.00199269992299378,0.,0.00609552999958396),
(-0.00199269992299378,0.00144999998155981,0.00609552999958396),(-0.00197094003669917,
-0.00144999998155981,0.00621430994942784),(-0.00197094003669917,0.,0.00621430994942784),
(-0.00197094003669917,0.00144999998155981,0.00621430994942784),(-0.00193500996101648,
-0.00144999998155981,0.00632959976792336),(-0.00193500996101648,0.,0.00632959976792336),
(-0.00193500996101648,0.00144999998155981,0.00632959976792336),(-0.00188544997945428,
-0.00144999998155981,0.00643971981480718),(-0.00188544997945428,0.,0.00643971981480718),
(-0.00188544997945428,0.00144999998155981,0.00643971981480718),(-0.00182298000436276,
-0.00144999998155981,0.0065430598333478),(-0.00182298000436276,0.,0.0065430598333478),
(-0.00182298000436276,0.00144999998155981,0.0065430598333478),(-0.00174851005431265,
-0.00144999998155981,0.0066381199285388),(-0.00174851005431265,0.,0.0066381199285388),
(-0.00174851005431265,0.00144999998155981,0.0066381199285388),(-0.0016631199978292,
-0.00144999998155981,0.00672351010143757),(-0.0016631199978292,0.,0.00672351010143757),
(-0.0016631199978292,0.00144999998155981,0.00672351010143757),(-0.00156806001905352,
-0.00144999998155981,0.00679798005148768),(-0.00156806001905352,0.,0.00679798005148768),
(-0.00156806001905352,0.00144999998155981,0.00679798005148768),(-0.0014647200005129,
-0.00144999998155981,0.00686044991016388),(-0.0014647200005129,0.,0.00686044991016388),
(-0.0014647200005129,0.00144999998155981,0.00686044991016388),(-0.00135459995362908,
-0.00144999998155981,0.00691000977531076),(-0.00135459995362908,0.,0.00691000977531076),
(-0.00135459995362908,0.00144999998155981,0.00691000977531076),(-0.00123931001871824,
-0.00144999998155981,0.00694594020023942),(-0.00123931001871824,0.,0.00694594020023942),
(-0.00123931001871824,0.00144999998155981,0.00694594020023942),(-0.00112052995245904,
-0.00144999998155981,0.00696770008653402),(-0.00112052995245904,0.,0.00696770008653402),
(-0.00112052995245904,0.00144999998155981,0.00696770008653402),(-0.00100000004749745,
-0.00144999998155981,0.00697499979287386),(-0.00100000004749745,0.00144999998155981,
0.00697499979287386),(0.000999990035779774,-0.00144999998155981,0.00697499979287386),
(0.000999990035779774,0.00144999998155981,0.00697499979287386),(0.00112052995245904,
-0.00144999998155981,0.00696770008653402),(0.00112052995245904,0.,0.00696770008653402),
(0.00112052995245904,0.00144999998155981,0.00696770008653402),(0.00123931001871824,
-0.00144999998155981,0.00694594020023942),(0.00123931001871824,0.,0.00694594020023942),
(0.00123931001871824,0.00144999998155981,0.00694594020023942),(0.00135459995362908,
-0.00144999998155981,0.00691000977531076),(0.00135459995362908,0.,0.00691000977531076),
(0.00135459995362908,0.00144999998155981,0.00691000977531076),(0.0014647200005129,
-0.00144999998155981,0.00686044991016388),(0.0014647200005129,0.,0.00686044991016388),
(0.0014647200005129,0.00144999998155981,0.00686044991016388),(0.00156806001905352,
-0.00144999998155981,0.00679798005148768),(0.00156806001905352,0.,0.00679798005148768),
(0.00156806001905352,0.00144999998155981,0.00679798005148768),(0.0016631199978292,
-0.00144999998155981,0.00672351010143757),(0.0016631199978292,0.,0.00672351010143757),
(0.0016631199978292,0.00144999998155981,0.00672351010143757),(0.00174851005431265,
-0.00144999998155981,0.0066381199285388),(0.00174851005431265,0.,0.0066381199285388),
(0.00174851005431265,0.00144999998155981,0.0066381199285388),(0.00182298000436276,
-0.00144999998155981,0.0065430598333478),(0.00182298000436276,0.,0.0065430598333478),
(0.00182298000436276,0.00144999998155981,0.0065430598333478),(0.00188544997945428,
-0.00144999998155981,0.00643971981480718),(0.00188544997945428,0.,0.00643971981480718),
(0.00188544997945428,0.00144999998155981,0.00643971981480718),(0.00193500996101648,
-0.00144999998155981,0.00632959976792336),(0.00193500996101648,0.,0.00632959976792336),
(0.00193500996101648,0.00144999998155981,0.00632959976792336),(0.00197094003669917,
-0.00144999998155981,0.00621430994942784),(0.00197094003669917,0.,0.00621430994942784),
(0.00197094003669917,0.00144999998155981,0.00621430994942784),(0.00199269992299378,
-0.00144999998155981,0.00609552999958396),(0.00199269992299378,0.,0.00609552999958396),
(0.00199269992299378,0.00144999998155981,0.00609552999958396),(0.00199999008327723,
-0.00144999998155981,-0.00697499979287386),(0.00199999008327723,-0.00144999998155981,
-4.90400016133208E-5),(0.00199999008327723,-0.00144999998155981,0.00395095022395253),
(0.00199999008327723,-0.00144999998155981,0.00597500009462237),(0.00199999008327723,
0.00144999998155981,-0.00697499979287386),(0.00199999008327723,0.00144999998155981,
-4.90400016133208E-5),(0.00199999008327723,0.00144999998155981,0.00395095022395253),
(0.00199999008327723,0.00144999998155981,0.00597500009462237),(0.00402403995394707,
-0.00144999998155981,-4.90400016133208E-5),(0.00402403995394707,-0.00144999998155981,
0.00395095022395253),(0.00402403995394707,0.00144999998155981,-4.90400016133208E-5),
(0.00402403995394707,0.00144999998155981,0.00395095022395253),(0.00414458010345697,
-0.00144999998155981,-4.1750001400942E-5),(0.00414458010345697,-0.00144999998155981,
0.00394365005195141),(0.00414458010345697,0.,-4.1750001400942E-5),(0.00414458010345697,
0.,0.00394365005195141),(0.00414458010345697,0.00144999998155981,-4.1750001400942E-5),
(0.00414458010345697,0.00144999998155981,0.00394365005195141),(0.00426336005330086,
-0.00144999998155981,-1.99799997062655E-5),(0.00426336005330086,-0.00144999998155981,
0.00392189016565681),(0.00426336005330086,0.,-1.99799997062655E-5),(0.00426336005330086,
0.,0.00392189016565681),(0.00426336005330086,0.00144999998155981,-1.99799997062655E-5),
(0.00426336005330086,0.00144999998155981,0.00392189016565681),(0.00437864987179637,
-0.00144999998155981,1.59299997903872E-5),(0.00437864987179637,-0.00144999998155981,
0.00388595997355879),(0.00437864987179637,0.,1.59299997903872E-5),(0.00437864987179637,
0.,0.00388595997355879),(0.00437864987179637,0.00144999998155981,1.59299997903872E-5),
(0.00437864987179637,0.00144999998155981,0.00388595997355879),(0.00448876991868019,
-0.00144999998155981,6.54899995424785E-5),(0.00448876991868019,-0.00144999998155981,
0.00383640010841191),(0.00448876991868019,0.,6.54899995424785E-5),(0.00448876991868019,
0.,0.00383640010841191),(0.00448876991868019,0.00144999998155981,6.54899995424785E-5),
(0.00448876991868019,0.00144999998155981,0.00383640010841191),(0.00459210993722081,
-0.00144999998155981,0.000127959996461868),(0.00459210993722081,-0.00144999998155981,
0.00377393001690507),(0.00459210993722081,0.,0.000127959996461868),(0.00459210993722081,
0.,0.00377393001690507),(0.00459210993722081,0.00144999998155981,0.000127959996461868),
(0.00459210993722081,0.00144999998155981,0.00377393001690507),(0.00468717003241181,
-0.00144999998155981,0.000202440001885407),(0.00468717003241181,-0.00144999998155981,
0.00369946006685496),(0.00468717003241181,0.,0.000202440001885407),(0.00468717003241181,
0.,0.00369946006685496),(0.00468717003241181,0.00144999998155981,0.000202440001885407),
(0.00468717003241181,0.00144999998155981,0.00369946006685496),(0.00477254996076226,
-0.00144999998155981,0.000287820002995431),(0.00477254996076226,-0.00144999998155981,
0.00361406989395619),(0.00477254996076226,0.,0.000287820002995431),(0.00477254996076226,
0.,0.00361406989395619),(0.00477254996076226,0.00144999998155981,0.000287820002995431),
(0.00477254996076226,0.00144999998155981,0.00361406989395619),(0.0048470301553607,
-0.00144999998155981,0.000382889993488788),(0.0048470301553607,-0.00144999998155981,
0.00351901003159582),(0.0048470301553607,0.,0.000382889993488788),(0.0048470301553607,
0.,0.00351901003159582),(0.0048470301553607,0.00144999998155981,0.000382889993488788),
(0.0048470301553607,0.00144999998155981,0.00351901003159582),(0.00490950001403689,
-0.00144999998155981,0.000486230012029409),(0.00490950001403689,-0.00144999998155981,
0.0034156700130552),(0.00490950001403689,0.,0.000486230012029409),(0.00490950001403689,
0.,0.0034156700130552),(0.00490950001403689,0.00144999998155981,0.000486230012029409),
(0.00490950001403689,0.00144999998155981,0.0034156700130552),(0.00495905987918377,
-0.00144999998155981,0.000596339988987893),(0.00495905987918377,-0.00144999998155981,
0.00330554996617139),(0.00495905987918377,0.,0.000596339988987893),(0.00495905987918377,
0.,0.00330554996617139),(0.00495905987918377,0.00144999998155981,0.000596339988987893),
(0.00495905987918377,0.00144999998155981,0.00330554996617139),(0.00499498005956411,
-0.00144999998155981,0.000711629982106388),(0.00499498005956411,-0.00144999998155981,
0.00319026992656291),(0.00499498005956411,0.,0.000711629982106388),(0.00499498005956411,
0.,0.00319026992656291),(0.00499498005956411,0.00144999998155981,0.000711629982106388),
(0.00499498005956411,0.00144999998155981,0.00319026992656291),(0.00501675019040704,
-0.00144999998155981,0.000830409990157932),(0.00501675019040704,-0.00144999998155981,
0.00307147996500134),(0.00501675019040704,0.,0.000830409990157932),(0.00501675019040704,
0.,0.00307147996500134),(0.00501675019040704,0.00144999998155981,0.000830409990157932),
(0.00501675019040704,0.00144999998155981,0.00307147996500134),(0.00502404011785984,
-0.00144999998155981,0.000950950023252517),(0.00502404011785984,-0.00144999998155981,
0.00295095006003976),(0.00502404011785984,0.00144999998155981,0.000950950023252517),
(0.00502404011785984,0.00144999998155981,0.00295095006003976)));
#29=TESSELLATED_SHELL('Part 1',(#27),$);
#30=SHAPE_DEFINITION_REPRESENTATION(#42,#31);
#31=SHAPE_REPRESENTATION('Part 1',(#32),#37);
#32=AXIS2_PLACEMENT_3D('',#35,#33,#34);
#33=DIRECTION('',(0.,0.,1.));
#34=DIRECTION('',(1.,0.,0.));
#35=CARTESIAN_POINT('',(0.,0.,0.));
#36=MECHANICAL_DESIGN_GEOMETRIC_PRESENTATION_REPRESENTATION('',(#12,#13),
#37);
#37=(
GEOMETRIC_REPRESENTATION_CONTEXT(3)
GLOBAL_UNCERTAINTY_ASSIGNED_CONTEXT((#38))
GLOBAL_UNIT_ASSIGNED_CONTEXT((#41,#40,#39))
REPRESENTATION_CONTEXT('Part 1','TOP_LEVEL_ASSEMBLY_PART')
);
#38=UNCERTAINTY_MEASURE_WITH_UNIT(LENGTH_MEASURE(1.E-8),#41,
'DISTANCE_ACCURACY_VALUE','Maximum Tolerance applied to model');
#39=(
NAMED_UNIT(*)
SI_UNIT($,.STERADIAN.)
SOLID_ANGLE_UNIT()
);
#40=(
NAMED_UNIT(*)
PLANE_ANGLE_UNIT()
SI_UNIT($,.RADIAN.)
);
#41=(
LENGTH_UNIT()
NAMED_UNIT(*)
SI_UNIT($,.METRE.)
);
#42=PRODUCT_DEFINITION_SHAPE('','',#43);
#43=PRODUCT_DEFINITION('','',#45,#44);
#44=PRODUCT_DEFINITION_CONTEXT('',#51,'design');
#45=PRODUCT_DEFINITION_FORMATION_WITH_SPECIFIED_SOURCE('','',#47,
 .NOT_KNOWN.);
#46=PRODUCT_RELATED_PRODUCT_CATEGORY('','',(#47));
#47=PRODUCT('Part 1','Part 1','Part 1',(#49));
#48=PRODUCT_CATEGORY('','');
#49=PRODUCT_CONTEXT('',#51,'mechanical');
#50=APPLICATION_PROTOCOL_DEFINITION('international standard',
'ap242_managed_model_based_3d_engineering',2020,#51);
#51=APPLICATION_CONTEXT('managed model based 3d engineering');
ENDSEC;
END-ISO-10303-21;
