%TF.GenerationSoftware,KiCad,Pcbnew,10.0.1*%
%TF.CreationDate,2026-06-15T11:56:45+02:00*%
%TF.ProjectId,Clock PCB,436c6f63-6b20-4504-9342-2e6b69636164,rev?*%
%TF.SameCoordinates,Original*%
%TF.FileFunction,Paste,Top*%
%TF.FilePolarity,Positive*%
%FSLAX46Y46*%
G04 Gerber Fmt 4.6, Leading zero omitted, Abs format (unit mm)*
G04 Created by KiCad (PCBNEW 10.0.1) date 2026-06-15 11:56:45*
%MOMM*%
%LPD*%
G01*
G04 APERTURE LIST*
G04 Aperture macros list*
%AMRoundRect*
0 Rectangle with rounded corners*
0 $1 Rounding radius*
0 $2 $3 $4 $5 $6 $7 $8 $9 X,Y pos of 4 corners*
0 Add a 4 corners polygon primitive as box body*
4,1,4,$2,$3,$4,$5,$6,$7,$8,$9,$2,$3,0*
0 Add four circle primitives for the rounded corners*
1,1,$1+$1,$2,$3*
1,1,$1+$1,$4,$5*
1,1,$1+$1,$6,$7*
1,1,$1+$1,$8,$9*
0 Add four rect primitives between the rounded corners*
20,1,$1+$1,$2,$3,$4,$5,0*
20,1,$1+$1,$4,$5,$6,$7,0*
20,1,$1+$1,$6,$7,$8,$9,0*
20,1,$1+$1,$8,$9,$2,$3,0*%
G04 Aperture macros list end*
%ADD10C,0.010000*%
%ADD11RoundRect,0.250000X-0.250000X-0.475000X0.250000X-0.475000X0.250000X0.475000X-0.250000X0.475000X0*%
%ADD12RoundRect,0.225000X-0.225000X-0.250000X0.225000X-0.250000X0.225000X0.250000X-0.225000X0.250000X0*%
%ADD13RoundRect,0.135000X0.185000X-0.135000X0.185000X0.135000X-0.185000X0.135000X-0.185000X-0.135000X0*%
%ADD14R,1.800000X0.600000*%
%ADD15R,2.489200X2.209800*%
%ADD16RoundRect,0.135000X-0.185000X0.135000X-0.185000X-0.135000X0.185000X-0.135000X0.185000X0.135000X0*%
G04 APERTURE END LIST*
D10*
%TO.C,S4*%
X126730275Y-157805627D02*
X127230275Y-157805627D01*
X127230275Y-158505627D01*
X126730275Y-158505627D01*
X126730275Y-158705627D01*
X126530275Y-158705627D01*
X126530275Y-157605627D01*
X126730275Y-157605627D01*
X126730275Y-157805627D01*
G36*
X126730275Y-157805627D02*
G01*
X127230275Y-157805627D01*
X127230275Y-158505627D01*
X126730275Y-158505627D01*
X126730275Y-158705627D01*
X126530275Y-158705627D01*
X126530275Y-157605627D01*
X126730275Y-157605627D01*
X126730275Y-157805627D01*
G37*
X126730275Y-161305627D02*
X127230275Y-161305627D01*
X127230275Y-162005627D01*
X126730275Y-162005627D01*
X126730275Y-162205627D01*
X126530275Y-162205627D01*
X126530275Y-161105627D01*
X126730275Y-161105627D01*
X126730275Y-161305627D01*
G36*
X126730275Y-161305627D02*
G01*
X127230275Y-161305627D01*
X127230275Y-162005627D01*
X126730275Y-162005627D01*
X126730275Y-162205627D01*
X126530275Y-162205627D01*
X126530275Y-161105627D01*
X126730275Y-161105627D01*
X126730275Y-161305627D01*
G37*
X131680275Y-158705627D02*
X131480275Y-158705627D01*
X131480275Y-158505627D01*
X130980275Y-158505627D01*
X130980275Y-157805627D01*
X131480275Y-157805627D01*
X131480275Y-157605627D01*
X131680275Y-157605627D01*
X131680275Y-158705627D01*
G36*
X131680275Y-158705627D02*
G01*
X131480275Y-158705627D01*
X131480275Y-158505627D01*
X130980275Y-158505627D01*
X130980275Y-157805627D01*
X131480275Y-157805627D01*
X131480275Y-157605627D01*
X131680275Y-157605627D01*
X131680275Y-158705627D01*
G37*
X131680275Y-162205627D02*
X131480275Y-162205627D01*
X131480275Y-162005627D01*
X130980275Y-162005627D01*
X130980275Y-161305627D01*
X131480275Y-161305627D01*
X131480275Y-161105627D01*
X131680275Y-161105627D01*
X131680275Y-162205627D01*
G36*
X131680275Y-162205627D02*
G01*
X131480275Y-162205627D01*
X131480275Y-162005627D01*
X130980275Y-162005627D01*
X130980275Y-161305627D01*
X131480275Y-161305627D01*
X131480275Y-161105627D01*
X131680275Y-161105627D01*
X131680275Y-162205627D01*
G37*
%TO.C,S3*%
X126750000Y-44905627D02*
X127250000Y-44905627D01*
X127250000Y-45605627D01*
X126750000Y-45605627D01*
X126750000Y-45805627D01*
X126550000Y-45805627D01*
X126550000Y-44705627D01*
X126750000Y-44705627D01*
X126750000Y-44905627D01*
G36*
X126750000Y-44905627D02*
G01*
X127250000Y-44905627D01*
X127250000Y-45605627D01*
X126750000Y-45605627D01*
X126750000Y-45805627D01*
X126550000Y-45805627D01*
X126550000Y-44705627D01*
X126750000Y-44705627D01*
X126750000Y-44905627D01*
G37*
X126750000Y-48405627D02*
X127250000Y-48405627D01*
X127250000Y-49105627D01*
X126750000Y-49105627D01*
X126750000Y-49305627D01*
X126550000Y-49305627D01*
X126550000Y-48205627D01*
X126750000Y-48205627D01*
X126750000Y-48405627D01*
G36*
X126750000Y-48405627D02*
G01*
X127250000Y-48405627D01*
X127250000Y-49105627D01*
X126750000Y-49105627D01*
X126750000Y-49305627D01*
X126550000Y-49305627D01*
X126550000Y-48205627D01*
X126750000Y-48205627D01*
X126750000Y-48405627D01*
G37*
X131700000Y-45805627D02*
X131500000Y-45805627D01*
X131500000Y-45605627D01*
X131000000Y-45605627D01*
X131000000Y-44905627D01*
X131500000Y-44905627D01*
X131500000Y-44705627D01*
X131700000Y-44705627D01*
X131700000Y-45805627D01*
G36*
X131700000Y-45805627D02*
G01*
X131500000Y-45805627D01*
X131500000Y-45605627D01*
X131000000Y-45605627D01*
X131000000Y-44905627D01*
X131500000Y-44905627D01*
X131500000Y-44705627D01*
X131700000Y-44705627D01*
X131700000Y-45805627D01*
G37*
X131700000Y-49305627D02*
X131500000Y-49305627D01*
X131500000Y-49105627D01*
X131000000Y-49105627D01*
X131000000Y-48405627D01*
X131500000Y-48405627D01*
X131500000Y-48205627D01*
X131700000Y-48205627D01*
X131700000Y-49305627D01*
G36*
X131700000Y-49305627D02*
G01*
X131500000Y-49305627D01*
X131500000Y-49105627D01*
X131000000Y-49105627D01*
X131000000Y-48405627D01*
X131500000Y-48405627D01*
X131500000Y-48205627D01*
X131700000Y-48205627D01*
X131700000Y-49305627D01*
G37*
%TD*%
D11*
%TO.C,10uF*%
X127500000Y-62975000D03*
X129400000Y-62975000D03*
%TD*%
D12*
%TO.C,100nF*%
X127475000Y-61150000D03*
X129025000Y-61150000D03*
%TD*%
D13*
%TO.C,10Kohm*%
X134650000Y-62490000D03*
X134650000Y-63510000D03*
%TD*%
%TO.C,10Kohm*%
X132800000Y-62465000D03*
X132800000Y-63485000D03*
%TD*%
D14*
%TO.C,J7*%
X109465000Y-99205627D03*
X109465000Y-100205627D03*
X109465000Y-101205627D03*
X109465000Y-102205627D03*
X109465000Y-103205627D03*
X109465000Y-104205627D03*
X109465000Y-105205627D03*
X109465000Y-106205627D03*
X109465000Y-107205627D03*
X109465000Y-108205627D03*
X109465000Y-109205627D03*
X109465000Y-110205627D03*
X109465000Y-111205627D03*
X109465000Y-112205627D03*
X109465000Y-113205627D03*
D15*
X106925000Y-96605627D03*
X106925000Y-115805627D03*
%TD*%
D13*
%TO.C,10Kohm*%
X132000000Y-155485000D03*
X132000000Y-154465000D03*
%TD*%
D16*
%TO.C,10Kohm*%
X123100000Y-49990000D03*
X123100000Y-51010000D03*
%TD*%
M02*
