%TF.GenerationSoftware,KiCad,Pcbnew,10.0.1*%
%TF.CreationDate,2026-06-15T11:56:45+02:00*%
%TF.ProjectId,Clock PCB,436c6f63-6b20-4504-9342-2e6b69636164,rev?*%
%TF.SameCoordinates,Original*%
%TF.FileFunction,Soldermask,Top*%
%TF.FilePolarity,Negative*%
%FSLAX46Y46*%
G04 Gerber Fmt 4.6, Leading zero omitted, Abs format (unit mm)*
G04 Created by KiCad (PCBNEW 10.0.1) date 2026-06-15 11:56:45*
%MOMM*%
%LPD*%
G01*
G04 APERTURE LIST*
G04 Aperture macros list*
%AMRoundRect*
0 Rectangle with rounded corners*
0 $1 Rounding radius*
0 $2 $3 $4 $5 $6 $7 $8 $9 X,Y pos of 4 corners*
0 Add a 4 corners polygon primitive as box body*
4,1,4,$2,$3,$4,$5,$6,$7,$8,$9,$2,$3,0*
0 Add four circle primitives for the rounded corners*
1,1,$1+$1,$2,$3*
1,1,$1+$1,$4,$5*
1,1,$1+$1,$6,$7*
1,1,$1+$1,$8,$9*
0 Add four rect primitives between the rounded corners*
20,1,$1+$1,$2,$3,$4,$5,0*
20,1,$1+$1,$4,$5,$6,$7,0*
20,1,$1+$1,$6,$7,$8,$9,0*
20,1,$1+$1,$8,$9,$2,$3,0*%
G04 Aperture macros list end*
%ADD10C,0.010000*%
%ADD11RoundRect,0.250000X-0.250000X-0.475000X0.250000X-0.475000X0.250000X0.475000X-0.250000X0.475000X0*%
%ADD12RoundRect,0.225000X-0.225000X-0.250000X0.225000X-0.250000X0.225000X0.250000X-0.225000X0.250000X0*%
%ADD13C,1.712000*%
%ADD14RoundRect,0.102000X-0.754000X-0.754000X0.754000X-0.754000X0.754000X0.754000X-0.754000X0.754000X0*%
%ADD15C,3.000000*%
%ADD16RoundRect,0.135000X0.185000X-0.135000X0.185000X0.135000X-0.185000X0.135000X-0.185000X-0.135000X0*%
%ADD17RoundRect,0.102000X-0.900000X0.300000X-0.900000X-0.300000X0.900000X-0.300000X0.900000X0.300000X0*%
%ADD18RoundRect,0.102000X-1.244600X1.104900X-1.244600X-1.104900X1.244600X-1.104900X1.244600X1.104900X0*%
%ADD19C,3.200000*%
%ADD20RoundRect,0.135000X-0.185000X0.135000X-0.185000X-0.135000X0.185000X-0.135000X0.185000X0.135000X0*%
G04 APERTURE END LIST*
D10*
%TO.C,S4*%
X126830275Y-157705627D02*
X127330275Y-157705627D01*
X127330275Y-158605627D01*
X126830275Y-158605627D01*
X126830275Y-158805627D01*
X126430275Y-158805627D01*
X126430275Y-157505627D01*
X126830275Y-157505627D01*
X126830275Y-157705627D01*
G36*
X126830275Y-157705627D02*
G01*
X127330275Y-157705627D01*
X127330275Y-158605627D01*
X126830275Y-158605627D01*
X126830275Y-158805627D01*
X126430275Y-158805627D01*
X126430275Y-157505627D01*
X126830275Y-157505627D01*
X126830275Y-157705627D01*
G37*
X126830275Y-161205627D02*
X127330275Y-161205627D01*
X127330275Y-162105627D01*
X126830275Y-162105627D01*
X126830275Y-162305627D01*
X126430275Y-162305627D01*
X126430275Y-161005627D01*
X126830275Y-161005627D01*
X126830275Y-161205627D01*
G36*
X126830275Y-161205627D02*
G01*
X127330275Y-161205627D01*
X127330275Y-162105627D01*
X126830275Y-162105627D01*
X126830275Y-162305627D01*
X126430275Y-162305627D01*
X126430275Y-161005627D01*
X126830275Y-161005627D01*
X126830275Y-161205627D01*
G37*
X131780275Y-158805627D02*
X131380275Y-158805627D01*
X131380275Y-158605627D01*
X130880275Y-158605627D01*
X130880275Y-157705627D01*
X131380275Y-157705627D01*
X131380275Y-157505627D01*
X131780275Y-157505627D01*
X131780275Y-158805627D01*
G36*
X131780275Y-158805627D02*
G01*
X131380275Y-158805627D01*
X131380275Y-158605627D01*
X130880275Y-158605627D01*
X130880275Y-157705627D01*
X131380275Y-157705627D01*
X131380275Y-157505627D01*
X131780275Y-157505627D01*
X131780275Y-158805627D01*
G37*
X131780275Y-162305627D02*
X131380275Y-162305627D01*
X131380275Y-162105627D01*
X130880275Y-162105627D01*
X130880275Y-161205627D01*
X131380275Y-161205627D01*
X131380275Y-161005627D01*
X131780275Y-161005627D01*
X131780275Y-162305627D01*
G36*
X131780275Y-162305627D02*
G01*
X131380275Y-162305627D01*
X131380275Y-162105627D01*
X130880275Y-162105627D01*
X130880275Y-161205627D01*
X131380275Y-161205627D01*
X131380275Y-161005627D01*
X131780275Y-161005627D01*
X131780275Y-162305627D01*
G37*
%TO.C,S3*%
X126850000Y-44805627D02*
X127350000Y-44805627D01*
X127350000Y-45705627D01*
X126850000Y-45705627D01*
X126850000Y-45905627D01*
X126450000Y-45905627D01*
X126450000Y-44605627D01*
X126850000Y-44605627D01*
X126850000Y-44805627D01*
G36*
X126850000Y-44805627D02*
G01*
X127350000Y-44805627D01*
X127350000Y-45705627D01*
X126850000Y-45705627D01*
X126850000Y-45905627D01*
X126450000Y-45905627D01*
X126450000Y-44605627D01*
X126850000Y-44605627D01*
X126850000Y-44805627D01*
G37*
X126850000Y-48305627D02*
X127350000Y-48305627D01*
X127350000Y-49205627D01*
X126850000Y-49205627D01*
X126850000Y-49405627D01*
X126450000Y-49405627D01*
X126450000Y-48105627D01*
X126850000Y-48105627D01*
X126850000Y-48305627D01*
G36*
X126850000Y-48305627D02*
G01*
X127350000Y-48305627D01*
X127350000Y-49205627D01*
X126850000Y-49205627D01*
X126850000Y-49405627D01*
X126450000Y-49405627D01*
X126450000Y-48105627D01*
X126850000Y-48105627D01*
X126850000Y-48305627D01*
G37*
X131800000Y-45905627D02*
X131400000Y-45905627D01*
X131400000Y-45705627D01*
X130900000Y-45705627D01*
X130900000Y-44805627D01*
X131400000Y-44805627D01*
X131400000Y-44605627D01*
X131800000Y-44605627D01*
X131800000Y-45905627D01*
G36*
X131800000Y-45905627D02*
G01*
X131400000Y-45905627D01*
X131400000Y-45705627D01*
X130900000Y-45705627D01*
X130900000Y-44805627D01*
X131400000Y-44805627D01*
X131400000Y-44605627D01*
X131800000Y-44605627D01*
X131800000Y-45905627D01*
G37*
X131800000Y-49405627D02*
X131400000Y-49405627D01*
X131400000Y-49205627D01*
X130900000Y-49205627D01*
X130900000Y-48305627D01*
X131400000Y-48305627D01*
X131400000Y-48105627D01*
X131800000Y-48105627D01*
X131800000Y-49405627D01*
G36*
X131800000Y-49405627D02*
G01*
X131400000Y-49405627D01*
X131400000Y-49205627D01*
X130900000Y-49205627D01*
X130900000Y-48305627D01*
X131400000Y-48305627D01*
X131400000Y-48105627D01*
X131800000Y-48105627D01*
X131800000Y-49405627D01*
G37*
%TD*%
D11*
%TO.C,10uF*%
X127500000Y-62975000D03*
X129400000Y-62975000D03*
%TD*%
D12*
%TO.C,100nF*%
X127475000Y-61150000D03*
X129025000Y-61150000D03*
%TD*%
D13*
%TO.C,REF\u002A\u002A*%
X135195000Y-67175000D03*
X132655000Y-67175000D03*
X130115000Y-67175000D03*
D14*
X127575000Y-67175000D03*
D15*
X143325000Y-66675000D03*
X143825000Y-135675000D03*
X119075000Y-135675000D03*
X118825000Y-66675000D03*
%TD*%
D16*
%TO.C,10Kohm*%
X134650000Y-62490000D03*
X134650000Y-63510000D03*
%TD*%
%TO.C,10Kohm*%
X132800000Y-62465000D03*
X132800000Y-63485000D03*
%TD*%
D17*
%TO.C,J7*%
X109465000Y-99205627D03*
X109465000Y-100205627D03*
X109465000Y-101205627D03*
X109465000Y-102205627D03*
X109465000Y-103205627D03*
X109465000Y-104205627D03*
X109465000Y-105205627D03*
X109465000Y-106205627D03*
X109465000Y-107205627D03*
X109465000Y-108205627D03*
X109465000Y-109205627D03*
X109465000Y-110205627D03*
X109465000Y-111205627D03*
X109465000Y-112205627D03*
X109465000Y-113205627D03*
D18*
X106925000Y-96605627D03*
X106925000Y-115805627D03*
%TD*%
D19*
%TO.C,UL*%
X107625000Y-29505627D03*
%TD*%
D16*
%TO.C,10Kohm*%
X132000000Y-155485000D03*
X132000000Y-154465000D03*
%TD*%
D20*
%TO.C,10Kohm*%
X123100000Y-49990000D03*
X123100000Y-51010000D03*
%TD*%
D19*
%TO.C,DR*%
X150525000Y-177405627D03*
%TD*%
%TO.C,DL*%
X107625000Y-177405627D03*
%TD*%
%TO.C,UR*%
X150525000Y-29505627D03*
%TD*%
M02*
