ISO-10303-21;
HEADER;
/* Generated by software containing ST-Developer
 * from STEP Tools, Inc. (www.steptools.com) 
 */
/* OPTION: using custom renumber hook */

FILE_DESCRIPTION(
/* description */ ('STEP AP242 Edition 2',
'CAx-IF Rec.Pracs.---Representation and Presentation of Product Manufa
cturing Information (PMI)---4.0---2014-10-13',
'CAx-IF Rec.Pracs.---3D Tessellated Geometry---0.4---2014-09-14','2;1',
'CAx-IF Rec.Pracs.---User Defined Attributes---1.5---2016-08-15'),
/* implementation_level */ '2;1');

FILE_NAME(
/* name */ 'Chess Board Lid',
/* time_stamp */ '2026-06-17T10:54:37Z',
/* author */ (''),
/* organization */ (''),
/* preprocessor_version */ 'ST-DEVELOPER v20',
/* originating_system */ 'ONSHAPE BY PTC INC, 1.216',
/* authorisation */ '  ');

FILE_SCHEMA (('AP242_MANAGED_MODEL_BASED_3D_ENGINEERING_MIM_LF { 1 0 10303 442 3 1 4 }'));
ENDSEC;

DATA;
#10=CONTEXT_DEPENDENT_SHAPE_REPRESENTATION(#12,#49);
#11=NEXT_ASSEMBLY_USAGE_OCCURRENCE('NAUO1','Part 1','Part 1',#50,#51,'');
#12=(
REPRESENTATION_RELATIONSHIP(' ',' ',#30,#29)
REPRESENTATION_RELATIONSHIP_WITH_TRANSFORMATION(#13)
SHAPE_REPRESENTATION_RELATIONSHIP()
);
#13=ITEM_DEFINED_TRANSFORMATION(' ',' ',#31,#32);
#14=SHAPE_REPRESENTATION_RELATIONSHIP('','',#30,#15);
#15=TESSELLATED_SHAPE_REPRESENTATION('',(#26),#41);
#16=STYLED_ITEM('',(#17),#26);
#17=PRESENTATION_STYLE_ASSIGNMENT((#18));
#18=SURFACE_STYLE_USAGE(.BOTH.,#19);
#19=SURFACE_SIDE_STYLE('',(#20));
#20=SURFACE_STYLE_FILL_AREA(#21);
#21=FILL_AREA_STYLE('',(#22));
#22=FILL_AREA_STYLE_COLOUR('',#23);
#23=COLOUR_RGB('',0.980392156862745,0.713725490196078,0.00392156862745098);
#24=COMPLEX_TRIANGULATED_FACE('ConvergentBody',#25,120,((0.,-1.,0.),(0.,
0.,1.),(-1.,0.,0.),(-1.,0.,0.),(0.,-1.,0.),(0.,0.,-1.),(0.,-1.,0.),(0.,
0.,-1.),(1.,0.,0.),(-1.,0.,0.),(0.,0.,1.),(0.,1.,0.),(0.,-1.,0.),(1.,0.,
0.),(0.,0.,1.),(0.,0.,1.),(-1.,0.,0.),(0.,1.,0.),(0.,1.,0.),(0.,0.,-1.),
(-1.,0.,0.),(-1.,0.,0.),(0.,1.,0.),(0.,0.,-1.),(0.,0.,-1.),(1.,0.,0.),(0.,
1.,0.),(0.,0.,-1.),(1.,0.,0.),(0.,1.,0.),(1.,0.,0.),(0.,1.,0.),(0.,0.,1.),
(0.,1.,0.),(0.,0.,1.),(1.,0.,0.),(0.,0.,1.),(1.,0.,0.),(0.,1.,0.),(0.,1.,
0.),(0.,0.,-1.),(1.,0.,0.),(0.,0.,1.),(0.,1.,0.),(-1.,0.,0.),(0.,0.,1.),
(1.,0.,0.),(0.,1.,0.),(1.,0.,0.),(0.,1.,0.),(0.,0.,-1.),(0.,0.,-1.),(-1.,
0.,0.),(0.,1.,0.),(0.,0.,-1.),(-1.,0.,0.),(0.,1.,0.),(-1.,0.,0.),(0.,1.,
0.),(0.,0.,1.),(0.,1.,0.),(0.,0.,-1.),(1.,0.,0.),(-1.,0.,0.),(0.,1.,0.),
(0.,0.,-1.),(0.,1.,0.),(0.,0.,-1.),(-1.,0.,0.),(1.,0.,0.),(0.,0.,-1.),(0.,
1.,0.),(0.,0.,-1.),(0.,1.,0.),(1.,0.,0.),(0.,1.,0.),(-1.,0.,0.),(0.,0.,
-1.),(0.,1.,0.),(1.,0.,0.),(0.,0.,1.),(1.,0.,0.),(0.,0.,1.),(0.,1.,0.),
(-1.,0.,0.),(0.,0.,1.),(0.,1.,0.),(0.,0.,1.),(0.,1.,0.),(-1.,0.,0.),(0.,
1.,0.),(1.,0.,0.),(0.,0.,1.),(0.,0.,1.),(0.,1.,0.),(-1.,0.,0.),(0.,1.,0.),
(-1.,0.,0.),(0.,0.,-1.),(0.,0.,1.),(0.,1.,0.),(-1.,0.,0.),(0.,1.,0.),(0.,
0.,1.),(1.,0.,0.),(0.,0.,-1.),(0.,1.,0.),(1.,0.,0.),(0.,0.,-1.),(0.,1.,
0.),(1.,0.,0.),(-1.,0.,0.),(0.,1.,0.),(0.,0.,-1.),(1.,0.,0.),(0.,1.,0.),
(0.,0.,1.),(0.,1.,0.),(0.,0.,1.),(-1.,0.,0.)),$,(2,2,2,1,1,1,37,37,37,4,
4,4,38,38,38,6,6,6,5,5,5,3,3,3,39,39,39,29,29,29,40,40,40,30,30,30,31,31,
31,33,33,33,12,12,12,36,36,36,32,32,32,8,8,8,9,9,9,7,7,7,20,20,20,11,11,
11,16,16,16,35,35,35,28,28,28,24,24,24,27,27,27,34,34,34,10,10,10,15,15,
15,19,19,19,23,23,23,14,14,14,13,13,13,25,25,25,26,26,26,18,18,18,22,22,
22,17,17,17,21,21,21),((1,5,7),(4,3,10),(7,13,1),(2,15,16),(16,11,2),(20,
8,6),(10,22,4),(6,24,20),(14,9,26),(28,25,8),(8,20,28),(26,31,14),(15,33,
35),(35,16,15),(34,32,27),(27,30,34),(38,36,29),(41,28,20),(29,42,38),(43,
16,35),(35,46,43),(47,36,49),(38,49,36),(19,23,12),(12,18,19),(53,21,17),
(17,45,53),(20,55,41),(56,21,58),(53,58,21),(61,44,48),(45,64,53),(67,65,
44),(61,67,44),(49,70,47),(48,72,74),(76,48,74),(48,76,61),(40,57,79),(42,
82,38),(79,84,40),(58,85,56),(57,87,89),(91,57,89),(95,79,57),(57,91,95),
(59,54,97),(52,66,68),(68,99,52),(86,60,100),(97,101,59),(100,88,86),(98,
69,90),(61,89,67),(90,102,98),(89,61,91),(50,39,103),(37,83,81),(81,104,
37),(71,51,106),(103,107,50),(106,73,71),(105,80,75),(95,74,79),(75,108,
105),(74,95,76),(109,62,78),(112,77,96),(78,114,109),(115,92,63),(63,111,
115),(119,94,93),(93,117,119),(96,120,112),(113,118,116),(116,110,113)),
());
#25=COORDINATES_LIST('',40,((-0.155849990844727,-0.171,-0.00272500014305115),
(-0.155849990844727,-0.171,0.00272500014305115),(-0.155849990844727,-0.168,
-0.00272500014305115),(-0.155849990844727,-0.168,0.00272500014305115),(-0.152949996948242,
-0.168,-0.00272500014305115),(-0.152949996948242,-0.168,0.00272500014305115),
(-0.152949996948242,0.168899993896484,-0.00252500009536743),(-0.152949996948242,
0.168899993896484,0.00247499966621399),(-0.152949996948242,0.171,-0.00272500014305115),
(-0.152949996948242,0.171,-0.00252500009536743),(-0.152949996948242,0.171,
0.00247499966621399),(-0.152949996948242,0.171,0.00272500014305115),(-0.142949996948242,
0.168899993896484,-0.00252500009536743),(-0.142949996948242,0.168899993896484,
0.00247499966621399),(-0.142949996948242,0.171,-0.00252500009536743),(-0.142949996948242,
0.171,0.00247499966621399),(-0.00494999980926514,0.168899993896484,-0.00252500009536743),
(-0.00494999980926514,0.168899993896484,0.00247499966621399),(-0.00494999980926514,
0.171,-0.00252500009536743),(-0.00494999980926514,0.171,0.00247499966621399),
(0.00504999017715454,0.168899993896484,-0.00252500009536743),(0.00504999017715454,
0.168899993896484,0.00247499966621399),(0.00504999017715454,0.171,-0.00252500009536743),
(0.00504999017715454,0.171,0.00247499966621399),(0.142949996948242,0.168899993896484,
-0.00252786016464234),(0.142949996948242,0.168899993896484,0.00247213959693909),
(0.142949996948242,0.171,-0.00252786016464234),(0.142949996948242,0.171,
0.00247213959693909),(0.152949996948242,-0.168,-0.00272500014305115),(0.152949996948242,
-0.168,0.00272500014305115),(0.152949996948242,0.168899993896484,-0.00252786016464234),
(0.152949996948242,0.168899993896484,0.00247213959693909),(0.152949996948242,
0.171,-0.00272500014305115),(0.152949996948242,0.171,-0.00252786016464234),
(0.152949996948242,0.171,0.00247213959693909),(0.152949996948242,0.171,
0.00272500014305115),(0.155849990844727,-0.171,-0.00272500014305115),(0.155849990844727,
-0.171,0.00272500014305115),(0.155849990844727,-0.168,-0.00272500014305115),
(0.155849990844727,-0.168,0.00272500014305115)));
#26=TESSELLATED_SHELL('Part 1',(#24),$);
#27=SHAPE_DEFINITION_REPRESENTATION(#47,#29);
#28=SHAPE_DEFINITION_REPRESENTATION(#48,#30);
#29=SHAPE_REPRESENTATION('Chess Board Lid',(#31,#32),#40);
#30=SHAPE_REPRESENTATION('Part 1',(#31),#41);
#31=AXIS2_PLACEMENT_3D('',#37,#33,#34);
#32=AXIS2_PLACEMENT_3D('',#38,#35,#36);
#33=DIRECTION('',(0.,0.,1.));
#34=DIRECTION('',(1.,0.,0.));
#35=DIRECTION('',(0.,0.,1.));
#36=DIRECTION('',(1.,0.,0.));
#37=CARTESIAN_POINT('',(0.,0.,0.));
#38=CARTESIAN_POINT('',(0.2,0.2,0.00272500014305115));
#39=MECHANICAL_DESIGN_GEOMETRIC_PRESENTATION_REPRESENTATION('',(#16),#40);
#40=(
GEOMETRIC_REPRESENTATION_CONTEXT(3)
GLOBAL_UNCERTAINTY_ASSIGNED_CONTEXT((#42))
GLOBAL_UNIT_ASSIGNED_CONTEXT((#46,#45,#44))
REPRESENTATION_CONTEXT('Chess Board Lid','TOP_LEVEL_ASSEMBLY_PART')
);
#41=(
GEOMETRIC_REPRESENTATION_CONTEXT(3)
GLOBAL_UNCERTAINTY_ASSIGNED_CONTEXT((#43))
GLOBAL_UNIT_ASSIGNED_CONTEXT((#46,#45,#44))
REPRESENTATION_CONTEXT('Part 1','COMPONENT_PART')
);
#42=UNCERTAINTY_MEASURE_WITH_UNIT(LENGTH_MEASURE(1.E-8),#46,
'DISTANCE_ACCURACY_VALUE','Maximum Tolerance applied to model');
#43=UNCERTAINTY_MEASURE_WITH_UNIT(LENGTH_MEASURE(1.E-8),#46,
'DISTANCE_ACCURACY_VALUE','Maximum Tolerance applied to model');
#44=(
NAMED_UNIT(*)
SI_UNIT($,.STERADIAN.)
SOLID_ANGLE_UNIT()
);
#45=(
NAMED_UNIT(*)
PLANE_ANGLE_UNIT()
SI_UNIT($,.RADIAN.)
);
#46=(
LENGTH_UNIT()
NAMED_UNIT(*)
SI_UNIT($,.METRE.)
);
#47=PRODUCT_DEFINITION_SHAPE('','',#50);
#48=PRODUCT_DEFINITION_SHAPE('','',#51);
#49=PRODUCT_DEFINITION_SHAPE(' ','NAUO PRDDFN',#11);
#50=PRODUCT_DEFINITION('','',#54,#52);
#51=PRODUCT_DEFINITION('','',#55,#53);
#52=PRODUCT_DEFINITION_CONTEXT('',#65,'design');
#53=PRODUCT_DEFINITION_CONTEXT('',#65,'design');
#54=PRODUCT_DEFINITION_FORMATION_WITH_SPECIFIED_SOURCE('','',#58,
 .NOT_KNOWN.);
#55=PRODUCT_DEFINITION_FORMATION_WITH_SPECIFIED_SOURCE('','',#59,
 .NOT_KNOWN.);
#56=PRODUCT_RELATED_PRODUCT_CATEGORY('','',(#58));
#57=PRODUCT_RELATED_PRODUCT_CATEGORY('','',(#59));
#58=PRODUCT('Chess Board Lid','Chess Board Lid','Chess Board Lid',(#62));
#59=PRODUCT('Part 1','Part 1','Part 1',(#63));
#60=PRODUCT_CATEGORY('','');
#61=PRODUCT_CATEGORY('','');
#62=PRODUCT_CONTEXT('',#65,'mechanical');
#63=PRODUCT_CONTEXT('',#65,'mechanical');
#64=APPLICATION_PROTOCOL_DEFINITION('international standard',
'ap242_managed_model_based_3d_engineering',2020,#65);
#65=APPLICATION_CONTEXT('managed model based 3d engineering');
ENDSEC;
END-ISO-10303-21;
