%TF.GenerationSoftware,KiCad,Pcbnew,10.0.1*%
%TF.CreationDate,2026-06-15T09:04:18+02:00*%
%TF.ProjectId,StockfishChess,53746f63-6b66-4697-9368-43686573732e,rev?*%
%TF.SameCoordinates,Original*%
%TF.FileFunction,Copper,L4,Bot*%
%TF.FilePolarity,Positive*%
%FSLAX46Y46*%
G04 Gerber Fmt 4.6, Leading zero omitted, Abs format (unit mm)*
G04 Created by KiCad (PCBNEW 10.0.1) date 2026-06-15 09:04:18*
%MOMM*%
%LPD*%
G01*
G04 APERTURE LIST*
%TA.AperFunction,ComponentPad*%
%ADD10C,1.980000*%
%TD*%
%TA.AperFunction,ComponentPad*%
%ADD11C,1.358000*%
%TD*%
%TA.AperFunction,HeatsinkPad*%
%ADD12C,0.600000*%
%TD*%
%TA.AperFunction,ComponentPad*%
%ADD13C,1.700000*%
%TD*%
%TA.AperFunction,ViaPad*%
%ADD14C,0.800000*%
%TD*%
%TA.AperFunction,ViaPad*%
%ADD15C,0.600000*%
%TD*%
%TA.AperFunction,ViaPad*%
%ADD16C,1.000000*%
%TD*%
%TA.AperFunction,ViaPad*%
%ADD17C,0.900000*%
%TD*%
%TA.AperFunction,ViaPad*%
%ADD18C,0.700000*%
%TD*%
%TA.AperFunction,ViaPad*%
%ADD19C,0.500000*%
%TD*%
%TA.AperFunction,Conductor*%
%ADD20C,0.200000*%
%TD*%
G04 APERTURE END LIST*
D10*
%TO.P,REF\u002A\u002A,N*%
%TO.N,Net-(BT1-PadN)*%
X81135586Y-90209414D03*
%TO.P,REF\u002A\u002A,P*%
%TO.N,VBUS*%
X153355586Y-90209414D03*
%TD*%
%TO.P,REF\u002A\u002A,N*%
%TO.N,GND*%
X153355586Y-112209414D03*
%TO.P,REF\u002A\u002A,P*%
%TO.N,Net-(BT1-PadN)*%
X81135586Y-112209414D03*
%TD*%
D11*
%TO.P,U145,P$1*%
%TO.N,VBUS*%
X161585586Y-104739414D03*
%TO.P,U145,P$2*%
X166635586Y-106739414D03*
%TD*%
D12*
%TO.P,U1,41,GND_41*%
%TO.N,GND*%
X105225000Y-55635000D03*
X106725000Y-55635000D03*
X104475000Y-54885000D03*
X105975000Y-54885000D03*
X107475000Y-54885000D03*
X105225000Y-54135000D03*
X106725000Y-54135000D03*
X104475000Y-53385000D03*
X105975000Y-53385000D03*
X107475000Y-53385000D03*
X105225000Y-52635000D03*
X106725000Y-52635000D03*
%TD*%
D13*
%TO.P,REF\u002A\u002A,1*%
%TO.N,GND*%
X125150000Y-38700000D03*
%TO.N,N/C*%
X131650000Y-38700000D03*
%TO.P,REF\u002A\u002A,2*%
%TO.N,Net-(U1-IO0)*%
X125150000Y-43200000D03*
%TO.N,N/C*%
X131650000Y-43200000D03*
%TD*%
D11*
%TO.P,U146,P$1*%
%TO.N,VBUS*%
X103500000Y-150975000D03*
%TO.P,U146,P$2*%
X105500000Y-145925000D03*
%TD*%
D14*
%TO.N,VBUS*%
X159285586Y-95239414D03*
D15*
%TO.N,GND*%
X122785586Y-134589414D03*
D16*
X100850000Y-41700000D03*
D14*
X113400000Y-64775000D03*
D16*
X160960686Y-56539414D03*
X100685586Y-63439414D03*
X156785586Y-110339414D03*
D17*
X139675000Y-143525000D03*
D16*
X129856142Y-148675000D03*
D18*
X120700000Y-140025000D03*
D14*
X97902461Y-142656289D03*
D15*
X110015586Y-144814414D03*
X121285586Y-138589414D03*
X103975000Y-66225000D03*
X102585586Y-38339414D03*
D19*
X106385586Y-142239414D03*
D15*
X107035586Y-136339414D03*
X113200000Y-150825000D03*
D19*
X112219336Y-140100000D03*
D16*
X84969336Y-146839414D03*
D14*
X109250000Y-147839414D03*
X108948086Y-142289414D03*
D19*
X92719336Y-144589414D03*
D16*
X120875000Y-153650000D03*
X95969336Y-146839414D03*
D17*
X145925000Y-152850000D03*
D16*
%TO.N,+5V*%
X136675000Y-148425000D03*
D19*
%TO.N,+3.3V*%
X137600000Y-132575000D03*
%TO.N,Net-(R24-Pad1)*%
X114450000Y-74450000D03*
X101100000Y-140525000D03*
%TO.N,Net-(R25-Pad1)*%
X113650000Y-73525000D03*
X99950000Y-139500000D03*
%TD*%
%TO.N,Net-(R24-Pad1)*%
D20*
X101100000Y-87800000D02*
X101100000Y-140525000D01*
X114450000Y-74450000D02*
X101100000Y-87800000D01*
%TO.N,Net-(R25-Pad1)*%
X113650000Y-73525000D02*
X99950000Y-87225000D01*
X99950000Y-87225000D02*
X99950000Y-139500000D01*
%TD*%
%TA.AperFunction,Conductor*%
%TO.N,GND*%
G36*
X86903156Y-81893881D02*
G01*
X86928674Y-81894025D01*
X86958818Y-81894194D01*
X99136056Y-81962509D01*
X99137184Y-82030861D01*
X104213112Y-82112648D01*
X99581286Y-86744478D01*
X99469481Y-86856282D01*
X99469479Y-86856285D01*
X99419361Y-86943094D01*
X99419359Y-86943096D01*
X99390425Y-86993209D01*
X99390424Y-86993210D01*
X99390423Y-86993215D01*
X99349499Y-87145943D01*
X99349499Y-87145945D01*
X99349499Y-87314046D01*
X99349500Y-87314059D01*
X99349500Y-139010232D01*
X99329815Y-139077271D01*
X99328603Y-139079122D01*
X99284914Y-139144508D01*
X99228343Y-139281082D01*
X99228340Y-139281092D01*
X99199500Y-139426079D01*
X99199500Y-139426082D01*
X99199500Y-139573918D01*
X99199500Y-139573920D01*
X99199499Y-139573920D01*
X99228340Y-139718907D01*
X99228343Y-139718917D01*
X99284912Y-139855488D01*
X99284919Y-139855501D01*
X99367048Y-139978415D01*
X99367051Y-139978419D01*
X99471580Y-140082948D01*
X99471584Y-140082951D01*
X99594498Y-140165080D01*
X99594511Y-140165087D01*
X99680847Y-140200848D01*
X99731087Y-140221658D01*
X99731091Y-140221658D01*
X99731092Y-140221659D01*
X99876079Y-140250500D01*
X99876082Y-140250500D01*
X100023920Y-140250500D01*
X100121462Y-140231096D01*
X100168913Y-140221658D01*
X100201118Y-140208317D01*
X100270587Y-140200848D01*
X100333067Y-140232122D01*
X100368720Y-140292210D01*
X100370189Y-140347069D01*
X100349500Y-140451077D01*
X100349500Y-140451082D01*
X100349500Y-140598918D01*
X100349500Y-140598920D01*
X100349499Y-140598920D01*
X100378340Y-140743907D01*
X100378343Y-140743917D01*
X100434912Y-140880488D01*
X100434919Y-140880501D01*
X100517048Y-141003415D01*
X100517051Y-141003419D01*
X100621580Y-141107948D01*
X100621584Y-141107951D01*
X100744498Y-141190080D01*
X100744511Y-141190087D01*
X100881082Y-141246656D01*
X100881087Y-141246658D01*
X100881091Y-141246658D01*
X100881092Y-141246659D01*
X101026079Y-141275500D01*
X101026082Y-141275500D01*
X101173920Y-141275500D01*
X101271462Y-141256096D01*
X101318913Y-141246658D01*
X101455495Y-141190084D01*
X101578416Y-141107951D01*
X101682951Y-141003416D01*
X101765084Y-140880495D01*
X101821658Y-140743913D01*
X101850500Y-140598918D01*
X101850500Y-140451082D01*
X101850500Y-140451079D01*
X101821659Y-140306092D01*
X101821658Y-140306091D01*
X101821658Y-140306087D01*
X101765084Y-140169505D01*
X101721396Y-140104121D01*
X101700520Y-140037444D01*
X101700500Y-140035232D01*
X101700500Y-137713334D01*
X123935085Y-137713334D01*
X123963926Y-137858321D01*
X123963929Y-137858331D01*
X124020498Y-137994902D01*
X124020505Y-137994915D01*
X124102634Y-138117829D01*
X124102637Y-138117833D01*
X124207166Y-138222362D01*
X124207170Y-138222365D01*
X124330084Y-138304494D01*
X124330097Y-138304501D01*
X124466668Y-138361070D01*
X124466673Y-138361072D01*
X124466677Y-138361072D01*
X124466678Y-138361073D01*
X124611665Y-138389914D01*
X124611668Y-138389914D01*
X124759506Y-138389914D01*
X124857048Y-138370510D01*
X124904499Y-138361072D01*
X125041081Y-138304498D01*
X125164002Y-138222365D01*
X125268537Y-138117830D01*
X125350670Y-137994909D01*
X125407244Y-137858327D01*
X125436086Y-137713332D01*
X125436086Y-137565496D01*
X125436086Y-137565493D01*
X125407245Y-137420506D01*
X125407244Y-137420505D01*
X125407244Y-137420501D01*
X125407242Y-137420496D01*
X125350673Y-137283925D01*
X125350666Y-137283912D01*
X125268537Y-137160998D01*
X125268534Y-137160994D01*
X125164005Y-137056465D01*
X125164001Y-137056462D01*
X125041087Y-136974333D01*
X125041074Y-136974326D01*
X124904503Y-136917757D01*
X124904493Y-136917754D01*
X124759506Y-136888914D01*
X124759504Y-136888914D01*
X124611668Y-136888914D01*
X124611666Y-136888914D01*
X124466678Y-136917754D01*
X124466668Y-136917757D01*
X124330097Y-136974326D01*
X124330084Y-136974333D01*
X124207170Y-137056462D01*
X124207166Y-137056465D01*
X124102637Y-137160994D01*
X124102634Y-137160998D01*
X124020505Y-137283912D01*
X124020498Y-137283925D01*
X123963929Y-137420496D01*
X123963926Y-137420506D01*
X123935086Y-137565493D01*
X123935086Y-137565496D01*
X123935086Y-137713332D01*
X123935086Y-137713334D01*
X123935085Y-137713334D01*
X101700500Y-137713334D01*
X101700500Y-134345943D01*
X139549500Y-134345943D01*
X139549500Y-134504056D01*
X139590423Y-134656783D01*
X139590426Y-134656790D01*
X139669475Y-134793709D01*
X139669479Y-134793714D01*
X139669480Y-134793716D01*
X139781284Y-134905520D01*
X139781286Y-134905521D01*
X139781290Y-134905524D01*
X139918209Y-134984573D01*
X139918216Y-134984577D01*
X140070943Y-135025500D01*
X140070945Y-135025500D01*
X140229055Y-135025500D01*
X140229057Y-135025500D01*
X140381784Y-134984577D01*
X140518716Y-134905520D01*
X140630520Y-134793716D01*
X140709577Y-134656784D01*
X140750500Y-134504057D01*
X140750500Y-134345943D01*
X140709577Y-134193216D01*
X140709573Y-134193209D01*
X140630524Y-134056290D01*
X140630518Y-134056282D01*
X140518717Y-133944481D01*
X140518709Y-133944475D01*
X140381790Y-133865426D01*
X140381786Y-133865424D01*
X140381784Y-133865423D01*
X140229057Y-133824500D01*
X140070943Y-133824500D01*
X139918216Y-133865423D01*
X139918209Y-133865426D01*
X139781290Y-133944475D01*
X139781282Y-133944481D01*
X139669481Y-134056282D01*
X139669475Y-134056290D01*
X139590426Y-134193209D01*
X139590423Y-134193216D01*
X139549500Y-134345943D01*
X101700500Y-134345943D01*
X101700500Y-132648920D01*
X136849499Y-132648920D01*
X136878340Y-132793907D01*
X136878343Y-132793917D01*
X136934912Y-132930488D01*
X136934919Y-132930501D01*
X137017048Y-133053415D01*
X137017051Y-133053419D01*
X137121580Y-133157948D01*
X137121584Y-133157951D01*
X137244498Y-133240080D01*
X137244511Y-133240087D01*
X137381082Y-133296656D01*
X137381087Y-133296658D01*
X137381091Y-133296658D01*
X137381092Y-133296659D01*
X137526079Y-133325500D01*
X137526082Y-133325500D01*
X137673920Y-133325500D01*
X137771462Y-133306096D01*
X137818913Y-133296658D01*
X137955495Y-133240084D01*
X138078416Y-133157951D01*
X138182951Y-133053416D01*
X138265084Y-132930495D01*
X138279396Y-132895943D01*
X139549500Y-132895943D01*
X139549500Y-133054057D01*
X139577339Y-133157951D01*
X139590423Y-133206783D01*
X139590426Y-133206790D01*
X139669475Y-133343709D01*
X139669479Y-133343714D01*
X139669480Y-133343716D01*
X139781284Y-133455520D01*
X139781286Y-133455521D01*
X139781290Y-133455524D01*
X139918209Y-133534573D01*
X139918216Y-133534577D01*
X140070943Y-133575500D01*
X140070945Y-133575500D01*
X140229055Y-133575500D01*
X140229057Y-133575500D01*
X140381784Y-133534577D01*
X140518716Y-133455520D01*
X140630520Y-133343716D01*
X140709577Y-133206784D01*
X140750500Y-133054057D01*
X140750500Y-132895943D01*
X140709577Y-132743216D01*
X140655135Y-132648918D01*
X140630524Y-132606290D01*
X140630518Y-132606282D01*
X140518717Y-132494481D01*
X140518709Y-132494475D01*
X140381790Y-132415426D01*
X140381786Y-132415424D01*
X140381784Y-132415423D01*
X140229057Y-132374500D01*
X140070943Y-132374500D01*
X139918216Y-132415423D01*
X139918209Y-132415426D01*
X139781290Y-132494475D01*
X139781282Y-132494481D01*
X139669481Y-132606282D01*
X139669475Y-132606290D01*
X139590426Y-132743209D01*
X139590423Y-132743216D01*
X139549500Y-132895943D01*
X138279396Y-132895943D01*
X138321658Y-132793913D01*
X138350500Y-132648918D01*
X138350500Y-132501082D01*
X138350500Y-132501079D01*
X138321659Y-132356092D01*
X138321658Y-132356091D01*
X138321658Y-132356087D01*
X138321656Y-132356082D01*
X138265087Y-132219511D01*
X138265080Y-132219498D01*
X138182951Y-132096584D01*
X138182948Y-132096580D01*
X138078419Y-131992051D01*
X138078415Y-131992048D01*
X137955501Y-131909919D01*
X137955488Y-131909912D01*
X137818917Y-131853343D01*
X137818907Y-131853340D01*
X137673920Y-131824500D01*
X137673918Y-131824500D01*
X137526082Y-131824500D01*
X137526080Y-131824500D01*
X137381092Y-131853340D01*
X137381082Y-131853343D01*
X137244511Y-131909912D01*
X137244498Y-131909919D01*
X137121584Y-131992048D01*
X137121580Y-131992051D01*
X137017051Y-132096580D01*
X137017048Y-132096584D01*
X136934919Y-132219498D01*
X136934912Y-132219511D01*
X136878343Y-132356082D01*
X136878340Y-132356092D01*
X136849500Y-132501079D01*
X136849500Y-132501082D01*
X136849500Y-132648918D01*
X136849500Y-132648920D01*
X136849499Y-132648920D01*
X101700500Y-132648920D01*
X101700500Y-106646579D01*
X165456086Y-106646579D01*
X165456086Y-106832248D01*
X165485128Y-107015610D01*
X165485129Y-107015614D01*
X165542501Y-107192185D01*
X165626787Y-107357607D01*
X165735914Y-107507807D01*
X165867193Y-107639086D01*
X166017393Y-107748213D01*
X166182815Y-107832499D01*
X166359386Y-107889871D01*
X166428150Y-107900762D01*
X166542752Y-107918914D01*
X166542757Y-107918914D01*
X166728420Y-107918914D01*
X166830287Y-107902779D01*
X166911786Y-107889871D01*
X167088357Y-107832499D01*
X167253779Y-107748213D01*
X167403979Y-107639086D01*
X167535258Y-107507807D01*
X167644385Y-107357607D01*
X167728671Y-107192185D01*
X167786043Y-107015614D01*
X167798951Y-106934115D01*
X167815086Y-106832248D01*
X167815086Y-106646579D01*
X167786043Y-106463217D01*
X167786043Y-106463214D01*
X167728671Y-106286643D01*
X167644385Y-106121221D01*
X167535258Y-105971021D01*
X167403979Y-105839742D01*
X167253779Y-105730615D01*
X167088357Y-105646329D01*
X166911786Y-105588957D01*
X166911784Y-105588956D01*
X166911782Y-105588956D01*
X166728420Y-105559914D01*
X166728415Y-105559914D01*
X166542757Y-105559914D01*
X166542752Y-105559914D01*
X166359389Y-105588956D01*
X166182812Y-105646330D01*
X166017392Y-105730615D01*
X165935410Y-105790179D01*
X165867193Y-105839742D01*
X165867191Y-105839744D01*
X165867190Y-105839744D01*
X165735916Y-105971018D01*
X165735916Y-105971019D01*
X165735914Y-105971021D01*
X165689048Y-106035525D01*
X165626787Y-106121220D01*
X165542502Y-106286640D01*
X165485128Y-106463217D01*
X165456086Y-106646579D01*
X101700500Y-106646579D01*
X101700500Y-104213202D01*
X142610086Y-104213202D01*
X142610086Y-104465625D01*
X142643032Y-104715865D01*
X142708359Y-104959672D01*
X142804949Y-105192861D01*
X142804958Y-105192878D01*
X142931152Y-105411455D01*
X142931154Y-105411459D01*
X143084813Y-105611708D01*
X143084821Y-105611717D01*
X143263283Y-105790179D01*
X143263291Y-105790186D01*
X143463540Y-105943845D01*
X143463544Y-105943847D01*
X143682121Y-106070041D01*
X143682138Y-106070050D01*
X143805673Y-106121220D01*
X143915326Y-106166640D01*
X144159134Y-106231968D01*
X144409382Y-106264914D01*
X144409389Y-106264914D01*
X144661783Y-106264914D01*
X144661790Y-106264914D01*
X144912038Y-106231968D01*
X145155846Y-106166640D01*
X145389040Y-106070047D01*
X145607627Y-105943847D01*
X145607631Y-105943845D01*
X145677970Y-105889871D01*
X145807880Y-105790187D01*
X145807884Y-105790182D01*
X145807889Y-105790179D01*
X145986351Y-105611717D01*
X145986354Y-105611712D01*
X145986359Y-105611708D01*
X146140016Y-105411460D01*
X146266219Y-105192868D01*
X146362812Y-104959674D01*
X146428140Y-104715866D01*
X146437262Y-104646579D01*
X160406086Y-104646579D01*
X160406086Y-104832248D01*
X160426269Y-104959674D01*
X160435129Y-105015614D01*
X160492501Y-105192185D01*
X160576787Y-105357607D01*
X160685914Y-105507807D01*
X160817193Y-105639086D01*
X160967393Y-105748213D01*
X161132815Y-105832499D01*
X161309386Y-105889871D01*
X161378150Y-105900762D01*
X161492752Y-105918914D01*
X161492757Y-105918914D01*
X161678420Y-105918914D01*
X161780287Y-105902779D01*
X161861786Y-105889871D01*
X162038357Y-105832499D01*
X162203779Y-105748213D01*
X162353979Y-105639086D01*
X162485258Y-105507807D01*
X162594385Y-105357607D01*
X162678671Y-105192185D01*
X162736043Y-105015614D01*
X162748951Y-104934115D01*
X162765086Y-104832248D01*
X162765086Y-104646579D01*
X162745724Y-104524337D01*
X162736043Y-104463214D01*
X162678671Y-104286643D01*
X162594385Y-104121221D01*
X162485258Y-103971021D01*
X162353979Y-103839742D01*
X162203779Y-103730615D01*
X162038357Y-103646329D01*
X161861786Y-103588957D01*
X161861784Y-103588956D01*
X161861782Y-103588956D01*
X161678420Y-103559914D01*
X161678415Y-103559914D01*
X161492757Y-103559914D01*
X161492752Y-103559914D01*
X161309389Y-103588956D01*
X161132812Y-103646330D01*
X160967392Y-103730615D01*
X160881697Y-103792876D01*
X160817193Y-103839742D01*
X160817191Y-103839744D01*
X160817190Y-103839744D01*
X160685916Y-103971018D01*
X160685916Y-103971019D01*
X160685914Y-103971021D01*
X160647175Y-104024341D01*
X160576787Y-104121220D01*
X160492502Y-104286640D01*
X160435128Y-104463217D01*
X160406086Y-104646579D01*
X146437262Y-104646579D01*
X146461086Y-104465618D01*
X146461086Y-104213210D01*
X146428140Y-103962962D01*
X146362812Y-103719154D01*
X146296852Y-103559914D01*
X146266222Y-103485966D01*
X146266213Y-103485949D01*
X146140019Y-103267372D01*
X146140017Y-103267368D01*
X145986358Y-103067119D01*
X145986351Y-103067111D01*
X145807889Y-102888649D01*
X145807880Y-102888641D01*
X145607631Y-102734982D01*
X145607627Y-102734980D01*
X145389050Y-102608786D01*
X145389033Y-102608777D01*
X145155844Y-102512187D01*
X145001276Y-102470771D01*
X144912038Y-102446860D01*
X144880757Y-102442741D01*
X144661797Y-102413914D01*
X144661790Y-102413914D01*
X144409382Y-102413914D01*
X144409374Y-102413914D01*
X144159134Y-102446860D01*
X143915327Y-102512187D01*
X143682138Y-102608777D01*
X143682121Y-102608786D01*
X143463544Y-102734980D01*
X143463540Y-102734982D01*
X143263291Y-102888641D01*
X143084813Y-103067119D01*
X142931154Y-103267368D01*
X142931152Y-103267372D01*
X142804958Y-103485949D01*
X142804949Y-103485966D01*
X142708359Y-103719155D01*
X142643032Y-103962962D01*
X142610086Y-104213202D01*
X101700500Y-104213202D01*
X101700500Y-97973515D01*
X152010086Y-97973515D01*
X152010086Y-98185312D01*
X152043215Y-98394486D01*
X152108663Y-98595911D01*
X152204811Y-98784610D01*
X152329296Y-98955949D01*
X152479051Y-99105704D01*
X152650390Y-99230189D01*
X152739544Y-99275615D01*
X152839088Y-99326336D01*
X152839090Y-99326336D01*
X152839093Y-99326338D01*
X152917201Y-99351717D01*
X153040513Y-99391784D01*
X153249688Y-99424914D01*
X153249693Y-99424914D01*
X153461484Y-99424914D01*
X153670658Y-99391784D01*
X153872079Y-99326338D01*
X154060782Y-99230189D01*
X154232121Y-99105704D01*
X154381876Y-98955949D01*
X154506361Y-98784610D01*
X154602510Y-98595907D01*
X154667956Y-98394486D01*
X154701086Y-98185312D01*
X154701086Y-97973515D01*
X154667956Y-97764341D01*
X154602508Y-97562916D01*
X154506360Y-97374217D01*
X154381876Y-97202879D01*
X154232121Y-97053124D01*
X154060782Y-96928639D01*
X153872083Y-96832491D01*
X153670658Y-96767043D01*
X153461484Y-96733914D01*
X153461479Y-96733914D01*
X153249693Y-96733914D01*
X153249688Y-96733914D01*
X153040513Y-96767043D01*
X152839088Y-96832491D01*
X152650389Y-96928639D01*
X152479048Y-97053126D01*
X152329298Y-97202876D01*
X152204811Y-97374217D01*
X152108663Y-97562916D01*
X152043215Y-97764341D01*
X152010086Y-97973515D01*
X101700500Y-97973515D01*
X101700500Y-95150718D01*
X158385086Y-95150718D01*
X158385086Y-95328109D01*
X158419689Y-95502072D01*
X158419692Y-95502081D01*
X158487569Y-95665954D01*
X158487576Y-95665967D01*
X158586121Y-95813448D01*
X158586124Y-95813452D01*
X158711547Y-95938875D01*
X158711551Y-95938878D01*
X158859032Y-96037423D01*
X158859045Y-96037430D01*
X158981949Y-96088337D01*
X159022920Y-96105308D01*
X159022922Y-96105308D01*
X159022927Y-96105310D01*
X159196890Y-96139913D01*
X159196893Y-96139914D01*
X159196895Y-96139914D01*
X159374279Y-96139914D01*
X159374280Y-96139913D01*
X159432268Y-96128378D01*
X159548244Y-96105310D01*
X159548247Y-96105308D01*
X159548252Y-96105308D01*
X159712133Y-96037427D01*
X159859621Y-95938878D01*
X159985050Y-95813449D01*
X160083599Y-95665961D01*
X160151480Y-95502080D01*
X160186086Y-95328105D01*
X160186086Y-95150723D01*
X160186086Y-95150720D01*
X160186085Y-95150718D01*
X160151482Y-94976755D01*
X160151479Y-94976746D01*
X160083602Y-94812873D01*
X160083595Y-94812860D01*
X159985050Y-94665379D01*
X159985047Y-94665375D01*
X159859624Y-94539952D01*
X159859620Y-94539949D01*
X159712139Y-94441404D01*
X159712126Y-94441397D01*
X159548253Y-94373520D01*
X159548244Y-94373517D01*
X159374280Y-94338914D01*
X159374277Y-94338914D01*
X159196895Y-94338914D01*
X159196892Y-94338914D01*
X159022927Y-94373517D01*
X159022918Y-94373520D01*
X158859045Y-94441397D01*
X158859032Y-94441404D01*
X158711551Y-94539949D01*
X158711547Y-94539952D01*
X158586124Y-94665375D01*
X158586121Y-94665379D01*
X158487576Y-94812860D01*
X158487569Y-94812873D01*
X158419692Y-94976746D01*
X158419689Y-94976755D01*
X158385086Y-95150718D01*
X101700500Y-95150718D01*
X101700500Y-90092109D01*
X151865086Y-90092109D01*
X151865086Y-90326718D01*
X151901787Y-90558441D01*
X151974283Y-90781564D01*
X152080798Y-90990609D01*
X152218690Y-91180403D01*
X152218694Y-91180408D01*
X152384591Y-91346305D01*
X152384596Y-91346309D01*
X152550144Y-91466585D01*
X152574394Y-91484204D01*
X152783433Y-91590715D01*
X152783435Y-91590716D01*
X152894996Y-91626964D01*
X153006560Y-91663213D01*
X153238281Y-91699914D01*
X153238282Y-91699914D01*
X153472890Y-91699914D01*
X153472891Y-91699914D01*
X153704612Y-91663213D01*
X153927739Y-91590715D01*
X154136778Y-91484204D01*
X154326582Y-91346304D01*
X154492476Y-91180410D01*
X154630376Y-90990606D01*
X154736887Y-90781567D01*
X154809385Y-90558440D01*
X154846086Y-90326719D01*
X154846086Y-90092109D01*
X154809385Y-89860388D01*
X154736887Y-89637261D01*
X154630376Y-89428222D01*
X154612757Y-89403972D01*
X154492481Y-89238424D01*
X154492477Y-89238419D01*
X154326580Y-89072522D01*
X154326575Y-89072518D01*
X154136781Y-88934626D01*
X154136780Y-88934625D01*
X154136778Y-88934624D01*
X154032258Y-88881368D01*
X153927736Y-88828111D01*
X153704613Y-88755615D01*
X153588751Y-88737264D01*
X153472891Y-88718914D01*
X153238281Y-88718914D01*
X153161040Y-88731147D01*
X153006558Y-88755615D01*
X152783435Y-88828111D01*
X152574390Y-88934626D01*
X152384596Y-89072518D01*
X152384591Y-89072522D01*
X152218694Y-89238419D01*
X152218690Y-89238424D01*
X152080798Y-89428218D01*
X151974283Y-89637263D01*
X151901787Y-89860386D01*
X151865086Y-90092109D01*
X101700500Y-90092109D01*
X101700500Y-88100096D01*
X101720185Y-88033057D01*
X101736814Y-88012420D01*
X107582298Y-82166935D01*
X143270025Y-82741964D01*
X143328359Y-82959672D01*
X143424949Y-83192861D01*
X143424958Y-83192878D01*
X143551152Y-83411455D01*
X143551154Y-83411459D01*
X143704813Y-83611708D01*
X143704821Y-83611717D01*
X143883283Y-83790179D01*
X143883291Y-83790186D01*
X144083540Y-83943845D01*
X144083544Y-83943847D01*
X144302121Y-84070041D01*
X144302138Y-84070050D01*
X144431344Y-84123568D01*
X144535326Y-84166640D01*
X144779134Y-84231968D01*
X145029382Y-84264914D01*
X145029389Y-84264914D01*
X145281783Y-84264914D01*
X145281790Y-84264914D01*
X145532038Y-84231968D01*
X145775846Y-84166640D01*
X146009040Y-84070047D01*
X146227627Y-83943847D01*
X146227631Y-83943845D01*
X146265428Y-83914841D01*
X146427880Y-83790187D01*
X146427884Y-83790182D01*
X146427889Y-83790179D01*
X146606351Y-83611717D01*
X146606354Y-83611712D01*
X146606359Y-83611708D01*
X146760016Y-83411460D01*
X146886219Y-83192868D01*
X146982812Y-82959674D01*
X147024935Y-82802466D01*
X174220792Y-83240667D01*
X174220792Y-154150500D01*
X174201107Y-154217539D01*
X174148303Y-154263294D01*
X174096792Y-154274500D01*
X75345792Y-154274500D01*
X75278753Y-154254815D01*
X75232998Y-154202011D01*
X75221792Y-154150500D01*
X75221792Y-151210258D01*
X77999500Y-151210258D01*
X77999500Y-151439741D01*
X78024446Y-151629215D01*
X78029452Y-151667238D01*
X78049858Y-151743394D01*
X78088842Y-151888887D01*
X78176650Y-152100876D01*
X78176656Y-152100888D01*
X78262524Y-152249617D01*
X78291392Y-152299617D01*
X78431081Y-152481661D01*
X78431089Y-152481670D01*
X78593330Y-152643911D01*
X78593338Y-152643918D01*
X78775382Y-152783607D01*
X78775385Y-152783608D01*
X78775388Y-152783611D01*
X78974112Y-152898344D01*
X78974117Y-152898346D01*
X78974123Y-152898349D01*
X79065400Y-152936157D01*
X79186113Y-152986158D01*
X79407762Y-153045548D01*
X79635266Y-153075500D01*
X79635273Y-153075500D01*
X79864727Y-153075500D01*
X79864734Y-153075500D01*
X80092238Y-153045548D01*
X80313887Y-152986158D01*
X80525888Y-152898344D01*
X80724612Y-152783611D01*
X80906661Y-152643919D01*
X80906665Y-152643914D01*
X80906670Y-152643911D01*
X81068911Y-152481670D01*
X81068914Y-152481665D01*
X81068919Y-152481661D01*
X81208611Y-152299612D01*
X81323344Y-152100888D01*
X81411158Y-151888887D01*
X81470548Y-151667238D01*
X81500500Y-151439734D01*
X81500500Y-151210266D01*
X81470548Y-150982762D01*
X81443593Y-150882165D01*
X102320500Y-150882165D01*
X102320500Y-151067834D01*
X102349542Y-151251196D01*
X102349543Y-151251200D01*
X102406915Y-151427771D01*
X102491201Y-151593193D01*
X102600328Y-151743393D01*
X102731607Y-151874672D01*
X102881807Y-151983799D01*
X103047229Y-152068085D01*
X103223800Y-152125457D01*
X103292564Y-152136348D01*
X103407166Y-152154500D01*
X103407171Y-152154500D01*
X103592834Y-152154500D01*
X103694701Y-152138365D01*
X103776200Y-152125457D01*
X103952771Y-152068085D01*
X104118193Y-151983799D01*
X104268393Y-151874672D01*
X104399672Y-151743393D01*
X104508799Y-151593193D01*
X104593085Y-151427771D01*
X104650457Y-151251200D01*
X104664859Y-151160272D01*
X104664861Y-151160258D01*
X167949500Y-151160258D01*
X167949500Y-151389741D01*
X167974446Y-151579215D01*
X167979452Y-151617238D01*
X167992850Y-151667240D01*
X168038842Y-151838887D01*
X168126650Y-152050876D01*
X168126657Y-152050890D01*
X168241392Y-152249617D01*
X168381081Y-152431661D01*
X168381089Y-152431670D01*
X168543330Y-152593911D01*
X168543338Y-152593918D01*
X168725382Y-152733607D01*
X168725385Y-152733608D01*
X168725388Y-152733611D01*
X168924112Y-152848344D01*
X168924117Y-152848346D01*
X168924123Y-152848349D01*
X169015480Y-152886190D01*
X169136113Y-152936158D01*
X169357762Y-152995548D01*
X169585266Y-153025500D01*
X169585273Y-153025500D01*
X169814727Y-153025500D01*
X169814734Y-153025500D01*
X170042238Y-152995548D01*
X170263887Y-152936158D01*
X170475888Y-152848344D01*
X170674612Y-152733611D01*
X170856661Y-152593919D01*
X170856665Y-152593914D01*
X170856670Y-152593911D01*
X171018911Y-152431670D01*
X171018914Y-152431665D01*
X171018919Y-152431661D01*
X171158611Y-152249612D01*
X171273344Y-152050888D01*
X171361158Y-151838887D01*
X171420548Y-151617238D01*
X171450500Y-151389734D01*
X171450500Y-151160266D01*
X171420548Y-150932762D01*
X171361158Y-150711113D01*
X171311190Y-150590480D01*
X171273349Y-150499123D01*
X171273346Y-150499117D01*
X171273344Y-150499112D01*
X171158611Y-150300388D01*
X171158608Y-150300385D01*
X171158607Y-150300382D01*
X171018918Y-150118338D01*
X171018911Y-150118330D01*
X170856670Y-149956089D01*
X170856661Y-149956081D01*
X170674617Y-149816392D01*
X170475890Y-149701657D01*
X170475876Y-149701650D01*
X170263887Y-149613842D01*
X170228846Y-149604453D01*
X170042238Y-149554452D01*
X170004215Y-149549446D01*
X169814741Y-149524500D01*
X169814734Y-149524500D01*
X169585266Y-149524500D01*
X169585258Y-149524500D01*
X169368715Y-149553009D01*
X169357762Y-149554452D01*
X169303923Y-149568878D01*
X169136112Y-149613842D01*
X168924123Y-149701650D01*
X168924109Y-149701657D01*
X168725382Y-149816392D01*
X168543338Y-149956081D01*
X168381081Y-150118338D01*
X168241392Y-150300382D01*
X168126657Y-150499109D01*
X168126650Y-150499123D01*
X168038842Y-150711112D01*
X167979453Y-150932759D01*
X167979451Y-150932770D01*
X167949500Y-151160258D01*
X104664861Y-151160258D01*
X104668575Y-151136809D01*
X104668575Y-151136808D01*
X104679500Y-151067833D01*
X104679500Y-150882165D01*
X104650457Y-150698803D01*
X104650457Y-150698800D01*
X104593085Y-150522229D01*
X104508799Y-150356807D01*
X104399672Y-150206607D01*
X104268393Y-150075328D01*
X104118193Y-149966201D01*
X103952771Y-149881915D01*
X103776200Y-149824543D01*
X103776198Y-149824542D01*
X103776196Y-149824542D01*
X103592834Y-149795500D01*
X103592829Y-149795500D01*
X103407171Y-149795500D01*
X103407166Y-149795500D01*
X103223803Y-149824542D01*
X103047226Y-149881916D01*
X102881806Y-149966201D01*
X102826917Y-150006081D01*
X102731607Y-150075328D01*
X102731605Y-150075330D01*
X102731604Y-150075330D01*
X102600330Y-150206604D01*
X102600330Y-150206605D01*
X102600328Y-150206607D01*
X102553462Y-150271111D01*
X102491201Y-150356806D01*
X102406916Y-150522226D01*
X102349542Y-150698803D01*
X102320500Y-150882165D01*
X81443593Y-150882165D01*
X81411158Y-150761113D01*
X81323344Y-150549112D01*
X81208611Y-150350388D01*
X81208608Y-150350385D01*
X81208607Y-150350382D01*
X81068918Y-150168338D01*
X81068911Y-150168330D01*
X80906670Y-150006089D01*
X80906661Y-150006081D01*
X80724617Y-149866392D01*
X80525890Y-149751657D01*
X80525876Y-149751650D01*
X80313887Y-149663842D01*
X80289871Y-149657407D01*
X80092238Y-149604452D01*
X80054215Y-149599446D01*
X79864741Y-149574500D01*
X79864734Y-149574500D01*
X79635266Y-149574500D01*
X79635258Y-149574500D01*
X79418715Y-149603009D01*
X79407762Y-149604452D01*
X79372718Y-149613842D01*
X79186112Y-149663842D01*
X78974123Y-149751650D01*
X78974109Y-149751657D01*
X78775382Y-149866392D01*
X78593338Y-150006081D01*
X78431081Y-150168338D01*
X78291392Y-150350382D01*
X78176657Y-150549109D01*
X78176650Y-150549123D01*
X78088842Y-150761112D01*
X78029453Y-150982759D01*
X78029451Y-150982770D01*
X77999500Y-151210258D01*
X75221792Y-151210258D01*
X75221792Y-149214313D01*
X87620086Y-149214313D01*
X87620086Y-149339515D01*
X87652491Y-149460450D01*
X87715091Y-149568878D01*
X87803622Y-149657409D01*
X87912050Y-149720009D01*
X88032985Y-149752414D01*
X88032987Y-149752414D01*
X88158185Y-149752414D01*
X88158187Y-149752414D01*
X88279122Y-149720009D01*
X88387550Y-149657409D01*
X88476081Y-149568878D01*
X88538681Y-149460450D01*
X88571086Y-149339515D01*
X88571086Y-149214313D01*
X93400086Y-149214313D01*
X93400086Y-149339515D01*
X93432491Y-149460450D01*
X93495091Y-149568878D01*
X93583622Y-149657409D01*
X93692050Y-149720009D01*
X93812985Y-149752414D01*
X93812987Y-149752414D01*
X93938185Y-149752414D01*
X93938187Y-149752414D01*
X94059122Y-149720009D01*
X94167550Y-149657409D01*
X94256081Y-149568878D01*
X94318681Y-149460450D01*
X94351086Y-149339515D01*
X94351086Y-149214313D01*
X94318681Y-149093378D01*
X94256081Y-148984950D01*
X94167550Y-148896419D01*
X94059122Y-148833819D01*
X94059123Y-148833819D01*
X94018810Y-148823017D01*
X93938187Y-148801414D01*
X93812985Y-148801414D01*
X93732361Y-148823017D01*
X93692049Y-148833819D01*
X93583623Y-148896418D01*
X93583620Y-148896420D01*
X93495092Y-148984948D01*
X93495090Y-148984951D01*
X93432491Y-149093377D01*
X93432491Y-149093378D01*
X93400086Y-149214313D01*
X88571086Y-149214313D01*
X88538681Y-149093378D01*
X88476081Y-148984950D01*
X88387550Y-148896419D01*
X88279122Y-148833819D01*
X88279123Y-148833819D01*
X88238810Y-148823017D01*
X88158187Y-148801414D01*
X88032985Y-148801414D01*
X87952361Y-148823017D01*
X87912049Y-148833819D01*
X87803623Y-148896418D01*
X87803620Y-148896420D01*
X87715092Y-148984948D01*
X87715090Y-148984951D01*
X87652491Y-149093377D01*
X87652491Y-149093378D01*
X87620086Y-149214313D01*
X75221792Y-149214313D01*
X75221792Y-148523543D01*
X135674499Y-148523543D01*
X135712947Y-148716829D01*
X135712950Y-148716839D01*
X135788364Y-148898907D01*
X135788371Y-148898920D01*
X135897860Y-149062781D01*
X135897863Y-149062785D01*
X136037214Y-149202136D01*
X136037218Y-149202139D01*
X136201079Y-149311628D01*
X136201092Y-149311635D01*
X136383160Y-149387049D01*
X136383165Y-149387051D01*
X136383169Y-149387051D01*
X136383170Y-149387052D01*
X136576456Y-149425500D01*
X136576459Y-149425500D01*
X136773543Y-149425500D01*
X136903582Y-149399632D01*
X136966835Y-149387051D01*
X137148914Y-149311632D01*
X137312782Y-149202139D01*
X137452139Y-149062782D01*
X137561632Y-148898914D01*
X137562666Y-148896419D01*
X137588595Y-148833819D01*
X137637051Y-148716835D01*
X137675500Y-148523541D01*
X137675500Y-148326459D01*
X137675500Y-148326456D01*
X137637052Y-148133170D01*
X137637051Y-148133169D01*
X137637051Y-148133165D01*
X137637049Y-148133160D01*
X137561635Y-147951092D01*
X137561628Y-147951079D01*
X137452139Y-147787218D01*
X137452136Y-147787214D01*
X137312785Y-147647863D01*
X137312781Y-147647860D01*
X137148920Y-147538371D01*
X137148907Y-147538364D01*
X136966839Y-147462950D01*
X136966829Y-147462947D01*
X136773543Y-147424500D01*
X136773541Y-147424500D01*
X136576459Y-147424500D01*
X136576457Y-147424500D01*
X136383170Y-147462947D01*
X136383160Y-147462950D01*
X136201092Y-147538364D01*
X136201079Y-147538371D01*
X136037218Y-147647860D01*
X136037214Y-147647863D01*
X135897863Y-147787214D01*
X135897860Y-147787218D01*
X135788371Y-147951079D01*
X135788364Y-147951092D01*
X135712950Y-148133160D01*
X135712947Y-148133170D01*
X135674500Y-148326456D01*
X135674500Y-148326459D01*
X135674500Y-148523541D01*
X135674500Y-148523543D01*
X135674499Y-148523543D01*
X75221792Y-148523543D01*
X75221792Y-145832165D01*
X104320500Y-145832165D01*
X104320500Y-146017834D01*
X104349542Y-146201196D01*
X104349543Y-146201200D01*
X104406915Y-146377771D01*
X104491201Y-146543193D01*
X104600328Y-146693393D01*
X104731607Y-146824672D01*
X104881807Y-146933799D01*
X105047229Y-147018085D01*
X105223800Y-147075457D01*
X105292564Y-147086348D01*
X105407166Y-147104500D01*
X105407171Y-147104500D01*
X105592834Y-147104500D01*
X105694701Y-147088365D01*
X105776200Y-147075457D01*
X105952771Y-147018085D01*
X106118193Y-146933799D01*
X106268393Y-146824672D01*
X106399672Y-146693393D01*
X106508799Y-146543193D01*
X106593085Y-146377771D01*
X106650457Y-146201200D01*
X106663365Y-146119701D01*
X106679500Y-146017834D01*
X106679500Y-145832165D01*
X106650457Y-145648803D01*
X106650457Y-145648800D01*
X106593085Y-145472229D01*
X106508799Y-145306807D01*
X106399672Y-145156607D01*
X106268393Y-145025328D01*
X106118193Y-144916201D01*
X105952771Y-144831915D01*
X105776200Y-144774543D01*
X105776198Y-144774542D01*
X105776196Y-144774542D01*
X105592834Y-144745500D01*
X105592829Y-144745500D01*
X105407171Y-144745500D01*
X105407166Y-144745500D01*
X105223803Y-144774542D01*
X105047226Y-144831916D01*
X104881806Y-144916201D01*
X104796111Y-144978462D01*
X104731607Y-145025328D01*
X104731605Y-145025330D01*
X104731604Y-145025330D01*
X104600330Y-145156604D01*
X104600330Y-145156605D01*
X104600328Y-145156607D01*
X104553462Y-145221111D01*
X104491201Y-145306806D01*
X104406916Y-145472226D01*
X104349542Y-145648803D01*
X104320500Y-145832165D01*
X75221792Y-145832165D01*
X75221792Y-119953202D01*
X87410086Y-119953202D01*
X87410086Y-120205625D01*
X87443032Y-120455865D01*
X87508359Y-120699672D01*
X87604949Y-120932861D01*
X87604958Y-120932878D01*
X87731152Y-121151455D01*
X87731154Y-121151459D01*
X87884813Y-121351708D01*
X87884821Y-121351717D01*
X88063283Y-121530179D01*
X88063291Y-121530186D01*
X88263540Y-121683845D01*
X88263544Y-121683847D01*
X88482121Y-121810041D01*
X88482138Y-121810050D01*
X88611344Y-121863568D01*
X88715326Y-121906640D01*
X88959134Y-121971968D01*
X89209382Y-122004914D01*
X89209389Y-122004914D01*
X89461783Y-122004914D01*
X89461790Y-122004914D01*
X89712038Y-121971968D01*
X89955846Y-121906640D01*
X90189040Y-121810047D01*
X90407627Y-121683847D01*
X90407631Y-121683845D01*
X90445428Y-121654841D01*
X90607880Y-121530187D01*
X90607884Y-121530182D01*
X90607889Y-121530179D01*
X90786351Y-121351717D01*
X90786354Y-121351712D01*
X90786359Y-121351708D01*
X90940016Y-121151460D01*
X91066219Y-120932868D01*
X91162812Y-120699674D01*
X91228140Y-120455866D01*
X91261086Y-120205618D01*
X91261086Y-119953210D01*
X91228140Y-119702962D01*
X91162812Y-119459154D01*
X91119740Y-119355172D01*
X91066222Y-119225966D01*
X91066213Y-119225949D01*
X90940019Y-119007372D01*
X90940017Y-119007368D01*
X90786358Y-118807119D01*
X90786351Y-118807111D01*
X90607889Y-118628649D01*
X90607880Y-118628641D01*
X90407631Y-118474982D01*
X90407627Y-118474980D01*
X90189050Y-118348786D01*
X90189033Y-118348777D01*
X89955844Y-118252187D01*
X89801276Y-118210771D01*
X89712038Y-118186860D01*
X89680757Y-118182741D01*
X89461797Y-118153914D01*
X89461790Y-118153914D01*
X89209382Y-118153914D01*
X89209374Y-118153914D01*
X88959134Y-118186860D01*
X88715327Y-118252187D01*
X88482138Y-118348777D01*
X88482121Y-118348786D01*
X88263544Y-118474980D01*
X88263540Y-118474982D01*
X88063291Y-118628641D01*
X87884813Y-118807119D01*
X87731154Y-119007368D01*
X87731152Y-119007372D01*
X87604958Y-119225949D01*
X87604949Y-119225966D01*
X87508359Y-119459155D01*
X87443032Y-119702962D01*
X87410086Y-119953202D01*
X75221792Y-119953202D01*
X75221792Y-112092109D01*
X79645086Y-112092109D01*
X79645086Y-112326718D01*
X79681787Y-112558441D01*
X79754283Y-112781564D01*
X79860798Y-112990609D01*
X79998690Y-113180403D01*
X79998694Y-113180408D01*
X80164591Y-113346305D01*
X80164596Y-113346309D01*
X80330144Y-113466585D01*
X80354394Y-113484204D01*
X80563433Y-113590715D01*
X80563435Y-113590716D01*
X80674996Y-113626964D01*
X80786560Y-113663213D01*
X81018281Y-113699914D01*
X81018282Y-113699914D01*
X81252890Y-113699914D01*
X81252891Y-113699914D01*
X81484612Y-113663213D01*
X81707739Y-113590715D01*
X81916778Y-113484204D01*
X82106582Y-113346304D01*
X82272476Y-113180410D01*
X82410376Y-112990606D01*
X82516887Y-112781567D01*
X82589385Y-112558440D01*
X82626086Y-112326719D01*
X82626086Y-112092109D01*
X82589385Y-111860388D01*
X82516887Y-111637261D01*
X82410376Y-111428222D01*
X82392757Y-111403972D01*
X82272481Y-111238424D01*
X82272477Y-111238419D01*
X82106580Y-111072522D01*
X82106575Y-111072518D01*
X81916781Y-110934626D01*
X81916780Y-110934625D01*
X81916778Y-110934624D01*
X81812258Y-110881368D01*
X81707736Y-110828111D01*
X81484613Y-110755615D01*
X81368751Y-110737264D01*
X81252891Y-110718914D01*
X81018281Y-110718914D01*
X80941040Y-110731147D01*
X80786558Y-110755615D01*
X80563435Y-110828111D01*
X80354390Y-110934626D01*
X80164596Y-111072518D01*
X80164591Y-111072522D01*
X79998694Y-111238419D01*
X79998690Y-111238424D01*
X79860798Y-111428218D01*
X79754283Y-111637263D01*
X79681787Y-111860386D01*
X79645086Y-112092109D01*
X75221792Y-112092109D01*
X75221792Y-104233515D01*
X79790086Y-104233515D01*
X79790086Y-104445312D01*
X79823215Y-104654486D01*
X79888663Y-104855911D01*
X79970035Y-105015610D01*
X79984811Y-105044610D01*
X80109296Y-105215949D01*
X80259051Y-105365704D01*
X80430390Y-105490189D01*
X80519544Y-105535615D01*
X80619088Y-105586336D01*
X80619090Y-105586336D01*
X80619093Y-105586338D01*
X80697201Y-105611717D01*
X80820513Y-105651784D01*
X81029688Y-105684914D01*
X81029693Y-105684914D01*
X81241484Y-105684914D01*
X81450658Y-105651784D01*
X81652079Y-105586338D01*
X81840782Y-105490189D01*
X82012121Y-105365704D01*
X82161876Y-105215949D01*
X82286361Y-105044610D01*
X82382510Y-104855907D01*
X82447956Y-104654486D01*
X82449208Y-104646579D01*
X82481086Y-104445312D01*
X82481086Y-104233515D01*
X82447956Y-104024341D01*
X82387976Y-103839744D01*
X82382510Y-103822921D01*
X82382508Y-103822918D01*
X82382508Y-103822916D01*
X82292532Y-103646330D01*
X82286361Y-103634218D01*
X82161876Y-103462879D01*
X82012121Y-103313124D01*
X81840782Y-103188639D01*
X81652083Y-103092491D01*
X81450658Y-103027043D01*
X81241484Y-102993914D01*
X81241479Y-102993914D01*
X81029693Y-102993914D01*
X81029688Y-102993914D01*
X80820513Y-103027043D01*
X80619088Y-103092491D01*
X80430389Y-103188639D01*
X80259048Y-103313126D01*
X80109298Y-103462876D01*
X79984811Y-103634217D01*
X79888663Y-103822916D01*
X79823215Y-104024341D01*
X79790086Y-104233515D01*
X75221792Y-104233515D01*
X75221792Y-97953202D01*
X88030086Y-97953202D01*
X88030086Y-98205625D01*
X88063032Y-98455865D01*
X88128359Y-98699672D01*
X88224949Y-98932861D01*
X88224958Y-98932878D01*
X88351152Y-99151455D01*
X88351154Y-99151459D01*
X88504813Y-99351708D01*
X88504821Y-99351717D01*
X88683283Y-99530179D01*
X88683291Y-99530186D01*
X88883540Y-99683845D01*
X88883544Y-99683847D01*
X89102121Y-99810041D01*
X89102138Y-99810050D01*
X89231344Y-99863568D01*
X89335326Y-99906640D01*
X89579134Y-99971968D01*
X89829382Y-100004914D01*
X89829389Y-100004914D01*
X90081783Y-100004914D01*
X90081790Y-100004914D01*
X90332038Y-99971968D01*
X90575846Y-99906640D01*
X90809040Y-99810047D01*
X91027627Y-99683847D01*
X91027631Y-99683845D01*
X91065428Y-99654841D01*
X91227880Y-99530187D01*
X91227884Y-99530182D01*
X91227889Y-99530179D01*
X91406351Y-99351717D01*
X91406354Y-99351712D01*
X91406359Y-99351708D01*
X91560016Y-99151460D01*
X91686219Y-98932868D01*
X91782812Y-98699674D01*
X91848140Y-98455866D01*
X91881086Y-98205618D01*
X91881086Y-97953210D01*
X91848140Y-97702962D01*
X91782812Y-97459154D01*
X91739740Y-97355172D01*
X91686222Y-97225966D01*
X91686213Y-97225949D01*
X91560019Y-97007372D01*
X91560017Y-97007368D01*
X91406358Y-96807119D01*
X91406351Y-96807111D01*
X91227889Y-96628649D01*
X91227880Y-96628641D01*
X91027631Y-96474982D01*
X91027627Y-96474980D01*
X90809050Y-96348786D01*
X90809033Y-96348777D01*
X90575844Y-96252187D01*
X90421276Y-96210771D01*
X90332038Y-96186860D01*
X90300757Y-96182741D01*
X90081797Y-96153914D01*
X90081790Y-96153914D01*
X89829382Y-96153914D01*
X89829374Y-96153914D01*
X89579134Y-96186860D01*
X89335327Y-96252187D01*
X89102138Y-96348777D01*
X89102121Y-96348786D01*
X88883544Y-96474980D01*
X88883540Y-96474982D01*
X88683291Y-96628641D01*
X88504813Y-96807119D01*
X88351154Y-97007368D01*
X88351152Y-97007372D01*
X88224958Y-97225949D01*
X88224949Y-97225966D01*
X88128359Y-97459155D01*
X88063032Y-97702962D01*
X88030086Y-97953202D01*
X75221792Y-97953202D01*
X75221792Y-90092109D01*
X79645086Y-90092109D01*
X79645086Y-90326718D01*
X79681787Y-90558441D01*
X79754283Y-90781564D01*
X79860798Y-90990609D01*
X79998690Y-91180403D01*
X79998694Y-91180408D01*
X80164591Y-91346305D01*
X80164596Y-91346309D01*
X80330144Y-91466585D01*
X80354394Y-91484204D01*
X80563433Y-91590715D01*
X80563435Y-91590716D01*
X80674996Y-91626964D01*
X80786560Y-91663213D01*
X81018281Y-91699914D01*
X81018282Y-91699914D01*
X81252890Y-91699914D01*
X81252891Y-91699914D01*
X81484612Y-91663213D01*
X81707739Y-91590715D01*
X81916778Y-91484204D01*
X82106582Y-91346304D01*
X82272476Y-91180410D01*
X82410376Y-90990606D01*
X82516887Y-90781567D01*
X82589385Y-90558440D01*
X82626086Y-90326719D01*
X82626086Y-90092109D01*
X82589385Y-89860388D01*
X82516887Y-89637261D01*
X82410376Y-89428222D01*
X82392757Y-89403972D01*
X82272481Y-89238424D01*
X82272477Y-89238419D01*
X82106580Y-89072522D01*
X82106575Y-89072518D01*
X81916781Y-88934626D01*
X81916780Y-88934625D01*
X81916778Y-88934624D01*
X81812258Y-88881368D01*
X81707736Y-88828111D01*
X81484613Y-88755615D01*
X81368751Y-88737264D01*
X81252891Y-88718914D01*
X81018281Y-88718914D01*
X80941040Y-88731147D01*
X80786558Y-88755615D01*
X80563435Y-88828111D01*
X80354390Y-88934626D01*
X80164596Y-89072518D01*
X80164591Y-89072522D01*
X79998694Y-89238419D01*
X79998690Y-89238424D01*
X79860798Y-89428218D01*
X79754283Y-89637263D01*
X79681787Y-89860386D01*
X79645086Y-90092109D01*
X75221792Y-90092109D01*
X75221792Y-81953044D01*
X75241477Y-81886005D01*
X75294281Y-81840250D01*
X75346481Y-81829047D01*
X86903156Y-81893881D01*
G37*
%TD.AperFunction*%
%TD*%
%TA.AperFunction,Conductor*%
%TO.N,GND*%
G36*
X174163831Y-35295185D02*
G01*
X174209586Y-35347989D01*
X174220792Y-35399500D01*
X174220792Y-83240666D01*
X147024935Y-82802465D01*
X147048140Y-82715866D01*
X147081086Y-82465618D01*
X147081086Y-82213210D01*
X147048140Y-81962962D01*
X146982812Y-81719154D01*
X146939740Y-81615172D01*
X146886222Y-81485966D01*
X146886213Y-81485949D01*
X146760019Y-81267372D01*
X146760017Y-81267368D01*
X146606358Y-81067119D01*
X146606351Y-81067111D01*
X146427889Y-80888649D01*
X146427880Y-80888641D01*
X146227631Y-80734982D01*
X146227627Y-80734980D01*
X146009050Y-80608786D01*
X146009033Y-80608777D01*
X145775844Y-80512187D01*
X145621276Y-80470771D01*
X145532038Y-80446860D01*
X145500757Y-80442741D01*
X145281797Y-80413914D01*
X145281790Y-80413914D01*
X145029382Y-80413914D01*
X145029374Y-80413914D01*
X144779134Y-80446860D01*
X144535327Y-80512187D01*
X144302138Y-80608777D01*
X144302121Y-80608786D01*
X144083544Y-80734980D01*
X144083540Y-80734982D01*
X143883291Y-80888641D01*
X143704813Y-81067119D01*
X143551154Y-81267368D01*
X143551152Y-81267372D01*
X143424958Y-81485949D01*
X143424949Y-81485966D01*
X143328359Y-81719155D01*
X143263032Y-81962962D01*
X143230086Y-82213202D01*
X143230086Y-82465625D01*
X143263032Y-82715865D01*
X143270024Y-82741963D01*
X107582299Y-82166935D01*
X114528301Y-75220932D01*
X114589622Y-75187449D01*
X114591644Y-75187027D01*
X114668913Y-75171658D01*
X114805495Y-75115084D01*
X114928416Y-75032951D01*
X115032951Y-74928416D01*
X115115084Y-74805495D01*
X115171658Y-74668913D01*
X115200500Y-74523918D01*
X115200500Y-74376082D01*
X115200500Y-74376079D01*
X115171659Y-74231092D01*
X115171658Y-74231091D01*
X115171658Y-74231087D01*
X115171656Y-74231082D01*
X115115087Y-74094511D01*
X115115080Y-74094498D01*
X115032951Y-73971584D01*
X115032948Y-73971580D01*
X114928419Y-73867051D01*
X114928415Y-73867048D01*
X114805501Y-73784919D01*
X114805488Y-73784912D01*
X114668917Y-73728343D01*
X114668907Y-73728340D01*
X114523920Y-73699499D01*
X114517858Y-73698903D01*
X114517987Y-73697587D01*
X114457461Y-73679815D01*
X114411706Y-73627011D01*
X114400500Y-73575500D01*
X114400500Y-73451079D01*
X114371659Y-73306092D01*
X114371658Y-73306091D01*
X114371658Y-73306087D01*
X114371656Y-73306082D01*
X114315087Y-73169511D01*
X114315080Y-73169498D01*
X114232951Y-73046584D01*
X114232948Y-73046580D01*
X114128419Y-72942051D01*
X114128415Y-72942048D01*
X114005501Y-72859919D01*
X114005488Y-72859912D01*
X113868917Y-72803343D01*
X113868907Y-72803340D01*
X113723920Y-72774500D01*
X113723918Y-72774500D01*
X113576082Y-72774500D01*
X113576080Y-72774500D01*
X113431092Y-72803340D01*
X113431082Y-72803343D01*
X113294511Y-72859912D01*
X113294498Y-72859919D01*
X113171584Y-72942048D01*
X113171580Y-72942051D01*
X113067051Y-73046580D01*
X113067048Y-73046584D01*
X112984919Y-73169498D01*
X112984912Y-73169511D01*
X112928342Y-73306084D01*
X112928340Y-73306090D01*
X112913000Y-73383210D01*
X112880614Y-73445120D01*
X112879064Y-73446698D01*
X104213113Y-82112648D01*
X99137184Y-82030861D01*
X99052596Y-76901039D01*
X99071171Y-76833690D01*
X99120488Y-76789511D01*
X99135000Y-76775000D01*
X99135000Y-71395943D01*
X122374500Y-71395943D01*
X122374500Y-71554056D01*
X122415423Y-71706783D01*
X122415426Y-71706790D01*
X122494475Y-71843709D01*
X122494479Y-71843714D01*
X122494480Y-71843716D01*
X122606284Y-71955520D01*
X122606286Y-71955521D01*
X122606290Y-71955524D01*
X122743209Y-72034573D01*
X122743216Y-72034577D01*
X122895943Y-72075500D01*
X122895945Y-72075500D01*
X123054055Y-72075500D01*
X123054057Y-72075500D01*
X123206784Y-72034577D01*
X123343716Y-71955520D01*
X123455520Y-71843716D01*
X123534577Y-71706784D01*
X123575500Y-71554057D01*
X123575500Y-71395943D01*
X123534577Y-71243216D01*
X123534573Y-71243209D01*
X123455524Y-71106290D01*
X123455518Y-71106282D01*
X123343717Y-70994481D01*
X123343709Y-70994475D01*
X123206790Y-70915426D01*
X123206786Y-70915424D01*
X123206784Y-70915423D01*
X123054057Y-70874500D01*
X122895943Y-70874500D01*
X122743216Y-70915423D01*
X122743209Y-70915426D01*
X122606290Y-70994475D01*
X122606282Y-70994481D01*
X122494481Y-71106282D01*
X122494475Y-71106290D01*
X122415426Y-71243209D01*
X122415423Y-71243216D01*
X122374500Y-71395943D01*
X99135000Y-71395943D01*
X99135000Y-64139071D01*
X159199499Y-64139071D01*
X159224497Y-64264738D01*
X159224499Y-64264744D01*
X159273533Y-64383124D01*
X159273538Y-64383133D01*
X159344723Y-64489668D01*
X159344726Y-64489672D01*
X159435327Y-64580273D01*
X159435331Y-64580276D01*
X159541866Y-64651461D01*
X159541872Y-64651464D01*
X159541873Y-64651465D01*
X159660256Y-64700501D01*
X159660260Y-64700501D01*
X159660261Y-64700502D01*
X159785928Y-64725500D01*
X159785931Y-64725500D01*
X159914071Y-64725500D01*
X159998615Y-64708682D01*
X160039744Y-64700501D01*
X160158127Y-64651465D01*
X160264669Y-64580276D01*
X160355276Y-64489669D01*
X160426465Y-64383127D01*
X160475501Y-64264744D01*
X160500500Y-64139069D01*
X160500500Y-64010931D01*
X160500500Y-64010928D01*
X160475502Y-63885261D01*
X160475501Y-63885260D01*
X160475501Y-63885256D01*
X160426465Y-63766873D01*
X160426464Y-63766872D01*
X160426461Y-63766866D01*
X160355276Y-63660331D01*
X160355273Y-63660327D01*
X160264672Y-63569726D01*
X160264668Y-63569723D01*
X160158133Y-63498538D01*
X160158124Y-63498533D01*
X160039744Y-63449499D01*
X160039738Y-63449497D01*
X159914071Y-63424500D01*
X159914069Y-63424500D01*
X159785931Y-63424500D01*
X159785929Y-63424500D01*
X159660261Y-63449497D01*
X159660255Y-63449499D01*
X159541875Y-63498533D01*
X159541866Y-63498538D01*
X159435331Y-63569723D01*
X159435327Y-63569726D01*
X159344726Y-63660327D01*
X159344723Y-63660331D01*
X159273538Y-63766866D01*
X159273533Y-63766875D01*
X159224499Y-63885255D01*
X159224497Y-63885261D01*
X159199500Y-64010928D01*
X159199500Y-64010931D01*
X159199500Y-64139069D01*
X159199500Y-64139071D01*
X159199499Y-64139071D01*
X99135000Y-64139071D01*
X99135000Y-43093713D01*
X123799500Y-43093713D01*
X123799500Y-43306286D01*
X123832753Y-43516239D01*
X123898444Y-43718414D01*
X123994951Y-43907820D01*
X124119890Y-44079786D01*
X124270213Y-44230109D01*
X124442179Y-44355048D01*
X124442181Y-44355049D01*
X124442184Y-44355051D01*
X124631588Y-44451557D01*
X124833757Y-44517246D01*
X125043713Y-44550500D01*
X125043714Y-44550500D01*
X125256286Y-44550500D01*
X125256287Y-44550500D01*
X125466243Y-44517246D01*
X125668412Y-44451557D01*
X125857816Y-44355051D01*
X125879789Y-44339086D01*
X126029786Y-44230109D01*
X126029788Y-44230106D01*
X126029792Y-44230104D01*
X126180104Y-44079792D01*
X126180106Y-44079788D01*
X126180109Y-44079786D01*
X126305048Y-43907820D01*
X126305047Y-43907820D01*
X126305051Y-43907816D01*
X126401557Y-43718412D01*
X126467246Y-43516243D01*
X126500500Y-43306287D01*
X126500500Y-43093713D01*
X130299500Y-43093713D01*
X130299500Y-43306286D01*
X130332753Y-43516239D01*
X130398444Y-43718414D01*
X130494951Y-43907820D01*
X130619890Y-44079786D01*
X130770213Y-44230109D01*
X130942179Y-44355048D01*
X130942181Y-44355049D01*
X130942184Y-44355051D01*
X131131588Y-44451557D01*
X131333757Y-44517246D01*
X131543713Y-44550500D01*
X131543714Y-44550500D01*
X131756286Y-44550500D01*
X131756287Y-44550500D01*
X131966243Y-44517246D01*
X132168412Y-44451557D01*
X132357816Y-44355051D01*
X132379789Y-44339086D01*
X132529786Y-44230109D01*
X132529788Y-44230106D01*
X132529792Y-44230104D01*
X132680104Y-44079792D01*
X132680106Y-44079788D01*
X132680109Y-44079786D01*
X132805048Y-43907820D01*
X132805047Y-43907820D01*
X132805051Y-43907816D01*
X132901557Y-43718412D01*
X132967246Y-43516243D01*
X133000500Y-43306287D01*
X133000500Y-43093713D01*
X132967246Y-42883757D01*
X132901557Y-42681588D01*
X132805051Y-42492184D01*
X132805049Y-42492181D01*
X132805048Y-42492179D01*
X132680109Y-42320213D01*
X132529786Y-42169890D01*
X132357820Y-42044951D01*
X132168414Y-41948444D01*
X132168413Y-41948443D01*
X132168412Y-41948443D01*
X131966243Y-41882754D01*
X131966241Y-41882753D01*
X131966240Y-41882753D01*
X131804957Y-41857208D01*
X131756287Y-41849500D01*
X131543713Y-41849500D01*
X131495042Y-41857208D01*
X131333760Y-41882753D01*
X131131585Y-41948444D01*
X130942179Y-42044951D01*
X130770213Y-42169890D01*
X130619890Y-42320213D01*
X130494951Y-42492179D01*
X130398444Y-42681585D01*
X130332753Y-42883760D01*
X130299500Y-43093713D01*
X126500500Y-43093713D01*
X126467246Y-42883757D01*
X126401557Y-42681588D01*
X126305051Y-42492184D01*
X126305049Y-42492181D01*
X126305048Y-42492179D01*
X126180109Y-42320213D01*
X126029786Y-42169890D01*
X125857820Y-42044951D01*
X125668414Y-41948444D01*
X125668413Y-41948443D01*
X125668412Y-41948443D01*
X125466243Y-41882754D01*
X125466241Y-41882753D01*
X125466240Y-41882753D01*
X125304957Y-41857208D01*
X125256287Y-41849500D01*
X125043713Y-41849500D01*
X124995042Y-41857208D01*
X124833760Y-41882753D01*
X124631585Y-41948444D01*
X124442179Y-42044951D01*
X124270213Y-42169890D01*
X124119890Y-42320213D01*
X123994951Y-42492179D01*
X123898444Y-42681585D01*
X123832753Y-42883760D01*
X123799500Y-43093713D01*
X99135000Y-43093713D01*
X99135000Y-38593713D01*
X130299500Y-38593713D01*
X130299500Y-38806287D01*
X130332754Y-39016243D01*
X130335314Y-39024123D01*
X130398444Y-39218414D01*
X130494951Y-39407820D01*
X130619890Y-39579786D01*
X130770213Y-39730109D01*
X130942179Y-39855048D01*
X130942181Y-39855049D01*
X130942184Y-39855051D01*
X131131588Y-39951557D01*
X131333757Y-40017246D01*
X131543713Y-40050500D01*
X131543714Y-40050500D01*
X131756286Y-40050500D01*
X131756287Y-40050500D01*
X131966243Y-40017246D01*
X132168412Y-39951557D01*
X132357816Y-39855051D01*
X132379789Y-39839086D01*
X132529786Y-39730109D01*
X132529788Y-39730106D01*
X132529792Y-39730104D01*
X132574638Y-39685258D01*
X167974500Y-39685258D01*
X167974500Y-39914741D01*
X167987996Y-40017246D01*
X168004452Y-40142238D01*
X168004453Y-40142240D01*
X168063842Y-40363887D01*
X168151650Y-40575876D01*
X168151657Y-40575890D01*
X168266392Y-40774617D01*
X168406081Y-40956661D01*
X168406089Y-40956670D01*
X168568330Y-41118911D01*
X168568338Y-41118918D01*
X168750382Y-41258607D01*
X168750385Y-41258608D01*
X168750388Y-41258611D01*
X168949112Y-41373344D01*
X168949117Y-41373346D01*
X168949123Y-41373349D01*
X169040480Y-41411190D01*
X169161113Y-41461158D01*
X169382762Y-41520548D01*
X169610266Y-41550500D01*
X169610273Y-41550500D01*
X169839727Y-41550500D01*
X169839734Y-41550500D01*
X170067238Y-41520548D01*
X170288887Y-41461158D01*
X170500888Y-41373344D01*
X170699612Y-41258611D01*
X170881661Y-41118919D01*
X170881665Y-41118914D01*
X170881670Y-41118911D01*
X171043911Y-40956670D01*
X171043914Y-40956665D01*
X171043919Y-40956661D01*
X171183611Y-40774612D01*
X171298344Y-40575888D01*
X171386158Y-40363887D01*
X171445548Y-40142238D01*
X171475500Y-39914734D01*
X171475500Y-39685266D01*
X171445548Y-39457762D01*
X171386158Y-39236113D01*
X171298344Y-39024112D01*
X171183611Y-38825388D01*
X171183608Y-38825385D01*
X171183607Y-38825382D01*
X171043918Y-38643338D01*
X171043911Y-38643330D01*
X170881670Y-38481089D01*
X170881661Y-38481081D01*
X170699617Y-38341392D01*
X170500890Y-38226657D01*
X170500876Y-38226650D01*
X170288887Y-38138842D01*
X170067238Y-38079452D01*
X170029215Y-38074446D01*
X169839741Y-38049500D01*
X169839734Y-38049500D01*
X169610266Y-38049500D01*
X169610258Y-38049500D01*
X169393715Y-38078009D01*
X169382762Y-38079452D01*
X169289076Y-38104554D01*
X169161112Y-38138842D01*
X168949123Y-38226650D01*
X168949109Y-38226657D01*
X168750382Y-38341392D01*
X168568338Y-38481081D01*
X168406081Y-38643338D01*
X168266392Y-38825382D01*
X168151657Y-39024109D01*
X168151650Y-39024123D01*
X168063842Y-39236112D01*
X168004453Y-39457759D01*
X168004451Y-39457770D01*
X167974500Y-39685258D01*
X132574638Y-39685258D01*
X132680104Y-39579792D01*
X132680106Y-39579788D01*
X132680109Y-39579786D01*
X132805048Y-39407820D01*
X132805047Y-39407820D01*
X132805051Y-39407816D01*
X132901557Y-39218412D01*
X132967246Y-39016243D01*
X133000500Y-38806287D01*
X133000500Y-38593713D01*
X132967246Y-38383757D01*
X132901557Y-38181588D01*
X132805051Y-37992184D01*
X132805049Y-37992181D01*
X132805048Y-37992179D01*
X132680109Y-37820213D01*
X132529786Y-37669890D01*
X132357820Y-37544951D01*
X132168414Y-37448444D01*
X132168413Y-37448443D01*
X132168412Y-37448443D01*
X131966243Y-37382754D01*
X131966241Y-37382753D01*
X131966240Y-37382753D01*
X131804957Y-37357208D01*
X131756287Y-37349500D01*
X131543713Y-37349500D01*
X131495042Y-37357208D01*
X131333760Y-37382753D01*
X131131585Y-37448444D01*
X130942179Y-37544951D01*
X130770213Y-37669890D01*
X130619890Y-37820213D01*
X130494951Y-37992179D01*
X130398444Y-38181585D01*
X130332753Y-38383760D01*
X130317339Y-38481081D01*
X130299500Y-38593713D01*
X99135000Y-38593713D01*
X99135000Y-35399500D01*
X99154685Y-35332461D01*
X99207489Y-35286706D01*
X99259000Y-35275500D01*
X174096792Y-35275500D01*
X174163831Y-35295185D01*
G37*
%TD.AperFunction*%
%TD*%
M02*
