%TF.GenerationSoftware,KiCad,Pcbnew,10.0.1*%
%TF.CreationDate,2026-06-15T09:04:18+02:00*%
%TF.ProjectId,StockfishChess,53746f63-6b66-4697-9368-43686573732e,rev?*%
%TF.SameCoordinates,Original*%
%TF.FileFunction,Copper,L2,Inr*%
%TF.FilePolarity,Positive*%
%FSLAX46Y46*%
G04 Gerber Fmt 4.6, Leading zero omitted, Abs format (unit mm)*
G04 Created by KiCad (PCBNEW 10.0.1) date 2026-06-15 09:04:18*
%MOMM*%
%LPD*%
G01*
G04 APERTURE LIST*
%TA.AperFunction,ComponentPad*%
%ADD10C,1.980000*%
%TD*%
%TA.AperFunction,ComponentPad*%
%ADD11C,1.358000*%
%TD*%
%TA.AperFunction,HeatsinkPad*%
%ADD12C,0.600000*%
%TD*%
%TA.AperFunction,ComponentPad*%
%ADD13C,1.700000*%
%TD*%
%TA.AperFunction,ViaPad*%
%ADD14C,0.800000*%
%TD*%
%TA.AperFunction,ViaPad*%
%ADD15C,0.700000*%
%TD*%
%TA.AperFunction,ViaPad*%
%ADD16C,0.600000*%
%TD*%
%TA.AperFunction,ViaPad*%
%ADD17C,1.000000*%
%TD*%
%TA.AperFunction,ViaPad*%
%ADD18C,0.500000*%
%TD*%
%TA.AperFunction,ViaPad*%
%ADD19C,0.900000*%
%TD*%
%TA.AperFunction,Conductor*%
%ADD20C,0.350000*%
%TD*%
%TA.AperFunction,Conductor*%
%ADD21C,0.500000*%
%TD*%
%TA.AperFunction,Conductor*%
%ADD22C,0.300000*%
%TD*%
%TA.AperFunction,Conductor*%
%ADD23C,0.400000*%
%TD*%
%TA.AperFunction,Conductor*%
%ADD24C,0.200000*%
%TD*%
G04 APERTURE END LIST*
D10*
%TO.N,Net-(BT1-PadN)*%
%TO.C,REF\u002A\u002A*%
X81135586Y-90209414D03*
%TO.N,VBUS*%
X153355586Y-90209414D03*
%TD*%
%TO.N,GND*%
%TO.C,REF\u002A\u002A*%
X153355586Y-112209414D03*
%TO.N,Net-(BT1-PadN)*%
X81135586Y-112209414D03*
%TD*%
D11*
%TO.N,VBUS*%
%TO.C,U145*%
X161585586Y-104739414D03*
X166635586Y-106739414D03*
%TD*%
D12*
%TO.N,GND*%
%TO.C,U1*%
X105225000Y-55635000D03*
X106725000Y-55635000D03*
X104475000Y-54885000D03*
X105975000Y-54885000D03*
X107475000Y-54885000D03*
X105225000Y-54135000D03*
X106725000Y-54135000D03*
X104475000Y-53385000D03*
X105975000Y-53385000D03*
X107475000Y-53385000D03*
X105225000Y-52635000D03*
X106725000Y-52635000D03*
%TD*%
D13*
%TO.N,GND*%
%TO.C,REF\u002A\u002A*%
X125150000Y-38700000D03*
%TO.N,N/C*%
X131650000Y-38700000D03*
%TO.N,Net-(U1-IO0)*%
X125150000Y-43200000D03*
%TO.N,N/C*%
X131650000Y-43200000D03*
%TD*%
D11*
%TO.N,VBUS*%
%TO.C,U146*%
X103500000Y-150975000D03*
X105500000Y-145925000D03*
%TD*%
D14*
%TO.N,VBUS*%
X134121292Y-129925000D03*
D15*
X89115586Y-147014414D03*
D14*
X159285586Y-95239414D03*
D15*
X93369336Y-146939414D03*
D16*
%TO.N,GND*%
X122785586Y-134589414D03*
D17*
X100850000Y-41700000D03*
X160960686Y-56539414D03*
X100685586Y-63439414D03*
X156785586Y-110339414D03*
D15*
X120700000Y-140025000D03*
D16*
X103975000Y-66225000D03*
D18*
X106385586Y-142239414D03*
D16*
X107035586Y-136339414D03*
D14*
X109250000Y-147839414D03*
X108948086Y-142289414D03*
D17*
X120875000Y-153650000D03*
D19*
X145925000Y-152850000D03*
D16*
%TO.N,Net-(J2-DP2)*%
X95719336Y-141839414D03*
X91725000Y-144650000D03*
D17*
%TO.N,+5V*%
X136675000Y-148425000D03*
D16*
%TO.N,+3.3V*%
X111375000Y-143700000D03*
D17*
X121155586Y-149289414D03*
D19*
X139856142Y-146375000D03*
D14*
X161160686Y-55139414D03*
D19*
X139756142Y-145275000D03*
D16*
X111305000Y-66050000D03*
D14*
X101885586Y-66175000D03*
D18*
X137600000Y-132575000D03*
D16*
%TO.N,/CLK 5V*%
X138956142Y-133475000D03*
X140256142Y-137025000D03*
%TO.N,/CLK*%
X138503071Y-138121929D03*
X125275000Y-72775000D03*
%TO.N,Net-(U143-1A)*%
X123925000Y-72700000D03*
X138756142Y-142275000D03*
D18*
%TO.N,Net-(R24-Pad1)*%
X114450000Y-74450000D03*
X101100000Y-140525000D03*
%TO.N,Net-(R25-Pad1)*%
X113650000Y-73525000D03*
X99950000Y-139500000D03*
%TD*%
%TO.N,VBUS*%
D20*
X90785586Y-146539414D02*
X89590586Y-146539414D01*
D21*
X134121292Y-126408708D02*
X159285586Y-101244414D01*
X134121292Y-129925000D02*
X134121292Y-126408708D01*
D20*
X93369336Y-146939414D02*
X91185586Y-146939414D01*
X89590586Y-146539414D02*
X89115586Y-147014414D01*
D21*
X159285586Y-101244414D02*
X159285586Y-95239414D01*
D20*
X91185586Y-146939414D02*
X90785586Y-146539414D01*
%TO.N,Net-(J2-DP2)*%
D22*
X94535586Y-141839414D02*
X95719336Y-141839414D01*
X91725000Y-144650000D02*
X94535586Y-141839414D01*
%TO.N,+3.3V*%
D23*
X124785586Y-70439414D02*
X140085586Y-55139414D01*
D22*
X115085586Y-145839414D02*
X117198086Y-147951914D01*
D21*
X117650000Y-130425000D02*
X103450000Y-116225000D01*
X121155586Y-148709414D02*
X120398086Y-147951914D01*
X101885586Y-68935586D02*
X101885586Y-66175000D01*
D23*
X112225000Y-70439414D02*
X124785586Y-70439414D01*
D22*
X111375000Y-143700000D02*
X111579922Y-143700000D01*
X112730000Y-67475000D02*
X112725000Y-67480000D01*
D21*
X103450000Y-116225000D02*
X103450000Y-70500000D01*
X121155586Y-149289414D02*
X121155586Y-148709414D01*
D23*
X101885586Y-67239414D02*
X105085586Y-70439414D01*
D21*
X103450000Y-70500000D02*
X101885586Y-68935586D01*
D22*
X112725000Y-67480000D02*
X112725000Y-69939414D01*
D23*
X140085586Y-55139414D02*
X161160686Y-55139414D01*
D22*
X111305000Y-66050000D02*
X112730000Y-67475000D01*
D21*
X120398086Y-147951914D02*
X117650000Y-145203828D01*
D23*
X101885586Y-66175000D02*
X101885586Y-67239414D01*
D22*
X113719336Y-145839414D02*
X115085586Y-145839414D01*
X112725000Y-69939414D02*
X112225000Y-70439414D01*
X111579922Y-143700000D02*
X113719336Y-145839414D01*
X117198086Y-147951914D02*
X120398086Y-147951914D01*
D21*
X117650000Y-145203828D02*
X117650000Y-130425000D01*
D23*
X105085586Y-70439414D02*
X112225000Y-70439414D01*
%TO.N,/CLK 5V*%
D24*
X140256142Y-137025000D02*
X140256142Y-136531142D01*
X140256142Y-136531142D02*
X139950000Y-136225000D01*
X139950000Y-135425000D02*
X139400000Y-134875000D01*
X139950000Y-136225000D02*
X139950000Y-135425000D01*
X139400000Y-133918858D02*
X138956142Y-133475000D01*
X139400000Y-134875000D02*
X139400000Y-133918858D01*
%TO.N,/CLK*%
X125275000Y-72775000D02*
X125275000Y-73500000D01*
X125285586Y-73510586D02*
X125285586Y-124904444D01*
X125285586Y-124904444D02*
X138503071Y-138121929D01*
X125275000Y-73500000D02*
X125285586Y-73510586D01*
%TO.N,Net-(U143-1A)*%
X134421292Y-139825000D02*
X136871292Y-142275000D01*
X123925000Y-72700000D02*
X123925000Y-73200000D01*
X124385586Y-73660586D02*
X124385586Y-125639414D01*
X136871292Y-142275000D02*
X138756142Y-142275000D01*
X123925000Y-73200000D02*
X124385586Y-73660586D01*
X134421292Y-135675120D02*
X134421292Y-139825000D01*
X124385586Y-125639414D02*
X134421292Y-135675120D01*
%TD*%
%TA.AperFunction,Conductor*%
%TO.N,+3.3V*%
G36*
X143153700Y-129156749D02*
G01*
X143207834Y-129200922D01*
X143229340Y-129263842D01*
X144613803Y-153145827D01*
X144598031Y-153213893D01*
X144547964Y-153262627D01*
X144491917Y-153276988D01*
X121993371Y-153622836D01*
X121926037Y-153604185D01*
X121879476Y-153552090D01*
X121869848Y-153523042D01*
X121837052Y-153358172D01*
X121837052Y-153358170D01*
X121837051Y-153358165D01*
X121777292Y-153213893D01*
X121761635Y-153176092D01*
X121761628Y-153176079D01*
X121652139Y-153012218D01*
X121652136Y-153012214D01*
X121512785Y-152872863D01*
X121512781Y-152872860D01*
X121348920Y-152763371D01*
X121348907Y-152763364D01*
X121166839Y-152687950D01*
X121166829Y-152687947D01*
X120973543Y-152649500D01*
X120973541Y-152649500D01*
X120776459Y-152649500D01*
X120776457Y-152649500D01*
X120583170Y-152687947D01*
X120583160Y-152687950D01*
X120401092Y-152763364D01*
X120401079Y-152763371D01*
X120237218Y-152872860D01*
X120237214Y-152872863D01*
X120097863Y-153012214D01*
X120097860Y-153012218D01*
X119988371Y-153176079D01*
X119988364Y-153176092D01*
X119912950Y-153358160D01*
X119912947Y-153358170D01*
X119873311Y-153557434D01*
X119870567Y-153556888D01*
X119848621Y-153610614D01*
X119791424Y-153650742D01*
X119753596Y-153657266D01*
X118747931Y-153672725D01*
X118680597Y-153654074D01*
X118634036Y-153601979D01*
X118623030Y-153532982D01*
X118623608Y-153528988D01*
X119396510Y-148748920D01*
X129105641Y-148748920D01*
X129134482Y-148893907D01*
X129134485Y-148893917D01*
X129191054Y-149030488D01*
X129191061Y-149030501D01*
X129273190Y-149153415D01*
X129273193Y-149153419D01*
X129377722Y-149257948D01*
X129377726Y-149257951D01*
X129500640Y-149340080D01*
X129500653Y-149340087D01*
X129614038Y-149387052D01*
X129637229Y-149396658D01*
X129637233Y-149396658D01*
X129637234Y-149396659D01*
X129782221Y-149425500D01*
X129782224Y-149425500D01*
X129930062Y-149425500D01*
X130027604Y-149406096D01*
X130075055Y-149396658D01*
X130211637Y-149340084D01*
X130334558Y-149257951D01*
X130439093Y-149153416D01*
X130521226Y-149030495D01*
X130577800Y-148893913D01*
X130606642Y-148748918D01*
X130606642Y-148601082D01*
X130606642Y-148601079D01*
X130591218Y-148523543D01*
X135674499Y-148523543D01*
X135712947Y-148716829D01*
X135712950Y-148716839D01*
X135788364Y-148898907D01*
X135788371Y-148898920D01*
X135897860Y-149062781D01*
X135897863Y-149062785D01*
X136037214Y-149202136D01*
X136037218Y-149202139D01*
X136201079Y-149311628D01*
X136201092Y-149311635D01*
X136383160Y-149387049D01*
X136383165Y-149387051D01*
X136383169Y-149387051D01*
X136383170Y-149387052D01*
X136576456Y-149425500D01*
X136576459Y-149425500D01*
X136773543Y-149425500D01*
X136918548Y-149396656D01*
X136966835Y-149387051D01*
X137148914Y-149311632D01*
X137312782Y-149202139D01*
X137452139Y-149062782D01*
X137561632Y-148898914D01*
X137563704Y-148893913D01*
X137637049Y-148716839D01*
X137637051Y-148716835D01*
X137675500Y-148523541D01*
X137675500Y-148326459D01*
X137675500Y-148326456D01*
X137637052Y-148133170D01*
X137637051Y-148133169D01*
X137637051Y-148133165D01*
X137615630Y-148081450D01*
X137561635Y-147951092D01*
X137561628Y-147951079D01*
X137452139Y-147787218D01*
X137452136Y-147787214D01*
X137312785Y-147647863D01*
X137312781Y-147647860D01*
X137157337Y-147543995D01*
X139255641Y-147543995D01*
X139282560Y-147679322D01*
X139282563Y-147679332D01*
X139335363Y-147806804D01*
X139335370Y-147806817D01*
X139412027Y-147921541D01*
X139412030Y-147921545D01*
X139499915Y-148009430D01*
X139533400Y-148070753D01*
X139528416Y-148140445D01*
X139508085Y-148175779D01*
X139505882Y-148178462D01*
X139429228Y-148293182D01*
X139429221Y-148293195D01*
X139376421Y-148420667D01*
X139376418Y-148420677D01*
X139349500Y-148556004D01*
X139349500Y-148556007D01*
X139349500Y-148693993D01*
X139349500Y-148693995D01*
X139349499Y-148693995D01*
X139376418Y-148829322D01*
X139376421Y-148829332D01*
X139429221Y-148956804D01*
X139429228Y-148956817D01*
X139505885Y-149071541D01*
X139505888Y-149071545D01*
X139603454Y-149169111D01*
X139603458Y-149169114D01*
X139718182Y-149245771D01*
X139718195Y-149245778D01*
X139845667Y-149298578D01*
X139845672Y-149298580D01*
X139845676Y-149298580D01*
X139845677Y-149298581D01*
X139981004Y-149325500D01*
X139981007Y-149325500D01*
X140118995Y-149325500D01*
X140210041Y-149307389D01*
X140254328Y-149298580D01*
X140381811Y-149245775D01*
X140496542Y-149169114D01*
X140594114Y-149071542D01*
X140670775Y-148956811D01*
X140723580Y-148829328D01*
X140745956Y-148716839D01*
X140750500Y-148693995D01*
X140750500Y-148556004D01*
X140723581Y-148420677D01*
X140723580Y-148420676D01*
X140723580Y-148420672D01*
X140681677Y-148319508D01*
X140670778Y-148293195D01*
X140670771Y-148293182D01*
X140594114Y-148178458D01*
X140594111Y-148178454D01*
X140506226Y-148090569D01*
X140472741Y-148029246D01*
X140477725Y-147959554D01*
X140498068Y-147924206D01*
X140500242Y-147921555D01*
X140500256Y-147921542D01*
X140576917Y-147806811D01*
X140629722Y-147679328D01*
X140656642Y-147543993D01*
X140656642Y-147406007D01*
X140656642Y-147406004D01*
X140629723Y-147270677D01*
X140629722Y-147270676D01*
X140629722Y-147270672D01*
X140629720Y-147270667D01*
X140576920Y-147143195D01*
X140576913Y-147143182D01*
X140500256Y-147028458D01*
X140500253Y-147028454D01*
X140402687Y-146930888D01*
X140402683Y-146930885D01*
X140287959Y-146854228D01*
X140287946Y-146854221D01*
X140160474Y-146801421D01*
X140160464Y-146801418D01*
X140025137Y-146774500D01*
X140025135Y-146774500D01*
X139887149Y-146774500D01*
X139887147Y-146774500D01*
X139751819Y-146801418D01*
X139751809Y-146801421D01*
X139624337Y-146854221D01*
X139624324Y-146854228D01*
X139509600Y-146930885D01*
X139509596Y-146930888D01*
X139412030Y-147028454D01*
X139412027Y-147028458D01*
X139335370Y-147143182D01*
X139335363Y-147143195D01*
X139282563Y-147270667D01*
X139282560Y-147270677D01*
X139255642Y-147406004D01*
X139255642Y-147406007D01*
X139255642Y-147543993D01*
X139255642Y-147543995D01*
X139255641Y-147543995D01*
X137157337Y-147543995D01*
X137148920Y-147538371D01*
X137148907Y-147538364D01*
X137091234Y-147514476D01*
X136966839Y-147462950D01*
X136966829Y-147462947D01*
X136773543Y-147424500D01*
X136773541Y-147424500D01*
X136576459Y-147424500D01*
X136576457Y-147424500D01*
X136383170Y-147462947D01*
X136383160Y-147462950D01*
X136201092Y-147538364D01*
X136201079Y-147538371D01*
X136037218Y-147647860D01*
X136037214Y-147647863D01*
X135897863Y-147787214D01*
X135897860Y-147787218D01*
X135788371Y-147951079D01*
X135788364Y-147951092D01*
X135712950Y-148133160D01*
X135712947Y-148133170D01*
X135674500Y-148326456D01*
X135674500Y-148326459D01*
X135674500Y-148523541D01*
X135674500Y-148523543D01*
X135674499Y-148523543D01*
X130591218Y-148523543D01*
X130577801Y-148456092D01*
X130577800Y-148456091D01*
X130577800Y-148456087D01*
X130563129Y-148420667D01*
X130541239Y-148367819D01*
X130521227Y-148319508D01*
X130521226Y-148319505D01*
X130521224Y-148319502D01*
X130521222Y-148319498D01*
X130439093Y-148196584D01*
X130439090Y-148196580D01*
X130334561Y-148092051D01*
X130334557Y-148092048D01*
X130211643Y-148009919D01*
X130211630Y-148009912D01*
X130075059Y-147953343D01*
X130075049Y-147953340D01*
X129930062Y-147924500D01*
X129930060Y-147924500D01*
X129782224Y-147924500D01*
X129782222Y-147924500D01*
X129637234Y-147953340D01*
X129637224Y-147953343D01*
X129500653Y-148009912D01*
X129500640Y-148009919D01*
X129377726Y-148092048D01*
X129377722Y-148092051D01*
X129273193Y-148196580D01*
X129273190Y-148196584D01*
X129191061Y-148319498D01*
X129191054Y-148319511D01*
X129134485Y-148456082D01*
X129134482Y-148456092D01*
X129105642Y-148601079D01*
X129105642Y-148601082D01*
X129105642Y-148748918D01*
X129105642Y-148748920D01*
X129105641Y-148748920D01*
X119396510Y-148748920D01*
X120238109Y-143543995D01*
X129055641Y-143543995D01*
X129082560Y-143679322D01*
X129082563Y-143679332D01*
X129135363Y-143806804D01*
X129135370Y-143806817D01*
X129212027Y-143921541D01*
X129212030Y-143921545D01*
X129309596Y-144019111D01*
X129309600Y-144019114D01*
X129424324Y-144095771D01*
X129424337Y-144095778D01*
X129545032Y-144145771D01*
X129551814Y-144148580D01*
X129551818Y-144148580D01*
X129551819Y-144148581D01*
X129687146Y-144175500D01*
X129687149Y-144175500D01*
X129825137Y-144175500D01*
X129916183Y-144157389D01*
X129960470Y-144148580D01*
X130087953Y-144095775D01*
X130202684Y-144019114D01*
X130300256Y-143921542D01*
X130376917Y-143806811D01*
X130429722Y-143679328D01*
X130456642Y-143543993D01*
X130456642Y-143406007D01*
X130456642Y-143406004D01*
X130429723Y-143270677D01*
X130429722Y-143270676D01*
X130429722Y-143270672D01*
X130391189Y-143177645D01*
X130376920Y-143143195D01*
X130376913Y-143143182D01*
X130300256Y-143028458D01*
X130300253Y-143028454D01*
X130202687Y-142930888D01*
X130202683Y-142930885D01*
X130087959Y-142854228D01*
X130087946Y-142854221D01*
X129960474Y-142801421D01*
X129960464Y-142801418D01*
X129825137Y-142774500D01*
X129825135Y-142774500D01*
X129687149Y-142774500D01*
X129687147Y-142774500D01*
X129551819Y-142801418D01*
X129551809Y-142801421D01*
X129424337Y-142854221D01*
X129424324Y-142854228D01*
X129309600Y-142930885D01*
X129309596Y-142930888D01*
X129212030Y-143028454D01*
X129212027Y-143028458D01*
X129135370Y-143143182D01*
X129135363Y-143143195D01*
X129082563Y-143270667D01*
X129082560Y-143270677D01*
X129055642Y-143406004D01*
X129055642Y-143406007D01*
X129055642Y-143543993D01*
X129055642Y-143543995D01*
X129055641Y-143543995D01*
X120238109Y-143543995D01*
X120652736Y-140979704D01*
X120682868Y-140916669D01*
X120742298Y-140879930D01*
X120775145Y-140875500D01*
X120783768Y-140875500D01*
X120783769Y-140875499D01*
X120948082Y-140842816D01*
X121102863Y-140778703D01*
X121242162Y-140685626D01*
X121360626Y-140567162D01*
X121453703Y-140427863D01*
X121517816Y-140273082D01*
X121550500Y-140108767D01*
X121550500Y-139941233D01*
X121517816Y-139776918D01*
X121453703Y-139622137D01*
X121401490Y-139543995D01*
X129255641Y-139543995D01*
X129282560Y-139679322D01*
X129282563Y-139679332D01*
X129335363Y-139806804D01*
X129335370Y-139806817D01*
X129412027Y-139921541D01*
X129412030Y-139921545D01*
X129509596Y-140019111D01*
X129509600Y-140019114D01*
X129624324Y-140095771D01*
X129624337Y-140095778D01*
X129751809Y-140148578D01*
X129751814Y-140148580D01*
X129751818Y-140148580D01*
X129751819Y-140148581D01*
X129887146Y-140175500D01*
X129887149Y-140175500D01*
X130025137Y-140175500D01*
X130116183Y-140157389D01*
X130160470Y-140148580D01*
X130287953Y-140095775D01*
X130402684Y-140019114D01*
X130500256Y-139921542D01*
X130576917Y-139806811D01*
X130629722Y-139679328D01*
X130650223Y-139576265D01*
X130656642Y-139543995D01*
X130656642Y-139406004D01*
X130629723Y-139270677D01*
X130629722Y-139270676D01*
X130629722Y-139270672D01*
X130616982Y-139239914D01*
X130576920Y-139143195D01*
X130576913Y-139143182D01*
X130500256Y-139028458D01*
X130500253Y-139028454D01*
X130402687Y-138930888D01*
X130402683Y-138930885D01*
X130287959Y-138854228D01*
X130287946Y-138854221D01*
X130160474Y-138801421D01*
X130160464Y-138801418D01*
X130025137Y-138774500D01*
X130025135Y-138774500D01*
X129887149Y-138774500D01*
X129887147Y-138774500D01*
X129751819Y-138801418D01*
X129751809Y-138801421D01*
X129624337Y-138854221D01*
X129624324Y-138854228D01*
X129509600Y-138930885D01*
X129509596Y-138930888D01*
X129412030Y-139028454D01*
X129412027Y-139028458D01*
X129335370Y-139143182D01*
X129335363Y-139143195D01*
X129282563Y-139270667D01*
X129282560Y-139270677D01*
X129255642Y-139406004D01*
X129255642Y-139406007D01*
X129255642Y-139543993D01*
X129255642Y-139543995D01*
X129255641Y-139543995D01*
X121401490Y-139543995D01*
X121360626Y-139482838D01*
X121320703Y-139442915D01*
X121320147Y-139442358D01*
X121303351Y-139411533D01*
X121286741Y-139381114D01*
X121286745Y-139381056D01*
X121286717Y-139381005D01*
X121289249Y-139346033D01*
X121291725Y-139311422D01*
X121291759Y-139311375D01*
X121291764Y-139311318D01*
X121312728Y-139283365D01*
X121333597Y-139255489D01*
X121333655Y-139255463D01*
X121333686Y-139255422D01*
X121334055Y-139255284D01*
X121383715Y-139233139D01*
X121422448Y-139225433D01*
X121475330Y-139214915D01*
X121593713Y-139165879D01*
X121700255Y-139094690D01*
X121790862Y-139004083D01*
X121862051Y-138897541D01*
X121911087Y-138779158D01*
X121936086Y-138653483D01*
X121936086Y-138525345D01*
X121936086Y-138525342D01*
X121911088Y-138399675D01*
X121911087Y-138399674D01*
X121911087Y-138399670D01*
X121862051Y-138281287D01*
X121862050Y-138281286D01*
X121862047Y-138281280D01*
X121790862Y-138174745D01*
X121790859Y-138174741D01*
X121700258Y-138084140D01*
X121700254Y-138084137D01*
X121593719Y-138012952D01*
X121593710Y-138012947D01*
X121475330Y-137963913D01*
X121475324Y-137963911D01*
X121349657Y-137938914D01*
X121349655Y-137938914D01*
X121290070Y-137938914D01*
X121223031Y-137919229D01*
X121177276Y-137866425D01*
X121167332Y-137797267D01*
X121167660Y-137795121D01*
X121180884Y-137713334D01*
X123935085Y-137713334D01*
X123963926Y-137858321D01*
X123963929Y-137858331D01*
X124020498Y-137994902D01*
X124020505Y-137994915D01*
X124102634Y-138117829D01*
X124102637Y-138117833D01*
X124207166Y-138222362D01*
X124207170Y-138222365D01*
X124330084Y-138304494D01*
X124330097Y-138304501D01*
X124453023Y-138355418D01*
X124466673Y-138361072D01*
X124466677Y-138361072D01*
X124466678Y-138361073D01*
X124611665Y-138389914D01*
X124611668Y-138389914D01*
X124759506Y-138389914D01*
X124857048Y-138370510D01*
X124904499Y-138361072D01*
X125041081Y-138304498D01*
X125164002Y-138222365D01*
X125268537Y-138117830D01*
X125350670Y-137994909D01*
X125407244Y-137858327D01*
X125430233Y-137742756D01*
X125436086Y-137713334D01*
X125436086Y-137565493D01*
X125407245Y-137420506D01*
X125407244Y-137420505D01*
X125407244Y-137420501D01*
X125378949Y-137352190D01*
X125350673Y-137283925D01*
X125350666Y-137283912D01*
X125268537Y-137160998D01*
X125268534Y-137160994D01*
X125164005Y-137056465D01*
X125164001Y-137056462D01*
X125041087Y-136974333D01*
X125041074Y-136974326D01*
X124904503Y-136917757D01*
X124904493Y-136917754D01*
X124759506Y-136888914D01*
X124759504Y-136888914D01*
X124611668Y-136888914D01*
X124611666Y-136888914D01*
X124466678Y-136917754D01*
X124466668Y-136917757D01*
X124330097Y-136974326D01*
X124330084Y-136974333D01*
X124207170Y-137056462D01*
X124207166Y-137056465D01*
X124102637Y-137160994D01*
X124102634Y-137160998D01*
X124020505Y-137283912D01*
X124020498Y-137283925D01*
X123963929Y-137420496D01*
X123963926Y-137420506D01*
X123935086Y-137565493D01*
X123935086Y-137565496D01*
X123935086Y-137713332D01*
X123935086Y-137713334D01*
X123935085Y-137713334D01*
X121180884Y-137713334D01*
X121208974Y-137539611D01*
X121698748Y-134510567D01*
X121985086Y-134510567D01*
X121985086Y-134668260D01*
X122015847Y-134822903D01*
X122015850Y-134822915D01*
X122076188Y-134968586D01*
X122076195Y-134968599D01*
X122163796Y-135099702D01*
X122163799Y-135099706D01*
X122275293Y-135211200D01*
X122275297Y-135211203D01*
X122406400Y-135298804D01*
X122406413Y-135298811D01*
X122537410Y-135353071D01*
X122552089Y-135359151D01*
X122648131Y-135378255D01*
X122706739Y-135389913D01*
X122706742Y-135389914D01*
X122706744Y-135389914D01*
X122864430Y-135389914D01*
X122864431Y-135389913D01*
X123019083Y-135359151D01*
X123164765Y-135298808D01*
X123295875Y-135211203D01*
X123407375Y-135099703D01*
X123494980Y-134968593D01*
X123555323Y-134822911D01*
X123586086Y-134668256D01*
X123586086Y-134510572D01*
X123586086Y-134510569D01*
X123586085Y-134510567D01*
X123580937Y-134484687D01*
X123555323Y-134355917D01*
X123554942Y-134354998D01*
X123494983Y-134210241D01*
X123494976Y-134210228D01*
X123407375Y-134079125D01*
X123407372Y-134079121D01*
X123295878Y-133967627D01*
X123295874Y-133967624D01*
X123164771Y-133880023D01*
X123164758Y-133880016D01*
X123019087Y-133819678D01*
X123019075Y-133819675D01*
X122864431Y-133788914D01*
X122864428Y-133788914D01*
X122706744Y-133788914D01*
X122706741Y-133788914D01*
X122552096Y-133819675D01*
X122552084Y-133819678D01*
X122406413Y-133880016D01*
X122406400Y-133880023D01*
X122275297Y-133967624D01*
X122275293Y-133967627D01*
X122163799Y-134079121D01*
X122163796Y-134079125D01*
X122076195Y-134210228D01*
X122076188Y-134210241D01*
X122015850Y-134355912D01*
X122015847Y-134355924D01*
X121985086Y-134510567D01*
X121698748Y-134510567D01*
X121702933Y-134484687D01*
X121957190Y-132912214D01*
X121987323Y-132849176D01*
X122046753Y-132812437D01*
X122058322Y-132809846D01*
X129360821Y-131538352D01*
X129430241Y-131546245D01*
X129469770Y-131572833D01*
X133784473Y-135887536D01*
X133817958Y-135948859D01*
X133820792Y-135975217D01*
X133820792Y-139738330D01*
X133820791Y-139738348D01*
X133820791Y-139904054D01*
X133820790Y-139904054D01*
X133820791Y-139904057D01*
X133861715Y-140056785D01*
X133881776Y-140091531D01*
X133914712Y-140148578D01*
X133940771Y-140193714D01*
X133940773Y-140193717D01*
X134059641Y-140312585D01*
X134059647Y-140312590D01*
X136386431Y-142639374D01*
X136386441Y-142639385D01*
X136390771Y-142643715D01*
X136390772Y-142643716D01*
X136502576Y-142755520D01*
X136582078Y-142801420D01*
X136582079Y-142801421D01*
X136639501Y-142834574D01*
X136639502Y-142834574D01*
X136639507Y-142834577D01*
X136792234Y-142875500D01*
X136792235Y-142875500D01*
X138176376Y-142875500D01*
X138243415Y-142895185D01*
X138245267Y-142896398D01*
X138376956Y-142984390D01*
X138376969Y-142984397D01*
X138522640Y-143044735D01*
X138522645Y-143044737D01*
X138612780Y-143062666D01*
X138677295Y-143075499D01*
X138677298Y-143075500D01*
X138677300Y-143075500D01*
X138834986Y-143075500D01*
X138899505Y-143062666D01*
X138969097Y-143068893D01*
X139024274Y-143111756D01*
X139047519Y-143177645D01*
X139038258Y-143231735D01*
X139001421Y-143320667D01*
X139001418Y-143320677D01*
X138974500Y-143456004D01*
X138974500Y-143456007D01*
X138974500Y-143593993D01*
X138974500Y-143593995D01*
X138974499Y-143593995D01*
X139001418Y-143729322D01*
X139001421Y-143729332D01*
X139054221Y-143856804D01*
X139054228Y-143856817D01*
X139130885Y-143971541D01*
X139130888Y-143971545D01*
X139228454Y-144069111D01*
X139228458Y-144069114D01*
X139343182Y-144145771D01*
X139343195Y-144145778D01*
X139470667Y-144198578D01*
X139470672Y-144198580D01*
X139470676Y-144198580D01*
X139470677Y-144198581D01*
X139606004Y-144225500D01*
X139606007Y-144225500D01*
X139743995Y-144225500D01*
X139835041Y-144207389D01*
X139879328Y-144198580D01*
X140006811Y-144145775D01*
X140121542Y-144069114D01*
X140219114Y-143971542D01*
X140295775Y-143856811D01*
X140348580Y-143729328D01*
X140375500Y-143593993D01*
X140375500Y-143456007D01*
X140375500Y-143456004D01*
X140348581Y-143320677D01*
X140348580Y-143320676D01*
X140348580Y-143320672D01*
X140348578Y-143320667D01*
X140295778Y-143193195D01*
X140295771Y-143193182D01*
X140219114Y-143078458D01*
X140219111Y-143078454D01*
X140121545Y-142980888D01*
X140121541Y-142980885D01*
X140006817Y-142904228D01*
X140006804Y-142904221D01*
X139879332Y-142851421D01*
X139879322Y-142851418D01*
X139743995Y-142824500D01*
X139743993Y-142824500D01*
X139606007Y-142824500D01*
X139606005Y-142824500D01*
X139603566Y-142824985D01*
X139602263Y-142824868D01*
X139599942Y-142825097D01*
X139599898Y-142824656D01*
X139533974Y-142818755D01*
X139478798Y-142775891D01*
X139455556Y-142710000D01*
X139464817Y-142655914D01*
X139465536Y-142654179D01*
X139525879Y-142508497D01*
X139556642Y-142353842D01*
X139556642Y-142196158D01*
X139556642Y-142196155D01*
X139556641Y-142196153D01*
X139525880Y-142041510D01*
X139525879Y-142041503D01*
X139525877Y-142041498D01*
X139465539Y-141895827D01*
X139465532Y-141895814D01*
X139377931Y-141764711D01*
X139377928Y-141764707D01*
X139266434Y-141653213D01*
X139266430Y-141653210D01*
X139135327Y-141565609D01*
X139135314Y-141565602D01*
X138989643Y-141505264D01*
X138989631Y-141505261D01*
X138834987Y-141474500D01*
X138834984Y-141474500D01*
X138677300Y-141474500D01*
X138677297Y-141474500D01*
X138522652Y-141505261D01*
X138522640Y-141505264D01*
X138376969Y-141565602D01*
X138376956Y-141565609D01*
X138245267Y-141653602D01*
X138178589Y-141674480D01*
X138176376Y-141674500D01*
X137171389Y-141674500D01*
X137104350Y-141654815D01*
X137083708Y-141638181D01*
X135058111Y-139612584D01*
X135024626Y-139551261D01*
X135021792Y-139524903D01*
X135021792Y-135789247D01*
X135041477Y-135722208D01*
X135094281Y-135676453D01*
X135163439Y-135666509D01*
X135226995Y-135695534D01*
X135233459Y-135701553D01*
X136420821Y-136888914D01*
X137668496Y-138136589D01*
X137701981Y-138197912D01*
X137702432Y-138200078D01*
X137733332Y-138355420D01*
X137733335Y-138355430D01*
X137793673Y-138501101D01*
X137793680Y-138501114D01*
X137881281Y-138632217D01*
X137881284Y-138632221D01*
X137992778Y-138743715D01*
X137992782Y-138743718D01*
X138123885Y-138831319D01*
X138123898Y-138831326D01*
X138269569Y-138891664D01*
X138269574Y-138891666D01*
X138424224Y-138922428D01*
X138424227Y-138922429D01*
X138424229Y-138922429D01*
X138581915Y-138922429D01*
X138581916Y-138922428D01*
X138736568Y-138891666D01*
X138882250Y-138831323D01*
X139013360Y-138743718D01*
X139124860Y-138632218D01*
X139212465Y-138501108D01*
X139272808Y-138355426D01*
X139303571Y-138200771D01*
X139303571Y-138043087D01*
X139303571Y-138043084D01*
X139303570Y-138043082D01*
X139287822Y-137963911D01*
X139272808Y-137888432D01*
X139272806Y-137888427D01*
X139212468Y-137742756D01*
X139212461Y-137742743D01*
X139124860Y-137611640D01*
X139124857Y-137611636D01*
X139013363Y-137500142D01*
X139013359Y-137500139D01*
X138882256Y-137412538D01*
X138882243Y-137412531D01*
X138736572Y-137352193D01*
X138736562Y-137352190D01*
X138581222Y-137321291D01*
X138519312Y-137288906D01*
X138517733Y-137287355D01*
X136620291Y-135389913D01*
X134626531Y-133396153D01*
X138155642Y-133396153D01*
X138155642Y-133553846D01*
X138186403Y-133708489D01*
X138186406Y-133708501D01*
X138246744Y-133854172D01*
X138246751Y-133854185D01*
X138334352Y-133985288D01*
X138334355Y-133985292D01*
X138445849Y-134096786D01*
X138445853Y-134096789D01*
X138576956Y-134184390D01*
X138576969Y-134184397D01*
X138722952Y-134244864D01*
X138777356Y-134288704D01*
X138799421Y-134354998D01*
X138799500Y-134359425D01*
X138799500Y-134788330D01*
X138799499Y-134788348D01*
X138799499Y-134954054D01*
X138799498Y-134954054D01*
X138817406Y-135020887D01*
X138840423Y-135106785D01*
X138869360Y-135156904D01*
X138919480Y-135243716D01*
X138955094Y-135279330D01*
X138961395Y-135288384D01*
X138969110Y-135311481D01*
X138980781Y-135332855D01*
X138979981Y-135344028D01*
X138983531Y-135354654D01*
X138977534Y-135378255D01*
X138975797Y-135402547D01*
X138967003Y-135421212D01*
X138896565Y-135543215D01*
X138896565Y-135543216D01*
X138855642Y-135695943D01*
X138855642Y-135854057D01*
X138888388Y-135976265D01*
X138896565Y-136006783D01*
X138896568Y-136006790D01*
X138975617Y-136143709D01*
X138975621Y-136143714D01*
X138975622Y-136143716D01*
X139087426Y-136255520D01*
X139087428Y-136255521D01*
X139087432Y-136255524D01*
X139224351Y-136334574D01*
X139224354Y-136334574D01*
X139224358Y-136334577D01*
X139298838Y-136354533D01*
X139358496Y-136390896D01*
X139378613Y-136420818D01*
X139383555Y-136431154D01*
X139390423Y-136456785D01*
X139419360Y-136506904D01*
X139421764Y-136511068D01*
X139421766Y-136511072D01*
X139469479Y-136593714D01*
X139469481Y-136593717D01*
X139480790Y-136605026D01*
X139514275Y-136666349D01*
X139509291Y-136736041D01*
X139507671Y-136740157D01*
X139486406Y-136791497D01*
X139486403Y-136791505D01*
X139455642Y-136946153D01*
X139455642Y-137103846D01*
X139486403Y-137258489D01*
X139486406Y-137258501D01*
X139546744Y-137404172D01*
X139546751Y-137404185D01*
X139634352Y-137535288D01*
X139634355Y-137535292D01*
X139745849Y-137646786D01*
X139745853Y-137646789D01*
X139876956Y-137734390D01*
X139876969Y-137734397D01*
X140022640Y-137794735D01*
X140022645Y-137794737D01*
X140177295Y-137825499D01*
X140177298Y-137825500D01*
X140177300Y-137825500D01*
X140334986Y-137825500D01*
X140334987Y-137825499D01*
X140489639Y-137794737D01*
X140635321Y-137734394D01*
X140766431Y-137646789D01*
X140877931Y-137535289D01*
X140965536Y-137404179D01*
X141025879Y-137258497D01*
X141056642Y-137103842D01*
X141056642Y-136946158D01*
X141056642Y-136946155D01*
X141056641Y-136946153D01*
X141025880Y-136791510D01*
X141025879Y-136791505D01*
X141025879Y-136791503D01*
X140972906Y-136663613D01*
X140965539Y-136645827D01*
X140965532Y-136645814D01*
X140877540Y-136514125D01*
X140860449Y-136475725D01*
X140856642Y-136460718D01*
X140856642Y-136452085D01*
X140815719Y-136299358D01*
X140815719Y-136299357D01*
X140772500Y-136224500D01*
X140736662Y-136162426D01*
X140624858Y-136050622D01*
X140624857Y-136050621D01*
X140620527Y-136046291D01*
X140620516Y-136046281D01*
X140586819Y-136012584D01*
X140553334Y-135951261D01*
X140550500Y-135924903D01*
X140550500Y-135345945D01*
X140550500Y-135345943D01*
X140509577Y-135193216D01*
X140449285Y-135088787D01*
X140432813Y-135020887D01*
X140455666Y-134954861D01*
X140494675Y-134919400D01*
X140498009Y-134917474D01*
X140518716Y-134905520D01*
X140630520Y-134793716D01*
X140709577Y-134656784D01*
X140750500Y-134504057D01*
X140750500Y-134345943D01*
X140709577Y-134193216D01*
X140704481Y-134184390D01*
X140630524Y-134056290D01*
X140630518Y-134056282D01*
X140518717Y-133944481D01*
X140518709Y-133944475D01*
X140381790Y-133865426D01*
X140381786Y-133865424D01*
X140381784Y-133865423D01*
X140229057Y-133824500D01*
X140091549Y-133824500D01*
X140064832Y-133816655D01*
X140037373Y-133812039D01*
X140031771Y-133806947D01*
X140024510Y-133804815D01*
X140006278Y-133783774D01*
X139985671Y-133765043D01*
X139981394Y-133755056D01*
X139978755Y-133752011D01*
X139971776Y-133732599D01*
X139971508Y-133731599D01*
X139973167Y-133661749D01*
X140012327Y-133603885D01*
X140076554Y-133576378D01*
X140091281Y-133575500D01*
X140229055Y-133575500D01*
X140229057Y-133575500D01*
X140381784Y-133534577D01*
X140518716Y-133455520D01*
X140630520Y-133343716D01*
X140709577Y-133206784D01*
X140750500Y-133054057D01*
X140750500Y-132895943D01*
X140709577Y-132743216D01*
X140669904Y-132674500D01*
X140630524Y-132606290D01*
X140630518Y-132606282D01*
X140518717Y-132494481D01*
X140518709Y-132494475D01*
X140381790Y-132415426D01*
X140381786Y-132415424D01*
X140381784Y-132415423D01*
X140229057Y-132374500D01*
X140070943Y-132374500D01*
X139918216Y-132415423D01*
X139918209Y-132415426D01*
X139781290Y-132494475D01*
X139781282Y-132494481D01*
X139669481Y-132606282D01*
X139669475Y-132606290D01*
X139590426Y-132743209D01*
X139587314Y-132750723D01*
X139585167Y-132749833D01*
X139555010Y-132799298D01*
X139492159Y-132829821D01*
X139422785Y-132821519D01*
X139402719Y-132810639D01*
X139335325Y-132765608D01*
X139335314Y-132765602D01*
X139189643Y-132705264D01*
X139189631Y-132705261D01*
X139034987Y-132674500D01*
X139034984Y-132674500D01*
X138877300Y-132674500D01*
X138877297Y-132674500D01*
X138722652Y-132705261D01*
X138722640Y-132705264D01*
X138576969Y-132765602D01*
X138576956Y-132765609D01*
X138445853Y-132853210D01*
X138445849Y-132853213D01*
X138334355Y-132964707D01*
X138334352Y-132964711D01*
X138246751Y-133095814D01*
X138246744Y-133095827D01*
X138186406Y-133241498D01*
X138186403Y-133241510D01*
X138155642Y-133396153D01*
X134626531Y-133396153D01*
X132432222Y-131201844D01*
X132398738Y-131140523D01*
X132403722Y-131070831D01*
X132445594Y-131014898D01*
X132498628Y-130992004D01*
X133762501Y-130771942D01*
X133831221Y-130779543D01*
X133858621Y-130790892D01*
X133858626Y-130790894D01*
X134032596Y-130825499D01*
X134032599Y-130825500D01*
X134032601Y-130825500D01*
X134209985Y-130825500D01*
X134209986Y-130825499D01*
X134267974Y-130813964D01*
X134383950Y-130790896D01*
X134383953Y-130790894D01*
X134383958Y-130790894D01*
X134547839Y-130723013D01*
X134695327Y-130624464D01*
X134695327Y-130624463D01*
X134700393Y-130621079D01*
X134701332Y-130622484D01*
X134750595Y-130599897D01*
X143084279Y-129148856D01*
X143153700Y-129156749D01*
G37*
%TD.AperFunction*%
%TD*%
M02*
