M48
; DRILL file KiCad 10.0.1 date 2026-06-15T21:40:04
; FORMAT={-:-/ absolute / metric / decimal}
; #@! TF.CreationDate,2026-06-15T21:40:04+02:00
; #@! TF.GenerationSoftware,Kicad,Pcbnew,10.0.1
; #@! TF.FileFunction,Plated,1,4,PTH
FMAT,2
METRIC
; #@! TA.AperFunction,Plated,PTH,ViaDrill
T1C0.200
; #@! TA.AperFunction,Plated,PTH,ComponentDrill
T2C0.200
; #@! TA.AperFunction,Plated,PTH,ViaDrill
T3C0.300
; #@! TA.AperFunction,Plated,PTH,ViaDrill
T4C0.350
; #@! TA.AperFunction,Plated,PTH,ViaDrill
T5C0.400
; #@! TA.AperFunction,Plated,PTH,ViaDrill
T6C0.500
; #@! TA.AperFunction,Plated,PTH,ComponentDrill
T7C0.850
; #@! TA.AperFunction,Plated,PTH,ComponentDrill
T8C1.000
; #@! TA.AperFunction,Plated,PTH,ComponentDrill
T9C1.320
%
G90
G05
T1
X92.719Y-144.589
X99.95Y-139.5
X101.1Y-140.525
X106.386Y-142.239
X112.219Y-140.1
X113.65Y-73.525
X114.45Y-74.45
X122.975Y-71.475
X123.925Y-72.7
X125.275Y-72.775
X126.575Y-73.75
X137.6Y-132.575
X138.956Y-133.475
X139.456Y-135.775
X140.15Y-132.975
X140.15Y-134.425
T2
X104.475Y-53.385
X104.475Y-54.885
X105.225Y-52.635
X105.225Y-54.135
X105.225Y-55.635
X105.975Y-53.385
X105.975Y-54.885
X106.725Y-52.635
X106.725Y-54.135
X106.725Y-55.635
X107.475Y-53.385
X107.475Y-54.885
T3
X101.886Y-66.175
X102.586Y-38.339
X103.975Y-66.225
X107.036Y-136.339
X107.086Y-67.639
X109.591Y-67.814
X110.016Y-144.814
X111.305Y-66.05
X114.525Y-64.425
X115.8Y-152.775
X121.05Y-58.85
X121.286Y-138.589
X122.786Y-134.589
X138.756Y-142.275
X159.661Y-70.139
X159.85Y-64.075
X160.05Y-68.15
X160.425Y-66.275
T4
X89.116Y-147.014
X93.369Y-146.939
X120.7Y-140.025
T5
X91.725Y-144.65
X95.719Y-141.839
X95.969Y-146.839
X97.902Y-142.656
X100.85Y-41.7
X108.948Y-142.289
X109.25Y-147.839
X111.375Y-143.7
X112.425Y-150.275
X113.4Y-64.775
X129.756Y-143.475
X129.956Y-139.475
X135.55Y-146.175
X137.125Y-144.925
X137.2Y-147.3
X138.503Y-138.122
X138.65Y-148.475
X139.675Y-143.525
X140.256Y-137.025
X145.925Y-152.85
X160.961Y-56.539
X161.161Y-55.139
T6
X84.969Y-146.839
X100.686Y-63.439
X120.875Y-153.65
X121.156Y-149.289
X124.686Y-137.639
X129.856Y-148.675
X134.121Y-129.925
X134.125Y-148.55
X156.786Y-110.339
X159.286Y-95.239
T7
X103.5Y-150.975
X105.5Y-145.925
X161.586Y-104.739
X166.636Y-106.739
T8
X125.15Y-38.7
X125.15Y-43.2
X131.65Y-38.7
X131.65Y-43.2
T9
X81.136Y-90.209
X81.136Y-112.209
X153.356Y-90.209
X153.356Y-112.209
M30
