%TF.GenerationSoftware,KiCad,Pcbnew,10.0.1*%
%TF.CreationDate,2026-06-15T09:04:18+02:00*%
%TF.ProjectId,StockfishChess,53746f63-6b66-4697-9368-43686573732e,rev?*%
%TF.SameCoordinates,Original*%
%TF.FileFunction,Paste,Top*%
%TF.FilePolarity,Positive*%
%FSLAX46Y46*%
G04 Gerber Fmt 4.6, Leading zero omitted, Abs format (unit mm)*
G04 Created by KiCad (PCBNEW 10.0.1) date 2026-06-15 09:04:18*
%MOMM*%
%LPD*%
G01*
G04 APERTURE LIST*
G04 Aperture macros list*
%AMRoundRect*
0 Rectangle with rounded corners*
0 $1 Rounding radius*
0 $2 $3 $4 $5 $6 $7 $8 $9 X,Y pos of 4 corners*
0 Add a 4 corners polygon primitive as box body*
4,1,4,$2,$3,$4,$5,$6,$7,$8,$9,$2,$3,0*
0 Add four circle primitives for the rounded corners*
1,1,$1+$1,$2,$3*
1,1,$1+$1,$4,$5*
1,1,$1+$1,$6,$7*
1,1,$1+$1,$8,$9*
0 Add four rect primitives between the rounded corners*
20,1,$1+$1,$2,$3,$4,$5,0*
20,1,$1+$1,$4,$5,$6,$7,0*
20,1,$1+$1,$6,$7,$8,$9,0*
20,1,$1+$1,$8,$9,$2,$3,0*%
G04 Aperture macros list end*
%ADD10RoundRect,0.225000X0.250000X-0.225000X0.250000X0.225000X-0.250000X0.225000X-0.250000X-0.225000X0*%
%ADD11R,0.600000X1.150000*%
%ADD12R,0.300000X1.150000*%
%ADD13R,2.180000X2.000000*%
%ADD14RoundRect,0.250000X0.450000X-0.262500X0.450000X0.262500X-0.450000X0.262500X-0.450000X-0.262500X0*%
%ADD15RoundRect,0.079500X-0.100500X0.079500X-0.100500X-0.079500X0.100500X-0.079500X0.100500X0.079500X0*%
%ADD16RoundRect,0.225000X-0.250000X0.225000X-0.250000X-0.225000X0.250000X-0.225000X0.250000X0.225000X0*%
%ADD17RoundRect,0.079500X-0.079500X-0.100500X0.079500X-0.100500X0.079500X0.100500X-0.079500X0.100500X0*%
%ADD18R,1.800000X0.600000*%
%ADD19R,2.489200X2.209800*%
%ADD20RoundRect,0.140000X0.219203X0.021213X0.021213X0.219203X-0.219203X-0.021213X-0.021213X-0.219203X0*%
%ADD21RoundRect,0.250000X0.250000X0.475000X-0.250000X0.475000X-0.250000X-0.475000X0.250000X-0.475000X0*%
%ADD22RoundRect,0.140000X0.170000X-0.140000X0.170000X0.140000X-0.170000X0.140000X-0.170000X-0.140000X0*%
%ADD23R,0.660000X0.310000*%
%ADD24RoundRect,0.135000X0.185000X-0.135000X0.185000X0.135000X-0.185000X0.135000X-0.185000X-0.135000X0*%
%ADD25RoundRect,0.067500X-0.067500X0.067500X-0.067500X-0.067500X0.067500X-0.067500X0.067500X0.067500X0*%
%ADD26RoundRect,0.160000X0.160000X-0.160000X0.160000X0.160000X-0.160000X0.160000X-0.160000X-0.160000X0*%
%ADD27RoundRect,0.062500X0.062500X-0.375000X0.062500X0.375000X-0.062500X0.375000X-0.062500X-0.375000X0*%
%ADD28RoundRect,0.062500X0.375000X-0.062500X0.375000X0.062500X-0.375000X0.062500X-0.375000X-0.062500X0*%
%ADD29RoundRect,0.067500X0.067500X-0.067500X0.067500X0.067500X-0.067500X0.067500X-0.067500X-0.067500X0*%
%ADD30RoundRect,0.147500X0.147500X0.172500X-0.147500X0.172500X-0.147500X-0.172500X0.147500X-0.172500X0*%
%ADD31RoundRect,0.225000X-0.225000X-0.250000X0.225000X-0.250000X0.225000X0.250000X-0.225000X0.250000X0*%
%ADD32RoundRect,0.250001X-0.872499X-1.044999X0.872499X-1.044999X0.872499X1.044999X-0.872499X1.044999X0*%
%ADD33RoundRect,0.014000X-0.361000X-0.161000X0.361000X-0.161000X0.361000X0.161000X-0.361000X0.161000X0*%
%ADD34RoundRect,0.079500X0.079500X0.100500X-0.079500X0.100500X-0.079500X-0.100500X0.079500X-0.100500X0*%
%ADD35RoundRect,0.067500X0.067500X0.067500X-0.067500X0.067500X-0.067500X-0.067500X0.067500X-0.067500X0*%
%ADD36RoundRect,0.250000X0.475000X-0.250000X0.475000X0.250000X-0.475000X0.250000X-0.475000X-0.250000X0*%
%ADD37RoundRect,0.200000X-0.317393X0.122010X-0.213866X-0.264360X0.317393X-0.122010X0.213866X0.264360X0*%
%ADD38R,0.980000X3.400000*%
%ADD39RoundRect,0.200000X-0.200000X-0.275000X0.200000X-0.275000X0.200000X0.275000X-0.200000X0.275000X0*%
%ADD40RoundRect,0.150000X0.835000X0.150000X-0.835000X0.150000X-0.835000X-0.150000X0.835000X-0.150000X0*%
%ADD41RoundRect,0.250000X-0.250000X-0.475000X0.250000X-0.475000X0.250000X0.475000X-0.250000X0.475000X0*%
%ADD42RoundRect,0.045000X-0.630000X-0.255000X0.630000X-0.255000X0.630000X0.255000X-0.630000X0.255000X0*%
%ADD43RoundRect,0.250000X-0.475000X0.250000X-0.475000X-0.250000X0.475000X-0.250000X0.475000X0.250000X0*%
%ADD44R,0.900000X1.500000*%
%ADD45R,1.500000X0.900000*%
%ADD46R,1.000000X1.000000*%
%ADD47RoundRect,0.067500X0.000000X0.095459X-0.095459X0.000000X0.000000X-0.095459X0.095459X0.000000X0*%
%ADD48RoundRect,0.147500X0.172500X-0.147500X0.172500X0.147500X-0.172500X0.147500X-0.172500X-0.147500X0*%
%ADD49RoundRect,0.250001X0.872499X1.044999X-0.872499X1.044999X-0.872499X-1.044999X0.872499X-1.044999X0*%
%ADD50RoundRect,0.135000X-0.185000X0.135000X-0.185000X-0.135000X0.185000X-0.135000X0.185000X0.135000X0*%
%ADD51RoundRect,0.250000X0.512652X0.159099X0.159099X0.512652X-0.512652X-0.159099X-0.159099X-0.512652X0*%
%ADD52RoundRect,0.225000X0.319856X0.104006X-0.069856X0.329006X-0.319856X-0.104006X0.069856X-0.329006X0*%
%ADD53RoundRect,0.225000X0.225000X0.250000X-0.225000X0.250000X-0.225000X-0.250000X0.225000X-0.250000X0*%
G04 APERTURE END LIST*
D10*
%TO.C,1uF*%
X103785586Y-140614414D03*
X103785586Y-139064414D03*
%TD*%
D11*
%TO.C,J2*%
X87785586Y-148201914D03*
X88585586Y-148201914D03*
D12*
X89735586Y-148201914D03*
X90735586Y-148201914D03*
X91235586Y-148201914D03*
X92235586Y-148201914D03*
D11*
X94185586Y-148201914D03*
X93385586Y-148201914D03*
D12*
X92735586Y-148201914D03*
X91735586Y-148201914D03*
X90235586Y-148201914D03*
X89235586Y-148201914D03*
D13*
X85875586Y-148776914D03*
X96095586Y-148776914D03*
X85875586Y-152706914D03*
X96095586Y-152706914D03*
%TD*%
D14*
%TO.C,750K*%
X125375000Y-140800000D03*
X125375000Y-138975000D03*
%TD*%
D10*
%TO.C,100nF*%
X105650000Y-64900000D03*
X105650000Y-63350000D03*
%TD*%
D15*
%TO.C,10Kohm*%
X102675000Y-63230000D03*
X102675000Y-63920000D03*
%TD*%
D16*
%TO.C,100nF*%
X103975000Y-63525000D03*
X103975000Y-65075000D03*
%TD*%
D10*
%TO.C,1uF*%
X110600000Y-149425000D03*
X110600000Y-147875000D03*
%TD*%
D17*
%TO.C,10Kohm*%
X138705000Y-132225000D03*
X139395000Y-132225000D03*
%TD*%
D18*
%TO.C,J1*%
X141756142Y-147775000D03*
X141756142Y-146775000D03*
X141756142Y-145775000D03*
X141756142Y-144775000D03*
X141756142Y-143775000D03*
X141756142Y-142775000D03*
X141756142Y-141775000D03*
X141756142Y-140775000D03*
X141756142Y-139775000D03*
X141756142Y-138775000D03*
X141756142Y-137775000D03*
X141756142Y-136775000D03*
X141756142Y-135775000D03*
X141756142Y-134775000D03*
X141756142Y-133775000D03*
D19*
X144296142Y-150375000D03*
X144296142Y-131175000D03*
%TD*%
D18*
%TO.C,J4*%
X163185586Y-69539414D03*
X163185586Y-68539414D03*
X163185586Y-67539414D03*
X163185586Y-66539414D03*
X163185586Y-65539414D03*
X163185586Y-64539414D03*
X163185586Y-63539414D03*
X163185586Y-62539414D03*
X163185586Y-61539414D03*
X163185586Y-60539414D03*
X163185586Y-59539414D03*
X163185586Y-58539414D03*
X163185586Y-57539414D03*
X163185586Y-56539414D03*
X163185586Y-55539414D03*
D19*
X165725586Y-72139414D03*
X165725586Y-52939414D03*
%TD*%
D20*
%TO.C,33Ohm*%
X121489411Y-55839411D03*
X120810589Y-55160589D03*
%TD*%
D21*
%TO.C,10uF*%
X114625000Y-147425000D03*
X112725000Y-147425000D03*
%TD*%
D22*
%TO.C,100nF*%
X131256142Y-145835000D03*
X131256142Y-144875000D03*
%TD*%
D23*
%TO.C,U4*%
X117015586Y-137539414D03*
X117015586Y-138039414D03*
X117015586Y-138539414D03*
X118485586Y-138539414D03*
X118485586Y-138039414D03*
X118485586Y-137539414D03*
%TD*%
D24*
%TO.C,330*%
X110700000Y-138685000D03*
X110700000Y-137665000D03*
%TD*%
D25*
%TO.C,33Ohm*%
X138356142Y-134200000D03*
X138356142Y-134750000D03*
%TD*%
D26*
%TO.C,U3*%
X108548086Y-142689414D03*
X109348086Y-142689414D03*
X108548086Y-141889414D03*
X109348086Y-141889414D03*
D27*
X108198086Y-143726914D03*
X108698086Y-143726914D03*
X109198086Y-143726914D03*
X109698086Y-143726914D03*
D28*
X110385586Y-143039414D03*
X110385586Y-142539414D03*
X110385586Y-142039414D03*
X110385586Y-141539414D03*
D27*
X109698086Y-140851914D03*
X109198086Y-140851914D03*
X108698086Y-140851914D03*
X108198086Y-140851914D03*
D28*
X107510586Y-141539414D03*
X107510586Y-142039414D03*
X107510586Y-142539414D03*
X107510586Y-143039414D03*
%TD*%
D29*
%TO.C,1.2*%
X108100000Y-139700000D03*
X108100000Y-139150000D03*
%TD*%
%TO.C,33Ohm*%
X108775000Y-64039414D03*
X108775000Y-63489414D03*
%TD*%
D30*
%TO.C,LED*%
X112960000Y-138100000D03*
X111990000Y-138100000D03*
%TD*%
D24*
%TO.C,10K*%
X106850000Y-145985000D03*
X106850000Y-144965000D03*
%TD*%
D31*
%TO.C,1uF*%
X94260586Y-145089414D03*
X95810586Y-145089414D03*
%TD*%
D25*
%TO.C,REF\u002A\u002A*%
X117950000Y-63100000D03*
X117950000Y-63650000D03*
%TD*%
D32*
%TO.C,100uF*%
X123517500Y-151675000D03*
X129932500Y-151675000D03*
%TD*%
D33*
%TO.C,U144*%
X99285586Y-141839414D03*
X99285586Y-142339414D03*
X99285586Y-142839414D03*
X100665586Y-142839414D03*
X100665586Y-142339414D03*
X100665586Y-141839414D03*
%TD*%
D24*
%TO.C,100Kohm*%
X109535586Y-139599414D03*
X109535586Y-138579414D03*
%TD*%
%TO.C,5.1Kohm*%
X92525000Y-146845000D03*
X92525000Y-145825000D03*
%TD*%
D10*
%TO.C,1uF*%
X129856142Y-146750000D03*
X129856142Y-145200000D03*
%TD*%
D34*
%TO.C,10Kohm*%
X110450000Y-66050000D03*
X109760000Y-66050000D03*
%TD*%
D10*
%TO.C,100nF*%
X105300000Y-38650000D03*
X105300000Y-37100000D03*
%TD*%
%TO.C,100nF*%
X114500000Y-136475000D03*
X114500000Y-134925000D03*
%TD*%
D35*
%TO.C,33Ohm*%
X140231142Y-136275000D03*
X139681142Y-136275000D03*
%TD*%
D36*
%TO.C,4.7uF*%
X108800000Y-135925000D03*
X108800000Y-134025000D03*
%TD*%
D37*
%TO.C,100K*%
X123061474Y-139653111D03*
X123488526Y-141246889D03*
%TD*%
D38*
%TO.C,1uH1*%
X122850000Y-144475000D03*
X120480000Y-144475000D03*
%TD*%
D39*
%TO.C,100Kohm*%
X102635586Y-40239414D03*
X104285586Y-40239414D03*
%TD*%
D40*
%TO.C,U143*%
X136931142Y-143525000D03*
X136931142Y-142255000D03*
X136931142Y-140985000D03*
X136931142Y-139715000D03*
X136931142Y-138445000D03*
X136931142Y-137175000D03*
X136931142Y-135905000D03*
X131981142Y-135905000D03*
X131981142Y-137175000D03*
X131981142Y-138445000D03*
X131981142Y-139715000D03*
X131981142Y-140985000D03*
X131981142Y-142255000D03*
X131981142Y-143525000D03*
%TD*%
D41*
%TO.C,22uF*%
X121835586Y-136089414D03*
X123735586Y-136089414D03*
%TD*%
D24*
%TO.C,800*%
X107900000Y-148160000D03*
X107900000Y-147140000D03*
%TD*%
D42*
%TO.C,U5*%
X114600586Y-149389414D03*
X114600586Y-150339414D03*
X114600586Y-151289414D03*
X116970586Y-151289414D03*
X116970586Y-149389414D03*
%TD*%
D43*
%TO.C,10uF*%
X119025000Y-150725000D03*
X119025000Y-152625000D03*
%TD*%
D10*
%TO.C,1uF*%
X97685586Y-140839414D03*
X97685586Y-139289414D03*
%TD*%
D44*
%TO.C,U1*%
X100625000Y-61525000D03*
X101895000Y-61525000D03*
X103165000Y-61525000D03*
X104435000Y-61525000D03*
X105705000Y-61525000D03*
X106975000Y-61525000D03*
X108245000Y-61525000D03*
X109515000Y-61525000D03*
X110785000Y-61525000D03*
X112055000Y-61525000D03*
X113325000Y-61525000D03*
X114595000Y-61525000D03*
X115865000Y-61525000D03*
X117135000Y-61525000D03*
D45*
X118385000Y-59760000D03*
X118385000Y-58490000D03*
X118385000Y-57220000D03*
X118385000Y-55950000D03*
X118385000Y-54680000D03*
X118385000Y-53410000D03*
X118385000Y-52140000D03*
X118385000Y-50870000D03*
X118385000Y-49600000D03*
X118385000Y-48330000D03*
X118385000Y-47060000D03*
X118385000Y-45790000D03*
D44*
X117135000Y-44025000D03*
X115865000Y-44025000D03*
X114595000Y-44025000D03*
X113325000Y-44025000D03*
X112055000Y-44025000D03*
X110785000Y-44025000D03*
X109515000Y-44025000D03*
X108245000Y-44025000D03*
X106975000Y-44025000D03*
X105705000Y-44025000D03*
X104435000Y-44025000D03*
X103165000Y-44025000D03*
X101895000Y-44025000D03*
X100625000Y-44025000D03*
D46*
X104475000Y-55635000D03*
X105975000Y-55635000D03*
X107475000Y-55635000D03*
X104475000Y-54135000D03*
X105975000Y-54135000D03*
X107475000Y-54135000D03*
X104475000Y-52635000D03*
X105975000Y-52635000D03*
X107475000Y-52635000D03*
%TD*%
D47*
%TO.C,33Ohm*%
X139069454Y-139780546D03*
X138680546Y-140169454D03*
%TD*%
D29*
%TO.C,33Ohm*%
X107125000Y-63525000D03*
X107125000Y-62975000D03*
%TD*%
D22*
%TO.C,100nF*%
X120535586Y-136819414D03*
X120535586Y-135859414D03*
%TD*%
D48*
%TO.C,LED*%
X113725000Y-140935000D03*
X113725000Y-139965000D03*
%TD*%
D22*
%TO.C,100nF*%
X102285586Y-143919414D03*
X102285586Y-142959414D03*
%TD*%
D20*
%TO.C,33Ohm*%
X122739411Y-54764411D03*
X122060589Y-54085589D03*
%TD*%
D49*
%TO.C,100uF*%
X139357500Y-151675000D03*
X132942500Y-151675000D03*
%TD*%
D10*
%TO.C,1uF*%
X120900000Y-152300000D03*
X120900000Y-150750000D03*
%TD*%
D50*
%TO.C,10K*%
X108225000Y-144940000D03*
X108225000Y-145960000D03*
%TD*%
D51*
%TO.C,10uF*%
X118025000Y-142125000D03*
X116681498Y-140781498D03*
%TD*%
D39*
%TO.C,100Kohm*%
X106460586Y-40239414D03*
X108110586Y-40239414D03*
%TD*%
D52*
%TO.C,4.7uF*%
X120327926Y-141114414D03*
X118985586Y-140339414D03*
%TD*%
D17*
%TO.C,10Kohm*%
X105355000Y-66025000D03*
X106045000Y-66025000D03*
%TD*%
D25*
%TO.C,2x 33*%
X116325000Y-63100000D03*
X116325000Y-63650000D03*
%TD*%
D36*
%TO.C,4.7uF*%
X105719336Y-140289414D03*
X105719336Y-138389414D03*
%TD*%
D39*
%TO.C,100K*%
X112460586Y-142339414D03*
X114110586Y-142339414D03*
%TD*%
%TO.C,100Kohm*%
X111250000Y-152000000D03*
X112900000Y-152000000D03*
%TD*%
D31*
%TO.C,4.7uF*%
X109650000Y-145875000D03*
X111200000Y-145875000D03*
%TD*%
D53*
%TO.C,100nF*%
X111575000Y-64825000D03*
X110025000Y-64825000D03*
%TD*%
D24*
%TO.C,5.1Kohm*%
X89525000Y-145135000D03*
X89525000Y-144115000D03*
%TD*%
M02*
