%TF.GenerationSoftware,KiCad,Pcbnew,10.0.1*%
%TF.CreationDate,2026-06-15T09:04:18+02:00*%
%TF.ProjectId,StockfishChess,53746f63-6b66-4697-9368-43686573732e,rev?*%
%TF.SameCoordinates,Original*%
%TF.FileFunction,Copper,L3,Inr*%
%TF.FilePolarity,Positive*%
%FSLAX46Y46*%
G04 Gerber Fmt 4.6, Leading zero omitted, Abs format (unit mm)*
G04 Created by KiCad (PCBNEW 10.0.1) date 2026-06-15 09:04:18*
%MOMM*%
%LPD*%
G01*
G04 APERTURE LIST*
%TA.AperFunction,ComponentPad*%
%ADD10C,1.980000*%
%TD*%
%TA.AperFunction,ComponentPad*%
%ADD11C,1.358000*%
%TD*%
%TA.AperFunction,HeatsinkPad*%
%ADD12C,0.600000*%
%TD*%
%TA.AperFunction,ComponentPad*%
%ADD13C,1.700000*%
%TD*%
%TA.AperFunction,ViaPad*%
%ADD14C,0.800000*%
%TD*%
%TA.AperFunction,ViaPad*%
%ADD15C,0.600000*%
%TD*%
%TA.AperFunction,ViaPad*%
%ADD16C,1.000000*%
%TD*%
%TA.AperFunction,ViaPad*%
%ADD17C,0.700000*%
%TD*%
%TA.AperFunction,ViaPad*%
%ADD18C,0.500000*%
%TD*%
%TA.AperFunction,ViaPad*%
%ADD19C,0.900000*%
%TD*%
%TA.AperFunction,Conductor*%
%ADD20C,0.300000*%
%TD*%
%TA.AperFunction,Conductor*%
%ADD21C,0.200000*%
%TD*%
G04 APERTURE END LIST*
D10*
%TO.N,Net-(BT1-PadN)*%
%TO.C,REF\u002A\u002A*%
X81135586Y-90209414D03*
%TO.N,VBUS*%
X153355586Y-90209414D03*
%TD*%
%TO.N,GND*%
%TO.C,REF\u002A\u002A*%
X153355586Y-112209414D03*
%TO.N,Net-(BT1-PadN)*%
X81135586Y-112209414D03*
%TD*%
D11*
%TO.N,VBUS*%
%TO.C,U145*%
X161585586Y-104739414D03*
X166635586Y-106739414D03*
%TD*%
D12*
%TO.N,GND*%
%TO.C,U1*%
X105225000Y-55635000D03*
X106725000Y-55635000D03*
X104475000Y-54885000D03*
X105975000Y-54885000D03*
X107475000Y-54885000D03*
X105225000Y-54135000D03*
X106725000Y-54135000D03*
X104475000Y-53385000D03*
X105975000Y-53385000D03*
X107475000Y-53385000D03*
X105225000Y-52635000D03*
X106725000Y-52635000D03*
%TD*%
D13*
%TO.N,GND*%
%TO.C,REF\u002A\u002A*%
X125150000Y-38700000D03*
%TO.N,N/C*%
X131650000Y-38700000D03*
%TO.N,Net-(U1-IO0)*%
X125150000Y-43200000D03*
%TO.N,N/C*%
X131650000Y-43200000D03*
%TD*%
D11*
%TO.N,VBUS*%
%TO.C,U146*%
X103500000Y-150975000D03*
X105500000Y-145925000D03*
%TD*%
D14*
%TO.N,VBUS*%
X159285586Y-95239414D03*
D15*
%TO.N,GND*%
X122785586Y-134589414D03*
D16*
X100850000Y-41700000D03*
X160960686Y-56539414D03*
X100685586Y-63439414D03*
X156785586Y-110339414D03*
D17*
X120700000Y-140025000D03*
D15*
X103975000Y-66225000D03*
D18*
X106385586Y-142239414D03*
D15*
X107035586Y-136339414D03*
D14*
X109250000Y-147839414D03*
X108948086Y-142289414D03*
D16*
X120875000Y-153650000D03*
D19*
X145925000Y-152850000D03*
D16*
%TO.N,+5V*%
X136675000Y-148425000D03*
X129756142Y-143475000D03*
X112425000Y-150275000D03*
D19*
X140050000Y-148625000D03*
D16*
X124685586Y-137639414D03*
D19*
X139956142Y-147475000D03*
D16*
X129956142Y-139475000D03*
D15*
%TO.N,Net-(J4-Pad01)*%
X107085586Y-67639414D03*
X159660686Y-70139414D03*
D18*
%TO.N,+3.3V*%
X137600000Y-132575000D03*
%TO.N,Net-(U1-IO10)*%
X140150000Y-134425000D03*
X140150000Y-132975000D03*
X122975000Y-71475000D03*
D15*
%TO.N,Net-(100nF75-Pad1)*%
X109590586Y-67814414D03*
X160050000Y-68150000D03*
%TO.N,Net-(U1-IO8)*%
X160425000Y-66275000D03*
X114525000Y-64425000D03*
%TO.N,/CLK I2C*%
X159850000Y-64075000D03*
X121050000Y-58850000D03*
D18*
%TO.N,Net-(R24-Pad1)*%
X114450000Y-74450000D03*
X101100000Y-140525000D03*
%TO.N,Net-(R25-Pad1)*%
X113650000Y-73525000D03*
X99950000Y-139500000D03*
D15*
%TO.N,Net-(U1-IO13)*%
X126575000Y-73750000D03*
D18*
X139456142Y-135775000D03*
%TD*%
%TO.N,Net-(J4-Pad01)*%
D20*
X159146272Y-69625000D02*
X159660686Y-70139414D01*
X107085586Y-67639414D02*
X109071172Y-69625000D01*
X109071172Y-69625000D02*
X159146272Y-69625000D01*
%TO.N,Net-(U1-IO10)*%
D21*
X125500000Y-71475000D02*
X140150000Y-86125000D01*
X140150000Y-86125000D02*
X140150000Y-132975000D01*
X122975000Y-71475000D02*
X125500000Y-71475000D01*
X140150000Y-132975000D02*
X140150000Y-134425000D01*
%TO.N,Net-(100nF75-Pad1)*%
D20*
X109926172Y-68150000D02*
X109590586Y-67814414D01*
X160050000Y-68150000D02*
X109926172Y-68150000D01*
%TO.N,Net-(U1-IO8)*%
X160425000Y-66275000D02*
X116375000Y-66275000D01*
X116375000Y-66275000D02*
X114525000Y-64425000D01*
%TO.N,/CLK I2C*%
X122350000Y-58850000D02*
X123550000Y-60050000D01*
X121050000Y-58850000D02*
X122350000Y-58850000D01*
X123550000Y-60050000D02*
X155825000Y-60050000D01*
X155825000Y-60050000D02*
X159850000Y-64075000D01*
%TO.N,Net-(U1-IO13)*%
D21*
X126575000Y-132193858D02*
X130156142Y-135775000D01*
X126575000Y-73750000D02*
X126575000Y-132193858D01*
X130156142Y-135775000D02*
X139456142Y-135775000D01*
%TD*%
%TA.AperFunction,Conductor*%
%TO.N,+5V*%
G36*
X129630452Y-136140037D02*
G01*
X129695624Y-136165221D01*
X129707834Y-136175928D01*
X129787426Y-136255520D01*
X129787428Y-136255521D01*
X129787432Y-136255524D01*
X129924351Y-136334573D01*
X129924358Y-136334577D01*
X130077085Y-136375501D01*
X130077087Y-136375501D01*
X130242796Y-136375501D01*
X130242812Y-136375500D01*
X132450840Y-136375500D01*
X132461138Y-136375928D01*
X139407281Y-136954773D01*
X139429789Y-136963471D01*
X139453494Y-136967971D01*
X139467988Y-136978231D01*
X139472453Y-136979957D01*
X139482300Y-136988363D01*
X139645571Y-137143172D01*
X139680675Y-137203583D01*
X139683102Y-137216301D01*
X140483406Y-143050094D01*
X140473016Y-143119187D01*
X140426921Y-143171694D01*
X140359755Y-143190944D01*
X140292844Y-143170827D01*
X140257455Y-143135838D01*
X140219114Y-143078458D01*
X140219111Y-143078454D01*
X140121545Y-142980888D01*
X140121541Y-142980885D01*
X140006817Y-142904228D01*
X140006804Y-142904221D01*
X139879332Y-142851421D01*
X139879322Y-142851418D01*
X139743995Y-142824500D01*
X139743993Y-142824500D01*
X139606007Y-142824500D01*
X139606005Y-142824500D01*
X139470677Y-142851418D01*
X139470667Y-142851421D01*
X139343195Y-142904221D01*
X139343182Y-142904228D01*
X139228458Y-142980885D01*
X139228454Y-142980888D01*
X139130888Y-143078454D01*
X139130885Y-143078458D01*
X139054228Y-143193182D01*
X139054221Y-143193195D01*
X139001421Y-143320667D01*
X139001418Y-143320677D01*
X138974500Y-143456004D01*
X138974500Y-143456007D01*
X138974500Y-143593993D01*
X138974500Y-143593995D01*
X138974499Y-143593995D01*
X139001418Y-143729322D01*
X139001421Y-143729332D01*
X139054221Y-143856804D01*
X139054228Y-143856817D01*
X139130885Y-143971541D01*
X139130888Y-143971545D01*
X139228454Y-144069111D01*
X139228458Y-144069114D01*
X139343182Y-144145771D01*
X139343195Y-144145778D01*
X139470667Y-144198578D01*
X139470672Y-144198580D01*
X139470676Y-144198580D01*
X139470677Y-144198581D01*
X139606004Y-144225500D01*
X139606007Y-144225500D01*
X139743995Y-144225500D01*
X139835041Y-144207389D01*
X139879328Y-144198580D01*
X140006811Y-144145775D01*
X140121542Y-144069114D01*
X140219114Y-143971542D01*
X140295775Y-143856811D01*
X140344669Y-143738769D01*
X140388509Y-143684366D01*
X140454803Y-143662301D01*
X140522503Y-143679580D01*
X140570114Y-143730717D01*
X140582079Y-143769369D01*
X141494457Y-150420124D01*
X141515089Y-150570522D01*
X141504699Y-150639615D01*
X141485172Y-150669470D01*
X141387661Y-150779853D01*
X141328525Y-150817064D01*
X141293160Y-150821748D01*
X125457419Y-150621296D01*
X113812462Y-150473891D01*
X113745677Y-150453360D01*
X113710930Y-150418793D01*
X113705276Y-150410331D01*
X113705274Y-150410329D01*
X113705272Y-150410326D01*
X113614672Y-150319726D01*
X113614668Y-150319723D01*
X113508133Y-150248538D01*
X113508124Y-150248533D01*
X113389744Y-150199499D01*
X113389738Y-150199497D01*
X113264071Y-150174500D01*
X113264069Y-150174500D01*
X113135931Y-150174500D01*
X113135929Y-150174500D01*
X113010261Y-150199497D01*
X113010255Y-150199499D01*
X112891875Y-150248533D01*
X112891866Y-150248538D01*
X112785332Y-150319722D01*
X112694715Y-150410340D01*
X112692396Y-150413166D01*
X112690809Y-150414246D01*
X112690418Y-150414638D01*
X112690343Y-150414563D01*
X112634645Y-150452493D01*
X112594984Y-150458479D01*
X109642914Y-150421112D01*
X109626933Y-150416199D01*
X109610214Y-150416293D01*
X109594227Y-150406144D01*
X109576129Y-150400581D01*
X109564898Y-150387526D01*
X109551226Y-150378848D01*
X109531981Y-150349268D01*
X109525001Y-150334208D01*
X109514671Y-150265108D01*
X109541877Y-150203131D01*
X110742333Y-148748920D01*
X129105641Y-148748920D01*
X129134482Y-148893907D01*
X129134485Y-148893917D01*
X129191054Y-149030488D01*
X129191061Y-149030501D01*
X129273190Y-149153415D01*
X129273193Y-149153419D01*
X129377722Y-149257948D01*
X129377726Y-149257951D01*
X129500640Y-149340080D01*
X129500653Y-149340087D01*
X129637224Y-149396656D01*
X129637229Y-149396658D01*
X129637233Y-149396658D01*
X129637234Y-149396659D01*
X129782221Y-149425500D01*
X129782224Y-149425500D01*
X129930062Y-149425500D01*
X130027604Y-149406096D01*
X130075055Y-149396658D01*
X130211637Y-149340084D01*
X130334558Y-149257951D01*
X130439093Y-149153416D01*
X130521226Y-149030495D01*
X130577800Y-148893913D01*
X130606642Y-148748918D01*
X130606642Y-148601082D01*
X130606642Y-148601079D01*
X130577801Y-148456092D01*
X130577800Y-148456091D01*
X130577800Y-148456087D01*
X130560139Y-148413449D01*
X130521229Y-148319511D01*
X130521222Y-148319498D01*
X130439093Y-148196584D01*
X130439090Y-148196580D01*
X130334561Y-148092051D01*
X130334557Y-148092048D01*
X130211643Y-148009919D01*
X130211630Y-148009912D01*
X130075059Y-147953343D01*
X130075049Y-147953340D01*
X129930062Y-147924500D01*
X129930060Y-147924500D01*
X129782224Y-147924500D01*
X129782222Y-147924500D01*
X129637234Y-147953340D01*
X129637224Y-147953343D01*
X129500653Y-148009912D01*
X129500640Y-148009919D01*
X129377726Y-148092048D01*
X129377722Y-148092051D01*
X129273193Y-148196580D01*
X129273190Y-148196584D01*
X129191061Y-148319498D01*
X129191054Y-148319511D01*
X129134485Y-148456082D01*
X129134482Y-148456092D01*
X129105642Y-148601079D01*
X129105642Y-148601082D01*
X129105642Y-148748918D01*
X129105642Y-148748920D01*
X129105641Y-148748920D01*
X110742333Y-148748920D01*
X118013113Y-139941228D01*
X119849500Y-139941228D01*
X119849500Y-140108771D01*
X119882182Y-140273074D01*
X119882184Y-140273082D01*
X119946295Y-140427860D01*
X120039373Y-140567162D01*
X120157837Y-140685626D01*
X120180098Y-140700500D01*
X120297137Y-140778703D01*
X120451918Y-140842816D01*
X120616228Y-140875499D01*
X120616232Y-140875500D01*
X120616233Y-140875500D01*
X120783768Y-140875500D01*
X120783769Y-140875499D01*
X120948082Y-140842816D01*
X121102863Y-140778703D01*
X121242162Y-140685626D01*
X121360626Y-140567162D01*
X121453703Y-140427863D01*
X121517816Y-140273082D01*
X121550500Y-140108767D01*
X121550500Y-139941233D01*
X121517816Y-139776918D01*
X121453703Y-139622137D01*
X121399103Y-139540423D01*
X121360626Y-139482837D01*
X121320226Y-139442437D01*
X121286741Y-139381114D01*
X121291725Y-139311422D01*
X121333597Y-139255489D01*
X121383715Y-139233139D01*
X121422448Y-139225433D01*
X121475330Y-139214915D01*
X121593713Y-139165879D01*
X121700255Y-139094690D01*
X121790862Y-139004083D01*
X121862051Y-138897541D01*
X121911087Y-138779158D01*
X121936086Y-138653483D01*
X121936086Y-138525345D01*
X121936086Y-138525342D01*
X121911088Y-138399675D01*
X121911087Y-138399674D01*
X121911087Y-138399670D01*
X121862051Y-138281287D01*
X121862050Y-138281286D01*
X121862047Y-138281280D01*
X121790862Y-138174745D01*
X121790859Y-138174741D01*
X121700258Y-138084140D01*
X121700254Y-138084137D01*
X121593719Y-138012952D01*
X121593710Y-138012947D01*
X121475330Y-137963913D01*
X121475324Y-137963911D01*
X121349657Y-137938914D01*
X121349655Y-137938914D01*
X121221517Y-137938914D01*
X121221515Y-137938914D01*
X121095847Y-137963911D01*
X121095841Y-137963913D01*
X120977461Y-138012947D01*
X120977452Y-138012952D01*
X120870917Y-138084137D01*
X120870913Y-138084140D01*
X120780312Y-138174741D01*
X120780309Y-138174745D01*
X120709124Y-138281280D01*
X120709119Y-138281289D01*
X120660085Y-138399669D01*
X120660083Y-138399675D01*
X120635086Y-138525342D01*
X120635086Y-138525345D01*
X120635086Y-138653483D01*
X120635086Y-138653485D01*
X120635085Y-138653485D01*
X120660083Y-138779152D01*
X120660085Y-138779158D01*
X120709119Y-138897538D01*
X120709124Y-138897547D01*
X120765293Y-138981609D01*
X120786171Y-139048286D01*
X120767687Y-139115667D01*
X120715708Y-139162357D01*
X120662191Y-139174500D01*
X120616228Y-139174500D01*
X120451925Y-139207182D01*
X120451917Y-139207184D01*
X120297139Y-139271295D01*
X120157837Y-139364373D01*
X120039373Y-139482837D01*
X119946295Y-139622139D01*
X119882184Y-139776917D01*
X119882182Y-139776925D01*
X119849500Y-139941228D01*
X118013113Y-139941228D01*
X121550061Y-135656632D01*
X121597538Y-135621303D01*
X121868010Y-135507338D01*
X121926453Y-135498037D01*
X129630452Y-136140037D01*
G37*
%TD.AperFunction*%
%TD*%
M02*
