%TF.GenerationSoftware,KiCad,Pcbnew,10.0.1*%
%TF.CreationDate,2026-06-15T21:39:27+02:00*%
%TF.ProjectId,StockfishChess,53746f63-6b66-4697-9368-43686573732e,rev?*%
%TF.SameCoordinates,Original*%
%TF.FileFunction,Copper,L3,Inr*%
%TF.FilePolarity,Positive*%
%FSLAX46Y46*%
G04 Gerber Fmt 4.6, Leading zero omitted, Abs format (unit mm)*
G04 Created by KiCad (PCBNEW 10.0.1) date 2026-06-15 21:39:27*
%MOMM*%
%LPD*%
G01*
G04 APERTURE LIST*
%TA.AperFunction,ComponentPad*%
%ADD10C,1.980000*%
%TD*%
%TA.AperFunction,ComponentPad*%
%ADD11C,1.358000*%
%TD*%
%TA.AperFunction,HeatsinkPad*%
%ADD12C,0.600000*%
%TD*%
%TA.AperFunction,ComponentPad*%
%ADD13C,1.700000*%
%TD*%
%TA.AperFunction,ViaPad*%
%ADD14C,0.900000*%
%TD*%
%TA.AperFunction,ViaPad*%
%ADD15C,0.800000*%
%TD*%
%TA.AperFunction,ViaPad*%
%ADD16C,0.600000*%
%TD*%
%TA.AperFunction,ViaPad*%
%ADD17C,1.000000*%
%TD*%
%TA.AperFunction,ViaPad*%
%ADD18C,0.700000*%
%TD*%
%TA.AperFunction,ViaPad*%
%ADD19C,0.500000*%
%TD*%
%TA.AperFunction,Conductor*%
%ADD20C,0.300000*%
%TD*%
%TA.AperFunction,Conductor*%
%ADD21C,0.200000*%
%TD*%
G04 APERTURE END LIST*
D10*
%TO.N,Net-(BT1-PadN)*%
%TO.C,REF\u002A\u002A*%
X81135586Y-90209414D03*
%TO.N,VBUS*%
X153355586Y-90209414D03*
%TD*%
%TO.N,GND*%
%TO.C,REF\u002A\u002A*%
X153355586Y-112209414D03*
%TO.N,Net-(BT1-PadN)*%
X81135586Y-112209414D03*
%TD*%
D11*
%TO.N,VBUS*%
%TO.C,U145*%
X161585586Y-104739414D03*
X166635586Y-106739414D03*
%TD*%
D12*
%TO.N,GND*%
%TO.C,U1*%
X105225000Y-55635000D03*
X106725000Y-55635000D03*
X104475000Y-54885000D03*
X105975000Y-54885000D03*
X107475000Y-54885000D03*
X105225000Y-54135000D03*
X106725000Y-54135000D03*
X104475000Y-53385000D03*
X105975000Y-53385000D03*
X107475000Y-53385000D03*
X105225000Y-52635000D03*
X106725000Y-52635000D03*
%TD*%
D13*
%TO.N,GND*%
%TO.C,REF\u002A\u002A*%
X125150000Y-38700000D03*
%TO.N,N/C*%
X131650000Y-38700000D03*
%TO.N,Net-(U1-IO0)*%
X125150000Y-43200000D03*
%TO.N,N/C*%
X131650000Y-43200000D03*
%TD*%
D11*
%TO.N,VBUS*%
%TO.C,U146*%
X103500000Y-150975000D03*
X105500000Y-145925000D03*
%TD*%
D14*
%TO.N,+5V*%
X137200000Y-147300000D03*
X138650000Y-148475000D03*
%TO.N,+3.3V*%
X135550000Y-146175000D03*
X137125000Y-144925000D03*
%TO.N,VBUS*%
X134121292Y-129925000D03*
D15*
X159285586Y-95239414D03*
D16*
%TO.N,GND*%
X122785586Y-134589414D03*
D17*
X100850000Y-41700000D03*
X160960686Y-56539414D03*
X100685586Y-63439414D03*
X156785586Y-110339414D03*
D18*
X120700000Y-140025000D03*
D16*
X103975000Y-66225000D03*
D19*
X106385586Y-142239414D03*
D16*
X107035586Y-136339414D03*
D15*
X109250000Y-147839414D03*
X108948086Y-142289414D03*
D17*
X120875000Y-153650000D03*
D14*
X145925000Y-152850000D03*
D17*
%TO.N,+5V*%
X134125000Y-148550000D03*
X124685586Y-137639414D03*
%TO.N,+3.3V*%
X121155586Y-149289414D03*
D19*
X137600000Y-132575000D03*
%TO.N,Net-(U1-IO10)*%
X140150000Y-134425000D03*
X140150000Y-132975000D03*
X122975000Y-71475000D03*
D16*
%TO.N,/CLK I2C*%
X159850000Y-64075000D03*
X121050000Y-58850000D03*
%TO.N,Net-(U143-1A)*%
X138756142Y-142275000D03*
D19*
%TO.N,Net-(R24-Pad1)*%
X114450000Y-74450000D03*
X101100000Y-140525000D03*
%TO.N,Net-(R25-Pad1)*%
X113650000Y-73525000D03*
X99950000Y-139500000D03*
%TD*%
%TO.N,Net-(J4-Pad01)*%
D20*
X159146272Y-69625000D02*
X159660686Y-70139414D01*
X107085586Y-67639414D02*
X109071172Y-69625000D01*
X109071172Y-69625000D02*
X159146272Y-69625000D01*
%TO.N,Net-(U1-IO10)*%
D21*
X125500000Y-71475000D02*
X140150000Y-86125000D01*
X140150000Y-86125000D02*
X140150000Y-132975000D01*
X122975000Y-71475000D02*
X125500000Y-71475000D01*
X140150000Y-132975000D02*
X140150000Y-134425000D01*
%TO.N,Net-(100nF75-Pad1)*%
D20*
X109926172Y-68150000D02*
X109590586Y-67814414D01*
X160050000Y-68150000D02*
X109926172Y-68150000D01*
%TO.N,Net-(U1-IO8)*%
X160425000Y-66275000D02*
X116375000Y-66275000D01*
X116375000Y-66275000D02*
X114525000Y-64425000D01*
%TO.N,/CLK I2C*%
X122350000Y-58850000D02*
X123550000Y-60050000D01*
X121050000Y-58850000D02*
X122350000Y-58850000D01*
X123550000Y-60050000D02*
X155825000Y-60050000D01*
X155825000Y-60050000D02*
X159850000Y-64075000D01*
%TO.N,Net-(U1-IO13)*%
D21*
X126575000Y-132193858D02*
X130156142Y-135775000D01*
X126575000Y-73750000D02*
X126575000Y-132193858D01*
X130156142Y-135775000D02*
X139456142Y-135775000D01*
%TD*%
%TA.AperFunction,Conductor*%
%TO.N,+5V*%
G36*
X129630452Y-136140037D02*
G01*
X129695624Y-136165221D01*
X129707834Y-136175928D01*
X129787426Y-136255520D01*
X129787428Y-136255521D01*
X129787432Y-136255524D01*
X129906904Y-136324500D01*
X129924358Y-136334577D01*
X130077085Y-136375501D01*
X130077087Y-136375501D01*
X130242796Y-136375501D01*
X130242812Y-136375500D01*
X132450840Y-136375500D01*
X132461138Y-136375928D01*
X139407283Y-136954773D01*
X139429793Y-136963471D01*
X139453497Y-136967972D01*
X139467989Y-136978231D01*
X139472455Y-136979957D01*
X139482295Y-136988357D01*
X139518186Y-137022388D01*
X139553290Y-137082799D01*
X139554484Y-137088177D01*
X139582560Y-137229322D01*
X139582563Y-137229332D01*
X139635363Y-137356804D01*
X139635370Y-137356817D01*
X139703824Y-137459265D01*
X139723571Y-137511303D01*
X140483405Y-143050094D01*
X140473015Y-143119187D01*
X140426920Y-143171694D01*
X140359754Y-143190944D01*
X140292843Y-143170827D01*
X140257454Y-143135838D01*
X140219114Y-143078458D01*
X140219112Y-143078455D01*
X140121545Y-142980888D01*
X140121541Y-142980885D01*
X140006817Y-142904228D01*
X140006804Y-142904221D01*
X139879332Y-142851421D01*
X139879322Y-142851418D01*
X139743995Y-142824500D01*
X139743993Y-142824500D01*
X139606007Y-142824500D01*
X139606005Y-142824500D01*
X139603566Y-142824985D01*
X139602263Y-142824868D01*
X139599942Y-142825097D01*
X139599898Y-142824656D01*
X139533974Y-142818755D01*
X139478798Y-142775891D01*
X139455556Y-142710000D01*
X139464817Y-142655914D01*
X139507826Y-142552080D01*
X139525879Y-142508497D01*
X139556642Y-142353842D01*
X139556642Y-142196158D01*
X139556642Y-142196155D01*
X139556641Y-142196153D01*
X139525880Y-142041510D01*
X139525879Y-142041503D01*
X139519767Y-142026748D01*
X139465539Y-141895827D01*
X139465532Y-141895814D01*
X139377931Y-141764711D01*
X139377928Y-141764707D01*
X139266434Y-141653213D01*
X139266430Y-141653210D01*
X139135327Y-141565609D01*
X139135314Y-141565602D01*
X138989643Y-141505264D01*
X138989631Y-141505261D01*
X138834987Y-141474500D01*
X138834984Y-141474500D01*
X138677300Y-141474500D01*
X138677297Y-141474500D01*
X138522652Y-141505261D01*
X138522640Y-141505264D01*
X138376969Y-141565602D01*
X138376956Y-141565609D01*
X138245853Y-141653210D01*
X138245849Y-141653213D01*
X138134355Y-141764707D01*
X138134352Y-141764711D01*
X138046751Y-141895814D01*
X138046744Y-141895827D01*
X137986406Y-142041498D01*
X137986403Y-142041510D01*
X137955642Y-142196153D01*
X137955642Y-142353846D01*
X137986403Y-142508489D01*
X137986406Y-142508501D01*
X138046744Y-142654172D01*
X138046751Y-142654185D01*
X138134352Y-142785288D01*
X138134355Y-142785292D01*
X138245849Y-142896786D01*
X138245853Y-142896789D01*
X138376956Y-142984390D01*
X138376969Y-142984397D01*
X138522640Y-143044735D01*
X138522645Y-143044737D01*
X138612780Y-143062666D01*
X138677295Y-143075499D01*
X138677298Y-143075500D01*
X138677300Y-143075500D01*
X138834986Y-143075500D01*
X138899505Y-143062666D01*
X138969097Y-143068893D01*
X139024274Y-143111756D01*
X139047519Y-143177645D01*
X139038258Y-143231735D01*
X139001421Y-143320667D01*
X139001418Y-143320677D01*
X138974500Y-143456004D01*
X138974500Y-143456007D01*
X138974500Y-143593993D01*
X138974500Y-143593995D01*
X138974499Y-143593995D01*
X139001418Y-143729322D01*
X139001421Y-143729332D01*
X139054221Y-143856804D01*
X139054228Y-143856817D01*
X139130885Y-143971541D01*
X139130888Y-143971545D01*
X139228454Y-144069111D01*
X139228458Y-144069114D01*
X139343182Y-144145771D01*
X139343195Y-144145778D01*
X139470667Y-144198578D01*
X139470672Y-144198580D01*
X139470676Y-144198580D01*
X139470677Y-144198581D01*
X139606004Y-144225500D01*
X139606007Y-144225500D01*
X139743995Y-144225500D01*
X139835041Y-144207389D01*
X139879328Y-144198580D01*
X140000044Y-144148578D01*
X140006804Y-144145778D01*
X140006804Y-144145777D01*
X140006811Y-144145775D01*
X140121542Y-144069114D01*
X140219114Y-143971542D01*
X140295775Y-143856811D01*
X140344670Y-143738766D01*
X140388508Y-143684367D01*
X140454802Y-143662301D01*
X140522501Y-143679579D01*
X140570112Y-143730716D01*
X140582078Y-143769369D01*
X141494457Y-150420124D01*
X141515089Y-150570522D01*
X141504699Y-150639615D01*
X141485172Y-150669470D01*
X141387661Y-150779853D01*
X141328525Y-150817064D01*
X141293160Y-150821748D01*
X125457419Y-150621296D01*
X113247931Y-150466745D01*
X113181146Y-150446214D01*
X113136063Y-150392835D01*
X113125500Y-150342755D01*
X113125500Y-150206004D01*
X113098581Y-150070677D01*
X113098580Y-150070676D01*
X113098580Y-150070672D01*
X113096873Y-150066550D01*
X113045778Y-149943195D01*
X113045771Y-149943182D01*
X112969114Y-149828458D01*
X112969111Y-149828454D01*
X112871545Y-149730888D01*
X112871541Y-149730885D01*
X112756817Y-149654228D01*
X112756804Y-149654221D01*
X112629332Y-149601421D01*
X112629322Y-149601418D01*
X112493995Y-149574500D01*
X112493993Y-149574500D01*
X112356007Y-149574500D01*
X112356005Y-149574500D01*
X112220677Y-149601418D01*
X112220667Y-149601421D01*
X112093195Y-149654221D01*
X112093182Y-149654228D01*
X111978458Y-149730885D01*
X111978454Y-149730888D01*
X111880888Y-149828454D01*
X111880885Y-149828458D01*
X111804228Y-149943182D01*
X111804221Y-149943195D01*
X111751421Y-150070667D01*
X111751418Y-150070677D01*
X111724500Y-150206004D01*
X111724500Y-150321881D01*
X111704815Y-150388920D01*
X111652011Y-150434675D01*
X111598931Y-150445871D01*
X109642914Y-150421112D01*
X109626933Y-150416199D01*
X109610214Y-150416293D01*
X109594227Y-150406144D01*
X109576129Y-150400581D01*
X109564898Y-150387526D01*
X109551226Y-150378848D01*
X109531981Y-150349268D01*
X109525001Y-150334208D01*
X109514671Y-150265108D01*
X109541877Y-150203131D01*
X110214806Y-149387957D01*
X120155085Y-149387957D01*
X120193533Y-149581243D01*
X120193536Y-149581253D01*
X120268950Y-149763321D01*
X120268957Y-149763334D01*
X120378446Y-149927195D01*
X120378449Y-149927199D01*
X120517800Y-150066550D01*
X120517804Y-150066553D01*
X120681665Y-150176042D01*
X120681678Y-150176049D01*
X120863746Y-150251463D01*
X120863751Y-150251465D01*
X120863755Y-150251465D01*
X120863756Y-150251466D01*
X121057042Y-150289914D01*
X121057045Y-150289914D01*
X121254129Y-150289914D01*
X121384168Y-150264046D01*
X121447421Y-150251465D01*
X121629500Y-150176046D01*
X121793368Y-150066553D01*
X121932725Y-149927196D01*
X122042218Y-149763328D01*
X122117637Y-149581249D01*
X122154355Y-149396658D01*
X122156086Y-149387957D01*
X122156086Y-149190870D01*
X122117638Y-148997584D01*
X122117637Y-148997583D01*
X122117637Y-148997579D01*
X122074699Y-148893917D01*
X122042221Y-148815506D01*
X122042214Y-148815493D01*
X121997731Y-148748920D01*
X129105641Y-148748920D01*
X129134482Y-148893907D01*
X129134485Y-148893917D01*
X129191054Y-149030488D01*
X129191061Y-149030501D01*
X129273190Y-149153415D01*
X129273193Y-149153419D01*
X129377722Y-149257948D01*
X129377726Y-149257951D01*
X129500640Y-149340080D01*
X129500653Y-149340087D01*
X129616218Y-149387955D01*
X129637229Y-149396658D01*
X129637233Y-149396658D01*
X129637234Y-149396659D01*
X129782221Y-149425500D01*
X129782224Y-149425500D01*
X129930062Y-149425500D01*
X130027604Y-149406096D01*
X130075055Y-149396658D01*
X130211637Y-149340084D01*
X130334558Y-149257951D01*
X130439093Y-149153416D01*
X130521226Y-149030495D01*
X130577800Y-148893913D01*
X130606642Y-148748918D01*
X130606642Y-148601082D01*
X130606642Y-148601079D01*
X130577801Y-148456092D01*
X130577800Y-148456091D01*
X130577800Y-148456087D01*
X130555722Y-148402785D01*
X130521229Y-148319511D01*
X130521222Y-148319498D01*
X130439093Y-148196584D01*
X130439090Y-148196580D01*
X130334561Y-148092051D01*
X130334557Y-148092048D01*
X130211643Y-148009919D01*
X130211630Y-148009912D01*
X130075059Y-147953343D01*
X130075049Y-147953340D01*
X129930062Y-147924500D01*
X129930060Y-147924500D01*
X129782224Y-147924500D01*
X129782222Y-147924500D01*
X129637234Y-147953340D01*
X129637224Y-147953343D01*
X129500653Y-148009912D01*
X129500640Y-148009919D01*
X129377726Y-148092048D01*
X129377722Y-148092051D01*
X129273193Y-148196580D01*
X129273190Y-148196584D01*
X129191061Y-148319498D01*
X129191054Y-148319511D01*
X129134485Y-148456082D01*
X129134482Y-148456092D01*
X129105642Y-148601079D01*
X129105642Y-148601082D01*
X129105642Y-148748918D01*
X129105642Y-148748920D01*
X129105641Y-148748920D01*
X121997731Y-148748920D01*
X121940910Y-148663881D01*
X121932725Y-148651632D01*
X121932722Y-148651628D01*
X121793371Y-148512277D01*
X121793367Y-148512274D01*
X121629506Y-148402785D01*
X121629493Y-148402778D01*
X121447425Y-148327364D01*
X121447415Y-148327361D01*
X121254129Y-148288914D01*
X121254127Y-148288914D01*
X121057045Y-148288914D01*
X121057043Y-148288914D01*
X120863756Y-148327361D01*
X120863746Y-148327364D01*
X120681678Y-148402778D01*
X120681665Y-148402785D01*
X120517804Y-148512274D01*
X120517800Y-148512277D01*
X120378449Y-148651628D01*
X120378446Y-148651632D01*
X120268957Y-148815493D01*
X120268950Y-148815506D01*
X120193536Y-148997574D01*
X120193533Y-148997584D01*
X120155086Y-149190870D01*
X120155086Y-149190873D01*
X120155086Y-149387955D01*
X120155086Y-149387957D01*
X120155085Y-149387957D01*
X110214806Y-149387957D01*
X112944398Y-146081379D01*
X134599500Y-146081379D01*
X134599500Y-146268620D01*
X134636025Y-146452243D01*
X134636027Y-146452251D01*
X134707676Y-146625228D01*
X134707681Y-146625237D01*
X134811697Y-146780907D01*
X134811700Y-146780911D01*
X134944088Y-146913299D01*
X134944092Y-146913302D01*
X135099762Y-147017318D01*
X135099768Y-147017321D01*
X135099769Y-147017322D01*
X135272749Y-147088973D01*
X135456379Y-147125499D01*
X135456383Y-147125500D01*
X135456384Y-147125500D01*
X135643617Y-147125500D01*
X135643618Y-147125499D01*
X135827251Y-147088973D01*
X136000231Y-147017322D01*
X136155908Y-146913302D01*
X136288302Y-146780908D01*
X136392322Y-146625231D01*
X136463973Y-146452251D01*
X136500500Y-146268616D01*
X136500500Y-146081384D01*
X136463973Y-145897749D01*
X136463968Y-145897738D01*
X136462205Y-145891922D01*
X136464076Y-145891354D01*
X136457564Y-145830865D01*
X136488830Y-145768381D01*
X136548914Y-145732720D01*
X136618740Y-145735204D01*
X136648488Y-145749762D01*
X136674763Y-145767318D01*
X136674771Y-145767323D01*
X136713956Y-145783554D01*
X136847749Y-145838973D01*
X137031379Y-145875499D01*
X137031383Y-145875500D01*
X137031384Y-145875500D01*
X137218617Y-145875500D01*
X137218618Y-145875499D01*
X137402251Y-145838973D01*
X137575231Y-145767322D01*
X137730908Y-145663302D01*
X137863302Y-145530908D01*
X137967322Y-145375231D01*
X138038973Y-145202251D01*
X138075500Y-145018616D01*
X138075500Y-144831384D01*
X138038973Y-144647749D01*
X137967322Y-144474769D01*
X137967321Y-144474768D01*
X137967318Y-144474762D01*
X137863302Y-144319092D01*
X137863299Y-144319088D01*
X137730911Y-144186700D01*
X137730907Y-144186697D01*
X137575237Y-144082681D01*
X137575228Y-144082676D01*
X137402251Y-144011027D01*
X137402243Y-144011025D01*
X137218620Y-143974500D01*
X137218616Y-143974500D01*
X137031384Y-143974500D01*
X137031379Y-143974500D01*
X136847756Y-144011025D01*
X136847748Y-144011027D01*
X136674771Y-144082676D01*
X136674762Y-144082681D01*
X136519092Y-144186697D01*
X136519088Y-144186700D01*
X136386700Y-144319088D01*
X136386697Y-144319092D01*
X136282681Y-144474762D01*
X136282676Y-144474771D01*
X136211027Y-144647748D01*
X136211025Y-144647756D01*
X136174500Y-144831379D01*
X136174500Y-145018620D01*
X136211025Y-145202243D01*
X136212795Y-145208078D01*
X136210927Y-145208644D01*
X136217431Y-145269154D01*
X136186155Y-145331633D01*
X136126065Y-145367284D01*
X136056240Y-145364789D01*
X136026511Y-145350237D01*
X136000237Y-145332681D01*
X136000228Y-145332676D01*
X135827251Y-145261027D01*
X135827243Y-145261025D01*
X135643620Y-145224500D01*
X135643616Y-145224500D01*
X135456384Y-145224500D01*
X135456379Y-145224500D01*
X135272756Y-145261025D01*
X135272748Y-145261027D01*
X135099771Y-145332676D01*
X135099762Y-145332681D01*
X134944092Y-145436697D01*
X134944088Y-145436700D01*
X134811700Y-145569088D01*
X134811697Y-145569092D01*
X134707681Y-145724762D01*
X134707676Y-145724771D01*
X134636027Y-145897748D01*
X134636025Y-145897756D01*
X134599500Y-146081379D01*
X112944398Y-146081379D01*
X115039017Y-143543995D01*
X129055641Y-143543995D01*
X129082560Y-143679322D01*
X129082563Y-143679332D01*
X129135363Y-143806804D01*
X129135370Y-143806817D01*
X129212027Y-143921541D01*
X129212030Y-143921545D01*
X129309596Y-144019111D01*
X129309600Y-144019114D01*
X129424324Y-144095771D01*
X129424337Y-144095778D01*
X129545032Y-144145771D01*
X129551814Y-144148580D01*
X129551818Y-144148580D01*
X129551819Y-144148581D01*
X129687146Y-144175500D01*
X129687149Y-144175500D01*
X129825137Y-144175500D01*
X129916183Y-144157389D01*
X129960470Y-144148580D01*
X130087953Y-144095775D01*
X130202684Y-144019114D01*
X130300256Y-143921542D01*
X130376917Y-143806811D01*
X130429722Y-143679328D01*
X130456642Y-143543993D01*
X130456642Y-143406007D01*
X130456642Y-143406004D01*
X130429723Y-143270677D01*
X130429722Y-143270676D01*
X130429722Y-143270672D01*
X130391189Y-143177645D01*
X130376920Y-143143195D01*
X130376913Y-143143182D01*
X130300256Y-143028458D01*
X130300253Y-143028454D01*
X130202687Y-142930888D01*
X130202683Y-142930885D01*
X130087959Y-142854228D01*
X130087946Y-142854221D01*
X129960474Y-142801421D01*
X129960464Y-142801418D01*
X129825137Y-142774500D01*
X129825135Y-142774500D01*
X129687149Y-142774500D01*
X129687147Y-142774500D01*
X129551819Y-142801418D01*
X129551809Y-142801421D01*
X129424337Y-142854221D01*
X129424324Y-142854228D01*
X129309600Y-142930885D01*
X129309596Y-142930888D01*
X129212030Y-143028454D01*
X129212027Y-143028458D01*
X129135370Y-143143182D01*
X129135363Y-143143195D01*
X129082563Y-143270667D01*
X129082560Y-143270677D01*
X129055642Y-143406004D01*
X129055642Y-143406007D01*
X129055642Y-143543993D01*
X129055642Y-143543995D01*
X129055641Y-143543995D01*
X115039017Y-143543995D01*
X118013113Y-139941228D01*
X119849500Y-139941228D01*
X119849500Y-140108771D01*
X119882182Y-140273074D01*
X119882184Y-140273082D01*
X119946295Y-140427860D01*
X120039373Y-140567162D01*
X120157837Y-140685626D01*
X120180098Y-140700500D01*
X120297137Y-140778703D01*
X120451918Y-140842816D01*
X120616228Y-140875499D01*
X120616232Y-140875500D01*
X120616233Y-140875500D01*
X120783768Y-140875500D01*
X120783769Y-140875499D01*
X120948082Y-140842816D01*
X121102863Y-140778703D01*
X121242162Y-140685626D01*
X121360626Y-140567162D01*
X121453703Y-140427863D01*
X121517816Y-140273082D01*
X121550500Y-140108767D01*
X121550500Y-139941233D01*
X121517816Y-139776918D01*
X121453703Y-139622137D01*
X121401490Y-139543995D01*
X129255641Y-139543995D01*
X129282560Y-139679322D01*
X129282563Y-139679332D01*
X129335363Y-139806804D01*
X129335370Y-139806817D01*
X129412027Y-139921541D01*
X129412030Y-139921545D01*
X129509596Y-140019111D01*
X129509600Y-140019114D01*
X129624324Y-140095771D01*
X129624337Y-140095778D01*
X129751809Y-140148578D01*
X129751814Y-140148580D01*
X129751818Y-140148580D01*
X129751819Y-140148581D01*
X129887146Y-140175500D01*
X129887149Y-140175500D01*
X130025137Y-140175500D01*
X130116183Y-140157389D01*
X130160470Y-140148580D01*
X130287953Y-140095775D01*
X130402684Y-140019114D01*
X130500256Y-139921542D01*
X130576917Y-139806811D01*
X130629722Y-139679328D01*
X130656642Y-139543993D01*
X130656642Y-139406007D01*
X130656642Y-139406004D01*
X130629723Y-139270677D01*
X130629722Y-139270676D01*
X130629722Y-139270672D01*
X130616982Y-139239914D01*
X130576920Y-139143195D01*
X130576913Y-139143182D01*
X130500256Y-139028458D01*
X130500253Y-139028454D01*
X130402687Y-138930888D01*
X130402683Y-138930885D01*
X130287959Y-138854228D01*
X130287946Y-138854221D01*
X130160474Y-138801421D01*
X130160464Y-138801418D01*
X130025137Y-138774500D01*
X130025135Y-138774500D01*
X129887149Y-138774500D01*
X129887147Y-138774500D01*
X129751819Y-138801418D01*
X129751809Y-138801421D01*
X129624337Y-138854221D01*
X129624324Y-138854228D01*
X129509600Y-138930885D01*
X129509596Y-138930888D01*
X129412030Y-139028454D01*
X129412027Y-139028458D01*
X129335370Y-139143182D01*
X129335363Y-139143195D01*
X129282563Y-139270667D01*
X129282560Y-139270677D01*
X129255642Y-139406004D01*
X129255642Y-139406007D01*
X129255642Y-139543993D01*
X129255642Y-139543995D01*
X129255641Y-139543995D01*
X121401490Y-139543995D01*
X121360626Y-139482838D01*
X121320703Y-139442915D01*
X121320147Y-139442358D01*
X121303351Y-139411533D01*
X121286741Y-139381114D01*
X121286745Y-139381056D01*
X121286717Y-139381005D01*
X121289249Y-139346033D01*
X121291725Y-139311422D01*
X121291759Y-139311375D01*
X121291764Y-139311318D01*
X121312728Y-139283365D01*
X121333597Y-139255489D01*
X121333655Y-139255463D01*
X121333686Y-139255422D01*
X121334055Y-139255284D01*
X121383715Y-139233139D01*
X121422448Y-139225433D01*
X121475330Y-139214915D01*
X121593713Y-139165879D01*
X121700255Y-139094690D01*
X121790862Y-139004083D01*
X121862051Y-138897541D01*
X121911087Y-138779158D01*
X121933588Y-138666043D01*
X121936086Y-138653485D01*
X121936086Y-138525342D01*
X121911088Y-138399675D01*
X121911087Y-138399674D01*
X121911087Y-138399670D01*
X121862051Y-138281287D01*
X121862050Y-138281286D01*
X121862047Y-138281280D01*
X121801673Y-138190924D01*
X137802570Y-138190924D01*
X137829489Y-138326251D01*
X137829492Y-138326261D01*
X137882292Y-138453733D01*
X137882299Y-138453746D01*
X137958956Y-138568470D01*
X137958959Y-138568474D01*
X138056525Y-138666040D01*
X138056529Y-138666043D01*
X138171253Y-138742700D01*
X138171266Y-138742707D01*
X138259268Y-138779158D01*
X138298743Y-138795509D01*
X138298747Y-138795509D01*
X138298748Y-138795510D01*
X138434075Y-138822429D01*
X138434078Y-138822429D01*
X138572066Y-138822429D01*
X138663112Y-138804318D01*
X138707399Y-138795509D01*
X138834882Y-138742704D01*
X138949613Y-138666043D01*
X139047185Y-138568471D01*
X139123846Y-138453740D01*
X139176651Y-138326257D01*
X139203571Y-138190922D01*
X139203571Y-138052936D01*
X139203571Y-138052933D01*
X139176652Y-137917606D01*
X139176651Y-137917605D01*
X139176651Y-137917601D01*
X139176649Y-137917596D01*
X139123849Y-137790124D01*
X139123842Y-137790111D01*
X139047185Y-137675387D01*
X139047182Y-137675383D01*
X138949616Y-137577817D01*
X138949612Y-137577814D01*
X138834888Y-137501157D01*
X138834875Y-137501150D01*
X138707403Y-137448350D01*
X138707393Y-137448347D01*
X138572066Y-137421429D01*
X138572064Y-137421429D01*
X138434078Y-137421429D01*
X138434076Y-137421429D01*
X138298748Y-137448347D01*
X138298738Y-137448350D01*
X138171266Y-137501150D01*
X138171253Y-137501157D01*
X138056529Y-137577814D01*
X138056525Y-137577817D01*
X137958959Y-137675383D01*
X137958956Y-137675387D01*
X137882299Y-137790111D01*
X137882292Y-137790124D01*
X137829492Y-137917596D01*
X137829489Y-137917606D01*
X137802571Y-138052933D01*
X137802571Y-138052936D01*
X137802571Y-138190922D01*
X137802571Y-138190924D01*
X137802570Y-138190924D01*
X121801673Y-138190924D01*
X121790862Y-138174745D01*
X121790859Y-138174741D01*
X121700258Y-138084140D01*
X121700254Y-138084137D01*
X121593719Y-138012952D01*
X121593710Y-138012947D01*
X121475330Y-137963913D01*
X121475324Y-137963911D01*
X121349657Y-137938914D01*
X121349655Y-137938914D01*
X121221517Y-137938914D01*
X121221515Y-137938914D01*
X121095847Y-137963911D01*
X121095841Y-137963913D01*
X120977461Y-138012947D01*
X120977452Y-138012952D01*
X120870917Y-138084137D01*
X120870913Y-138084140D01*
X120780312Y-138174741D01*
X120780309Y-138174745D01*
X120709124Y-138281280D01*
X120709119Y-138281289D01*
X120660085Y-138399669D01*
X120660083Y-138399675D01*
X120635086Y-138525342D01*
X120635086Y-138525345D01*
X120635086Y-138653483D01*
X120635086Y-138653485D01*
X120635085Y-138653485D01*
X120660083Y-138779152D01*
X120660085Y-138779158D01*
X120709119Y-138897538D01*
X120709124Y-138897547D01*
X120765293Y-138981609D01*
X120786171Y-139048286D01*
X120767687Y-139115667D01*
X120715708Y-139162357D01*
X120662191Y-139174500D01*
X120616228Y-139174500D01*
X120451925Y-139207182D01*
X120451917Y-139207184D01*
X120297139Y-139271295D01*
X120157837Y-139364373D01*
X120039373Y-139482837D01*
X119946295Y-139622139D01*
X119882184Y-139776917D01*
X119882182Y-139776925D01*
X119849500Y-139941228D01*
X118013113Y-139941228D01*
X121550061Y-135656632D01*
X121597538Y-135621303D01*
X121868010Y-135507338D01*
X121926453Y-135498037D01*
X129630452Y-136140037D01*
G37*
%TD.AperFunction*%
%TD*%
M02*
