%TF.GenerationSoftware,KiCad,Pcbnew,10.0.1*%
%TF.CreationDate,2026-06-21T13:08:32+02:00*%
%TF.ProjectId,StockfishChess,53746f63-6b66-4697-9368-43686573732e,rev?*%
%TF.SameCoordinates,Original*%
%TF.FileFunction,Copper,L4,Bot*%
%TF.FilePolarity,Positive*%
%FSLAX46Y46*%
G04 Gerber Fmt 4.6, Leading zero omitted, Abs format (unit mm)*
G04 Created by KiCad (PCBNEW 10.0.1) date 2026-06-21 13:08:32*
%MOMM*%
%LPD*%
G01*
G04 APERTURE LIST*
%TA.AperFunction,ComponentPad*%
%ADD10C,1.980000*%
%TD*%
%TA.AperFunction,ComponentPad*%
%ADD11C,1.358000*%
%TD*%
%TA.AperFunction,HeatsinkPad*%
%ADD12C,0.600000*%
%TD*%
%TA.AperFunction,ComponentPad*%
%ADD13C,1.700000*%
%TD*%
%TA.AperFunction,ViaPad*%
%ADD14C,0.700000*%
%TD*%
%TA.AperFunction,ViaPad*%
%ADD15C,0.800000*%
%TD*%
%TA.AperFunction,ViaPad*%
%ADD16C,0.600000*%
%TD*%
%TA.AperFunction,ViaPad*%
%ADD17C,1.000000*%
%TD*%
%TA.AperFunction,ViaPad*%
%ADD18C,0.900000*%
%TD*%
%TA.AperFunction,ViaPad*%
%ADD19C,0.500000*%
%TD*%
%TA.AperFunction,Conductor*%
%ADD20C,0.200000*%
%TD*%
G04 APERTURE END LIST*
D10*
%TO.P,REF\u002A\u002A,N*%
%TO.N,GND*%
X81135586Y-90209414D03*
%TO.P,REF\u002A\u002A,P*%
%TO.N,BAT*%
X153355586Y-90209414D03*
%TD*%
%TO.P,REF\u002A\u002A,N*%
%TO.N,GND*%
X81135586Y-112209414D03*
%TO.P,REF\u002A\u002A,P*%
%TO.N,BAT*%
X153355586Y-112209414D03*
%TD*%
D11*
%TO.P,U145,P$1*%
%TO.N,BAT*%
X161585586Y-104739414D03*
%TO.P,U145,P$2*%
%TO.N,VBUS*%
X166635586Y-106739414D03*
%TD*%
D12*
%TO.P,U1,41,GND_41*%
%TO.N,GND*%
X105225000Y-55635000D03*
X106725000Y-55635000D03*
X104475000Y-54885000D03*
X105975000Y-54885000D03*
X107475000Y-54885000D03*
X105225000Y-54135000D03*
X106725000Y-54135000D03*
X104475000Y-53385000D03*
X105975000Y-53385000D03*
X107475000Y-53385000D03*
X105225000Y-52635000D03*
X106725000Y-52635000D03*
%TD*%
D13*
%TO.P,REF\u002A\u002A,1*%
%TO.N,GND*%
X125150000Y-38700000D03*
%TO.N,N/C*%
X131650000Y-38700000D03*
%TO.P,REF\u002A\u002A,2*%
%TO.N,Net-(U1-IO0)*%
X125150000Y-43200000D03*
%TO.N,N/C*%
X131650000Y-43200000D03*
%TD*%
D11*
%TO.P,U146,P$1*%
%TO.N,VBUS*%
X103500000Y-150975000D03*
%TO.P,U146,P$2*%
X105500000Y-145925000D03*
%TD*%
D14*
%TO.N,VBUS*%
X89115586Y-147014414D03*
D15*
X93369336Y-146939414D03*
D16*
%TO.N,GND*%
X122785586Y-134589414D03*
D17*
X100850000Y-41700000D03*
D15*
X113400000Y-64775000D03*
D17*
X160960686Y-56539414D03*
X100685586Y-63439414D03*
X77765000Y-114110000D03*
D18*
X139675000Y-143525000D03*
D17*
X129856142Y-148675000D03*
D14*
X120700000Y-140025000D03*
D16*
X110015586Y-144814414D03*
X121285586Y-138589414D03*
X103475000Y-66125000D03*
X102585586Y-38339414D03*
D19*
X106385586Y-142239414D03*
D16*
X107035586Y-136339414D03*
X115800000Y-152775000D03*
D19*
X112219336Y-140100000D03*
D17*
X84969336Y-146839414D03*
D15*
X109250000Y-147839414D03*
X108948086Y-142289414D03*
D19*
X92719336Y-144589414D03*
D17*
X120875000Y-153650000D03*
D18*
X95969336Y-146839414D03*
X145925000Y-152850000D03*
%TO.N,Net-(J2-DP2)*%
X95500000Y-140875000D03*
X91725000Y-144650000D03*
D17*
%TO.N,+5V*%
X134125000Y-148550000D03*
D18*
X129756142Y-143475000D03*
X112425000Y-150275000D03*
X138650000Y-148475000D03*
X137200000Y-147300000D03*
D16*
%TO.N,Net-(J4-Pad01)*%
X107085586Y-67639414D03*
X159660686Y-70139414D03*
D14*
%TO.N,+3.3V*%
X111375000Y-143700000D03*
D17*
X121155586Y-149289414D03*
D18*
X135550000Y-146175000D03*
D15*
X161160686Y-55139414D03*
D18*
X137125000Y-144925000D03*
D16*
X111305000Y-66050000D03*
D15*
X101885586Y-66175000D03*
D19*
X137600000Y-132575000D03*
%TO.N,/CLK 5V*%
X138956142Y-133475000D03*
X140256142Y-137025000D03*
%TO.N,/CLK*%
X138503071Y-138121929D03*
X125275000Y-72775000D03*
D16*
%TO.N,Net-(100nF75-Pad1)*%
X109590586Y-67814414D03*
X160050000Y-68150000D03*
%TO.N,Net-(U1-IO8)*%
X160425000Y-66275000D03*
X114525000Y-64425000D03*
%TO.N,/CLK I2C*%
X121050000Y-58850000D03*
D19*
%TO.N,Net-(U143-1A)*%
X123925000Y-72700000D03*
D16*
X138756142Y-142275000D03*
D18*
%TO.N,BAT*%
X134121292Y-129925000D03*
D15*
X157875000Y-111175000D03*
D19*
%TO.N,Net-(R25-Pad1)*%
X113650000Y-73525000D03*
X99950000Y-139500000D03*
%TO.N,Net-(R24-Pad1)*%
X114450000Y-74450000D03*
X101100000Y-140525000D03*
%TO.N,Net-(U1-IO13)*%
X126575000Y-73750000D03*
X139325000Y-137075000D03*
%TD*%
%TO.N,Net-(R25-Pad1)*%
D20*
X113650000Y-73525000D02*
X99950000Y-87225000D01*
X99950000Y-87225000D02*
X99950000Y-139500000D01*
%TO.N,Net-(R24-Pad1)*%
X101100000Y-87800000D02*
X101100000Y-140525000D01*
X114450000Y-74450000D02*
X101100000Y-87800000D01*
%TD*%
%TA.AperFunction,Conductor*%
%TO.N,GND*%
G36*
X86903156Y-81893881D02*
G01*
X86928674Y-81894025D01*
X86958818Y-81894194D01*
X99136056Y-81962509D01*
X99137184Y-82030861D01*
X104213112Y-82112648D01*
X99581286Y-86744478D01*
X99469481Y-86856282D01*
X99469479Y-86856285D01*
X99419361Y-86943094D01*
X99419359Y-86943096D01*
X99390425Y-86993209D01*
X99390424Y-86993210D01*
X99390423Y-86993215D01*
X99349499Y-87145943D01*
X99349499Y-87145945D01*
X99349499Y-87314046D01*
X99349500Y-87314059D01*
X99349500Y-139010232D01*
X99329815Y-139077271D01*
X99328603Y-139079122D01*
X99284914Y-139144508D01*
X99228343Y-139281082D01*
X99228340Y-139281092D01*
X99199500Y-139426079D01*
X99199500Y-139426082D01*
X99199500Y-139573918D01*
X99199500Y-139573920D01*
X99199499Y-139573920D01*
X99228340Y-139718907D01*
X99228343Y-139718917D01*
X99284912Y-139855488D01*
X99284919Y-139855501D01*
X99367048Y-139978415D01*
X99367051Y-139978419D01*
X99471580Y-140082948D01*
X99471584Y-140082951D01*
X99594498Y-140165080D01*
X99594511Y-140165087D01*
X99680847Y-140200848D01*
X99731087Y-140221658D01*
X99731091Y-140221658D01*
X99731092Y-140221659D01*
X99876079Y-140250500D01*
X99876082Y-140250500D01*
X100023920Y-140250500D01*
X100121462Y-140231096D01*
X100168913Y-140221658D01*
X100201118Y-140208317D01*
X100270587Y-140200848D01*
X100333067Y-140232122D01*
X100368720Y-140292210D01*
X100370189Y-140347069D01*
X100349500Y-140451077D01*
X100349500Y-140451082D01*
X100349500Y-140598918D01*
X100349500Y-140598920D01*
X100349499Y-140598920D01*
X100378340Y-140743907D01*
X100378343Y-140743917D01*
X100434912Y-140880488D01*
X100434919Y-140880501D01*
X100517048Y-141003415D01*
X100517051Y-141003419D01*
X100621580Y-141107948D01*
X100621584Y-141107951D01*
X100744498Y-141190080D01*
X100744511Y-141190087D01*
X100881082Y-141246656D01*
X100881087Y-141246658D01*
X100881091Y-141246658D01*
X100881092Y-141246659D01*
X101026079Y-141275500D01*
X101026082Y-141275500D01*
X101173920Y-141275500D01*
X101271462Y-141256096D01*
X101318913Y-141246658D01*
X101455495Y-141190084D01*
X101578416Y-141107951D01*
X101682951Y-141003416D01*
X101765084Y-140880495D01*
X101821658Y-140743913D01*
X101850500Y-140598918D01*
X101850500Y-140451082D01*
X101850500Y-140451079D01*
X101821659Y-140306092D01*
X101821658Y-140306091D01*
X101821658Y-140306087D01*
X101765084Y-140169505D01*
X101721396Y-140104121D01*
X101700520Y-140037444D01*
X101700500Y-140035232D01*
X101700500Y-137713334D01*
X123935085Y-137713334D01*
X123963926Y-137858321D01*
X123963929Y-137858331D01*
X124020498Y-137994902D01*
X124020505Y-137994915D01*
X124102634Y-138117829D01*
X124102637Y-138117833D01*
X124207166Y-138222362D01*
X124207170Y-138222365D01*
X124330084Y-138304494D01*
X124330097Y-138304501D01*
X124466668Y-138361070D01*
X124466673Y-138361072D01*
X124466677Y-138361072D01*
X124466678Y-138361073D01*
X124611665Y-138389914D01*
X124611668Y-138389914D01*
X124759506Y-138389914D01*
X124857048Y-138370510D01*
X124904499Y-138361072D01*
X125041081Y-138304498D01*
X125164002Y-138222365D01*
X125190518Y-138195849D01*
X137752570Y-138195849D01*
X137781411Y-138340836D01*
X137781414Y-138340846D01*
X137837983Y-138477417D01*
X137837990Y-138477430D01*
X137920119Y-138600344D01*
X137920122Y-138600348D01*
X138024651Y-138704877D01*
X138024655Y-138704880D01*
X138147569Y-138787009D01*
X138147582Y-138787016D01*
X138284153Y-138843585D01*
X138284158Y-138843587D01*
X138284162Y-138843587D01*
X138284163Y-138843588D01*
X138429150Y-138872429D01*
X138429153Y-138872429D01*
X138576991Y-138872429D01*
X138674533Y-138853025D01*
X138721984Y-138843587D01*
X138858566Y-138787013D01*
X138981487Y-138704880D01*
X139086022Y-138600345D01*
X139168155Y-138477424D01*
X139224729Y-138340842D01*
X139253571Y-138195847D01*
X139253571Y-138048011D01*
X139253571Y-138048008D01*
X139238788Y-137973692D01*
X139245015Y-137904100D01*
X139287878Y-137848923D01*
X139353767Y-137825678D01*
X139360405Y-137825500D01*
X139398920Y-137825500D01*
X139496462Y-137806096D01*
X139543913Y-137796658D01*
X139680495Y-137740084D01*
X139759095Y-137687564D01*
X139825772Y-137666687D01*
X139893152Y-137685171D01*
X139896876Y-137687565D01*
X139900645Y-137690083D01*
X139900648Y-137690085D01*
X140021348Y-137740080D01*
X140037229Y-137746658D01*
X140037233Y-137746658D01*
X140037234Y-137746659D01*
X140182221Y-137775500D01*
X140182224Y-137775500D01*
X140330062Y-137775500D01*
X140427604Y-137756096D01*
X140475055Y-137746658D01*
X140611637Y-137690084D01*
X140734558Y-137607951D01*
X140839093Y-137503416D01*
X140921226Y-137380495D01*
X140977800Y-137243913D01*
X141006642Y-137098918D01*
X141006642Y-136951082D01*
X141006642Y-136951079D01*
X140977801Y-136806092D01*
X140977800Y-136806091D01*
X140977800Y-136806087D01*
X140941934Y-136719498D01*
X140921229Y-136669511D01*
X140921222Y-136669498D01*
X140839093Y-136546584D01*
X140839090Y-136546580D01*
X140734561Y-136442051D01*
X140734557Y-136442048D01*
X140611643Y-136359919D01*
X140611630Y-136359912D01*
X140475059Y-136303343D01*
X140475049Y-136303340D01*
X140330062Y-136274500D01*
X140330060Y-136274500D01*
X140182224Y-136274500D01*
X140182222Y-136274500D01*
X140037234Y-136303340D01*
X140037224Y-136303343D01*
X139900653Y-136359912D01*
X139900642Y-136359918D01*
X139822045Y-136412435D01*
X139755367Y-136433312D01*
X139687987Y-136414827D01*
X139684267Y-136412436D01*
X139680501Y-136409920D01*
X139680500Y-136409919D01*
X139680495Y-136409916D01*
X139680492Y-136409915D01*
X139680491Y-136409914D01*
X139543913Y-136353342D01*
X139543907Y-136353340D01*
X139398920Y-136324500D01*
X139398918Y-136324500D01*
X139251082Y-136324500D01*
X139251080Y-136324500D01*
X139106092Y-136353340D01*
X139106082Y-136353343D01*
X138969511Y-136409912D01*
X138969498Y-136409919D01*
X138846584Y-136492048D01*
X138846580Y-136492051D01*
X138742051Y-136596580D01*
X138742048Y-136596584D01*
X138659919Y-136719498D01*
X138659912Y-136719511D01*
X138603343Y-136856082D01*
X138603340Y-136856092D01*
X138574500Y-137001079D01*
X138574500Y-137001082D01*
X138574500Y-137148918D01*
X138574500Y-137148920D01*
X138574499Y-137148920D01*
X138589283Y-137223237D01*
X138583056Y-137292829D01*
X138540193Y-137348006D01*
X138474304Y-137371251D01*
X138467666Y-137371429D01*
X138429151Y-137371429D01*
X138284163Y-137400269D01*
X138284153Y-137400272D01*
X138147582Y-137456841D01*
X138147569Y-137456848D01*
X138024655Y-137538977D01*
X138024651Y-137538980D01*
X137920122Y-137643509D01*
X137920119Y-137643513D01*
X137837990Y-137766427D01*
X137837983Y-137766440D01*
X137781414Y-137903011D01*
X137781411Y-137903021D01*
X137752571Y-138048008D01*
X137752571Y-138048011D01*
X137752571Y-138195847D01*
X137752571Y-138195849D01*
X137752570Y-138195849D01*
X125190518Y-138195849D01*
X125268537Y-138117830D01*
X125350670Y-137994909D01*
X125407244Y-137858327D01*
X125425523Y-137766434D01*
X125436086Y-137713334D01*
X125436086Y-137565493D01*
X125407245Y-137420506D01*
X125407244Y-137420505D01*
X125407244Y-137420501D01*
X125398865Y-137400272D01*
X125350673Y-137283925D01*
X125350666Y-137283912D01*
X125268537Y-137160998D01*
X125268534Y-137160994D01*
X125164005Y-137056465D01*
X125164001Y-137056462D01*
X125041087Y-136974333D01*
X125041074Y-136974326D01*
X124904503Y-136917757D01*
X124904493Y-136917754D01*
X124759506Y-136888914D01*
X124759504Y-136888914D01*
X124611668Y-136888914D01*
X124611666Y-136888914D01*
X124466678Y-136917754D01*
X124466668Y-136917757D01*
X124330097Y-136974326D01*
X124330084Y-136974333D01*
X124207170Y-137056462D01*
X124207166Y-137056465D01*
X124102637Y-137160994D01*
X124102634Y-137160998D01*
X124020505Y-137283912D01*
X124020498Y-137283925D01*
X123963929Y-137420496D01*
X123963926Y-137420506D01*
X123935086Y-137565493D01*
X123935086Y-137565496D01*
X123935086Y-137713332D01*
X123935086Y-137713334D01*
X123935085Y-137713334D01*
X101700500Y-137713334D01*
X101700500Y-132648920D01*
X136849499Y-132648920D01*
X136878340Y-132793907D01*
X136878343Y-132793917D01*
X136934912Y-132930488D01*
X136934919Y-132930501D01*
X137017048Y-133053415D01*
X137017051Y-133053419D01*
X137121580Y-133157948D01*
X137121584Y-133157951D01*
X137244498Y-133240080D01*
X137244511Y-133240087D01*
X137381082Y-133296656D01*
X137381087Y-133296658D01*
X137381091Y-133296658D01*
X137381092Y-133296659D01*
X137526079Y-133325500D01*
X137526082Y-133325500D01*
X137673920Y-133325500D01*
X137771462Y-133306096D01*
X137818913Y-133296658D01*
X137955495Y-133240084D01*
X138032009Y-133188959D01*
X138098684Y-133168082D01*
X138166064Y-133186566D01*
X138212755Y-133238545D01*
X138223931Y-133307514D01*
X138222515Y-133316253D01*
X138205642Y-133401077D01*
X138205642Y-133401082D01*
X138205642Y-133548918D01*
X138205642Y-133548920D01*
X138205641Y-133548920D01*
X138234482Y-133693907D01*
X138234485Y-133693917D01*
X138291054Y-133830488D01*
X138291061Y-133830501D01*
X138373190Y-133953415D01*
X138373193Y-133953419D01*
X138477722Y-134057948D01*
X138477726Y-134057951D01*
X138600640Y-134140080D01*
X138600653Y-134140087D01*
X138728902Y-134193209D01*
X138737229Y-134196658D01*
X138737233Y-134196658D01*
X138737234Y-134196659D01*
X138882221Y-134225500D01*
X138882224Y-134225500D01*
X139030062Y-134225500D01*
X139142237Y-134203186D01*
X139175055Y-134196658D01*
X139311637Y-134140084D01*
X139394628Y-134084630D01*
X139461303Y-134063754D01*
X139528683Y-134082238D01*
X139575373Y-134134216D01*
X139586550Y-134203186D01*
X139583292Y-134219827D01*
X139549500Y-134345943D01*
X139549500Y-134504056D01*
X139590423Y-134656783D01*
X139590426Y-134656790D01*
X139669475Y-134793709D01*
X139669479Y-134793714D01*
X139669480Y-134793716D01*
X139781284Y-134905520D01*
X139781286Y-134905521D01*
X139781290Y-134905524D01*
X139918209Y-134984573D01*
X139918216Y-134984577D01*
X140070943Y-135025500D01*
X140070945Y-135025500D01*
X140229055Y-135025500D01*
X140229057Y-135025500D01*
X140381784Y-134984577D01*
X140518716Y-134905520D01*
X140630520Y-134793716D01*
X140709577Y-134656784D01*
X140750500Y-134504057D01*
X140750500Y-134345943D01*
X140709577Y-134193216D01*
X140646887Y-134084632D01*
X140630524Y-134056290D01*
X140630518Y-134056282D01*
X140518717Y-133944481D01*
X140518709Y-133944475D01*
X140381790Y-133865426D01*
X140381786Y-133865424D01*
X140381784Y-133865423D01*
X140229057Y-133824500D01*
X140070943Y-133824500D01*
X139918216Y-133865423D01*
X139918211Y-133865425D01*
X139825213Y-133919116D01*
X139802457Y-133924636D01*
X139781183Y-133934419D01*
X139769135Y-133932719D01*
X139757313Y-133935587D01*
X139735187Y-133927928D01*
X139711999Y-133924657D01*
X139702782Y-133916713D01*
X139691286Y-133912734D01*
X139676812Y-133894328D01*
X139659075Y-133879040D01*
X139655616Y-133867374D01*
X139648097Y-133857812D01*
X139645871Y-133834504D01*
X139639215Y-133812052D01*
X139642257Y-133796652D01*
X139641456Y-133788259D01*
X139644147Y-133777104D01*
X139646045Y-133770575D01*
X139677800Y-133693913D01*
X139698286Y-133590920D01*
X139699785Y-133585769D01*
X139715816Y-133560679D01*
X139729620Y-133534291D01*
X139734428Y-133531552D01*
X139737406Y-133526893D01*
X139764456Y-133514453D01*
X139790336Y-133499717D01*
X139795859Y-133500013D01*
X139800885Y-133497702D01*
X139830370Y-133501862D01*
X139860105Y-133503456D01*
X139868257Y-133507208D01*
X139870069Y-133507464D01*
X139871508Y-133508704D01*
X139880851Y-133513004D01*
X139918216Y-133534577D01*
X140070943Y-133575500D01*
X140070945Y-133575500D01*
X140229055Y-133575500D01*
X140229057Y-133575500D01*
X140381784Y-133534577D01*
X140518716Y-133455520D01*
X140630520Y-133343716D01*
X140709577Y-133206784D01*
X140750500Y-133054057D01*
X140750500Y-132895943D01*
X140709577Y-132743216D01*
X140704108Y-132733744D01*
X140630524Y-132606290D01*
X140630518Y-132606282D01*
X140518717Y-132494481D01*
X140518709Y-132494475D01*
X140381790Y-132415426D01*
X140381786Y-132415424D01*
X140381784Y-132415423D01*
X140229057Y-132374500D01*
X140070943Y-132374500D01*
X139918216Y-132415423D01*
X139918209Y-132415426D01*
X139781290Y-132494475D01*
X139781282Y-132494481D01*
X139669481Y-132606282D01*
X139669475Y-132606290D01*
X139590426Y-132743209D01*
X139590422Y-132743218D01*
X139577716Y-132790636D01*
X139541350Y-132850295D01*
X139478503Y-132880823D01*
X139409127Y-132872527D01*
X139389051Y-132861642D01*
X139311643Y-132809919D01*
X139311630Y-132809912D01*
X139175059Y-132753343D01*
X139175049Y-132753340D01*
X139030062Y-132724500D01*
X139030060Y-132724500D01*
X138882224Y-132724500D01*
X138882222Y-132724500D01*
X138737234Y-132753340D01*
X138737224Y-132753343D01*
X138600653Y-132809912D01*
X138600642Y-132809918D01*
X138524133Y-132861040D01*
X138457456Y-132881917D01*
X138390076Y-132863432D01*
X138343386Y-132811453D01*
X138332210Y-132742483D01*
X138333623Y-132733761D01*
X138350500Y-132648918D01*
X138350500Y-132501082D01*
X138350500Y-132501079D01*
X138321659Y-132356092D01*
X138321658Y-132356091D01*
X138321658Y-132356087D01*
X138321656Y-132356082D01*
X138265087Y-132219511D01*
X138265080Y-132219498D01*
X138182951Y-132096584D01*
X138182948Y-132096580D01*
X138078419Y-131992051D01*
X138078415Y-131992048D01*
X137955501Y-131909919D01*
X137955488Y-131909912D01*
X137818917Y-131853343D01*
X137818907Y-131853340D01*
X137673920Y-131824500D01*
X137673918Y-131824500D01*
X137526082Y-131824500D01*
X137526080Y-131824500D01*
X137381092Y-131853340D01*
X137381082Y-131853343D01*
X137244511Y-131909912D01*
X137244498Y-131909919D01*
X137121584Y-131992048D01*
X137121580Y-131992051D01*
X137017051Y-132096580D01*
X137017048Y-132096584D01*
X136934919Y-132219498D01*
X136934912Y-132219511D01*
X136878343Y-132356082D01*
X136878340Y-132356092D01*
X136849500Y-132501079D01*
X136849500Y-132501082D01*
X136849500Y-132648918D01*
X136849500Y-132648920D01*
X136849499Y-132648920D01*
X101700500Y-132648920D01*
X101700500Y-129831379D01*
X133170792Y-129831379D01*
X133170792Y-130018620D01*
X133207317Y-130202243D01*
X133207319Y-130202251D01*
X133278968Y-130375228D01*
X133278973Y-130375237D01*
X133382989Y-130530907D01*
X133382992Y-130530911D01*
X133515380Y-130663299D01*
X133515384Y-130663302D01*
X133671054Y-130767318D01*
X133671060Y-130767321D01*
X133671061Y-130767322D01*
X133844041Y-130838973D01*
X134027671Y-130875499D01*
X134027675Y-130875500D01*
X134027676Y-130875500D01*
X134214909Y-130875500D01*
X134214910Y-130875499D01*
X134398543Y-130838973D01*
X134571523Y-130767322D01*
X134727200Y-130663302D01*
X134859594Y-130530908D01*
X134963614Y-130375231D01*
X135035265Y-130202251D01*
X135071792Y-130018616D01*
X135071792Y-129831384D01*
X135035265Y-129647749D01*
X134963614Y-129474769D01*
X134963613Y-129474768D01*
X134963610Y-129474762D01*
X134859594Y-129319092D01*
X134859591Y-129319088D01*
X134727203Y-129186700D01*
X134727199Y-129186697D01*
X134571529Y-129082681D01*
X134571520Y-129082676D01*
X134398543Y-129011027D01*
X134398535Y-129011025D01*
X134214912Y-128974500D01*
X134214908Y-128974500D01*
X134027676Y-128974500D01*
X134027671Y-128974500D01*
X133844048Y-129011025D01*
X133844040Y-129011027D01*
X133671063Y-129082676D01*
X133671054Y-129082681D01*
X133515384Y-129186697D01*
X133515380Y-129186700D01*
X133382992Y-129319088D01*
X133382989Y-129319092D01*
X133278973Y-129474762D01*
X133278968Y-129474771D01*
X133207319Y-129647748D01*
X133207317Y-129647756D01*
X133170792Y-129831379D01*
X101700500Y-129831379D01*
X101700500Y-119973515D01*
X152010086Y-119973515D01*
X152010086Y-120185312D01*
X152043215Y-120394486D01*
X152108663Y-120595911D01*
X152204811Y-120784610D01*
X152329296Y-120955949D01*
X152479051Y-121105704D01*
X152650390Y-121230189D01*
X152739544Y-121275615D01*
X152839088Y-121326336D01*
X152839090Y-121326336D01*
X152839093Y-121326338D01*
X152917201Y-121351717D01*
X153040513Y-121391784D01*
X153249688Y-121424914D01*
X153249693Y-121424914D01*
X153461484Y-121424914D01*
X153670658Y-121391784D01*
X153872079Y-121326338D01*
X154060782Y-121230189D01*
X154232121Y-121105704D01*
X154381876Y-120955949D01*
X154506361Y-120784610D01*
X154602510Y-120595907D01*
X154667956Y-120394486D01*
X154701086Y-120185312D01*
X154701086Y-119973515D01*
X154667956Y-119764341D01*
X154602508Y-119562916D01*
X154506360Y-119374217D01*
X154381876Y-119202879D01*
X154232121Y-119053124D01*
X154060782Y-118928639D01*
X153872083Y-118832491D01*
X153670658Y-118767043D01*
X153461484Y-118733914D01*
X153461479Y-118733914D01*
X153249693Y-118733914D01*
X153249688Y-118733914D01*
X153040513Y-118767043D01*
X152839088Y-118832491D01*
X152650389Y-118928639D01*
X152479048Y-119053126D01*
X152329298Y-119202876D01*
X152204811Y-119374217D01*
X152108663Y-119562916D01*
X152043215Y-119764341D01*
X152010086Y-119973515D01*
X101700500Y-119973515D01*
X101700500Y-112092109D01*
X151865086Y-112092109D01*
X151865086Y-112326718D01*
X151901787Y-112558441D01*
X151974283Y-112781564D01*
X152080798Y-112990609D01*
X152218690Y-113180403D01*
X152218694Y-113180408D01*
X152384591Y-113346305D01*
X152384596Y-113346309D01*
X152550144Y-113466585D01*
X152574394Y-113484204D01*
X152783433Y-113590715D01*
X152783435Y-113590716D01*
X152894996Y-113626964D01*
X153006560Y-113663213D01*
X153238281Y-113699914D01*
X153238282Y-113699914D01*
X153472890Y-113699914D01*
X153472891Y-113699914D01*
X153704612Y-113663213D01*
X153927739Y-113590715D01*
X154136778Y-113484204D01*
X154326582Y-113346304D01*
X154492476Y-113180410D01*
X154630376Y-112990606D01*
X154736887Y-112781567D01*
X154809385Y-112558440D01*
X154846086Y-112326719D01*
X154846086Y-112092109D01*
X154809385Y-111860388D01*
X154736887Y-111637261D01*
X154630376Y-111428222D01*
X154510841Y-111263695D01*
X154492481Y-111238424D01*
X154492477Y-111238419D01*
X154340362Y-111086304D01*
X156974500Y-111086304D01*
X156974500Y-111263695D01*
X157009103Y-111437658D01*
X157009106Y-111437667D01*
X157076983Y-111601540D01*
X157076990Y-111601553D01*
X157175535Y-111749034D01*
X157175538Y-111749038D01*
X157300961Y-111874461D01*
X157300965Y-111874464D01*
X157448446Y-111973009D01*
X157448459Y-111973016D01*
X157571363Y-112023923D01*
X157612334Y-112040894D01*
X157612336Y-112040894D01*
X157612341Y-112040896D01*
X157786304Y-112075499D01*
X157786307Y-112075500D01*
X157786309Y-112075500D01*
X157963693Y-112075500D01*
X157963694Y-112075499D01*
X158021682Y-112063964D01*
X158137658Y-112040896D01*
X158137661Y-112040894D01*
X158137666Y-112040894D01*
X158301547Y-111973013D01*
X158449035Y-111874464D01*
X158574464Y-111749035D01*
X158673013Y-111601547D01*
X158740894Y-111437666D01*
X158742774Y-111428218D01*
X158775499Y-111263695D01*
X158775500Y-111263693D01*
X158775500Y-111086306D01*
X158775499Y-111086304D01*
X158740896Y-110912341D01*
X158740893Y-110912332D01*
X158673016Y-110748459D01*
X158673009Y-110748446D01*
X158574464Y-110600965D01*
X158574461Y-110600961D01*
X158449038Y-110475538D01*
X158449034Y-110475535D01*
X158301553Y-110376990D01*
X158301540Y-110376983D01*
X158137667Y-110309106D01*
X158137658Y-110309103D01*
X157963694Y-110274500D01*
X157963691Y-110274500D01*
X157786309Y-110274500D01*
X157786306Y-110274500D01*
X157612341Y-110309103D01*
X157612332Y-110309106D01*
X157448459Y-110376983D01*
X157448446Y-110376990D01*
X157300965Y-110475535D01*
X157300961Y-110475538D01*
X157175538Y-110600961D01*
X157175535Y-110600965D01*
X157076990Y-110748446D01*
X157076983Y-110748459D01*
X157009106Y-110912332D01*
X157009103Y-110912341D01*
X156974500Y-111086304D01*
X154340362Y-111086304D01*
X154326580Y-111072522D01*
X154326575Y-111072518D01*
X154136781Y-110934626D01*
X154136780Y-110934625D01*
X154136778Y-110934624D01*
X154032258Y-110881368D01*
X153927736Y-110828111D01*
X153704613Y-110755615D01*
X153588751Y-110737264D01*
X153472891Y-110718914D01*
X153238281Y-110718914D01*
X153161040Y-110731147D01*
X153006558Y-110755615D01*
X152783435Y-110828111D01*
X152574390Y-110934626D01*
X152384596Y-111072518D01*
X152384591Y-111072522D01*
X152218694Y-111238419D01*
X152218690Y-111238424D01*
X152080798Y-111428218D01*
X151974283Y-111637263D01*
X151901787Y-111860386D01*
X151865086Y-112092109D01*
X101700500Y-112092109D01*
X101700500Y-106646579D01*
X165456086Y-106646579D01*
X165456086Y-106832248D01*
X165485128Y-107015610D01*
X165485129Y-107015614D01*
X165542501Y-107192185D01*
X165626787Y-107357607D01*
X165735914Y-107507807D01*
X165867193Y-107639086D01*
X166017393Y-107748213D01*
X166182815Y-107832499D01*
X166359386Y-107889871D01*
X166428150Y-107900762D01*
X166542752Y-107918914D01*
X166542757Y-107918914D01*
X166728420Y-107918914D01*
X166830287Y-107902779D01*
X166911786Y-107889871D01*
X167088357Y-107832499D01*
X167253779Y-107748213D01*
X167403979Y-107639086D01*
X167535258Y-107507807D01*
X167644385Y-107357607D01*
X167728671Y-107192185D01*
X167786043Y-107015614D01*
X167798951Y-106934115D01*
X167815086Y-106832248D01*
X167815086Y-106646579D01*
X167786043Y-106463217D01*
X167786043Y-106463214D01*
X167728671Y-106286643D01*
X167644385Y-106121221D01*
X167535258Y-105971021D01*
X167403979Y-105839742D01*
X167253779Y-105730615D01*
X167088357Y-105646329D01*
X166911786Y-105588957D01*
X166911784Y-105588956D01*
X166911782Y-105588956D01*
X166728420Y-105559914D01*
X166728415Y-105559914D01*
X166542757Y-105559914D01*
X166542752Y-105559914D01*
X166359389Y-105588956D01*
X166182812Y-105646330D01*
X166017392Y-105730615D01*
X165935410Y-105790179D01*
X165867193Y-105839742D01*
X165867191Y-105839744D01*
X165867190Y-105839744D01*
X165735916Y-105971018D01*
X165735916Y-105971019D01*
X165735914Y-105971021D01*
X165689048Y-106035525D01*
X165626787Y-106121220D01*
X165542502Y-106286640D01*
X165485128Y-106463217D01*
X165456086Y-106646579D01*
X101700500Y-106646579D01*
X101700500Y-104213202D01*
X143230086Y-104213202D01*
X143230086Y-104465625D01*
X143263032Y-104715865D01*
X143328359Y-104959672D01*
X143424949Y-105192861D01*
X143424958Y-105192878D01*
X143551152Y-105411455D01*
X143551154Y-105411459D01*
X143704813Y-105611708D01*
X143704821Y-105611717D01*
X143883283Y-105790179D01*
X143883291Y-105790186D01*
X144083540Y-105943845D01*
X144083544Y-105943847D01*
X144302121Y-106070041D01*
X144302138Y-106070050D01*
X144425673Y-106121220D01*
X144535326Y-106166640D01*
X144779134Y-106231968D01*
X145029382Y-106264914D01*
X145029389Y-106264914D01*
X145281783Y-106264914D01*
X145281790Y-106264914D01*
X145532038Y-106231968D01*
X145775846Y-106166640D01*
X146009040Y-106070047D01*
X146227627Y-105943847D01*
X146227631Y-105943845D01*
X146297970Y-105889871D01*
X146427880Y-105790187D01*
X146427884Y-105790182D01*
X146427889Y-105790179D01*
X146606351Y-105611717D01*
X146606354Y-105611712D01*
X146606359Y-105611708D01*
X146760016Y-105411460D01*
X146886219Y-105192868D01*
X146982812Y-104959674D01*
X147048140Y-104715866D01*
X147057262Y-104646579D01*
X160406086Y-104646579D01*
X160406086Y-104832248D01*
X160426269Y-104959674D01*
X160435129Y-105015614D01*
X160492501Y-105192185D01*
X160576787Y-105357607D01*
X160685914Y-105507807D01*
X160817193Y-105639086D01*
X160967393Y-105748213D01*
X161132815Y-105832499D01*
X161309386Y-105889871D01*
X161378150Y-105900762D01*
X161492752Y-105918914D01*
X161492757Y-105918914D01*
X161678420Y-105918914D01*
X161780287Y-105902779D01*
X161861786Y-105889871D01*
X162038357Y-105832499D01*
X162203779Y-105748213D01*
X162353979Y-105639086D01*
X162485258Y-105507807D01*
X162594385Y-105357607D01*
X162678671Y-105192185D01*
X162736043Y-105015614D01*
X162748951Y-104934115D01*
X162765086Y-104832248D01*
X162765086Y-104646579D01*
X162745724Y-104524337D01*
X162736043Y-104463214D01*
X162678671Y-104286643D01*
X162594385Y-104121221D01*
X162485258Y-103971021D01*
X162353979Y-103839742D01*
X162203779Y-103730615D01*
X162038357Y-103646329D01*
X161861786Y-103588957D01*
X161861784Y-103588956D01*
X161861782Y-103588956D01*
X161678420Y-103559914D01*
X161678415Y-103559914D01*
X161492757Y-103559914D01*
X161492752Y-103559914D01*
X161309389Y-103588956D01*
X161132812Y-103646330D01*
X160967392Y-103730615D01*
X160881697Y-103792876D01*
X160817193Y-103839742D01*
X160817191Y-103839744D01*
X160817190Y-103839744D01*
X160685916Y-103971018D01*
X160685916Y-103971019D01*
X160685914Y-103971021D01*
X160639048Y-104035525D01*
X160576787Y-104121220D01*
X160492502Y-104286640D01*
X160435128Y-104463217D01*
X160406086Y-104646579D01*
X147057262Y-104646579D01*
X147081086Y-104465618D01*
X147081086Y-104213210D01*
X147048140Y-103962962D01*
X146982812Y-103719154D01*
X146916852Y-103559914D01*
X146886222Y-103485966D01*
X146886213Y-103485949D01*
X146760019Y-103267372D01*
X146760017Y-103267368D01*
X146606358Y-103067119D01*
X146606351Y-103067111D01*
X146427889Y-102888649D01*
X146427880Y-102888641D01*
X146227631Y-102734982D01*
X146227627Y-102734980D01*
X146009050Y-102608786D01*
X146009033Y-102608777D01*
X145775844Y-102512187D01*
X145621276Y-102470771D01*
X145532038Y-102446860D01*
X145500757Y-102442741D01*
X145281797Y-102413914D01*
X145281790Y-102413914D01*
X145029382Y-102413914D01*
X145029374Y-102413914D01*
X144779134Y-102446860D01*
X144535327Y-102512187D01*
X144302138Y-102608777D01*
X144302121Y-102608786D01*
X144083544Y-102734980D01*
X144083540Y-102734982D01*
X143883291Y-102888641D01*
X143704813Y-103067119D01*
X143551154Y-103267368D01*
X143551152Y-103267372D01*
X143424958Y-103485949D01*
X143424949Y-103485966D01*
X143328359Y-103719155D01*
X143263032Y-103962962D01*
X143230086Y-104213202D01*
X101700500Y-104213202D01*
X101700500Y-97973515D01*
X152010086Y-97973515D01*
X152010086Y-98185312D01*
X152043215Y-98394486D01*
X152108663Y-98595911D01*
X152204811Y-98784610D01*
X152329296Y-98955949D01*
X152479051Y-99105704D01*
X152650390Y-99230189D01*
X152739544Y-99275615D01*
X152839088Y-99326336D01*
X152839090Y-99326336D01*
X152839093Y-99326338D01*
X152917201Y-99351717D01*
X153040513Y-99391784D01*
X153249688Y-99424914D01*
X153249693Y-99424914D01*
X153461484Y-99424914D01*
X153670658Y-99391784D01*
X153872079Y-99326338D01*
X154060782Y-99230189D01*
X154232121Y-99105704D01*
X154381876Y-98955949D01*
X154506361Y-98784610D01*
X154602510Y-98595907D01*
X154667956Y-98394486D01*
X154701086Y-98185312D01*
X154701086Y-97973515D01*
X154667956Y-97764341D01*
X154602508Y-97562916D01*
X154506360Y-97374217D01*
X154381876Y-97202879D01*
X154232121Y-97053124D01*
X154060782Y-96928639D01*
X153872083Y-96832491D01*
X153670658Y-96767043D01*
X153461484Y-96733914D01*
X153461479Y-96733914D01*
X153249693Y-96733914D01*
X153249688Y-96733914D01*
X153040513Y-96767043D01*
X152839088Y-96832491D01*
X152650389Y-96928639D01*
X152479048Y-97053126D01*
X152329298Y-97202876D01*
X152204811Y-97374217D01*
X152108663Y-97562916D01*
X152043215Y-97764341D01*
X152010086Y-97973515D01*
X101700500Y-97973515D01*
X101700500Y-90092109D01*
X151865086Y-90092109D01*
X151865086Y-90326718D01*
X151901787Y-90558441D01*
X151974283Y-90781564D01*
X152080798Y-90990609D01*
X152218690Y-91180403D01*
X152218694Y-91180408D01*
X152384591Y-91346305D01*
X152384596Y-91346309D01*
X152550144Y-91466585D01*
X152574394Y-91484204D01*
X152783433Y-91590715D01*
X152783435Y-91590716D01*
X152894996Y-91626964D01*
X153006560Y-91663213D01*
X153238281Y-91699914D01*
X153238282Y-91699914D01*
X153472890Y-91699914D01*
X153472891Y-91699914D01*
X153704612Y-91663213D01*
X153927739Y-91590715D01*
X154136778Y-91484204D01*
X154326582Y-91346304D01*
X154492476Y-91180410D01*
X154630376Y-90990606D01*
X154736887Y-90781567D01*
X154809385Y-90558440D01*
X154846086Y-90326719D01*
X154846086Y-90092109D01*
X154809385Y-89860388D01*
X154736887Y-89637261D01*
X154630376Y-89428222D01*
X154612757Y-89403972D01*
X154492481Y-89238424D01*
X154492477Y-89238419D01*
X154326580Y-89072522D01*
X154326575Y-89072518D01*
X154136781Y-88934626D01*
X154136780Y-88934625D01*
X154136778Y-88934624D01*
X154032258Y-88881368D01*
X153927736Y-88828111D01*
X153704613Y-88755615D01*
X153588751Y-88737264D01*
X153472891Y-88718914D01*
X153238281Y-88718914D01*
X153161040Y-88731147D01*
X153006558Y-88755615D01*
X152783435Y-88828111D01*
X152574390Y-88934626D01*
X152384596Y-89072518D01*
X152384591Y-89072522D01*
X152218694Y-89238419D01*
X152218690Y-89238424D01*
X152080798Y-89428218D01*
X151974283Y-89637263D01*
X151901787Y-89860386D01*
X151865086Y-90092109D01*
X101700500Y-90092109D01*
X101700500Y-88100096D01*
X101720185Y-88033057D01*
X101736814Y-88012420D01*
X107582298Y-82166935D01*
X143270025Y-82741964D01*
X143328359Y-82959672D01*
X143424949Y-83192861D01*
X143424958Y-83192878D01*
X143551152Y-83411455D01*
X143551154Y-83411459D01*
X143704813Y-83611708D01*
X143704821Y-83611717D01*
X143883283Y-83790179D01*
X143883291Y-83790186D01*
X144083540Y-83943845D01*
X144083544Y-83943847D01*
X144302121Y-84070041D01*
X144302138Y-84070050D01*
X144431344Y-84123568D01*
X144535326Y-84166640D01*
X144779134Y-84231968D01*
X145029382Y-84264914D01*
X145029389Y-84264914D01*
X145281783Y-84264914D01*
X145281790Y-84264914D01*
X145532038Y-84231968D01*
X145775846Y-84166640D01*
X146009040Y-84070047D01*
X146227627Y-83943847D01*
X146227631Y-83943845D01*
X146265428Y-83914841D01*
X146427880Y-83790187D01*
X146427884Y-83790182D01*
X146427889Y-83790179D01*
X146606351Y-83611717D01*
X146606354Y-83611712D01*
X146606359Y-83611708D01*
X146760016Y-83411460D01*
X146886219Y-83192868D01*
X146982812Y-82959674D01*
X147024935Y-82802466D01*
X174220792Y-83240667D01*
X174220792Y-154150500D01*
X174201107Y-154217539D01*
X174148303Y-154263294D01*
X174096792Y-154274500D01*
X75345792Y-154274500D01*
X75278753Y-154254815D01*
X75232998Y-154202011D01*
X75221792Y-154150500D01*
X75221792Y-151210258D01*
X77999500Y-151210258D01*
X77999500Y-151439741D01*
X78024446Y-151629215D01*
X78029452Y-151667238D01*
X78049858Y-151743394D01*
X78088842Y-151888887D01*
X78176650Y-152100876D01*
X78176656Y-152100888D01*
X78262524Y-152249617D01*
X78291392Y-152299617D01*
X78431081Y-152481661D01*
X78431089Y-152481670D01*
X78593330Y-152643911D01*
X78593338Y-152643918D01*
X78775382Y-152783607D01*
X78775385Y-152783608D01*
X78775388Y-152783611D01*
X78974112Y-152898344D01*
X78974117Y-152898346D01*
X78974123Y-152898349D01*
X79065400Y-152936157D01*
X79186113Y-152986158D01*
X79407762Y-153045548D01*
X79635266Y-153075500D01*
X79635273Y-153075500D01*
X79864727Y-153075500D01*
X79864734Y-153075500D01*
X80092238Y-153045548D01*
X80313887Y-152986158D01*
X80525888Y-152898344D01*
X80724612Y-152783611D01*
X80906661Y-152643919D01*
X80906665Y-152643914D01*
X80906670Y-152643911D01*
X81068911Y-152481670D01*
X81068914Y-152481665D01*
X81068919Y-152481661D01*
X81208611Y-152299612D01*
X81323344Y-152100888D01*
X81411158Y-151888887D01*
X81470548Y-151667238D01*
X81500500Y-151439734D01*
X81500500Y-151210266D01*
X81470548Y-150982762D01*
X81443593Y-150882165D01*
X102320500Y-150882165D01*
X102320500Y-151067834D01*
X102349542Y-151251196D01*
X102349543Y-151251200D01*
X102406915Y-151427771D01*
X102491201Y-151593193D01*
X102600328Y-151743393D01*
X102731607Y-151874672D01*
X102881807Y-151983799D01*
X103047229Y-152068085D01*
X103223800Y-152125457D01*
X103292564Y-152136348D01*
X103407166Y-152154500D01*
X103407171Y-152154500D01*
X103592834Y-152154500D01*
X103694701Y-152138365D01*
X103776200Y-152125457D01*
X103952771Y-152068085D01*
X104118193Y-151983799D01*
X104268393Y-151874672D01*
X104399672Y-151743393D01*
X104508799Y-151593193D01*
X104593085Y-151427771D01*
X104650457Y-151251200D01*
X104664859Y-151160272D01*
X104679500Y-151067834D01*
X104679500Y-150882165D01*
X104654643Y-150725231D01*
X104650457Y-150698800D01*
X104593085Y-150522229D01*
X104508799Y-150356807D01*
X104429874Y-150248177D01*
X104429874Y-150248175D01*
X104399676Y-150206613D01*
X104399672Y-150206607D01*
X104374444Y-150181379D01*
X111474500Y-150181379D01*
X111474500Y-150368620D01*
X111511025Y-150552243D01*
X111511027Y-150552251D01*
X111582676Y-150725228D01*
X111582681Y-150725237D01*
X111686697Y-150880907D01*
X111686700Y-150880911D01*
X111819088Y-151013299D01*
X111819092Y-151013302D01*
X111974762Y-151117318D01*
X111974768Y-151117321D01*
X111974769Y-151117322D01*
X112147749Y-151188973D01*
X112331379Y-151225499D01*
X112331383Y-151225500D01*
X112331384Y-151225500D01*
X112518617Y-151225500D01*
X112518618Y-151225499D01*
X112702251Y-151188973D01*
X112771575Y-151160258D01*
X167949500Y-151160258D01*
X167949500Y-151389741D01*
X167974446Y-151579215D01*
X167979452Y-151617238D01*
X167992850Y-151667240D01*
X168038842Y-151838887D01*
X168126650Y-152050876D01*
X168126657Y-152050890D01*
X168241392Y-152249617D01*
X168381081Y-152431661D01*
X168381089Y-152431670D01*
X168543330Y-152593911D01*
X168543338Y-152593918D01*
X168725382Y-152733607D01*
X168725385Y-152733608D01*
X168725388Y-152733611D01*
X168924112Y-152848344D01*
X168924117Y-152848346D01*
X168924123Y-152848349D01*
X169015480Y-152886190D01*
X169136113Y-152936158D01*
X169357762Y-152995548D01*
X169585266Y-153025500D01*
X169585273Y-153025500D01*
X169814727Y-153025500D01*
X169814734Y-153025500D01*
X170042238Y-152995548D01*
X170263887Y-152936158D01*
X170475888Y-152848344D01*
X170674612Y-152733611D01*
X170856661Y-152593919D01*
X170856665Y-152593914D01*
X170856670Y-152593911D01*
X171018911Y-152431670D01*
X171018914Y-152431665D01*
X171018919Y-152431661D01*
X171158611Y-152249612D01*
X171273344Y-152050888D01*
X171361158Y-151838887D01*
X171420548Y-151617238D01*
X171450500Y-151389734D01*
X171450500Y-151160266D01*
X171420548Y-150932762D01*
X171361158Y-150711113D01*
X171295352Y-150552243D01*
X171273349Y-150499123D01*
X171273346Y-150499117D01*
X171273344Y-150499112D01*
X171158611Y-150300388D01*
X171158608Y-150300385D01*
X171158607Y-150300382D01*
X171018918Y-150118338D01*
X171018911Y-150118330D01*
X170856670Y-149956089D01*
X170856661Y-149956081D01*
X170674617Y-149816392D01*
X170475890Y-149701657D01*
X170475876Y-149701650D01*
X170263887Y-149613842D01*
X170228846Y-149604453D01*
X170042238Y-149554452D01*
X170004215Y-149549446D01*
X169814741Y-149524500D01*
X169814734Y-149524500D01*
X169585266Y-149524500D01*
X169585258Y-149524500D01*
X169368715Y-149553009D01*
X169357762Y-149554452D01*
X169303923Y-149568878D01*
X169136112Y-149613842D01*
X168924123Y-149701650D01*
X168924109Y-149701657D01*
X168725382Y-149816392D01*
X168543338Y-149956081D01*
X168381081Y-150118338D01*
X168241392Y-150300382D01*
X168126657Y-150499109D01*
X168126650Y-150499123D01*
X168038842Y-150711112D01*
X167979453Y-150932759D01*
X167979451Y-150932770D01*
X167949500Y-151160258D01*
X112771575Y-151160258D01*
X112875231Y-151117322D01*
X113030908Y-151013302D01*
X113163302Y-150880908D01*
X113267322Y-150725231D01*
X113338973Y-150552251D01*
X113375500Y-150368616D01*
X113375500Y-150181384D01*
X113338973Y-149997749D01*
X113267322Y-149824769D01*
X113267321Y-149824768D01*
X113267318Y-149824762D01*
X113163302Y-149669092D01*
X113163299Y-149669088D01*
X113030911Y-149536700D01*
X113030907Y-149536697D01*
X112875237Y-149432681D01*
X112875228Y-149432676D01*
X112767266Y-149387957D01*
X120155085Y-149387957D01*
X120193533Y-149581243D01*
X120193536Y-149581253D01*
X120268950Y-149763321D01*
X120268957Y-149763334D01*
X120378446Y-149927195D01*
X120378449Y-149927199D01*
X120517800Y-150066550D01*
X120517804Y-150066553D01*
X120681665Y-150176042D01*
X120681678Y-150176049D01*
X120855808Y-150248175D01*
X120863751Y-150251465D01*
X120863755Y-150251465D01*
X120863756Y-150251466D01*
X121057042Y-150289914D01*
X121057045Y-150289914D01*
X121254129Y-150289914D01*
X121384168Y-150264046D01*
X121447421Y-150251465D01*
X121629500Y-150176046D01*
X121793368Y-150066553D01*
X121932725Y-149927196D01*
X122042218Y-149763328D01*
X122117637Y-149581249D01*
X122131401Y-149512052D01*
X122156086Y-149387957D01*
X122156086Y-149190870D01*
X122117638Y-148997584D01*
X122117637Y-148997583D01*
X122117637Y-148997579D01*
X122087670Y-148925231D01*
X122042221Y-148815506D01*
X122042214Y-148815493D01*
X121932725Y-148651632D01*
X121932722Y-148651628D01*
X121929637Y-148648543D01*
X133124499Y-148648543D01*
X133162947Y-148841829D01*
X133162950Y-148841839D01*
X133238364Y-149023907D01*
X133238371Y-149023920D01*
X133347860Y-149187781D01*
X133347863Y-149187785D01*
X133487214Y-149327136D01*
X133487218Y-149327139D01*
X133651079Y-149436628D01*
X133651092Y-149436635D01*
X133833160Y-149512049D01*
X133833165Y-149512051D01*
X133833169Y-149512051D01*
X133833170Y-149512052D01*
X134026456Y-149550500D01*
X134026459Y-149550500D01*
X134223543Y-149550500D01*
X134354250Y-149524500D01*
X134416835Y-149512051D01*
X134598914Y-149436632D01*
X134762782Y-149327139D01*
X134902139Y-149187782D01*
X135011632Y-149023914D01*
X135087051Y-148841835D01*
X135104872Y-148752243D01*
X135125500Y-148648543D01*
X135125500Y-148451456D01*
X135087052Y-148258170D01*
X135087051Y-148258169D01*
X135087051Y-148258165D01*
X135039066Y-148142318D01*
X135011635Y-148076092D01*
X135011628Y-148076079D01*
X134902139Y-147912218D01*
X134902136Y-147912214D01*
X134762785Y-147772863D01*
X134762781Y-147772860D01*
X134598920Y-147663371D01*
X134598907Y-147663364D01*
X134416839Y-147587950D01*
X134416829Y-147587947D01*
X134223543Y-147549500D01*
X134223541Y-147549500D01*
X134026459Y-147549500D01*
X134026457Y-147549500D01*
X133833170Y-147587947D01*
X133833160Y-147587950D01*
X133651092Y-147663364D01*
X133651079Y-147663371D01*
X133487218Y-147772860D01*
X133487214Y-147772863D01*
X133347863Y-147912214D01*
X133347860Y-147912218D01*
X133238371Y-148076079D01*
X133238364Y-148076092D01*
X133162950Y-148258160D01*
X133162947Y-148258170D01*
X133124500Y-148451456D01*
X133124500Y-148451459D01*
X133124500Y-148648541D01*
X133124500Y-148648543D01*
X133124499Y-148648543D01*
X121929637Y-148648543D01*
X121793371Y-148512277D01*
X121793367Y-148512274D01*
X121629506Y-148402785D01*
X121629493Y-148402778D01*
X121447425Y-148327364D01*
X121447415Y-148327361D01*
X121254129Y-148288914D01*
X121254127Y-148288914D01*
X121057045Y-148288914D01*
X121057043Y-148288914D01*
X120863756Y-148327361D01*
X120863746Y-148327364D01*
X120681678Y-148402778D01*
X120681665Y-148402785D01*
X120517804Y-148512274D01*
X120517800Y-148512277D01*
X120378449Y-148651628D01*
X120378446Y-148651632D01*
X120268957Y-148815493D01*
X120268950Y-148815506D01*
X120193536Y-148997574D01*
X120193533Y-148997584D01*
X120155086Y-149190870D01*
X120155086Y-149190873D01*
X120155086Y-149387955D01*
X120155086Y-149387957D01*
X120155085Y-149387957D01*
X112767266Y-149387957D01*
X112702251Y-149361027D01*
X112702243Y-149361025D01*
X112518620Y-149324500D01*
X112518616Y-149324500D01*
X112331384Y-149324500D01*
X112331379Y-149324500D01*
X112147756Y-149361025D01*
X112147748Y-149361027D01*
X111974771Y-149432676D01*
X111974762Y-149432681D01*
X111819092Y-149536697D01*
X111819088Y-149536700D01*
X111686700Y-149669088D01*
X111686697Y-149669092D01*
X111582681Y-149824762D01*
X111582676Y-149824771D01*
X111511027Y-149997748D01*
X111511025Y-149997756D01*
X111474500Y-150181379D01*
X104374444Y-150181379D01*
X104268393Y-150075328D01*
X104118193Y-149966201D01*
X103952771Y-149881915D01*
X103776200Y-149824543D01*
X103776198Y-149824542D01*
X103776196Y-149824542D01*
X103592834Y-149795500D01*
X103592829Y-149795500D01*
X103407171Y-149795500D01*
X103407166Y-149795500D01*
X103223803Y-149824542D01*
X103047226Y-149881916D01*
X102881806Y-149966201D01*
X102838386Y-149997748D01*
X102731607Y-150075328D01*
X102731605Y-150075330D01*
X102731604Y-150075330D01*
X102600330Y-150206604D01*
X102600330Y-150206605D01*
X102600328Y-150206607D01*
X102600324Y-150206613D01*
X102491201Y-150356806D01*
X102406916Y-150522226D01*
X102349542Y-150698803D01*
X102320500Y-150882165D01*
X81443593Y-150882165D01*
X81411158Y-150761113D01*
X81361190Y-150640480D01*
X81323349Y-150549123D01*
X81323346Y-150549117D01*
X81323344Y-150549112D01*
X81208611Y-150350388D01*
X81208608Y-150350385D01*
X81208607Y-150350382D01*
X81068918Y-150168338D01*
X81068911Y-150168330D01*
X80906670Y-150006089D01*
X80906661Y-150006081D01*
X80724617Y-149866392D01*
X80525890Y-149751657D01*
X80525876Y-149751650D01*
X80313887Y-149663842D01*
X80289871Y-149657407D01*
X80092238Y-149604452D01*
X80054215Y-149599446D01*
X79864741Y-149574500D01*
X79864734Y-149574500D01*
X79635266Y-149574500D01*
X79635258Y-149574500D01*
X79418715Y-149603009D01*
X79407762Y-149604452D01*
X79372718Y-149613842D01*
X79186112Y-149663842D01*
X78974123Y-149751650D01*
X78974109Y-149751657D01*
X78775382Y-149866392D01*
X78593338Y-150006081D01*
X78431081Y-150168338D01*
X78291392Y-150350382D01*
X78176657Y-150549109D01*
X78176650Y-150549123D01*
X78088842Y-150761112D01*
X78029453Y-150982759D01*
X78029451Y-150982770D01*
X77999500Y-151210258D01*
X75221792Y-151210258D01*
X75221792Y-149214313D01*
X87620086Y-149214313D01*
X87620086Y-149339515D01*
X87652491Y-149460450D01*
X87715091Y-149568878D01*
X87803622Y-149657409D01*
X87912050Y-149720009D01*
X88032985Y-149752414D01*
X88032987Y-149752414D01*
X88158185Y-149752414D01*
X88158187Y-149752414D01*
X88279122Y-149720009D01*
X88387550Y-149657409D01*
X88476081Y-149568878D01*
X88538681Y-149460450D01*
X88571086Y-149339515D01*
X88571086Y-149214313D01*
X93400086Y-149214313D01*
X93400086Y-149339515D01*
X93432491Y-149460450D01*
X93495091Y-149568878D01*
X93583622Y-149657409D01*
X93692050Y-149720009D01*
X93812985Y-149752414D01*
X93812987Y-149752414D01*
X93938185Y-149752414D01*
X93938187Y-149752414D01*
X94059122Y-149720009D01*
X94167550Y-149657409D01*
X94256081Y-149568878D01*
X94318681Y-149460450D01*
X94351086Y-149339515D01*
X94351086Y-149214313D01*
X94318681Y-149093378D01*
X94256081Y-148984950D01*
X94167550Y-148896419D01*
X94059122Y-148833819D01*
X94059123Y-148833819D01*
X94018810Y-148823017D01*
X93938187Y-148801414D01*
X93812985Y-148801414D01*
X93732361Y-148823017D01*
X93692049Y-148833819D01*
X93583623Y-148896418D01*
X93583620Y-148896420D01*
X93495092Y-148984948D01*
X93495090Y-148984951D01*
X93432491Y-149093377D01*
X93432491Y-149093378D01*
X93400086Y-149214313D01*
X88571086Y-149214313D01*
X88538681Y-149093378D01*
X88476081Y-148984950D01*
X88387550Y-148896419D01*
X88279122Y-148833819D01*
X88279123Y-148833819D01*
X88238810Y-148823017D01*
X88158187Y-148801414D01*
X88032985Y-148801414D01*
X87952361Y-148823017D01*
X87912049Y-148833819D01*
X87803623Y-148896418D01*
X87803620Y-148896420D01*
X87715092Y-148984948D01*
X87715090Y-148984951D01*
X87652491Y-149093377D01*
X87652491Y-149093378D01*
X87620086Y-149214313D01*
X75221792Y-149214313D01*
X75221792Y-146930642D01*
X88265086Y-146930642D01*
X88265086Y-147098185D01*
X88297768Y-147262488D01*
X88297770Y-147262496D01*
X88361881Y-147417274D01*
X88454959Y-147556576D01*
X88573423Y-147675040D01*
X88660397Y-147733154D01*
X88712723Y-147768117D01*
X88712724Y-147768117D01*
X88712725Y-147768118D01*
X88747787Y-147782641D01*
X88867504Y-147832230D01*
X89031814Y-147864913D01*
X89031818Y-147864914D01*
X89031819Y-147864914D01*
X89199354Y-147864914D01*
X89199355Y-147864913D01*
X89363668Y-147832230D01*
X89518449Y-147768117D01*
X89657748Y-147675040D01*
X89776212Y-147556576D01*
X89869289Y-147417277D01*
X89933402Y-147262496D01*
X89966086Y-147098181D01*
X89966086Y-146930647D01*
X89962635Y-146913299D01*
X89953789Y-146868822D01*
X89950188Y-146850718D01*
X92468836Y-146850718D01*
X92468836Y-147028109D01*
X92503439Y-147202072D01*
X92503442Y-147202081D01*
X92571319Y-147365954D01*
X92571326Y-147365967D01*
X92669871Y-147513448D01*
X92669874Y-147513452D01*
X92795297Y-147638875D01*
X92795301Y-147638878D01*
X92942782Y-147737423D01*
X92942795Y-147737430D01*
X93028335Y-147772861D01*
X93106670Y-147805308D01*
X93106672Y-147805308D01*
X93106677Y-147805310D01*
X93280640Y-147839913D01*
X93280643Y-147839914D01*
X93280645Y-147839914D01*
X93458029Y-147839914D01*
X93458030Y-147839913D01*
X93516018Y-147828378D01*
X93631994Y-147805310D01*
X93631997Y-147805308D01*
X93632002Y-147805308D01*
X93795883Y-147737427D01*
X93943371Y-147638878D01*
X94068800Y-147513449D01*
X94167349Y-147365961D01*
X94235230Y-147202080D01*
X94269836Y-147028105D01*
X94269836Y-146850723D01*
X94269836Y-146850720D01*
X94269835Y-146850718D01*
X94235232Y-146676755D01*
X94235229Y-146676746D01*
X94167352Y-146512873D01*
X94167345Y-146512860D01*
X94068800Y-146365379D01*
X94068797Y-146365375D01*
X93943374Y-146239952D01*
X93943370Y-146239949D01*
X93795889Y-146141404D01*
X93795876Y-146141397D01*
X93632003Y-146073520D01*
X93631994Y-146073517D01*
X93458030Y-146038914D01*
X93458027Y-146038914D01*
X93280645Y-146038914D01*
X93280642Y-146038914D01*
X93106677Y-146073517D01*
X93106668Y-146073520D01*
X92942795Y-146141397D01*
X92942782Y-146141404D01*
X92795301Y-146239949D01*
X92795297Y-146239952D01*
X92669874Y-146365375D01*
X92669871Y-146365379D01*
X92571326Y-146512860D01*
X92571319Y-146512873D01*
X92503442Y-146676746D01*
X92503439Y-146676755D01*
X92468836Y-146850718D01*
X89950188Y-146850718D01*
X89933403Y-146766339D01*
X89933402Y-146766332D01*
X89874958Y-146625237D01*
X89869290Y-146611553D01*
X89776212Y-146472251D01*
X89657748Y-146353787D01*
X89518446Y-146260709D01*
X89363668Y-146196598D01*
X89363660Y-146196596D01*
X89199357Y-146163914D01*
X89199353Y-146163914D01*
X89031819Y-146163914D01*
X89031814Y-146163914D01*
X88867511Y-146196596D01*
X88867503Y-146196598D01*
X88712725Y-146260709D01*
X88573423Y-146353787D01*
X88454959Y-146472251D01*
X88361881Y-146611553D01*
X88297770Y-146766331D01*
X88297768Y-146766339D01*
X88265086Y-146930642D01*
X75221792Y-146930642D01*
X75221792Y-145832165D01*
X104320500Y-145832165D01*
X104320500Y-146017834D01*
X104348814Y-146196598D01*
X104349543Y-146201200D01*
X104406915Y-146377771D01*
X104491201Y-146543193D01*
X104600328Y-146693393D01*
X104731607Y-146824672D01*
X104881807Y-146933799D01*
X105047229Y-147018085D01*
X105223800Y-147075457D01*
X105292564Y-147086348D01*
X105407166Y-147104500D01*
X105407171Y-147104500D01*
X105592834Y-147104500D01*
X105694701Y-147088365D01*
X105776200Y-147075457D01*
X105952771Y-147018085D01*
X106118193Y-146933799D01*
X106268393Y-146824672D01*
X106399672Y-146693393D01*
X106508799Y-146543193D01*
X106593085Y-146377771D01*
X106650457Y-146201200D01*
X106660089Y-146140384D01*
X106669435Y-146081379D01*
X134599500Y-146081379D01*
X134599500Y-146268620D01*
X134636025Y-146452243D01*
X134636027Y-146452251D01*
X134707676Y-146625228D01*
X134707681Y-146625237D01*
X134811697Y-146780907D01*
X134811700Y-146780911D01*
X134944088Y-146913299D01*
X134944092Y-146913302D01*
X135099762Y-147017318D01*
X135099771Y-147017323D01*
X135125801Y-147028105D01*
X135272749Y-147088973D01*
X135456379Y-147125499D01*
X135456383Y-147125500D01*
X135456384Y-147125500D01*
X135643617Y-147125500D01*
X135643618Y-147125499D01*
X135827251Y-147088973D01*
X136000231Y-147017322D01*
X136082170Y-146962571D01*
X136148845Y-146941695D01*
X136216225Y-146960179D01*
X136262915Y-147012157D01*
X136274092Y-147081127D01*
X136272676Y-147089866D01*
X136249500Y-147206379D01*
X136249500Y-147393620D01*
X136286025Y-147577243D01*
X136286027Y-147577251D01*
X136357676Y-147750228D01*
X136357681Y-147750237D01*
X136461697Y-147905907D01*
X136461700Y-147905911D01*
X136594088Y-148038299D01*
X136594092Y-148038302D01*
X136749762Y-148142318D01*
X136749768Y-148142321D01*
X136749769Y-148142322D01*
X136922749Y-148213973D01*
X137106379Y-148250499D01*
X137106383Y-148250500D01*
X137106384Y-148250500D01*
X137293617Y-148250500D01*
X137293618Y-148250499D01*
X137477251Y-148213973D01*
X137541419Y-148187393D01*
X137610884Y-148179925D01*
X137673364Y-148211199D01*
X137709017Y-148271288D01*
X137710487Y-148326144D01*
X137699500Y-148381384D01*
X137699500Y-148568620D01*
X137736025Y-148752243D01*
X137736027Y-148752251D01*
X137807676Y-148925228D01*
X137807681Y-148925237D01*
X137911697Y-149080907D01*
X137911700Y-149080911D01*
X138044088Y-149213299D01*
X138044092Y-149213302D01*
X138199762Y-149317318D01*
X138199768Y-149317321D01*
X138199769Y-149317322D01*
X138372749Y-149388973D01*
X138556379Y-149425499D01*
X138556383Y-149425500D01*
X138556384Y-149425500D01*
X138743617Y-149425500D01*
X138743618Y-149425499D01*
X138927251Y-149388973D01*
X139100231Y-149317322D01*
X139255908Y-149213302D01*
X139388302Y-149080908D01*
X139492322Y-148925231D01*
X139563973Y-148752251D01*
X139600500Y-148568616D01*
X139600500Y-148381384D01*
X139563973Y-148197749D01*
X139492322Y-148024769D01*
X139492321Y-148024768D01*
X139492318Y-148024762D01*
X139388302Y-147869092D01*
X139388299Y-147869088D01*
X139255911Y-147736700D01*
X139255907Y-147736697D01*
X139100237Y-147632681D01*
X139100228Y-147632676D01*
X138927251Y-147561027D01*
X138927243Y-147561025D01*
X138743620Y-147524500D01*
X138743616Y-147524500D01*
X138556384Y-147524500D01*
X138556379Y-147524500D01*
X138372756Y-147561025D01*
X138372744Y-147561028D01*
X138308582Y-147587605D01*
X138239112Y-147595074D01*
X138176633Y-147563798D01*
X138140982Y-147503709D01*
X138139513Y-147448852D01*
X138140054Y-147446129D01*
X138150500Y-147393616D01*
X138150500Y-147206384D01*
X138113973Y-147022749D01*
X138042322Y-146849769D01*
X138042321Y-146849768D01*
X138042318Y-146849762D01*
X137938302Y-146694092D01*
X137938299Y-146694088D01*
X137805911Y-146561700D01*
X137805907Y-146561697D01*
X137650237Y-146457681D01*
X137650228Y-146457676D01*
X137477251Y-146386027D01*
X137477243Y-146386025D01*
X137293620Y-146349500D01*
X137293616Y-146349500D01*
X137106384Y-146349500D01*
X137106379Y-146349500D01*
X136922756Y-146386025D01*
X136922748Y-146386027D01*
X136749771Y-146457676D01*
X136749764Y-146457680D01*
X136667830Y-146512427D01*
X136601153Y-146533304D01*
X136533773Y-146514819D01*
X136487083Y-146462840D01*
X136475907Y-146393870D01*
X136477319Y-146385150D01*
X136500500Y-146268616D01*
X136500500Y-146081384D01*
X136463973Y-145897749D01*
X136463968Y-145897738D01*
X136462205Y-145891922D01*
X136464076Y-145891354D01*
X136457564Y-145830865D01*
X136488830Y-145768381D01*
X136548914Y-145732720D01*
X136618740Y-145735204D01*
X136648488Y-145749762D01*
X136674763Y-145767318D01*
X136674771Y-145767323D01*
X136713956Y-145783554D01*
X136847749Y-145838973D01*
X137031379Y-145875499D01*
X137031383Y-145875500D01*
X137031384Y-145875500D01*
X137218617Y-145875500D01*
X137218618Y-145875499D01*
X137402251Y-145838973D01*
X137575231Y-145767322D01*
X137730908Y-145663302D01*
X137863302Y-145530908D01*
X137967322Y-145375231D01*
X138038973Y-145202251D01*
X138075500Y-145018616D01*
X138075500Y-144831384D01*
X138038973Y-144647749D01*
X137967322Y-144474769D01*
X137967321Y-144474768D01*
X137967318Y-144474762D01*
X137863302Y-144319092D01*
X137863299Y-144319088D01*
X137730911Y-144186700D01*
X137730907Y-144186697D01*
X137575237Y-144082681D01*
X137575228Y-144082676D01*
X137402251Y-144011027D01*
X137402243Y-144011025D01*
X137218620Y-143974500D01*
X137218616Y-143974500D01*
X137031384Y-143974500D01*
X137031379Y-143974500D01*
X136847756Y-144011025D01*
X136847748Y-144011027D01*
X136674771Y-144082676D01*
X136674762Y-144082681D01*
X136519092Y-144186697D01*
X136519088Y-144186700D01*
X136386700Y-144319088D01*
X136386697Y-144319092D01*
X136282681Y-144474762D01*
X136282676Y-144474771D01*
X136211027Y-144647748D01*
X136211025Y-144647756D01*
X136174500Y-144831379D01*
X136174500Y-145018620D01*
X136211025Y-145202243D01*
X136212795Y-145208078D01*
X136210927Y-145208644D01*
X136217431Y-145269154D01*
X136186155Y-145331633D01*
X136126065Y-145367284D01*
X136056240Y-145364789D01*
X136026511Y-145350237D01*
X136000237Y-145332681D01*
X136000228Y-145332676D01*
X135827251Y-145261027D01*
X135827243Y-145261025D01*
X135643620Y-145224500D01*
X135643616Y-145224500D01*
X135456384Y-145224500D01*
X135456379Y-145224500D01*
X135272756Y-145261025D01*
X135272748Y-145261027D01*
X135099771Y-145332676D01*
X135099762Y-145332681D01*
X134944092Y-145436697D01*
X134944088Y-145436700D01*
X134811700Y-145569088D01*
X134811697Y-145569092D01*
X134707681Y-145724762D01*
X134707676Y-145724771D01*
X134636027Y-145897748D01*
X134636025Y-145897756D01*
X134599500Y-146081379D01*
X106669435Y-146081379D01*
X106673472Y-146055894D01*
X106679500Y-146017834D01*
X106679500Y-145832165D01*
X106650457Y-145648803D01*
X106650457Y-145648800D01*
X106593085Y-145472229D01*
X106508799Y-145306807D01*
X106399672Y-145156607D01*
X106268393Y-145025328D01*
X106118193Y-144916201D01*
X105952771Y-144831915D01*
X105776200Y-144774543D01*
X105776198Y-144774542D01*
X105776196Y-144774542D01*
X105592834Y-144745500D01*
X105592829Y-144745500D01*
X105407171Y-144745500D01*
X105407166Y-144745500D01*
X105223803Y-144774542D01*
X105047226Y-144831916D01*
X104881806Y-144916201D01*
X104796111Y-144978462D01*
X104731607Y-145025328D01*
X104731605Y-145025330D01*
X104731604Y-145025330D01*
X104600330Y-145156604D01*
X104600330Y-145156605D01*
X104600328Y-145156607D01*
X104567166Y-145202251D01*
X104491201Y-145306806D01*
X104406916Y-145472226D01*
X104349542Y-145648803D01*
X104320500Y-145832165D01*
X75221792Y-145832165D01*
X75221792Y-144556379D01*
X90774500Y-144556379D01*
X90774500Y-144743620D01*
X90811025Y-144927243D01*
X90811027Y-144927251D01*
X90882676Y-145100228D01*
X90882681Y-145100237D01*
X90986697Y-145255907D01*
X90986700Y-145255911D01*
X91119088Y-145388299D01*
X91119092Y-145388302D01*
X91274762Y-145492318D01*
X91274768Y-145492321D01*
X91274769Y-145492322D01*
X91447749Y-145563973D01*
X91631379Y-145600499D01*
X91631383Y-145600500D01*
X91631384Y-145600500D01*
X91818617Y-145600500D01*
X91818618Y-145600499D01*
X92002251Y-145563973D01*
X92175231Y-145492322D01*
X92330908Y-145388302D01*
X92463302Y-145255908D01*
X92567322Y-145100231D01*
X92638973Y-144927251D01*
X92675500Y-144743616D01*
X92675500Y-144556384D01*
X92638973Y-144372749D01*
X92567322Y-144199769D01*
X92567321Y-144199768D01*
X92567318Y-144199762D01*
X92463302Y-144044092D01*
X92463299Y-144044088D01*
X92330911Y-143911700D01*
X92330907Y-143911697D01*
X92175237Y-143807681D01*
X92175228Y-143807676D01*
X92002251Y-143736027D01*
X92002243Y-143736025D01*
X91980792Y-143731758D01*
X91818620Y-143699500D01*
X91818616Y-143699500D01*
X91631384Y-143699500D01*
X91631379Y-143699500D01*
X91447756Y-143736025D01*
X91447748Y-143736027D01*
X91274771Y-143807676D01*
X91274762Y-143807681D01*
X91119092Y-143911697D01*
X91119088Y-143911700D01*
X90986700Y-144044088D01*
X90986697Y-144044092D01*
X90882681Y-144199762D01*
X90882676Y-144199771D01*
X90811027Y-144372748D01*
X90811025Y-144372756D01*
X90774500Y-144556379D01*
X75221792Y-144556379D01*
X75221792Y-143616228D01*
X110524500Y-143616228D01*
X110524500Y-143783771D01*
X110557182Y-143948074D01*
X110557184Y-143948082D01*
X110621295Y-144102860D01*
X110714373Y-144242162D01*
X110832837Y-144360626D01*
X110925494Y-144422537D01*
X110972137Y-144453703D01*
X111126918Y-144517816D01*
X111291228Y-144550499D01*
X111291232Y-144550500D01*
X111291233Y-144550500D01*
X111458768Y-144550500D01*
X111458769Y-144550499D01*
X111623082Y-144517816D01*
X111777863Y-144453703D01*
X111917162Y-144360626D01*
X112035626Y-144242162D01*
X112128703Y-144102863D01*
X112192816Y-143948082D01*
X112225500Y-143783767D01*
X112225500Y-143616233D01*
X112192816Y-143451918D01*
X112163598Y-143381379D01*
X128805642Y-143381379D01*
X128805642Y-143568620D01*
X128842167Y-143752243D01*
X128842169Y-143752251D01*
X128913818Y-143925228D01*
X128913823Y-143925237D01*
X129017839Y-144080907D01*
X129017842Y-144080911D01*
X129150230Y-144213299D01*
X129150234Y-144213302D01*
X129305904Y-144317318D01*
X129305910Y-144317321D01*
X129305911Y-144317322D01*
X129478891Y-144388973D01*
X129662521Y-144425499D01*
X129662525Y-144425500D01*
X129662526Y-144425500D01*
X129849759Y-144425500D01*
X129849760Y-144425499D01*
X130033393Y-144388973D01*
X130206373Y-144317322D01*
X130362050Y-144213302D01*
X130494444Y-144080908D01*
X130598464Y-143925231D01*
X130670115Y-143752251D01*
X130706642Y-143568616D01*
X130706642Y-143381384D01*
X130670115Y-143197749D01*
X130614696Y-143063956D01*
X130598465Y-143024771D01*
X130598460Y-143024762D01*
X130494444Y-142869092D01*
X130494441Y-142869088D01*
X130362053Y-142736700D01*
X130362049Y-142736697D01*
X130206379Y-142632681D01*
X130206370Y-142632676D01*
X130033393Y-142561027D01*
X130033385Y-142561025D01*
X129849762Y-142524500D01*
X129849758Y-142524500D01*
X129662526Y-142524500D01*
X129662521Y-142524500D01*
X129478898Y-142561025D01*
X129478890Y-142561027D01*
X129305913Y-142632676D01*
X129305904Y-142632681D01*
X129150234Y-142736697D01*
X129150230Y-142736700D01*
X129017842Y-142869088D01*
X129017839Y-142869092D01*
X128913823Y-143024762D01*
X128913818Y-143024771D01*
X128842169Y-143197748D01*
X128842167Y-143197756D01*
X128805642Y-143381379D01*
X112163598Y-143381379D01*
X112128703Y-143297137D01*
X112097537Y-143250494D01*
X112035626Y-143157837D01*
X111917162Y-143039373D01*
X111777860Y-142946295D01*
X111623082Y-142882184D01*
X111623074Y-142882182D01*
X111458771Y-142849500D01*
X111458767Y-142849500D01*
X111291233Y-142849500D01*
X111291228Y-142849500D01*
X111126925Y-142882182D01*
X111126917Y-142882184D01*
X110972139Y-142946295D01*
X110832837Y-143039373D01*
X110714373Y-143157837D01*
X110621295Y-143297139D01*
X110557184Y-143451917D01*
X110557182Y-143451925D01*
X110524500Y-143616228D01*
X75221792Y-143616228D01*
X75221792Y-142196153D01*
X137955642Y-142196153D01*
X137955642Y-142353846D01*
X137986403Y-142508489D01*
X137986406Y-142508501D01*
X138046744Y-142654172D01*
X138046751Y-142654185D01*
X138134352Y-142785288D01*
X138134355Y-142785292D01*
X138245849Y-142896786D01*
X138245853Y-142896789D01*
X138376956Y-142984390D01*
X138376969Y-142984397D01*
X138474442Y-143024771D01*
X138522645Y-143044737D01*
X138677295Y-143075499D01*
X138677298Y-143075500D01*
X138677300Y-143075500D01*
X138834986Y-143075500D01*
X138834987Y-143075499D01*
X138989639Y-143044737D01*
X139135321Y-142984394D01*
X139266431Y-142896789D01*
X139377931Y-142785289D01*
X139465536Y-142654179D01*
X139525879Y-142508497D01*
X139556642Y-142353842D01*
X139556642Y-142196158D01*
X139556642Y-142196155D01*
X139556641Y-142196153D01*
X139525880Y-142041510D01*
X139525879Y-142041503D01*
X139525877Y-142041498D01*
X139465539Y-141895827D01*
X139465532Y-141895814D01*
X139377931Y-141764711D01*
X139377928Y-141764707D01*
X139266434Y-141653213D01*
X139266430Y-141653210D01*
X139135327Y-141565609D01*
X139135314Y-141565602D01*
X138989643Y-141505264D01*
X138989631Y-141505261D01*
X138834987Y-141474500D01*
X138834984Y-141474500D01*
X138677300Y-141474500D01*
X138677297Y-141474500D01*
X138522652Y-141505261D01*
X138522640Y-141505264D01*
X138376969Y-141565602D01*
X138376956Y-141565609D01*
X138245853Y-141653210D01*
X138245849Y-141653213D01*
X138134355Y-141764707D01*
X138134352Y-141764711D01*
X138046751Y-141895814D01*
X138046744Y-141895827D01*
X137986406Y-142041498D01*
X137986403Y-142041510D01*
X137955642Y-142196153D01*
X75221792Y-142196153D01*
X75221792Y-140781379D01*
X94549500Y-140781379D01*
X94549500Y-140968620D01*
X94586025Y-141152243D01*
X94586027Y-141152251D01*
X94657676Y-141325228D01*
X94657681Y-141325237D01*
X94761697Y-141480907D01*
X94761700Y-141480911D01*
X94894088Y-141613299D01*
X94894092Y-141613302D01*
X95049762Y-141717318D01*
X95049768Y-141717321D01*
X95049769Y-141717322D01*
X95222749Y-141788973D01*
X95406379Y-141825499D01*
X95406383Y-141825500D01*
X95406384Y-141825500D01*
X95593617Y-141825500D01*
X95593618Y-141825499D01*
X95777251Y-141788973D01*
X95950231Y-141717322D01*
X96105908Y-141613302D01*
X96238302Y-141480908D01*
X96342322Y-141325231D01*
X96413973Y-141152251D01*
X96450500Y-140968616D01*
X96450500Y-140781384D01*
X96413973Y-140597749D01*
X96342322Y-140424769D01*
X96342321Y-140424768D01*
X96342318Y-140424762D01*
X96238302Y-140269092D01*
X96238299Y-140269088D01*
X96105911Y-140136700D01*
X96105907Y-140136697D01*
X95950237Y-140032681D01*
X95950228Y-140032676D01*
X95777251Y-139961027D01*
X95777243Y-139961025D01*
X95593620Y-139924500D01*
X95593616Y-139924500D01*
X95406384Y-139924500D01*
X95406379Y-139924500D01*
X95222756Y-139961025D01*
X95222748Y-139961027D01*
X95049771Y-140032676D01*
X95049762Y-140032681D01*
X94894092Y-140136697D01*
X94894088Y-140136700D01*
X94761700Y-140269088D01*
X94761697Y-140269092D01*
X94657681Y-140424762D01*
X94657676Y-140424771D01*
X94586027Y-140597748D01*
X94586025Y-140597756D01*
X94549500Y-140781379D01*
X75221792Y-140781379D01*
X75221792Y-119953202D01*
X88030086Y-119953202D01*
X88030086Y-120205625D01*
X88063032Y-120455865D01*
X88128359Y-120699672D01*
X88224949Y-120932861D01*
X88224958Y-120932878D01*
X88351152Y-121151455D01*
X88351154Y-121151459D01*
X88504813Y-121351708D01*
X88504821Y-121351717D01*
X88683283Y-121530179D01*
X88683291Y-121530186D01*
X88883540Y-121683845D01*
X88883544Y-121683847D01*
X89102121Y-121810041D01*
X89102138Y-121810050D01*
X89231344Y-121863568D01*
X89335326Y-121906640D01*
X89579134Y-121971968D01*
X89829382Y-122004914D01*
X89829389Y-122004914D01*
X90081783Y-122004914D01*
X90081790Y-122004914D01*
X90332038Y-121971968D01*
X90575846Y-121906640D01*
X90809040Y-121810047D01*
X91027627Y-121683847D01*
X91027631Y-121683845D01*
X91065428Y-121654841D01*
X91227880Y-121530187D01*
X91227884Y-121530182D01*
X91227889Y-121530179D01*
X91406351Y-121351717D01*
X91406354Y-121351712D01*
X91406359Y-121351708D01*
X91560016Y-121151460D01*
X91686219Y-120932868D01*
X91782812Y-120699674D01*
X91848140Y-120455866D01*
X91881086Y-120205618D01*
X91881086Y-119953210D01*
X91848140Y-119702962D01*
X91782812Y-119459154D01*
X91739740Y-119355172D01*
X91686222Y-119225966D01*
X91686213Y-119225949D01*
X91560019Y-119007372D01*
X91560017Y-119007368D01*
X91406358Y-118807119D01*
X91406351Y-118807111D01*
X91227889Y-118628649D01*
X91227880Y-118628641D01*
X91027631Y-118474982D01*
X91027627Y-118474980D01*
X90809050Y-118348786D01*
X90809033Y-118348777D01*
X90575844Y-118252187D01*
X90421276Y-118210771D01*
X90332038Y-118186860D01*
X90300757Y-118182741D01*
X90081797Y-118153914D01*
X90081790Y-118153914D01*
X89829382Y-118153914D01*
X89829374Y-118153914D01*
X89579134Y-118186860D01*
X89335327Y-118252187D01*
X89102138Y-118348777D01*
X89102121Y-118348786D01*
X88883544Y-118474980D01*
X88883540Y-118474982D01*
X88683291Y-118628641D01*
X88504813Y-118807119D01*
X88351154Y-119007368D01*
X88351152Y-119007372D01*
X88224958Y-119225949D01*
X88224949Y-119225966D01*
X88128359Y-119459155D01*
X88063032Y-119702962D01*
X88030086Y-119953202D01*
X75221792Y-119953202D01*
X75221792Y-97953202D01*
X88030086Y-97953202D01*
X88030086Y-98205625D01*
X88063032Y-98455865D01*
X88128359Y-98699672D01*
X88224949Y-98932861D01*
X88224958Y-98932878D01*
X88351152Y-99151455D01*
X88351154Y-99151459D01*
X88504813Y-99351708D01*
X88504821Y-99351717D01*
X88683283Y-99530179D01*
X88683291Y-99530186D01*
X88883540Y-99683845D01*
X88883544Y-99683847D01*
X89102121Y-99810041D01*
X89102138Y-99810050D01*
X89231344Y-99863568D01*
X89335326Y-99906640D01*
X89579134Y-99971968D01*
X89829382Y-100004914D01*
X89829389Y-100004914D01*
X90081783Y-100004914D01*
X90081790Y-100004914D01*
X90332038Y-99971968D01*
X90575846Y-99906640D01*
X90809040Y-99810047D01*
X91027627Y-99683847D01*
X91027631Y-99683845D01*
X91065428Y-99654841D01*
X91227880Y-99530187D01*
X91227884Y-99530182D01*
X91227889Y-99530179D01*
X91406351Y-99351717D01*
X91406354Y-99351712D01*
X91406359Y-99351708D01*
X91560016Y-99151460D01*
X91686219Y-98932868D01*
X91782812Y-98699674D01*
X91848140Y-98455866D01*
X91881086Y-98205618D01*
X91881086Y-97953210D01*
X91848140Y-97702962D01*
X91782812Y-97459154D01*
X91739740Y-97355172D01*
X91686222Y-97225966D01*
X91686213Y-97225949D01*
X91560019Y-97007372D01*
X91560017Y-97007368D01*
X91406358Y-96807119D01*
X91406351Y-96807111D01*
X91227889Y-96628649D01*
X91227880Y-96628641D01*
X91027631Y-96474982D01*
X91027627Y-96474980D01*
X90809050Y-96348786D01*
X90809033Y-96348777D01*
X90575844Y-96252187D01*
X90421276Y-96210771D01*
X90332038Y-96186860D01*
X90300757Y-96182741D01*
X90081797Y-96153914D01*
X90081790Y-96153914D01*
X89829382Y-96153914D01*
X89829374Y-96153914D01*
X89579134Y-96186860D01*
X89335327Y-96252187D01*
X89102138Y-96348777D01*
X89102121Y-96348786D01*
X88883544Y-96474980D01*
X88883540Y-96474982D01*
X88683291Y-96628641D01*
X88504813Y-96807119D01*
X88351154Y-97007368D01*
X88351152Y-97007372D01*
X88224958Y-97225949D01*
X88224949Y-97225966D01*
X88128359Y-97459155D01*
X88063032Y-97702962D01*
X88030086Y-97953202D01*
X75221792Y-97953202D01*
X75221792Y-81953044D01*
X75241477Y-81886005D01*
X75294281Y-81840250D01*
X75346481Y-81829047D01*
X86903156Y-81893881D01*
G37*
%TD.AperFunction*%
%TD*%
%TA.AperFunction,Conductor*%
%TO.N,GND*%
G36*
X174163831Y-35295185D02*
G01*
X174209586Y-35347989D01*
X174220792Y-35399500D01*
X174220792Y-83240666D01*
X147024935Y-82802465D01*
X147048140Y-82715866D01*
X147081086Y-82465618D01*
X147081086Y-82213210D01*
X147048140Y-81962962D01*
X146982812Y-81719154D01*
X146939740Y-81615172D01*
X146886222Y-81485966D01*
X146886213Y-81485949D01*
X146760019Y-81267372D01*
X146760017Y-81267368D01*
X146606358Y-81067119D01*
X146606351Y-81067111D01*
X146427889Y-80888649D01*
X146427880Y-80888641D01*
X146227631Y-80734982D01*
X146227627Y-80734980D01*
X146009050Y-80608786D01*
X146009033Y-80608777D01*
X145775844Y-80512187D01*
X145621276Y-80470771D01*
X145532038Y-80446860D01*
X145500757Y-80442741D01*
X145281797Y-80413914D01*
X145281790Y-80413914D01*
X145029382Y-80413914D01*
X145029374Y-80413914D01*
X144779134Y-80446860D01*
X144535327Y-80512187D01*
X144302138Y-80608777D01*
X144302121Y-80608786D01*
X144083544Y-80734980D01*
X144083540Y-80734982D01*
X143883291Y-80888641D01*
X143704813Y-81067119D01*
X143551154Y-81267368D01*
X143551152Y-81267372D01*
X143424958Y-81485949D01*
X143424949Y-81485966D01*
X143328359Y-81719155D01*
X143263032Y-81962962D01*
X143230086Y-82213202D01*
X143230086Y-82465625D01*
X143263032Y-82715865D01*
X143270024Y-82741963D01*
X107582299Y-82166935D01*
X114528301Y-75220932D01*
X114589622Y-75187449D01*
X114591644Y-75187027D01*
X114668913Y-75171658D01*
X114805495Y-75115084D01*
X114928416Y-75032951D01*
X115032951Y-74928416D01*
X115115084Y-74805495D01*
X115171658Y-74668913D01*
X115200500Y-74523918D01*
X115200500Y-74376082D01*
X115200500Y-74376079D01*
X115171659Y-74231092D01*
X115171658Y-74231091D01*
X115171658Y-74231087D01*
X115119639Y-74105501D01*
X115115087Y-74094511D01*
X115115080Y-74094498D01*
X115032951Y-73971584D01*
X115032948Y-73971580D01*
X114928419Y-73867051D01*
X114928415Y-73867048D01*
X114805501Y-73784919D01*
X114805488Y-73784912D01*
X114668917Y-73728343D01*
X114668907Y-73728340D01*
X114523920Y-73699499D01*
X114517858Y-73698903D01*
X114517987Y-73697587D01*
X114457461Y-73679815D01*
X114411706Y-73627011D01*
X114400500Y-73575500D01*
X114400500Y-73451079D01*
X114371659Y-73306092D01*
X114371658Y-73306091D01*
X114371658Y-73306087D01*
X114362074Y-73282948D01*
X114315087Y-73169511D01*
X114315080Y-73169498D01*
X114232951Y-73046584D01*
X114232948Y-73046580D01*
X114128419Y-72942051D01*
X114128415Y-72942048D01*
X114005501Y-72859919D01*
X114005488Y-72859912D01*
X113868917Y-72803343D01*
X113868907Y-72803340D01*
X113723920Y-72774500D01*
X113723918Y-72774500D01*
X113576082Y-72774500D01*
X113576080Y-72774500D01*
X113431092Y-72803340D01*
X113431082Y-72803343D01*
X113294511Y-72859912D01*
X113294498Y-72859919D01*
X113171584Y-72942048D01*
X113171580Y-72942051D01*
X113067051Y-73046580D01*
X113067048Y-73046584D01*
X112984919Y-73169498D01*
X112984912Y-73169511D01*
X112928342Y-73306084D01*
X112928340Y-73306090D01*
X112913000Y-73383210D01*
X112880614Y-73445120D01*
X112879064Y-73446698D01*
X104213113Y-82112648D01*
X99137184Y-82030861D01*
X99052596Y-76901039D01*
X99071171Y-76833690D01*
X99120488Y-76789511D01*
X99135000Y-76775000D01*
X99135000Y-71395943D01*
X122374500Y-71395943D01*
X122374500Y-71554056D01*
X122415423Y-71706783D01*
X122415426Y-71706790D01*
X122494475Y-71843709D01*
X122494479Y-71843714D01*
X122494480Y-71843716D01*
X122606284Y-71955520D01*
X122606286Y-71955521D01*
X122606290Y-71955524D01*
X122743209Y-72034573D01*
X122743216Y-72034577D01*
X122895943Y-72075500D01*
X122895945Y-72075500D01*
X123054054Y-72075500D01*
X123054057Y-72075500D01*
X123205522Y-72034915D01*
X123275367Y-72036578D01*
X123333230Y-72075740D01*
X123360734Y-72139968D01*
X123349148Y-72208871D01*
X123340714Y-72223580D01*
X123259918Y-72344500D01*
X123259912Y-72344511D01*
X123203343Y-72481082D01*
X123203340Y-72481092D01*
X123174500Y-72626079D01*
X123174500Y-72626082D01*
X123174500Y-72773918D01*
X123174500Y-72773920D01*
X123174499Y-72773920D01*
X123203340Y-72918907D01*
X123203343Y-72918917D01*
X123259912Y-73055488D01*
X123259919Y-73055501D01*
X123342048Y-73178415D01*
X123342051Y-73178419D01*
X123446580Y-73282948D01*
X123446584Y-73282951D01*
X123569498Y-73365080D01*
X123569511Y-73365087D01*
X123702328Y-73420101D01*
X123706087Y-73421658D01*
X123706091Y-73421658D01*
X123706092Y-73421659D01*
X123851079Y-73450500D01*
X123851082Y-73450500D01*
X123998920Y-73450500D01*
X124096462Y-73431096D01*
X124143913Y-73421658D01*
X124280495Y-73365084D01*
X124403416Y-73282951D01*
X124481430Y-73204936D01*
X124542751Y-73171453D01*
X124612443Y-73176437D01*
X124668377Y-73218308D01*
X124672213Y-73223729D01*
X124692050Y-73253418D01*
X124796580Y-73357948D01*
X124796584Y-73357951D01*
X124919498Y-73440080D01*
X124919511Y-73440087D01*
X125056082Y-73496656D01*
X125056087Y-73496658D01*
X125056091Y-73496658D01*
X125056092Y-73496659D01*
X125201079Y-73525500D01*
X125201082Y-73525500D01*
X125348920Y-73525500D01*
X125446462Y-73506096D01*
X125493913Y-73496658D01*
X125603951Y-73451079D01*
X125630488Y-73440087D01*
X125630488Y-73440086D01*
X125630495Y-73440084D01*
X125630500Y-73440080D01*
X125630503Y-73440079D01*
X125659464Y-73420728D01*
X125726141Y-73399849D01*
X125793522Y-73418333D01*
X125840212Y-73470311D01*
X125851389Y-73539281D01*
X125849973Y-73548021D01*
X125824500Y-73676079D01*
X125824500Y-73676082D01*
X125824500Y-73823918D01*
X125824500Y-73823920D01*
X125824499Y-73823920D01*
X125853340Y-73968907D01*
X125853343Y-73968917D01*
X125909912Y-74105488D01*
X125909919Y-74105501D01*
X125992048Y-74228415D01*
X125992051Y-74228419D01*
X126096580Y-74332948D01*
X126096584Y-74332951D01*
X126219498Y-74415080D01*
X126219511Y-74415087D01*
X126356082Y-74471656D01*
X126356087Y-74471658D01*
X126356091Y-74471658D01*
X126356092Y-74471659D01*
X126501079Y-74500500D01*
X126501082Y-74500500D01*
X126648920Y-74500500D01*
X126746462Y-74481096D01*
X126793913Y-74471658D01*
X126930495Y-74415084D01*
X127053416Y-74332951D01*
X127157951Y-74228416D01*
X127240084Y-74105495D01*
X127296658Y-73968913D01*
X127325500Y-73823918D01*
X127325500Y-73676082D01*
X127325500Y-73676079D01*
X127296659Y-73531092D01*
X127296658Y-73531091D01*
X127296658Y-73531087D01*
X127294344Y-73525500D01*
X127240087Y-73394511D01*
X127240080Y-73394498D01*
X127157951Y-73271584D01*
X127157948Y-73271580D01*
X127053419Y-73167051D01*
X127053415Y-73167048D01*
X126930501Y-73084919D01*
X126930488Y-73084912D01*
X126793917Y-73028343D01*
X126793907Y-73028340D01*
X126648920Y-72999500D01*
X126648918Y-72999500D01*
X126501082Y-72999500D01*
X126501080Y-72999500D01*
X126356092Y-73028340D01*
X126356082Y-73028343D01*
X126219511Y-73084912D01*
X126219497Y-73084920D01*
X126190531Y-73104274D01*
X126123853Y-73125150D01*
X126056474Y-73106664D01*
X126009785Y-73054684D01*
X125998610Y-72985714D01*
X126000022Y-72977000D01*
X126025500Y-72848918D01*
X126025500Y-72701082D01*
X126025500Y-72701079D01*
X125996659Y-72556092D01*
X125996658Y-72556091D01*
X125996658Y-72556087D01*
X125965590Y-72481082D01*
X125940087Y-72419511D01*
X125940080Y-72419498D01*
X125857951Y-72296584D01*
X125857948Y-72296580D01*
X125753419Y-72192051D01*
X125753415Y-72192048D01*
X125630501Y-72109919D01*
X125630488Y-72109912D01*
X125493917Y-72053343D01*
X125493907Y-72053340D01*
X125348920Y-72024500D01*
X125348918Y-72024500D01*
X125201082Y-72024500D01*
X125201080Y-72024500D01*
X125056092Y-72053340D01*
X125056082Y-72053343D01*
X124919511Y-72109912D01*
X124919498Y-72109919D01*
X124796584Y-72192048D01*
X124718570Y-72270062D01*
X124657246Y-72303546D01*
X124587555Y-72298562D01*
X124531621Y-72256690D01*
X124527795Y-72251282D01*
X124507951Y-72221584D01*
X124507949Y-72221581D01*
X124403419Y-72117051D01*
X124403415Y-72117048D01*
X124280501Y-72034919D01*
X124280488Y-72034912D01*
X124143917Y-71978343D01*
X124143907Y-71978340D01*
X123998920Y-71949500D01*
X123998918Y-71949500D01*
X123851082Y-71949500D01*
X123851080Y-71949500D01*
X123706092Y-71978340D01*
X123706082Y-71978343D01*
X123612092Y-72017275D01*
X123542623Y-72024744D01*
X123480144Y-71993468D01*
X123444492Y-71933379D01*
X123446986Y-71863554D01*
X123457253Y-71840714D01*
X123534577Y-71706784D01*
X123575500Y-71554057D01*
X123575500Y-71395943D01*
X123534577Y-71243216D01*
X123534573Y-71243209D01*
X123455524Y-71106290D01*
X123455518Y-71106282D01*
X123343717Y-70994481D01*
X123343709Y-70994475D01*
X123206790Y-70915426D01*
X123206786Y-70915424D01*
X123206784Y-70915423D01*
X123054057Y-70874500D01*
X122895943Y-70874500D01*
X122743216Y-70915423D01*
X122743209Y-70915426D01*
X122606290Y-70994475D01*
X122606282Y-70994481D01*
X122494481Y-71106282D01*
X122494475Y-71106290D01*
X122415426Y-71243209D01*
X122415423Y-71243216D01*
X122374500Y-71395943D01*
X99135000Y-71395943D01*
X99135000Y-70060567D01*
X158860186Y-70060567D01*
X158860186Y-70218260D01*
X158890947Y-70372903D01*
X158890950Y-70372915D01*
X158951288Y-70518586D01*
X158951295Y-70518599D01*
X159038896Y-70649702D01*
X159038899Y-70649706D01*
X159150393Y-70761200D01*
X159150397Y-70761203D01*
X159281500Y-70848804D01*
X159281513Y-70848811D01*
X159343533Y-70874500D01*
X159427189Y-70909151D01*
X159581839Y-70939913D01*
X159581842Y-70939914D01*
X159581844Y-70939914D01*
X159739530Y-70939914D01*
X159739531Y-70939913D01*
X159894183Y-70909151D01*
X160039865Y-70848808D01*
X160170975Y-70761203D01*
X160282475Y-70649703D01*
X160370080Y-70518593D01*
X160430423Y-70372911D01*
X160461186Y-70218256D01*
X160461186Y-70060572D01*
X160461186Y-70060569D01*
X160461185Y-70060567D01*
X160430424Y-69905924D01*
X160430423Y-69905917D01*
X160430421Y-69905912D01*
X160370083Y-69760241D01*
X160370076Y-69760228D01*
X160282475Y-69629125D01*
X160282472Y-69629121D01*
X160170978Y-69517627D01*
X160170974Y-69517624D01*
X160039871Y-69430023D01*
X160039858Y-69430016D01*
X159894187Y-69369678D01*
X159894175Y-69369675D01*
X159739531Y-69338914D01*
X159739528Y-69338914D01*
X159581844Y-69338914D01*
X159581841Y-69338914D01*
X159427196Y-69369675D01*
X159427184Y-69369678D01*
X159281513Y-69430016D01*
X159281500Y-69430023D01*
X159150397Y-69517624D01*
X159150393Y-69517627D01*
X159038899Y-69629121D01*
X159038896Y-69629125D01*
X158951295Y-69760228D01*
X158951288Y-69760241D01*
X158890950Y-69905912D01*
X158890947Y-69905924D01*
X158860186Y-70060567D01*
X99135000Y-70060567D01*
X99135000Y-67560567D01*
X106285086Y-67560567D01*
X106285086Y-67718260D01*
X106315847Y-67872903D01*
X106315850Y-67872915D01*
X106376188Y-68018586D01*
X106376195Y-68018599D01*
X106463796Y-68149702D01*
X106463799Y-68149706D01*
X106575293Y-68261200D01*
X106575297Y-68261203D01*
X106706400Y-68348804D01*
X106706413Y-68348811D01*
X106852084Y-68409149D01*
X106852089Y-68409151D01*
X106988073Y-68436200D01*
X107006739Y-68439913D01*
X107006742Y-68439914D01*
X107006744Y-68439914D01*
X107164430Y-68439914D01*
X107164431Y-68439913D01*
X107319083Y-68409151D01*
X107464765Y-68348808D01*
X107595875Y-68261203D01*
X107707375Y-68149703D01*
X107794980Y-68018593D01*
X107855323Y-67872911D01*
X107875630Y-67770821D01*
X107882643Y-67735567D01*
X108790086Y-67735567D01*
X108790086Y-67893260D01*
X108820847Y-68047903D01*
X108820850Y-68047915D01*
X108881188Y-68193586D01*
X108881195Y-68193599D01*
X108968796Y-68324702D01*
X108968799Y-68324706D01*
X109080293Y-68436200D01*
X109080297Y-68436203D01*
X109211400Y-68523804D01*
X109211413Y-68523811D01*
X109357084Y-68584149D01*
X109357089Y-68584151D01*
X109511739Y-68614913D01*
X109511742Y-68614914D01*
X109511744Y-68614914D01*
X109669430Y-68614914D01*
X109669431Y-68614913D01*
X109824083Y-68584151D01*
X109969765Y-68523808D01*
X110100875Y-68436203D01*
X110212375Y-68324703D01*
X110299980Y-68193593D01*
X110350696Y-68071153D01*
X159249500Y-68071153D01*
X159249500Y-68228846D01*
X159280261Y-68383489D01*
X159280264Y-68383501D01*
X159340602Y-68529172D01*
X159340609Y-68529185D01*
X159428210Y-68660288D01*
X159428213Y-68660292D01*
X159539707Y-68771786D01*
X159539711Y-68771789D01*
X159670814Y-68859390D01*
X159670827Y-68859397D01*
X159816498Y-68919735D01*
X159816503Y-68919737D01*
X159971153Y-68950499D01*
X159971156Y-68950500D01*
X159971158Y-68950500D01*
X160128844Y-68950500D01*
X160128845Y-68950499D01*
X160283497Y-68919737D01*
X160429179Y-68859394D01*
X160560289Y-68771789D01*
X160671789Y-68660289D01*
X160759394Y-68529179D01*
X160761618Y-68523811D01*
X160796369Y-68439913D01*
X160819737Y-68383497D01*
X160850500Y-68228842D01*
X160850500Y-68071158D01*
X160850500Y-68071155D01*
X160850499Y-68071153D01*
X160819738Y-67916510D01*
X160819737Y-67916503D01*
X160810108Y-67893256D01*
X160759397Y-67770827D01*
X160759390Y-67770814D01*
X160671789Y-67639711D01*
X160671786Y-67639707D01*
X160560292Y-67528213D01*
X160560288Y-67528210D01*
X160429185Y-67440609D01*
X160429172Y-67440602D01*
X160283501Y-67380264D01*
X160283489Y-67380261D01*
X160128845Y-67349500D01*
X160128842Y-67349500D01*
X159971158Y-67349500D01*
X159971155Y-67349500D01*
X159816510Y-67380261D01*
X159816498Y-67380264D01*
X159670827Y-67440602D01*
X159670814Y-67440609D01*
X159539711Y-67528210D01*
X159539707Y-67528213D01*
X159428213Y-67639707D01*
X159428210Y-67639711D01*
X159340609Y-67770814D01*
X159340602Y-67770827D01*
X159280264Y-67916498D01*
X159280261Y-67916510D01*
X159249500Y-68071153D01*
X110350696Y-68071153D01*
X110360323Y-68047911D01*
X110366156Y-68018586D01*
X110391086Y-67893258D01*
X110391086Y-67735569D01*
X110391085Y-67735567D01*
X110360324Y-67580924D01*
X110360323Y-67580917D01*
X110351894Y-67560567D01*
X110299983Y-67435241D01*
X110299976Y-67435228D01*
X110212375Y-67304125D01*
X110212372Y-67304121D01*
X110100878Y-67192627D01*
X110100874Y-67192624D01*
X109969771Y-67105023D01*
X109969758Y-67105016D01*
X109824087Y-67044678D01*
X109824075Y-67044675D01*
X109669431Y-67013914D01*
X109669428Y-67013914D01*
X109511744Y-67013914D01*
X109511741Y-67013914D01*
X109357096Y-67044675D01*
X109357084Y-67044678D01*
X109211413Y-67105016D01*
X109211400Y-67105023D01*
X109080297Y-67192624D01*
X109080293Y-67192627D01*
X108968799Y-67304121D01*
X108968796Y-67304125D01*
X108881195Y-67435228D01*
X108881188Y-67435241D01*
X108820850Y-67580912D01*
X108820847Y-67580924D01*
X108790086Y-67735567D01*
X107882643Y-67735567D01*
X107886086Y-67718259D01*
X107886086Y-67560569D01*
X107886085Y-67560567D01*
X107879649Y-67528210D01*
X107855323Y-67405917D01*
X107844696Y-67380261D01*
X107794983Y-67260241D01*
X107794976Y-67260228D01*
X107707375Y-67129125D01*
X107707372Y-67129121D01*
X107595878Y-67017627D01*
X107595874Y-67017624D01*
X107464771Y-66930023D01*
X107464758Y-66930016D01*
X107319087Y-66869678D01*
X107319075Y-66869675D01*
X107164431Y-66838914D01*
X107164428Y-66838914D01*
X107006744Y-66838914D01*
X107006741Y-66838914D01*
X106852096Y-66869675D01*
X106852084Y-66869678D01*
X106706413Y-66930016D01*
X106706400Y-66930023D01*
X106575297Y-67017624D01*
X106575293Y-67017627D01*
X106463799Y-67129121D01*
X106463796Y-67129125D01*
X106376195Y-67260228D01*
X106376188Y-67260241D01*
X106315850Y-67405912D01*
X106315847Y-67405924D01*
X106285086Y-67560567D01*
X99135000Y-67560567D01*
X99135000Y-66086304D01*
X100985086Y-66086304D01*
X100985086Y-66263695D01*
X101019689Y-66437658D01*
X101019692Y-66437667D01*
X101087569Y-66601540D01*
X101087576Y-66601553D01*
X101186121Y-66749034D01*
X101186124Y-66749038D01*
X101311547Y-66874461D01*
X101311551Y-66874464D01*
X101459032Y-66973009D01*
X101459045Y-66973016D01*
X101566743Y-67017625D01*
X101622920Y-67040894D01*
X101622922Y-67040894D01*
X101622927Y-67040896D01*
X101796890Y-67075499D01*
X101796893Y-67075500D01*
X101796895Y-67075500D01*
X101974279Y-67075500D01*
X101974280Y-67075499D01*
X102032268Y-67063964D01*
X102148244Y-67040896D01*
X102148247Y-67040894D01*
X102148252Y-67040894D01*
X102312133Y-66973013D01*
X102459621Y-66874464D01*
X102585050Y-66749035D01*
X102683599Y-66601547D01*
X102751480Y-66437666D01*
X102753169Y-66429179D01*
X102774550Y-66321682D01*
X102786086Y-66263691D01*
X102786086Y-66086309D01*
X102786086Y-66086306D01*
X102786085Y-66086304D01*
X102766782Y-65989257D01*
X102763181Y-65971153D01*
X110504500Y-65971153D01*
X110504500Y-66128846D01*
X110535261Y-66283489D01*
X110535264Y-66283501D01*
X110595602Y-66429172D01*
X110595609Y-66429185D01*
X110683210Y-66560288D01*
X110683213Y-66560292D01*
X110794707Y-66671786D01*
X110794711Y-66671789D01*
X110925814Y-66759390D01*
X110925827Y-66759397D01*
X111071498Y-66819735D01*
X111071503Y-66819737D01*
X111167912Y-66838914D01*
X111226153Y-66850499D01*
X111226156Y-66850500D01*
X111226158Y-66850500D01*
X111383844Y-66850500D01*
X111383845Y-66850499D01*
X111538497Y-66819737D01*
X111684179Y-66759394D01*
X111815289Y-66671789D01*
X111926789Y-66560289D01*
X112014394Y-66429179D01*
X112074737Y-66283497D01*
X112092111Y-66196153D01*
X159624500Y-66196153D01*
X159624500Y-66353846D01*
X159655261Y-66508489D01*
X159655264Y-66508501D01*
X159715602Y-66654172D01*
X159715609Y-66654185D01*
X159803210Y-66785288D01*
X159803213Y-66785292D01*
X159914707Y-66896786D01*
X159914711Y-66896789D01*
X160045814Y-66984390D01*
X160045827Y-66984397D01*
X160191498Y-67044735D01*
X160191503Y-67044737D01*
X160346153Y-67075499D01*
X160346156Y-67075500D01*
X160346158Y-67075500D01*
X160503844Y-67075500D01*
X160503845Y-67075499D01*
X160658497Y-67044737D01*
X160804179Y-66984394D01*
X160935289Y-66896789D01*
X161046789Y-66785289D01*
X161134394Y-66654179D01*
X161194737Y-66508497D01*
X161225500Y-66353842D01*
X161225500Y-66196158D01*
X161225500Y-66196155D01*
X161225499Y-66196153D01*
X161212110Y-66128842D01*
X161194737Y-66041503D01*
X161173096Y-65989257D01*
X161134397Y-65895827D01*
X161134390Y-65895814D01*
X161046789Y-65764711D01*
X161046786Y-65764707D01*
X160935292Y-65653213D01*
X160935288Y-65653210D01*
X160804185Y-65565609D01*
X160804172Y-65565602D01*
X160658501Y-65505264D01*
X160658489Y-65505261D01*
X160503845Y-65474500D01*
X160503842Y-65474500D01*
X160346158Y-65474500D01*
X160346155Y-65474500D01*
X160191510Y-65505261D01*
X160191498Y-65505264D01*
X160045827Y-65565602D01*
X160045814Y-65565609D01*
X159914711Y-65653210D01*
X159914707Y-65653213D01*
X159803213Y-65764707D01*
X159803210Y-65764711D01*
X159715609Y-65895814D01*
X159715602Y-65895827D01*
X159655264Y-66041498D01*
X159655261Y-66041510D01*
X159624500Y-66196153D01*
X112092111Y-66196153D01*
X112098134Y-66165874D01*
X112105500Y-66128844D01*
X112105500Y-65971155D01*
X112105499Y-65971153D01*
X112093799Y-65912332D01*
X112074737Y-65816503D01*
X112053283Y-65764707D01*
X112014397Y-65670827D01*
X112014390Y-65670814D01*
X111926789Y-65539711D01*
X111926786Y-65539707D01*
X111815292Y-65428213D01*
X111815288Y-65428210D01*
X111684185Y-65340609D01*
X111684172Y-65340602D01*
X111538501Y-65280264D01*
X111538489Y-65280261D01*
X111383845Y-65249500D01*
X111383842Y-65249500D01*
X111226158Y-65249500D01*
X111226155Y-65249500D01*
X111071510Y-65280261D01*
X111071498Y-65280264D01*
X110925827Y-65340602D01*
X110925814Y-65340609D01*
X110794711Y-65428210D01*
X110794707Y-65428213D01*
X110683213Y-65539707D01*
X110683210Y-65539711D01*
X110595609Y-65670814D01*
X110595602Y-65670827D01*
X110535264Y-65816498D01*
X110535261Y-65816510D01*
X110504500Y-65971153D01*
X102763181Y-65971153D01*
X102751481Y-65912340D01*
X102751480Y-65912334D01*
X102711784Y-65816498D01*
X102683602Y-65748459D01*
X102683595Y-65748446D01*
X102585050Y-65600965D01*
X102585047Y-65600961D01*
X102459624Y-65475538D01*
X102459620Y-65475535D01*
X102312139Y-65376990D01*
X102312126Y-65376983D01*
X102148253Y-65309106D01*
X102148244Y-65309103D01*
X101974280Y-65274500D01*
X101974277Y-65274500D01*
X101796895Y-65274500D01*
X101796892Y-65274500D01*
X101622927Y-65309103D01*
X101622918Y-65309106D01*
X101459045Y-65376983D01*
X101459032Y-65376990D01*
X101311551Y-65475535D01*
X101311547Y-65475538D01*
X101186124Y-65600961D01*
X101186121Y-65600965D01*
X101087576Y-65748446D01*
X101087569Y-65748459D01*
X101019692Y-65912332D01*
X101019689Y-65912341D01*
X100985086Y-66086304D01*
X99135000Y-66086304D01*
X99135000Y-64346153D01*
X113724500Y-64346153D01*
X113724500Y-64503846D01*
X113755261Y-64658489D01*
X113755264Y-64658501D01*
X113815602Y-64804172D01*
X113815609Y-64804185D01*
X113903210Y-64935288D01*
X113903213Y-64935292D01*
X114014707Y-65046786D01*
X114014711Y-65046789D01*
X114145814Y-65134390D01*
X114145827Y-65134397D01*
X114291498Y-65194735D01*
X114291503Y-65194737D01*
X114446153Y-65225499D01*
X114446156Y-65225500D01*
X114446158Y-65225500D01*
X114603844Y-65225500D01*
X114603845Y-65225499D01*
X114758497Y-65194737D01*
X114904179Y-65134394D01*
X115035289Y-65046789D01*
X115146789Y-64935289D01*
X115234394Y-64804179D01*
X115294737Y-64658497D01*
X115325500Y-64503842D01*
X115325500Y-64346158D01*
X115325500Y-64346155D01*
X115325499Y-64346153D01*
X115294737Y-64191503D01*
X115294735Y-64191498D01*
X115273020Y-64139071D01*
X159199499Y-64139071D01*
X159224497Y-64264738D01*
X159224499Y-64264744D01*
X159273533Y-64383124D01*
X159273538Y-64383133D01*
X159344723Y-64489668D01*
X159344726Y-64489672D01*
X159435327Y-64580273D01*
X159435331Y-64580276D01*
X159541866Y-64651461D01*
X159541872Y-64651464D01*
X159541873Y-64651465D01*
X159660256Y-64700501D01*
X159660260Y-64700501D01*
X159660261Y-64700502D01*
X159785928Y-64725500D01*
X159785931Y-64725500D01*
X159914071Y-64725500D01*
X159998615Y-64708682D01*
X160039744Y-64700501D01*
X160158127Y-64651465D01*
X160264669Y-64580276D01*
X160355276Y-64489669D01*
X160426465Y-64383127D01*
X160475501Y-64264744D01*
X160500500Y-64139069D01*
X160500500Y-64010931D01*
X160500500Y-64010928D01*
X160475502Y-63885261D01*
X160475501Y-63885260D01*
X160475501Y-63885256D01*
X160426465Y-63766873D01*
X160426464Y-63766872D01*
X160426461Y-63766866D01*
X160355276Y-63660331D01*
X160355273Y-63660327D01*
X160264672Y-63569726D01*
X160264668Y-63569723D01*
X160158133Y-63498538D01*
X160158124Y-63498533D01*
X160039744Y-63449499D01*
X160039738Y-63449497D01*
X159914071Y-63424500D01*
X159914069Y-63424500D01*
X159785931Y-63424500D01*
X159785929Y-63424500D01*
X159660261Y-63449497D01*
X159660255Y-63449499D01*
X159541875Y-63498533D01*
X159541866Y-63498538D01*
X159435331Y-63569723D01*
X159435327Y-63569726D01*
X159344726Y-63660327D01*
X159344723Y-63660331D01*
X159273538Y-63766866D01*
X159273533Y-63766875D01*
X159224499Y-63885255D01*
X159224497Y-63885261D01*
X159199500Y-64010928D01*
X159199500Y-64010931D01*
X159199500Y-64139069D01*
X159199500Y-64139071D01*
X159199499Y-64139071D01*
X115273020Y-64139071D01*
X115237089Y-64052325D01*
X115237076Y-64052295D01*
X115234395Y-64045823D01*
X115234390Y-64045814D01*
X115146789Y-63914711D01*
X115146786Y-63914707D01*
X115035292Y-63803213D01*
X115035288Y-63803210D01*
X114904185Y-63715609D01*
X114904172Y-63715602D01*
X114758501Y-63655264D01*
X114758489Y-63655261D01*
X114603845Y-63624500D01*
X114603842Y-63624500D01*
X114446158Y-63624500D01*
X114446155Y-63624500D01*
X114291510Y-63655261D01*
X114291498Y-63655264D01*
X114145827Y-63715602D01*
X114145814Y-63715609D01*
X114014711Y-63803210D01*
X114014707Y-63803213D01*
X113903213Y-63914707D01*
X113903210Y-63914711D01*
X113815609Y-64045814D01*
X113815602Y-64045827D01*
X113755264Y-64191498D01*
X113755261Y-64191510D01*
X113724500Y-64346153D01*
X99135000Y-64346153D01*
X99135000Y-58771153D01*
X120249500Y-58771153D01*
X120249500Y-58928846D01*
X120280261Y-59083489D01*
X120280264Y-59083501D01*
X120340602Y-59229172D01*
X120340609Y-59229185D01*
X120428210Y-59360288D01*
X120428213Y-59360292D01*
X120539707Y-59471786D01*
X120539711Y-59471789D01*
X120670814Y-59559390D01*
X120670827Y-59559397D01*
X120816498Y-59619735D01*
X120816503Y-59619737D01*
X120971153Y-59650499D01*
X120971156Y-59650500D01*
X120971158Y-59650500D01*
X121128844Y-59650500D01*
X121128845Y-59650499D01*
X121283497Y-59619737D01*
X121429179Y-59559394D01*
X121560289Y-59471789D01*
X121671789Y-59360289D01*
X121759394Y-59229179D01*
X121819737Y-59083497D01*
X121850500Y-58928842D01*
X121850500Y-58771158D01*
X121850500Y-58771155D01*
X121850499Y-58771153D01*
X121819738Y-58616510D01*
X121819737Y-58616503D01*
X121819735Y-58616498D01*
X121759397Y-58470827D01*
X121759390Y-58470814D01*
X121671789Y-58339711D01*
X121671786Y-58339707D01*
X121560292Y-58228213D01*
X121560288Y-58228210D01*
X121429185Y-58140609D01*
X121429172Y-58140602D01*
X121283501Y-58080264D01*
X121283489Y-58080261D01*
X121128845Y-58049500D01*
X121128842Y-58049500D01*
X120971158Y-58049500D01*
X120971155Y-58049500D01*
X120816510Y-58080261D01*
X120816498Y-58080264D01*
X120670827Y-58140602D01*
X120670814Y-58140609D01*
X120539711Y-58228210D01*
X120539707Y-58228213D01*
X120428213Y-58339707D01*
X120428210Y-58339711D01*
X120340609Y-58470814D01*
X120340602Y-58470827D01*
X120280264Y-58616498D01*
X120280261Y-58616510D01*
X120249500Y-58771153D01*
X99135000Y-58771153D01*
X99135000Y-55050718D01*
X160260186Y-55050718D01*
X160260186Y-55228109D01*
X160294789Y-55402072D01*
X160294792Y-55402081D01*
X160362669Y-55565954D01*
X160362676Y-55565967D01*
X160461221Y-55713448D01*
X160461224Y-55713452D01*
X160586647Y-55838875D01*
X160586651Y-55838878D01*
X160734132Y-55937423D01*
X160734145Y-55937430D01*
X160857049Y-55988337D01*
X160898020Y-56005308D01*
X160898022Y-56005308D01*
X160898027Y-56005310D01*
X161071990Y-56039913D01*
X161071993Y-56039914D01*
X161071995Y-56039914D01*
X161249379Y-56039914D01*
X161249380Y-56039913D01*
X161307368Y-56028378D01*
X161423344Y-56005310D01*
X161423347Y-56005308D01*
X161423352Y-56005308D01*
X161587233Y-55937427D01*
X161734721Y-55838878D01*
X161860150Y-55713449D01*
X161958699Y-55565961D01*
X162026580Y-55402080D01*
X162061186Y-55228105D01*
X162061186Y-55050723D01*
X162061186Y-55050720D01*
X162061185Y-55050718D01*
X162026582Y-54876755D01*
X162026579Y-54876746D01*
X161958702Y-54712873D01*
X161958695Y-54712860D01*
X161860150Y-54565379D01*
X161860147Y-54565375D01*
X161734724Y-54439952D01*
X161734720Y-54439949D01*
X161587239Y-54341404D01*
X161587226Y-54341397D01*
X161423353Y-54273520D01*
X161423344Y-54273517D01*
X161249380Y-54238914D01*
X161249377Y-54238914D01*
X161071995Y-54238914D01*
X161071992Y-54238914D01*
X160898027Y-54273517D01*
X160898018Y-54273520D01*
X160734145Y-54341397D01*
X160734132Y-54341404D01*
X160586651Y-54439949D01*
X160586647Y-54439952D01*
X160461224Y-54565375D01*
X160461221Y-54565379D01*
X160362676Y-54712860D01*
X160362669Y-54712873D01*
X160294792Y-54876746D01*
X160294789Y-54876755D01*
X160260186Y-55050718D01*
X99135000Y-55050718D01*
X99135000Y-43093713D01*
X123799500Y-43093713D01*
X123799500Y-43306286D01*
X123832753Y-43516239D01*
X123898444Y-43718414D01*
X123994951Y-43907820D01*
X124119890Y-44079786D01*
X124270213Y-44230109D01*
X124442179Y-44355048D01*
X124442181Y-44355049D01*
X124442184Y-44355051D01*
X124631588Y-44451557D01*
X124833757Y-44517246D01*
X125043713Y-44550500D01*
X125043714Y-44550500D01*
X125256286Y-44550500D01*
X125256287Y-44550500D01*
X125466243Y-44517246D01*
X125668412Y-44451557D01*
X125857816Y-44355051D01*
X125879789Y-44339086D01*
X126029786Y-44230109D01*
X126029788Y-44230106D01*
X126029792Y-44230104D01*
X126180104Y-44079792D01*
X126180106Y-44079788D01*
X126180109Y-44079786D01*
X126305048Y-43907820D01*
X126305047Y-43907820D01*
X126305051Y-43907816D01*
X126401557Y-43718412D01*
X126467246Y-43516243D01*
X126500500Y-43306287D01*
X126500500Y-43093713D01*
X130299500Y-43093713D01*
X130299500Y-43306286D01*
X130332753Y-43516239D01*
X130398444Y-43718414D01*
X130494951Y-43907820D01*
X130619890Y-44079786D01*
X130770213Y-44230109D01*
X130942179Y-44355048D01*
X130942181Y-44355049D01*
X130942184Y-44355051D01*
X131131588Y-44451557D01*
X131333757Y-44517246D01*
X131543713Y-44550500D01*
X131543714Y-44550500D01*
X131756286Y-44550500D01*
X131756287Y-44550500D01*
X131966243Y-44517246D01*
X132168412Y-44451557D01*
X132357816Y-44355051D01*
X132379789Y-44339086D01*
X132529786Y-44230109D01*
X132529788Y-44230106D01*
X132529792Y-44230104D01*
X132680104Y-44079792D01*
X132680106Y-44079788D01*
X132680109Y-44079786D01*
X132805048Y-43907820D01*
X132805047Y-43907820D01*
X132805051Y-43907816D01*
X132901557Y-43718412D01*
X132967246Y-43516243D01*
X133000500Y-43306287D01*
X133000500Y-43093713D01*
X132967246Y-42883757D01*
X132901557Y-42681588D01*
X132805051Y-42492184D01*
X132805049Y-42492181D01*
X132805048Y-42492179D01*
X132680109Y-42320213D01*
X132529786Y-42169890D01*
X132357820Y-42044951D01*
X132168414Y-41948444D01*
X132168413Y-41948443D01*
X132168412Y-41948443D01*
X131966243Y-41882754D01*
X131966241Y-41882753D01*
X131966240Y-41882753D01*
X131804957Y-41857208D01*
X131756287Y-41849500D01*
X131543713Y-41849500D01*
X131495042Y-41857208D01*
X131333760Y-41882753D01*
X131131585Y-41948444D01*
X130942179Y-42044951D01*
X130770213Y-42169890D01*
X130619890Y-42320213D01*
X130494951Y-42492179D01*
X130398444Y-42681585D01*
X130332753Y-42883760D01*
X130299500Y-43093713D01*
X126500500Y-43093713D01*
X126467246Y-42883757D01*
X126401557Y-42681588D01*
X126305051Y-42492184D01*
X126305049Y-42492181D01*
X126305048Y-42492179D01*
X126180109Y-42320213D01*
X126029786Y-42169890D01*
X125857820Y-42044951D01*
X125668414Y-41948444D01*
X125668413Y-41948443D01*
X125668412Y-41948443D01*
X125466243Y-41882754D01*
X125466241Y-41882753D01*
X125466240Y-41882753D01*
X125304957Y-41857208D01*
X125256287Y-41849500D01*
X125043713Y-41849500D01*
X124995042Y-41857208D01*
X124833760Y-41882753D01*
X124631585Y-41948444D01*
X124442179Y-42044951D01*
X124270213Y-42169890D01*
X124119890Y-42320213D01*
X123994951Y-42492179D01*
X123898444Y-42681585D01*
X123832753Y-42883760D01*
X123799500Y-43093713D01*
X99135000Y-43093713D01*
X99135000Y-38593713D01*
X130299500Y-38593713D01*
X130299500Y-38806287D01*
X130332754Y-39016243D01*
X130335314Y-39024123D01*
X130398444Y-39218414D01*
X130494951Y-39407820D01*
X130619890Y-39579786D01*
X130770213Y-39730109D01*
X130942179Y-39855048D01*
X130942181Y-39855049D01*
X130942184Y-39855051D01*
X131131588Y-39951557D01*
X131333757Y-40017246D01*
X131543713Y-40050500D01*
X131543714Y-40050500D01*
X131756286Y-40050500D01*
X131756287Y-40050500D01*
X131966243Y-40017246D01*
X132168412Y-39951557D01*
X132357816Y-39855051D01*
X132379789Y-39839086D01*
X132529786Y-39730109D01*
X132529788Y-39730106D01*
X132529792Y-39730104D01*
X132574638Y-39685258D01*
X167974500Y-39685258D01*
X167974500Y-39914741D01*
X167987996Y-40017246D01*
X168004452Y-40142238D01*
X168004453Y-40142240D01*
X168063842Y-40363887D01*
X168151650Y-40575876D01*
X168151657Y-40575890D01*
X168266392Y-40774617D01*
X168406081Y-40956661D01*
X168406089Y-40956670D01*
X168568330Y-41118911D01*
X168568338Y-41118918D01*
X168750382Y-41258607D01*
X168750385Y-41258608D01*
X168750388Y-41258611D01*
X168949112Y-41373344D01*
X168949117Y-41373346D01*
X168949123Y-41373349D01*
X169040480Y-41411190D01*
X169161113Y-41461158D01*
X169382762Y-41520548D01*
X169610266Y-41550500D01*
X169610273Y-41550500D01*
X169839727Y-41550500D01*
X169839734Y-41550500D01*
X170067238Y-41520548D01*
X170288887Y-41461158D01*
X170500888Y-41373344D01*
X170699612Y-41258611D01*
X170881661Y-41118919D01*
X170881665Y-41118914D01*
X170881670Y-41118911D01*
X171043911Y-40956670D01*
X171043914Y-40956665D01*
X171043919Y-40956661D01*
X171183611Y-40774612D01*
X171298344Y-40575888D01*
X171386158Y-40363887D01*
X171445548Y-40142238D01*
X171475500Y-39914734D01*
X171475500Y-39685266D01*
X171445548Y-39457762D01*
X171386158Y-39236113D01*
X171298344Y-39024112D01*
X171183611Y-38825388D01*
X171183608Y-38825385D01*
X171183607Y-38825382D01*
X171043918Y-38643338D01*
X171043911Y-38643330D01*
X170881670Y-38481089D01*
X170881661Y-38481081D01*
X170699617Y-38341392D01*
X170500890Y-38226657D01*
X170500876Y-38226650D01*
X170288887Y-38138842D01*
X170067238Y-38079452D01*
X170029215Y-38074446D01*
X169839741Y-38049500D01*
X169839734Y-38049500D01*
X169610266Y-38049500D01*
X169610258Y-38049500D01*
X169393715Y-38078009D01*
X169382762Y-38079452D01*
X169289076Y-38104554D01*
X169161112Y-38138842D01*
X168949123Y-38226650D01*
X168949109Y-38226657D01*
X168750382Y-38341392D01*
X168568338Y-38481081D01*
X168406081Y-38643338D01*
X168266392Y-38825382D01*
X168151657Y-39024109D01*
X168151650Y-39024123D01*
X168063842Y-39236112D01*
X168004453Y-39457759D01*
X168004451Y-39457770D01*
X167974500Y-39685258D01*
X132574638Y-39685258D01*
X132680104Y-39579792D01*
X132680106Y-39579788D01*
X132680109Y-39579786D01*
X132805048Y-39407820D01*
X132805047Y-39407820D01*
X132805051Y-39407816D01*
X132901557Y-39218412D01*
X132967246Y-39016243D01*
X133000500Y-38806287D01*
X133000500Y-38593713D01*
X132967246Y-38383757D01*
X132901557Y-38181588D01*
X132805051Y-37992184D01*
X132805049Y-37992181D01*
X132805048Y-37992179D01*
X132680109Y-37820213D01*
X132529786Y-37669890D01*
X132357820Y-37544951D01*
X132168414Y-37448444D01*
X132168413Y-37448443D01*
X132168412Y-37448443D01*
X131966243Y-37382754D01*
X131966241Y-37382753D01*
X131966240Y-37382753D01*
X131804957Y-37357208D01*
X131756287Y-37349500D01*
X131543713Y-37349500D01*
X131495042Y-37357208D01*
X131333760Y-37382753D01*
X131131585Y-37448444D01*
X130942179Y-37544951D01*
X130770213Y-37669890D01*
X130619890Y-37820213D01*
X130494951Y-37992179D01*
X130398444Y-38181585D01*
X130332753Y-38383760D01*
X130317339Y-38481081D01*
X130299500Y-38593713D01*
X99135000Y-38593713D01*
X99135000Y-35399500D01*
X99154685Y-35332461D01*
X99207489Y-35286706D01*
X99259000Y-35275500D01*
X174096792Y-35275500D01*
X174163831Y-35295185D01*
G37*
%TD.AperFunction*%
%TD*%
M02*
