%TF.GenerationSoftware,KiCad,Pcbnew,10.0.1*%
%TF.CreationDate,2026-06-18T14:31:01+02:00*%
%TF.ProjectId,StockfishChess,53746f63-6b66-4697-9368-43686573732e,rev?*%
%TF.SameCoordinates,Original*%
%TF.FileFunction,Copper,L2,Inr*%
%TF.FilePolarity,Positive*%
%FSLAX46Y46*%
G04 Gerber Fmt 4.6, Leading zero omitted, Abs format (unit mm)*
G04 Created by KiCad (PCBNEW 10.0.1) date 2026-06-18 14:31:01*
%MOMM*%
%LPD*%
G01*
G04 APERTURE LIST*
%TA.AperFunction,HeatsinkPad*%
%ADD10C,0.600000*%
%TD*%
%TA.AperFunction,ComponentPad*%
%ADD11C,1.980000*%
%TD*%
%TA.AperFunction,ComponentPad*%
%ADD12C,1.358000*%
%TD*%
%TA.AperFunction,ComponentPad*%
%ADD13C,1.700000*%
%TD*%
%TA.AperFunction,ViaPad*%
%ADD14C,0.900000*%
%TD*%
%TA.AperFunction,ViaPad*%
%ADD15C,0.800000*%
%TD*%
%TA.AperFunction,ViaPad*%
%ADD16C,0.600000*%
%TD*%
%TA.AperFunction,ViaPad*%
%ADD17C,1.000000*%
%TD*%
%TA.AperFunction,ViaPad*%
%ADD18C,0.700000*%
%TD*%
%TA.AperFunction,ViaPad*%
%ADD19C,0.500000*%
%TD*%
%TA.AperFunction,Conductor*%
%ADD20C,0.350000*%
%TD*%
%TA.AperFunction,Conductor*%
%ADD21C,0.500000*%
%TD*%
%TA.AperFunction,Conductor*%
%ADD22C,0.300000*%
%TD*%
%TA.AperFunction,Conductor*%
%ADD23C,0.400000*%
%TD*%
%TA.AperFunction,Conductor*%
%ADD24C,0.200000*%
%TD*%
G04 APERTURE END LIST*
D10*
%TO.N,GND*%
%TO.C,U1*%
X106725000Y-52635000D03*
X105225000Y-52635000D03*
X107475000Y-53385000D03*
X105975000Y-53385000D03*
X104475000Y-53385000D03*
X106725000Y-54135000D03*
X105225000Y-54135000D03*
X107475000Y-54885000D03*
X105975000Y-54885000D03*
X104475000Y-54885000D03*
X106725000Y-55635000D03*
X105225000Y-55635000D03*
%TD*%
D11*
%TO.N,Net-(BT1-PadN)*%
%TO.C,REF\u002A\u002A*%
X81135586Y-90209414D03*
%TO.N,VBUS*%
X153355586Y-90209414D03*
%TD*%
%TO.N,GND*%
%TO.C,REF\u002A\u002A*%
X153355586Y-112209414D03*
%TO.N,Net-(BT1-PadN)*%
X81135586Y-112209414D03*
%TD*%
D12*
%TO.N,VBUS*%
%TO.C,U145*%
X161585586Y-104739414D03*
X166635586Y-106739414D03*
%TD*%
D13*
%TO.N,GND*%
%TO.C,REF\u002A\u002A*%
X125150000Y-38700000D03*
%TO.N,N/C*%
X131650000Y-38700000D03*
%TO.N,Net-(U1-IO0)*%
X125150000Y-43200000D03*
%TO.N,N/C*%
X131650000Y-43200000D03*
%TD*%
D12*
%TO.N,VBUS*%
%TO.C,U146*%
X103500000Y-150975000D03*
X105500000Y-145925000D03*
%TD*%
D14*
%TO.N,VBUS*%
X134121292Y-129925000D03*
D15*
X159285586Y-95239414D03*
D16*
%TO.N,GND*%
X122785586Y-134589414D03*
D17*
X100850000Y-41700000D03*
X160960686Y-56539414D03*
X100685586Y-63439414D03*
X156785586Y-110339414D03*
D18*
X120700000Y-140025000D03*
D16*
X103975000Y-66225000D03*
D19*
X106385586Y-142239414D03*
D16*
X107035586Y-136339414D03*
D15*
X109250000Y-147839414D03*
X108948086Y-142289414D03*
D17*
X120875000Y-153650000D03*
D14*
X145925000Y-152850000D03*
D17*
%TO.N,+5V*%
X134125000Y-148550000D03*
D14*
X138650000Y-148475000D03*
X137200000Y-147300000D03*
D17*
%TO.N,+3.3V*%
X121155586Y-149289414D03*
D14*
X135550000Y-146175000D03*
X137125000Y-144925000D03*
D19*
X137600000Y-132575000D03*
D16*
%TO.N,/CLK I2C*%
X121050000Y-58850000D03*
%TO.N,Net-(U143-1A)*%
X138756142Y-142275000D03*
D19*
%TO.N,Net-(R24-Pad1)*%
X114450000Y-74450000D03*
X101100000Y-140525000D03*
%TO.N,Net-(R25-Pad1)*%
X113650000Y-73525000D03*
X99950000Y-139500000D03*
%TD*%
%TO.N,VBUS*%
D20*
X90785586Y-146539414D02*
X89590586Y-146539414D01*
X89590586Y-146539414D02*
X89115586Y-147014414D01*
X91185586Y-146939414D02*
X90785586Y-146539414D01*
D21*
X134121292Y-126408708D02*
X159285586Y-101244414D01*
X134121292Y-129925000D02*
X134121292Y-126408708D01*
D20*
X93369336Y-146939414D02*
X91185586Y-146939414D01*
D21*
X159285586Y-101244414D02*
X159285586Y-95239414D01*
%TO.N,Net-(J2-DP2)*%
D22*
X94535586Y-141839414D02*
X95719336Y-141839414D01*
X91725000Y-144650000D02*
X94535586Y-141839414D01*
%TO.N,+3.3V*%
D23*
X124785586Y-70439414D02*
X140085586Y-55139414D01*
D22*
X115085586Y-145839414D02*
X117198086Y-147951914D01*
D21*
X117650000Y-130425000D02*
X103450000Y-116225000D01*
X121155586Y-148709414D02*
X120398086Y-147951914D01*
X101885586Y-68935586D02*
X101885586Y-66175000D01*
D23*
X112225000Y-70439414D02*
X124785586Y-70439414D01*
D22*
X111375000Y-143700000D02*
X111579922Y-143700000D01*
X112730000Y-67475000D02*
X112725000Y-67480000D01*
D21*
X103450000Y-116225000D02*
X103450000Y-70500000D01*
X121155586Y-149289414D02*
X121155586Y-148709414D01*
D23*
X101885586Y-67239414D02*
X105085586Y-70439414D01*
D21*
X103450000Y-70500000D02*
X101885586Y-68935586D01*
D22*
X112725000Y-67480000D02*
X112725000Y-69939414D01*
D23*
X140085586Y-55139414D02*
X161160686Y-55139414D01*
D22*
X111305000Y-66050000D02*
X112730000Y-67475000D01*
D21*
X120398086Y-147951914D02*
X117650000Y-145203828D01*
D23*
X101885586Y-66175000D02*
X101885586Y-67239414D01*
D22*
X113719336Y-145839414D02*
X115085586Y-145839414D01*
X112725000Y-69939414D02*
X112225000Y-70439414D01*
X111579922Y-143700000D02*
X113719336Y-145839414D01*
X117198086Y-147951914D02*
X120398086Y-147951914D01*
D21*
X117650000Y-145203828D02*
X117650000Y-130425000D01*
D23*
X105085586Y-70439414D02*
X112225000Y-70439414D01*
%TO.N,/CLK 5V*%
D24*
X140256142Y-137025000D02*
X140256142Y-136531142D01*
X140256142Y-136531142D02*
X139950000Y-136225000D01*
X139950000Y-135425000D02*
X139400000Y-134875000D01*
X139950000Y-136225000D02*
X139950000Y-135425000D01*
X139400000Y-133918858D02*
X138956142Y-133475000D01*
X139400000Y-134875000D02*
X139400000Y-133918858D01*
%TO.N,/CLK*%
X125275000Y-72775000D02*
X125275000Y-73500000D01*
X125285586Y-73510586D02*
X125285586Y-124904444D01*
X125285586Y-124904444D02*
X138503071Y-138121929D01*
X125275000Y-73500000D02*
X125285586Y-73510586D01*
%TO.N,Net-(U143-1A)*%
X134421292Y-139825000D02*
X136871292Y-142275000D01*
X123925000Y-72700000D02*
X123925000Y-73200000D01*
X124385586Y-73660586D02*
X124385586Y-125639414D01*
X136871292Y-142275000D02*
X138756142Y-142275000D01*
X123925000Y-73200000D02*
X124385586Y-73660586D01*
X134421292Y-135675120D02*
X134421292Y-139825000D01*
X124385586Y-125639414D02*
X134421292Y-135675120D01*
%TD*%
%TA.AperFunction,Conductor*%
%TO.N,+3.3V*%
G36*
X143153700Y-129156749D02*
G01*
X143207834Y-129200922D01*
X143229340Y-129263842D01*
X144613803Y-153145827D01*
X144598031Y-153213893D01*
X144547964Y-153262627D01*
X144491917Y-153276988D01*
X121993371Y-153622836D01*
X121926037Y-153604185D01*
X121879476Y-153552090D01*
X121869848Y-153523042D01*
X121837052Y-153358172D01*
X121837052Y-153358170D01*
X121837051Y-153358165D01*
X121777292Y-153213893D01*
X121761635Y-153176092D01*
X121761628Y-153176079D01*
X121652139Y-153012218D01*
X121652136Y-153012214D01*
X121512785Y-152872863D01*
X121512781Y-152872860D01*
X121348920Y-152763371D01*
X121348907Y-152763364D01*
X121166839Y-152687950D01*
X121166829Y-152687947D01*
X120973543Y-152649500D01*
X120973541Y-152649500D01*
X120776459Y-152649500D01*
X120776457Y-152649500D01*
X120583170Y-152687947D01*
X120583160Y-152687950D01*
X120401092Y-152763364D01*
X120401079Y-152763371D01*
X120237218Y-152872860D01*
X120237214Y-152872863D01*
X120097863Y-153012214D01*
X120097860Y-153012218D01*
X119988371Y-153176079D01*
X119988364Y-153176092D01*
X119912950Y-153358160D01*
X119912947Y-153358170D01*
X119873311Y-153557434D01*
X119870567Y-153556888D01*
X119848621Y-153610614D01*
X119791424Y-153650742D01*
X119753596Y-153657266D01*
X118747931Y-153672725D01*
X118680597Y-153654074D01*
X118634036Y-153601979D01*
X118623030Y-153532982D01*
X118623608Y-153528988D01*
X119396510Y-148748920D01*
X129105641Y-148748920D01*
X129134482Y-148893907D01*
X129134485Y-148893917D01*
X129191054Y-149030488D01*
X129191061Y-149030501D01*
X129273190Y-149153415D01*
X129273193Y-149153419D01*
X129377722Y-149257948D01*
X129377726Y-149257951D01*
X129500640Y-149340080D01*
X129500653Y-149340087D01*
X129618678Y-149388974D01*
X129637229Y-149396658D01*
X129637233Y-149396658D01*
X129637234Y-149396659D01*
X129782221Y-149425500D01*
X129782224Y-149425500D01*
X129930062Y-149425500D01*
X130027604Y-149406096D01*
X130075055Y-149396658D01*
X130211637Y-149340084D01*
X130334558Y-149257951D01*
X130439093Y-149153416D01*
X130521226Y-149030495D01*
X130523950Y-149023920D01*
X130564825Y-148925237D01*
X130577800Y-148893913D01*
X130606642Y-148748918D01*
X130606642Y-148648543D01*
X133124499Y-148648543D01*
X133162947Y-148841829D01*
X133162950Y-148841839D01*
X133238364Y-149023907D01*
X133238371Y-149023920D01*
X133347860Y-149187781D01*
X133347863Y-149187785D01*
X133487214Y-149327136D01*
X133487218Y-149327139D01*
X133651079Y-149436628D01*
X133651092Y-149436635D01*
X133833160Y-149512049D01*
X133833165Y-149512051D01*
X133833169Y-149512051D01*
X133833170Y-149512052D01*
X134026456Y-149550500D01*
X134026459Y-149550500D01*
X134223543Y-149550500D01*
X134353582Y-149524632D01*
X134416835Y-149512051D01*
X134598914Y-149436632D01*
X134762782Y-149327139D01*
X134902139Y-149187782D01*
X135011632Y-149023914D01*
X135087051Y-148841835D01*
X135125500Y-148648541D01*
X135125500Y-148451459D01*
X135125500Y-148451456D01*
X135087052Y-148258170D01*
X135087051Y-148258169D01*
X135087051Y-148258165D01*
X135018245Y-148092051D01*
X135011635Y-148076092D01*
X135011628Y-148076079D01*
X134902139Y-147912218D01*
X134902136Y-147912214D01*
X134762785Y-147772863D01*
X134762781Y-147772860D01*
X134598920Y-147663371D01*
X134598907Y-147663364D01*
X134416839Y-147587950D01*
X134416829Y-147587947D01*
X134223543Y-147549500D01*
X134223541Y-147549500D01*
X134026459Y-147549500D01*
X134026457Y-147549500D01*
X133833170Y-147587947D01*
X133833160Y-147587950D01*
X133651092Y-147663364D01*
X133651079Y-147663371D01*
X133487218Y-147772860D01*
X133487214Y-147772863D01*
X133347863Y-147912214D01*
X133347860Y-147912218D01*
X133238371Y-148076079D01*
X133238364Y-148076092D01*
X133162950Y-148258160D01*
X133162947Y-148258170D01*
X133124500Y-148451456D01*
X133124500Y-148451459D01*
X133124500Y-148648541D01*
X133124500Y-148648543D01*
X133124499Y-148648543D01*
X130606642Y-148648543D01*
X130606642Y-148601082D01*
X130606642Y-148601079D01*
X130580480Y-148469559D01*
X130580480Y-148469558D01*
X130577801Y-148456094D01*
X130577801Y-148456092D01*
X130577800Y-148456087D01*
X130523976Y-148326144D01*
X130521229Y-148319511D01*
X130521222Y-148319498D01*
X130439093Y-148196584D01*
X130439090Y-148196580D01*
X130334561Y-148092051D01*
X130334557Y-148092048D01*
X130211643Y-148009919D01*
X130211630Y-148009912D01*
X130075059Y-147953343D01*
X130075049Y-147953340D01*
X129930062Y-147924500D01*
X129930060Y-147924500D01*
X129782224Y-147924500D01*
X129782222Y-147924500D01*
X129637234Y-147953340D01*
X129637224Y-147953343D01*
X129500653Y-148009912D01*
X129500640Y-148009919D01*
X129377726Y-148092048D01*
X129377722Y-148092051D01*
X129273193Y-148196580D01*
X129273190Y-148196584D01*
X129191061Y-148319498D01*
X129191054Y-148319511D01*
X129134485Y-148456082D01*
X129134482Y-148456092D01*
X129105642Y-148601079D01*
X129105642Y-148601082D01*
X129105642Y-148748918D01*
X129105642Y-148748920D01*
X129105641Y-148748920D01*
X119396510Y-148748920D01*
X119645928Y-147206379D01*
X136249500Y-147206379D01*
X136249500Y-147393620D01*
X136286025Y-147577243D01*
X136286027Y-147577251D01*
X136357676Y-147750228D01*
X136357681Y-147750237D01*
X136461697Y-147905907D01*
X136461700Y-147905911D01*
X136594088Y-148038299D01*
X136594092Y-148038302D01*
X136749762Y-148142318D01*
X136749768Y-148142321D01*
X136749769Y-148142322D01*
X136922749Y-148213973D01*
X137106379Y-148250499D01*
X137106383Y-148250500D01*
X137106384Y-148250500D01*
X137293617Y-148250500D01*
X137293618Y-148250499D01*
X137477251Y-148213973D01*
X137541419Y-148187393D01*
X137610884Y-148179925D01*
X137673364Y-148211199D01*
X137709017Y-148271288D01*
X137710487Y-148326144D01*
X137699500Y-148381384D01*
X137699500Y-148568620D01*
X137736025Y-148752243D01*
X137736027Y-148752251D01*
X137807676Y-148925228D01*
X137807681Y-148925237D01*
X137911697Y-149080907D01*
X137911700Y-149080911D01*
X138044088Y-149213299D01*
X138044092Y-149213302D01*
X138199762Y-149317318D01*
X138199768Y-149317321D01*
X138199769Y-149317322D01*
X138372749Y-149388973D01*
X138556379Y-149425499D01*
X138556383Y-149425500D01*
X138556384Y-149425500D01*
X138743617Y-149425500D01*
X138743618Y-149425499D01*
X138927251Y-149388973D01*
X139100231Y-149317322D01*
X139255908Y-149213302D01*
X139388302Y-149080908D01*
X139492322Y-148925231D01*
X139563973Y-148752251D01*
X139600500Y-148568616D01*
X139600500Y-148381384D01*
X139563973Y-148197749D01*
X139492322Y-148024769D01*
X139492321Y-148024768D01*
X139492318Y-148024762D01*
X139388302Y-147869092D01*
X139388299Y-147869088D01*
X139255911Y-147736700D01*
X139255907Y-147736697D01*
X139100237Y-147632681D01*
X139100228Y-147632676D01*
X138927251Y-147561027D01*
X138927243Y-147561025D01*
X138743620Y-147524500D01*
X138743616Y-147524500D01*
X138556384Y-147524500D01*
X138556379Y-147524500D01*
X138372756Y-147561025D01*
X138372744Y-147561028D01*
X138308582Y-147587605D01*
X138239112Y-147595074D01*
X138176633Y-147563798D01*
X138140982Y-147503709D01*
X138139513Y-147448852D01*
X138140054Y-147446129D01*
X138150500Y-147393616D01*
X138150500Y-147206384D01*
X138113973Y-147022749D01*
X138042322Y-146849769D01*
X138042321Y-146849768D01*
X138042318Y-146849762D01*
X137938302Y-146694092D01*
X137938299Y-146694088D01*
X137805911Y-146561700D01*
X137805907Y-146561697D01*
X137650237Y-146457681D01*
X137650228Y-146457676D01*
X137477251Y-146386027D01*
X137477243Y-146386025D01*
X137293620Y-146349500D01*
X137293616Y-146349500D01*
X137106384Y-146349500D01*
X137106379Y-146349500D01*
X136922756Y-146386025D01*
X136922748Y-146386027D01*
X136749771Y-146457676D01*
X136749762Y-146457681D01*
X136594092Y-146561697D01*
X136594088Y-146561700D01*
X136461700Y-146694088D01*
X136461697Y-146694092D01*
X136357681Y-146849762D01*
X136357676Y-146849771D01*
X136286027Y-147022748D01*
X136286025Y-147022756D01*
X136249500Y-147206379D01*
X119645928Y-147206379D01*
X120238109Y-143543995D01*
X129055641Y-143543995D01*
X129082560Y-143679322D01*
X129082563Y-143679332D01*
X129135363Y-143806804D01*
X129135370Y-143806817D01*
X129212027Y-143921541D01*
X129212030Y-143921545D01*
X129309596Y-144019111D01*
X129309600Y-144019114D01*
X129424324Y-144095771D01*
X129424337Y-144095778D01*
X129545032Y-144145771D01*
X129551814Y-144148580D01*
X129551818Y-144148580D01*
X129551819Y-144148581D01*
X129687146Y-144175500D01*
X129687149Y-144175500D01*
X129825137Y-144175500D01*
X129916183Y-144157389D01*
X129960470Y-144148580D01*
X130087953Y-144095775D01*
X130202684Y-144019114D01*
X130300256Y-143921542D01*
X130376917Y-143806811D01*
X130429722Y-143679328D01*
X130456642Y-143543993D01*
X130456642Y-143406007D01*
X130456642Y-143406004D01*
X130429723Y-143270677D01*
X130429722Y-143270676D01*
X130429722Y-143270672D01*
X130391189Y-143177645D01*
X130376920Y-143143195D01*
X130376913Y-143143182D01*
X130300256Y-143028458D01*
X130300253Y-143028454D01*
X130202687Y-142930888D01*
X130202683Y-142930885D01*
X130087959Y-142854228D01*
X130087946Y-142854221D01*
X129960474Y-142801421D01*
X129960464Y-142801418D01*
X129825137Y-142774500D01*
X129825135Y-142774500D01*
X129687149Y-142774500D01*
X129687147Y-142774500D01*
X129551819Y-142801418D01*
X129551809Y-142801421D01*
X129424337Y-142854221D01*
X129424324Y-142854228D01*
X129309600Y-142930885D01*
X129309596Y-142930888D01*
X129212030Y-143028454D01*
X129212027Y-143028458D01*
X129135370Y-143143182D01*
X129135363Y-143143195D01*
X129082563Y-143270667D01*
X129082560Y-143270677D01*
X129055642Y-143406004D01*
X129055642Y-143406007D01*
X129055642Y-143543993D01*
X129055642Y-143543995D01*
X129055641Y-143543995D01*
X120238109Y-143543995D01*
X120652736Y-140979704D01*
X120682868Y-140916669D01*
X120742298Y-140879930D01*
X120775145Y-140875500D01*
X120783768Y-140875500D01*
X120783769Y-140875499D01*
X120948082Y-140842816D01*
X121102863Y-140778703D01*
X121242162Y-140685626D01*
X121360626Y-140567162D01*
X121453703Y-140427863D01*
X121517816Y-140273082D01*
X121550500Y-140108767D01*
X121550500Y-139941233D01*
X121517816Y-139776918D01*
X121453703Y-139622137D01*
X121401490Y-139543995D01*
X129255641Y-139543995D01*
X129282560Y-139679322D01*
X129282563Y-139679332D01*
X129335363Y-139806804D01*
X129335370Y-139806817D01*
X129412027Y-139921541D01*
X129412030Y-139921545D01*
X129509596Y-140019111D01*
X129509600Y-140019114D01*
X129624324Y-140095771D01*
X129624337Y-140095778D01*
X129751809Y-140148578D01*
X129751814Y-140148580D01*
X129751818Y-140148580D01*
X129751819Y-140148581D01*
X129887146Y-140175500D01*
X129887149Y-140175500D01*
X130025137Y-140175500D01*
X130116183Y-140157389D01*
X130160470Y-140148580D01*
X130287953Y-140095775D01*
X130402684Y-140019114D01*
X130500256Y-139921542D01*
X130576917Y-139806811D01*
X130629722Y-139679328D01*
X130650223Y-139576265D01*
X130656642Y-139543995D01*
X130656642Y-139406004D01*
X130629723Y-139270677D01*
X130629722Y-139270676D01*
X130629722Y-139270672D01*
X130616982Y-139239914D01*
X130576920Y-139143195D01*
X130576913Y-139143182D01*
X130500256Y-139028458D01*
X130500253Y-139028454D01*
X130402687Y-138930888D01*
X130402683Y-138930885D01*
X130287959Y-138854228D01*
X130287946Y-138854221D01*
X130160474Y-138801421D01*
X130160464Y-138801418D01*
X130025137Y-138774500D01*
X130025135Y-138774500D01*
X129887149Y-138774500D01*
X129887147Y-138774500D01*
X129751819Y-138801418D01*
X129751809Y-138801421D01*
X129624337Y-138854221D01*
X129624324Y-138854228D01*
X129509600Y-138930885D01*
X129509596Y-138930888D01*
X129412030Y-139028454D01*
X129412027Y-139028458D01*
X129335370Y-139143182D01*
X129335363Y-139143195D01*
X129282563Y-139270667D01*
X129282560Y-139270677D01*
X129255642Y-139406004D01*
X129255642Y-139406007D01*
X129255642Y-139543993D01*
X129255642Y-139543995D01*
X129255641Y-139543995D01*
X121401490Y-139543995D01*
X121360626Y-139482838D01*
X121320703Y-139442915D01*
X121320147Y-139442358D01*
X121303351Y-139411533D01*
X121286741Y-139381114D01*
X121286745Y-139381056D01*
X121286717Y-139381005D01*
X121289249Y-139346033D01*
X121291725Y-139311422D01*
X121291759Y-139311375D01*
X121291764Y-139311318D01*
X121312728Y-139283365D01*
X121333597Y-139255489D01*
X121333655Y-139255463D01*
X121333686Y-139255422D01*
X121334055Y-139255284D01*
X121383715Y-139233139D01*
X121422448Y-139225433D01*
X121475330Y-139214915D01*
X121593713Y-139165879D01*
X121700255Y-139094690D01*
X121790862Y-139004083D01*
X121862051Y-138897541D01*
X121911087Y-138779158D01*
X121933588Y-138666043D01*
X121936086Y-138653485D01*
X121936086Y-138525342D01*
X121911088Y-138399675D01*
X121911087Y-138399674D01*
X121911087Y-138399670D01*
X121862051Y-138281287D01*
X121862050Y-138281286D01*
X121862047Y-138281280D01*
X121790862Y-138174745D01*
X121790859Y-138174741D01*
X121700258Y-138084140D01*
X121700254Y-138084137D01*
X121593719Y-138012952D01*
X121593710Y-138012947D01*
X121475330Y-137963913D01*
X121475324Y-137963911D01*
X121349657Y-137938914D01*
X121349655Y-137938914D01*
X121290070Y-137938914D01*
X121223031Y-137919229D01*
X121177276Y-137866425D01*
X121167332Y-137797267D01*
X121167660Y-137795121D01*
X121180884Y-137713334D01*
X123935085Y-137713334D01*
X123963926Y-137858321D01*
X123963929Y-137858331D01*
X124020498Y-137994902D01*
X124020505Y-137994915D01*
X124102634Y-138117829D01*
X124102637Y-138117833D01*
X124207166Y-138222362D01*
X124207170Y-138222365D01*
X124330084Y-138304494D01*
X124330097Y-138304501D01*
X124466668Y-138361070D01*
X124466673Y-138361072D01*
X124466677Y-138361072D01*
X124466678Y-138361073D01*
X124611665Y-138389914D01*
X124611668Y-138389914D01*
X124759506Y-138389914D01*
X124857048Y-138370510D01*
X124904499Y-138361072D01*
X125041081Y-138304498D01*
X125164002Y-138222365D01*
X125268537Y-138117830D01*
X125350670Y-137994909D01*
X125407244Y-137858327D01*
X125423325Y-137777483D01*
X125436086Y-137713334D01*
X125436086Y-137565493D01*
X125407245Y-137420506D01*
X125407244Y-137420505D01*
X125407244Y-137420501D01*
X125396149Y-137393716D01*
X125350673Y-137283925D01*
X125350666Y-137283912D01*
X125268537Y-137160998D01*
X125268534Y-137160994D01*
X125164005Y-137056465D01*
X125164001Y-137056462D01*
X125041087Y-136974333D01*
X125041074Y-136974326D01*
X124904503Y-136917757D01*
X124904493Y-136917754D01*
X124759506Y-136888914D01*
X124759504Y-136888914D01*
X124611668Y-136888914D01*
X124611666Y-136888914D01*
X124466678Y-136917754D01*
X124466668Y-136917757D01*
X124330097Y-136974326D01*
X124330084Y-136974333D01*
X124207170Y-137056462D01*
X124207166Y-137056465D01*
X124102637Y-137160994D01*
X124102634Y-137160998D01*
X124020505Y-137283912D01*
X124020498Y-137283925D01*
X123963929Y-137420496D01*
X123963926Y-137420506D01*
X123935086Y-137565493D01*
X123935086Y-137565496D01*
X123935086Y-137713332D01*
X123935086Y-137713334D01*
X123935085Y-137713334D01*
X121180884Y-137713334D01*
X121208974Y-137539611D01*
X121698748Y-134510567D01*
X121985086Y-134510567D01*
X121985086Y-134668260D01*
X122015847Y-134822903D01*
X122015850Y-134822915D01*
X122076188Y-134968586D01*
X122076195Y-134968599D01*
X122163796Y-135099702D01*
X122163799Y-135099706D01*
X122275293Y-135211200D01*
X122275297Y-135211203D01*
X122406400Y-135298804D01*
X122406413Y-135298811D01*
X122543323Y-135355520D01*
X122552089Y-135359151D01*
X122706739Y-135389913D01*
X122706742Y-135389914D01*
X122706744Y-135389914D01*
X122864430Y-135389914D01*
X122864431Y-135389913D01*
X123019083Y-135359151D01*
X123164765Y-135298808D01*
X123295875Y-135211203D01*
X123407375Y-135099703D01*
X123494980Y-134968593D01*
X123555323Y-134822911D01*
X123586086Y-134668256D01*
X123586086Y-134510572D01*
X123586086Y-134510569D01*
X123586085Y-134510567D01*
X123555324Y-134355924D01*
X123555323Y-134355917D01*
X123555321Y-134355912D01*
X123494983Y-134210241D01*
X123494976Y-134210228D01*
X123407375Y-134079125D01*
X123407372Y-134079121D01*
X123295878Y-133967627D01*
X123295874Y-133967624D01*
X123164771Y-133880023D01*
X123164758Y-133880016D01*
X123019087Y-133819678D01*
X123019075Y-133819675D01*
X122864431Y-133788914D01*
X122864428Y-133788914D01*
X122706744Y-133788914D01*
X122706741Y-133788914D01*
X122552096Y-133819675D01*
X122552084Y-133819678D01*
X122406413Y-133880016D01*
X122406400Y-133880023D01*
X122275297Y-133967624D01*
X122275293Y-133967627D01*
X122163799Y-134079121D01*
X122163796Y-134079125D01*
X122076195Y-134210228D01*
X122076188Y-134210241D01*
X122015850Y-134355912D01*
X122015847Y-134355924D01*
X121985086Y-134510567D01*
X121698748Y-134510567D01*
X121702933Y-134484687D01*
X121887421Y-133343709D01*
X121957190Y-132912213D01*
X121987323Y-132849176D01*
X122046753Y-132812437D01*
X122058322Y-132809846D01*
X129360821Y-131538352D01*
X129430241Y-131546245D01*
X129469770Y-131572833D01*
X133784473Y-135887536D01*
X133817958Y-135948859D01*
X133820792Y-135975217D01*
X133820792Y-139738330D01*
X133820791Y-139738348D01*
X133820791Y-139904054D01*
X133820790Y-139904054D01*
X133820791Y-139904057D01*
X133861715Y-140056785D01*
X133881776Y-140091531D01*
X133914712Y-140148578D01*
X133940771Y-140193714D01*
X133940773Y-140193717D01*
X134059641Y-140312585D01*
X134059647Y-140312590D01*
X136386431Y-142639374D01*
X136386441Y-142639385D01*
X136390771Y-142643715D01*
X136390772Y-142643716D01*
X136502576Y-142755520D01*
X136582078Y-142801420D01*
X136582079Y-142801421D01*
X136639501Y-142834574D01*
X136639502Y-142834574D01*
X136639507Y-142834577D01*
X136792234Y-142875500D01*
X136792235Y-142875500D01*
X138176376Y-142875500D01*
X138243415Y-142895185D01*
X138245267Y-142896398D01*
X138376956Y-142984390D01*
X138376969Y-142984397D01*
X138522640Y-143044735D01*
X138522645Y-143044737D01*
X138612780Y-143062666D01*
X138677295Y-143075499D01*
X138677298Y-143075500D01*
X138677300Y-143075500D01*
X138834986Y-143075500D01*
X138899505Y-143062666D01*
X138969097Y-143068893D01*
X139024274Y-143111756D01*
X139047519Y-143177645D01*
X139038258Y-143231735D01*
X139001421Y-143320667D01*
X139001418Y-143320677D01*
X138974500Y-143456004D01*
X138974500Y-143456007D01*
X138974500Y-143593993D01*
X138974500Y-143593995D01*
X138974499Y-143593995D01*
X139001418Y-143729322D01*
X139001421Y-143729332D01*
X139054221Y-143856804D01*
X139054228Y-143856817D01*
X139130885Y-143971541D01*
X139130888Y-143971545D01*
X139228454Y-144069111D01*
X139228458Y-144069114D01*
X139343182Y-144145771D01*
X139343195Y-144145778D01*
X139470667Y-144198578D01*
X139470672Y-144198580D01*
X139470676Y-144198580D01*
X139470677Y-144198581D01*
X139606004Y-144225500D01*
X139606007Y-144225500D01*
X139743995Y-144225500D01*
X139835041Y-144207389D01*
X139879328Y-144198580D01*
X140006811Y-144145775D01*
X140121542Y-144069114D01*
X140219114Y-143971542D01*
X140295775Y-143856811D01*
X140348580Y-143729328D01*
X140375500Y-143593993D01*
X140375500Y-143456007D01*
X140375500Y-143456004D01*
X140348581Y-143320677D01*
X140348580Y-143320676D01*
X140348580Y-143320672D01*
X140348578Y-143320667D01*
X140295778Y-143193195D01*
X140295771Y-143193182D01*
X140219114Y-143078458D01*
X140219111Y-143078454D01*
X140121545Y-142980888D01*
X140121541Y-142980885D01*
X140006817Y-142904228D01*
X140006804Y-142904221D01*
X139879332Y-142851421D01*
X139879322Y-142851418D01*
X139743995Y-142824500D01*
X139743993Y-142824500D01*
X139606007Y-142824500D01*
X139606005Y-142824500D01*
X139603566Y-142824985D01*
X139602263Y-142824868D01*
X139599942Y-142825097D01*
X139599898Y-142824656D01*
X139533974Y-142818755D01*
X139478798Y-142775891D01*
X139455556Y-142710000D01*
X139464817Y-142655914D01*
X139465536Y-142654179D01*
X139525879Y-142508497D01*
X139556642Y-142353842D01*
X139556642Y-142196158D01*
X139556642Y-142196155D01*
X139556641Y-142196153D01*
X139525880Y-142041510D01*
X139525879Y-142041503D01*
X139525877Y-142041498D01*
X139465539Y-141895827D01*
X139465532Y-141895814D01*
X139377931Y-141764711D01*
X139377928Y-141764707D01*
X139266434Y-141653213D01*
X139266430Y-141653210D01*
X139135327Y-141565609D01*
X139135314Y-141565602D01*
X138989643Y-141505264D01*
X138989631Y-141505261D01*
X138834987Y-141474500D01*
X138834984Y-141474500D01*
X138677300Y-141474500D01*
X138677297Y-141474500D01*
X138522652Y-141505261D01*
X138522640Y-141505264D01*
X138376969Y-141565602D01*
X138376956Y-141565609D01*
X138245267Y-141653602D01*
X138178589Y-141674480D01*
X138176376Y-141674500D01*
X137171389Y-141674500D01*
X137104350Y-141654815D01*
X137083708Y-141638181D01*
X135058111Y-139612584D01*
X135024626Y-139551261D01*
X135021792Y-139524903D01*
X135021792Y-135789248D01*
X135041477Y-135722209D01*
X135094281Y-135676454D01*
X135163439Y-135666510D01*
X135226995Y-135695535D01*
X135233473Y-135701567D01*
X137795773Y-138263867D01*
X137826806Y-138320700D01*
X137827721Y-138320423D01*
X137829053Y-138324816D01*
X137829258Y-138325190D01*
X137829457Y-138326144D01*
X137829491Y-138326259D01*
X137882292Y-138453733D01*
X137882299Y-138453746D01*
X137958956Y-138568470D01*
X137958959Y-138568474D01*
X138056525Y-138666040D01*
X138056529Y-138666043D01*
X138171253Y-138742700D01*
X138171266Y-138742707D01*
X138259268Y-138779158D01*
X138298743Y-138795509D01*
X138298747Y-138795509D01*
X138298748Y-138795510D01*
X138434075Y-138822429D01*
X138434078Y-138822429D01*
X138572066Y-138822429D01*
X138663112Y-138804318D01*
X138707399Y-138795509D01*
X138834882Y-138742704D01*
X138949613Y-138666043D01*
X139047185Y-138568471D01*
X139123846Y-138453740D01*
X139176651Y-138326257D01*
X139203571Y-138190922D01*
X139203571Y-138052936D01*
X139203571Y-138052933D01*
X139176652Y-137917606D01*
X139176651Y-137917605D01*
X139176651Y-137917601D01*
X139176649Y-137917596D01*
X139147388Y-137846952D01*
X139139919Y-137777483D01*
X139171195Y-137715004D01*
X139231284Y-137679352D01*
X139261949Y-137675500D01*
X139404055Y-137675500D01*
X139404057Y-137675500D01*
X139556784Y-137634577D01*
X139693716Y-137555520D01*
X139729217Y-137520018D01*
X139790537Y-137486534D01*
X139860229Y-137491518D01*
X139879851Y-137502383D01*
X139880387Y-137501457D01*
X139974029Y-137555520D01*
X140024358Y-137584577D01*
X140177085Y-137625500D01*
X140177087Y-137625500D01*
X140335197Y-137625500D01*
X140335199Y-137625500D01*
X140487926Y-137584577D01*
X140624858Y-137505520D01*
X140736662Y-137393716D01*
X140815719Y-137256784D01*
X140856642Y-137104057D01*
X140856642Y-136452085D01*
X140815719Y-136299358D01*
X140815719Y-136299357D01*
X140799940Y-136272028D01*
X140778387Y-136234696D01*
X140778387Y-136234695D01*
X140736666Y-136162432D01*
X140736663Y-136162428D01*
X140736662Y-136162426D01*
X140624858Y-136050622D01*
X140624857Y-136050621D01*
X140620527Y-136046291D01*
X140620516Y-136046281D01*
X140586819Y-136012584D01*
X140553334Y-135951261D01*
X140550500Y-135924903D01*
X140550500Y-135345945D01*
X140550500Y-135345943D01*
X140509577Y-135193216D01*
X140449285Y-135088787D01*
X140432813Y-135020887D01*
X140455666Y-134954861D01*
X140494675Y-134919400D01*
X140498009Y-134917474D01*
X140518716Y-134905520D01*
X140630520Y-134793716D01*
X140709577Y-134656784D01*
X140750500Y-134504057D01*
X140750500Y-134345943D01*
X140709577Y-134193216D01*
X140673815Y-134131274D01*
X140630524Y-134056290D01*
X140630518Y-134056282D01*
X140518717Y-133944481D01*
X140518709Y-133944475D01*
X140381790Y-133865426D01*
X140381786Y-133865424D01*
X140381784Y-133865423D01*
X140229057Y-133824500D01*
X140091549Y-133824500D01*
X140064832Y-133816655D01*
X140037373Y-133812039D01*
X140031771Y-133806947D01*
X140024510Y-133804815D01*
X140006278Y-133783774D01*
X139985671Y-133765043D01*
X139981394Y-133755056D01*
X139978755Y-133752011D01*
X139971776Y-133732599D01*
X139971508Y-133731599D01*
X139973167Y-133661749D01*
X140012327Y-133603885D01*
X140076554Y-133576378D01*
X140091281Y-133575500D01*
X140229055Y-133575500D01*
X140229057Y-133575500D01*
X140381784Y-133534577D01*
X140518716Y-133455520D01*
X140630520Y-133343716D01*
X140709577Y-133206784D01*
X140750500Y-133054057D01*
X140750500Y-132895943D01*
X140709577Y-132743216D01*
X140709573Y-132743209D01*
X140630524Y-132606290D01*
X140630518Y-132606282D01*
X140518717Y-132494481D01*
X140518709Y-132494475D01*
X140381790Y-132415426D01*
X140381786Y-132415424D01*
X140381784Y-132415423D01*
X140229057Y-132374500D01*
X140070943Y-132374500D01*
X139918216Y-132415423D01*
X139918209Y-132415426D01*
X139781290Y-132494475D01*
X139781282Y-132494481D01*
X139669481Y-132606282D01*
X139669475Y-132606290D01*
X139590426Y-132743209D01*
X139590423Y-132743216D01*
X139549500Y-132895943D01*
X139549500Y-132919760D01*
X139529815Y-132986799D01*
X139477011Y-133032554D01*
X139407853Y-133042498D01*
X139357203Y-133023256D01*
X139346709Y-133016331D01*
X139324858Y-132994480D01*
X139238046Y-132944360D01*
X139187927Y-132915423D01*
X139035199Y-132874499D01*
X138877085Y-132874499D01*
X138797049Y-132895945D01*
X138724352Y-132915424D01*
X138724351Y-132915425D01*
X138674238Y-132944359D01*
X138674237Y-132944360D01*
X138630831Y-132969420D01*
X138587427Y-132994479D01*
X138587424Y-132994481D01*
X138475623Y-133106282D01*
X138475621Y-133106285D01*
X138425503Y-133193094D01*
X138425501Y-133193096D01*
X138396567Y-133243209D01*
X138396566Y-133243210D01*
X138396565Y-133243215D01*
X138355641Y-133395943D01*
X138355641Y-133395945D01*
X138355641Y-133554054D01*
X138355640Y-133554054D01*
X138396565Y-133706785D01*
X138425500Y-133756900D01*
X138425501Y-133756904D01*
X138425502Y-133756904D01*
X138475621Y-133843714D01*
X138475623Y-133843717D01*
X138594491Y-133962585D01*
X138594497Y-133962590D01*
X138763181Y-134131274D01*
X138796666Y-134192597D01*
X138799500Y-134218955D01*
X138799500Y-134788330D01*
X138799499Y-134788348D01*
X138799499Y-134954054D01*
X138799498Y-134954054D01*
X138840423Y-135106785D01*
X138869358Y-135156900D01*
X138869359Y-135156904D01*
X138869360Y-135156904D01*
X138919479Y-135243714D01*
X138919481Y-135243717D01*
X139038349Y-135362585D01*
X139038355Y-135362590D01*
X139313181Y-135637416D01*
X139346666Y-135698739D01*
X139349500Y-135725097D01*
X139349500Y-136145939D01*
X139349499Y-136145943D01*
X139349499Y-136304057D01*
X139357085Y-136332371D01*
X139357622Y-136346255D01*
X139352340Y-136367202D01*
X139351826Y-136388797D01*
X139343967Y-136400408D01*
X139340539Y-136414004D01*
X139324770Y-136428770D01*
X139312663Y-136446659D01*
X139299593Y-136452348D01*
X139289540Y-136461763D01*
X139269539Y-136465431D01*
X139253766Y-136472297D01*
X139253793Y-136472397D01*
X139253127Y-136472575D01*
X139249903Y-136473979D01*
X139245942Y-136474500D01*
X139093216Y-136515423D01*
X139093209Y-136515426D01*
X138956290Y-136594475D01*
X138956282Y-136594481D01*
X138844481Y-136706282D01*
X138844475Y-136706290D01*
X138765426Y-136843209D01*
X138765423Y-136843216D01*
X138724500Y-136995943D01*
X138724500Y-137154058D01*
X138729198Y-137171591D01*
X138727535Y-137241441D01*
X138688371Y-137299303D01*
X138624143Y-137326806D01*
X138555240Y-137315219D01*
X138521742Y-137291364D01*
X135576321Y-134345943D01*
X132432222Y-131201844D01*
X132398738Y-131140523D01*
X132403722Y-131070831D01*
X132445594Y-131014898D01*
X132498628Y-130992004D01*
X133670512Y-130787959D01*
X133739232Y-130795559D01*
X133844041Y-130838973D01*
X134027671Y-130875499D01*
X134027675Y-130875500D01*
X134027676Y-130875500D01*
X134214909Y-130875500D01*
X134214910Y-130875499D01*
X134398543Y-130838973D01*
X134571523Y-130767322D01*
X134727200Y-130663302D01*
X134771291Y-130619210D01*
X134832612Y-130585726D01*
X134837639Y-130584741D01*
X143084279Y-129148856D01*
X143153700Y-129156749D01*
G37*
%TD.AperFunction*%
%TD*%
M02*
