M48
; DRILL file KiCad 10.0.1 date 2026-06-15T12:02:14
; FORMAT={-:-/ absolute / metric / decimal}
; #@! TF.CreationDate,2026-06-15T12:02:14+02:00
; #@! TF.GenerationSoftware,Kicad,Pcbnew,10.0.1
; #@! TF.FileFunction,Plated,1,4,PTH
FMAT,2
METRIC
; #@! TA.AperFunction,Plated,PTH,ViaDrill
T1C0.200
; #@! TA.AperFunction,Plated,PTH,ViaDrill
T2C0.300
; #@! TA.AperFunction,Plated,PTH,ViaDrill
T3C0.400
; #@! TA.AperFunction,Plated,PTH,ViaDrill
T4C0.500
%
G90
G05
T1
X157.625Y-81.5
X157.825Y-293.55
X157.825Y-298.75
X157.925Y-226.05
X157.925Y-262.5
X157.975Y-329.5
X158.025Y-185.5
X158.075Y-257.4
X158.125Y-149.5
X158.225Y-117.5
X158.225Y-189.7
X158.25Y-153.475
X158.275Y-113.25
X159.775Y-185.2
X159.775Y-293.15
X159.875Y-149.25
X160.025Y-329.2
X160.225Y-257.35
X160.825Y-113.3
X162.95Y-83.775
X163.7Y-83.475
X165.075Y-188.4
X165.275Y-80.45
X165.275Y-186.2
X165.325Y-114.85
X165.325Y-116.45
X165.375Y-150.85
X165.425Y-152.45
X172.775Y-212.05
X173.625Y-209.75
X174.525Y-212.05
X174.625Y-209.5
X175.125Y-210.35
X175.425Y-217.5
X175.775Y-211.9
X177.175Y-213.525
X177.8Y-216.475
X178.075Y-213.575
X178.875Y-213.6
X189.375Y-116.45
X192.725Y-331.55
X193.025Y-259.45
X193.075Y-226.55
X193.075Y-295.35
X193.175Y-223.45
X193.675Y-262.65
X193.925Y-298.45
X193.975Y-187.5
X194.025Y-188.55
X194.075Y-186.2
X194.075Y-334.4
X194.125Y-150.85
X194.175Y-80.7
X194.175Y-151.85
X194.175Y-153.55
X194.225Y-114.85
X194.25Y-81.525
X194.325Y-117.35
X201.225Y-80.5
X201.275Y-188.45
X201.325Y-152.45
X201.375Y-150.85
X201.375Y-186.85
X201.875Y-116.4
X201.925Y-114.9
X203.875Y-217.05
X205.275Y-216.55
X207.625Y-216.05
X209.025Y-214.5
X209.075Y-215.55
X210.625Y-213.3
X211.375Y-210.5
X211.775Y-213.55
X212.125Y-212.1
X212.725Y-219.3
X212.825Y-213.55
X214.625Y-218.375
X214.675Y-215.65
X215.375Y-215.825
X216.175Y-216.2
X225.575Y-116.45
X228.625Y-259.5
X228.625Y-295.5
X228.875Y-331.4
X229.125Y-223.6
X229.475Y-226.75
X229.775Y-262.5
X229.925Y-298.05
X229.975Y-186.85
X230.025Y-150.85
X230.025Y-334.4
X230.1Y-189.475
X230.125Y-187.95
X230.15Y-151.8
X230.15Y-153.475
X230.175Y-114.9
X230.25Y-117.225
X230.275Y-80.5
X230.4Y-81.425
X237.225Y-150.85
X237.275Y-80.45
X237.325Y-186.85
X237.425Y-116.45
X237.425Y-188.45
X237.475Y-114.85
X237.675Y-220.95
X237.975Y-152.45
X242.975Y-216.0
X244.325Y-215.5
X245.175Y-215.1
X245.275Y-213.5
X247.025Y-212.5
X247.21Y-218.365
X247.71Y-213.1
X247.75Y-210.475
X248.525Y-211.9
X248.725Y-218.7
X249.075Y-213.1
X250.15Y-217.55
X250.475Y-214.775
X251.125Y-214.4
X251.875Y-215.325
X261.525Y-116.45
X264.175Y-259.6
X264.488Y-295.7
X264.975Y-223.3
X265.075Y-331.45
X265.275Y-226.5
X265.525Y-262.5
X265.7Y-153.525
X265.725Y-81.8
X265.775Y-189.55
X265.825Y-298.5
X265.925Y-152.45
X265.975Y-150.85
X266.025Y-186.95
X266.025Y-188.1
X266.025Y-334.5
X266.125Y-114.85
X266.175Y-80.45
X266.245Y-117.58
X273.225Y-186.85
X273.275Y-80.45
X273.325Y-152.45
X273.375Y-150.85
X273.525Y-114.85
X273.575Y-116.45
X274.125Y-188.35
X275.725Y-215.15
X277.175Y-214.65
X278.475Y-214.15
X279.575Y-213.7
X280.175Y-212.35
X280.975Y-211.65
X281.925Y-211.55
X282.025Y-217.05
X282.225Y-205.7
X282.275Y-210.15
X282.825Y-211.1
X283.375Y-211.7
X284.025Y-216.35
X284.75Y-212.65
X285.35Y-213.1
X286.1Y-212.625
X292.575Y-212.75
X293.675Y-217.25
X293.825Y-211.85
X295.325Y-217.25
X295.325Y-218.0
X296.925Y-215.55
X297.475Y-116.45
X297.825Y-216.025
X298.6Y-215.225
X299.25Y-214.375
X300.125Y-331.55
X300.175Y-295.6
X300.525Y-259.6
X300.625Y-223.2
X301.475Y-226.5
X301.525Y-114.25
X301.575Y-153.6
X301.675Y-150.85
X301.675Y-334.6
X301.775Y-262.6
X301.825Y-298.65
X301.925Y-152.45
X301.975Y-189.3
X302.025Y-186.85
X302.1Y-81.525
X302.125Y-187.95
X302.2Y-117.325
X302.225Y-80.45
X309.175Y-80.45
X309.175Y-186.85
X309.225Y-150.85
X309.225Y-152.45
X309.275Y-114.85
X309.275Y-116.45
X318.975Y-212.85
X320.325Y-211.9
X320.425Y-217.4
X321.975Y-217.5
X322.125Y-218.1
X323.55Y-215.6
X324.2Y-215.05
X324.975Y-213.85
X324.975Y-215.425
X333.575Y-116.45
X336.125Y-259.55
X336.175Y-331.55
X336.225Y-223.5
X336.475Y-295.4
X337.125Y-114.35
X337.425Y-262.7
X337.45Y-153.125
X337.775Y-298.5
X337.8Y-189.525
X337.825Y-226.6
X337.875Y-150.85
X337.875Y-152.45
X337.875Y-186.85
X337.875Y-334.5
X338.25Y-117.475
X338.3Y-81.575
X338.375Y-80.45
X345.175Y-152.45
X345.225Y-150.85
X345.475Y-80.45
X345.575Y-114.85
X345.625Y-116.45
X360.625Y-212.9
X361.825Y-217.4
X362.625Y-211.75
X363.275Y-217.25
X363.925Y-209.45
X364.025Y-217.6
X365.113Y-215.862
X365.65Y-215.1
X366.325Y-213.95
X366.4Y-215.05
X368.725Y-116.45
X372.075Y-223.55
X372.225Y-331.3
X372.425Y-295.4
X372.525Y-259.5
X373.4Y-153.375
X373.525Y-226.55
X373.575Y-262.75
X373.675Y-114.5
X373.825Y-150.85
X373.825Y-152.45
X373.875Y-298.55
X373.9Y-189.575
X373.925Y-334.45
X373.95Y-117.675
X374.2Y-81.375
X374.225Y-80.45
X381.225Y-80.45
X381.275Y-150.85
X381.275Y-152.4
X381.325Y-114.85
X381.325Y-116.45
X393.775Y-213.4
X395.025Y-217.9
X395.775Y-212.3
X396.275Y-217.85
X397.325Y-217.9
X398.275Y-216.5
X398.475Y-202.25
X398.725Y-215.7
X400.125Y-215.9
X400.225Y-214.35
X405.125Y-116.45
X408.325Y-223.7
X408.425Y-295.45
X408.575Y-259.45
X408.825Y-331.3
X409.475Y-189.9
X409.625Y-262.65
X409.675Y-226.7
X409.675Y-266.7
X409.675Y-268.3
X409.775Y-298.55
X410.025Y-117.45
X410.025Y-150.85
X410.025Y-153.6
X410.075Y-114.6
X410.075Y-334.5
X410.125Y-81.55
X410.175Y-152.4
X410.225Y-80.45
X411.325Y-158.7
X411.325Y-160.1
X411.425Y-231.0
X411.425Y-232.25
X411.475Y-122.3
X411.525Y-121.3
X411.575Y-301.8
X411.625Y-303.1
X414.875Y-85.8
X415.325Y-87.05
T2
X156.925Y-330.3
X157.875Y-221.75
X160.175Y-221.05
X171.44Y-216.87
X171.775Y-213.3
X174.475Y-218.05
X208.725Y-218.3
X211.475Y-219.3
X245.175Y-217.8
X279.525Y-216.55
X281.375Y-221.25
X294.875Y-211.7
X296.925Y-212.95
X309.175Y-188.45
X321.325Y-211.7
X323.625Y-212.65
X337.875Y-188.15
X345.325Y-188.25
X345.475Y-186.85
X365.275Y-212.5
X374.025Y-188.0
X374.175Y-186.85
X381.425Y-186.85
X381.425Y-188.45
X396.325Y-211.05
X398.565Y-213.3
X408.275Y-193.4
X408.275Y-194.55
X409.775Y-186.85
X409.825Y-188.05
T3
X152.725Y-78.3
X154.225Y-222.1
X154.475Y-294.15
X154.475Y-329.8
X154.675Y-114.4
X154.675Y-186.3
X154.725Y-150.3
X154.825Y-257.9
X157.825Y-334.8
X165.175Y-190.05
X165.275Y-334.05
X165.375Y-298.05
X165.425Y-82.45
X165.425Y-118.35
X165.425Y-154.05
X165.475Y-262.05
X165.625Y-226.0
X181.875Y-153.925
X181.925Y-148.725
X188.275Y-79.65
X188.425Y-115.55
X188.525Y-331.35
X188.675Y-295.5
X188.825Y-188.45
X188.825Y-259.6
X189.075Y-151.65
X189.375Y-223.55
X199.875Y-227.9
X200.125Y-119.85
X201.225Y-190.05
X201.275Y-298.05
X201.275Y-334.05
X201.325Y-154.05
X201.375Y-262.05
X201.425Y-82.7
X202.175Y-277.55
X207.625Y-277.6
X223.925Y-79.45
X224.425Y-295.6
X224.525Y-115.55
X224.575Y-259.5
X224.625Y-331.35
X224.675Y-185.75
X225.225Y-151.8
X225.375Y-223.75
X235.825Y-155.9
X237.325Y-190.05
X237.325Y-298.05
X237.375Y-334.05
X237.425Y-82.55
X237.425Y-226.05
X237.525Y-118.25
X237.575Y-262.05
X241.825Y-274.2
X245.225Y-189.975
X245.275Y-184.775
X247.275Y-274.25
X253.325Y-154.05
X253.375Y-148.85
X259.925Y-259.6
X260.275Y-79.55
X260.3Y-115.725
X260.375Y-151.6
X260.375Y-295.6
X260.375Y-331.45
X261.075Y-223.5
X261.125Y-185.7
X271.825Y-191.75
X273.275Y-226.05
X273.325Y-334.05
X273.375Y-154.05
X273.425Y-298.05
X273.525Y-82.55
X273.525Y-262.05
X273.625Y-118.2
X274.775Y-241.95
X277.625Y-198.6
X280.225Y-242.0
X286.075Y-196.8
X287.125Y-220.45
X288.975Y-199.2
X293.575Y-205.45
X295.325Y-242.2
X295.425Y-259.6
X295.525Y-295.6
X295.675Y-223.55
X296.125Y-151.65
X296.125Y-331.45
X296.275Y-79.675
X296.4Y-115.525
X297.275Y-185.65
X300.775Y-242.25
X305.8Y-200.3
X309.175Y-190.05
X309.275Y-298.05
X309.325Y-118.1
X309.325Y-154.05
X309.325Y-226.05
X309.375Y-334.05
X309.425Y-262.0
X309.525Y-82.55
X313.875Y-229.55
X313.875Y-233.7
X317.375Y-265.7
X317.375Y-269.85
X318.825Y-300.6
X318.825Y-304.75
X321.875Y-278.5
X322.125Y-195.85
X322.175Y-191.8
X322.525Y-161.65
X322.575Y-157.6
X322.725Y-123.9
X322.775Y-119.85
X325.025Y-89.1
X325.075Y-85.05
X327.325Y-278.55
X331.725Y-259.65
X332.125Y-331.5
X332.175Y-151.65
X332.225Y-223.75
X332.325Y-115.5
X332.575Y-295.65
X332.875Y-79.55
X332.925Y-185.65
X345.275Y-298.05
X345.325Y-190.05
X345.475Y-226.05
X345.475Y-334.05
X345.575Y-118.15
X345.575Y-154.15
X345.625Y-262.05
X345.775Y-82.65
X346.325Y-214.425
X346.375Y-209.225
X363.525Y-283.15
X367.275Y-115.55
X367.775Y-295.6
X368.075Y-151.7
X368.125Y-223.65
X368.125Y-259.7
X368.125Y-331.55
X368.775Y-79.45
X368.975Y-283.2
X369.125Y-185.7
X381.325Y-334.05
X381.425Y-190.0
X381.475Y-82.7
X381.475Y-154.1
X381.525Y-118.1
X381.525Y-226.05
X381.525Y-298.05
X381.625Y-262.05
X396.875Y-282.5
X402.325Y-282.55
X403.825Y-115.6
X404.175Y-223.7
X404.225Y-295.6
X404.325Y-259.65
X404.775Y-185.8
X404.775Y-331.55
X404.825Y-79.45
X404.875Y-151.75
X414.475Y-120.0
X414.625Y-156.35
X415.175Y-83.7
X415.275Y-191.85
X415.325Y-300.3
X415.825Y-227.9
X415.825Y-264.4
X417.425Y-334.05
T4
X299.025Y-199.4
X303.475Y-200.3
M30
