%TF.GenerationSoftware,KiCad,Pcbnew,10.0.1*%
%TF.CreationDate,2026-06-20T20:30:36+02:00*%
%TF.ProjectId,Upper PCB,55707065-7220-4504-9342-2e6b69636164,rev?*%
%TF.SameCoordinates,Original*%
%TF.FileFunction,Legend,Bot*%
%TF.FilePolarity,Positive*%
%FSLAX46Y46*%
G04 Gerber Fmt 4.6, Leading zero omitted, Abs format (unit mm)*
G04 Created by KiCad (PCBNEW 10.0.1) date 2026-06-20 20:30:36*
%MOMM*%
%LPD*%
G01*
G04 APERTURE LIST*
%ADD10C,0.100000*%
%ADD11C,0.200000*%
G04 APERTURE END LIST*
D10*
X287941666Y-204704945D02*
X287941666Y-205276373D01*
X287941666Y-205276373D02*
X287979761Y-205390659D01*
X287979761Y-205390659D02*
X288055952Y-205466850D01*
X288055952Y-205466850D02*
X288170237Y-205504945D01*
X288170237Y-205504945D02*
X288246428Y-205504945D01*
X287636904Y-204704945D02*
X287141666Y-204704945D01*
X287141666Y-204704945D02*
X287408332Y-205009707D01*
X287408332Y-205009707D02*
X287294047Y-205009707D01*
X287294047Y-205009707D02*
X287217856Y-205047802D01*
X287217856Y-205047802D02*
X287179761Y-205085897D01*
X287179761Y-205085897D02*
X287141666Y-205162088D01*
X287141666Y-205162088D02*
X287141666Y-205352564D01*
X287141666Y-205352564D02*
X287179761Y-205428754D01*
X287179761Y-205428754D02*
X287217856Y-205466850D01*
X287217856Y-205466850D02*
X287294047Y-205504945D01*
X287294047Y-205504945D02*
X287522618Y-205504945D01*
X287522618Y-205504945D02*
X287598809Y-205466850D01*
X287598809Y-205466850D02*
X287636904Y-205428754D01*
%TO.C,J3*%
D11*
X294775000Y-201050000D02*
G75*
G02*
X294575000Y-201050000I-100000J0D01*
G01*
X294575000Y-201050000D02*
G75*
G02*
X294775000Y-201050000I100000J0D01*
G01*
X298675000Y-209155100D02*
X298675000Y-208037500D01*
X298675000Y-209155100D02*
X276675000Y-209155100D01*
X298675000Y-208037500D02*
X298096000Y-208037500D01*
X298096000Y-206609500D02*
X298096000Y-208037500D01*
X295815000Y-203744900D02*
X279535000Y-203744900D01*
X277254000Y-206609500D02*
X277254000Y-208037500D01*
X276675000Y-209155100D02*
X276675000Y-208037500D01*
X276675000Y-208037500D02*
X277254000Y-208037500D01*
%TD*%
M02*
