%TF.GenerationSoftware,KiCad,Pcbnew,10.0.1*%
%TF.CreationDate,2026-06-15T12:01:58+02:00*%
%TF.ProjectId,Upper PCB,55707065-7220-4504-9342-2e6b69636164,rev?*%
%TF.SameCoordinates,Original*%
%TF.FileFunction,Copper,L1,Top*%
%TF.FilePolarity,Positive*%
%FSLAX46Y46*%
G04 Gerber Fmt 4.6, Leading zero omitted, Abs format (unit mm)*
G04 Created by KiCad (PCBNEW 10.0.1) date 2026-06-15 12:01:58*
%MOMM*%
%LPD*%
G01*
G04 APERTURE LIST*
G04 Aperture macros list*
%AMRoundRect*
0 Rectangle with rounded corners*
0 $1 Rounding radius*
0 $2 $3 $4 $5 $6 $7 $8 $9 X,Y pos of 4 corners*
0 Add a 4 corners polygon primitive as box body*
4,1,4,$2,$3,$4,$5,$6,$7,$8,$9,$2,$3,0*
0 Add four circle primitives for the rounded corners*
1,1,$1+$1,$2,$3*
1,1,$1+$1,$4,$5*
1,1,$1+$1,$6,$7*
1,1,$1+$1,$8,$9*
0 Add four rect primitives between the rounded corners*
20,1,$1+$1,$2,$3,$4,$5,0*
20,1,$1+$1,$4,$5,$6,$7,0*
20,1,$1+$1,$6,$7,$8,$9,0*
20,1,$1+$1,$8,$9,$2,$3,0*%
G04 Aperture macros list end*
%TA.AperFunction,SMDPad,CuDef*%
%ADD10RoundRect,0.250000X0.475000X-0.250000X0.475000X0.250000X-0.475000X0.250000X-0.475000X-0.250000X0*%
%TD*%
%TA.AperFunction,SMDPad,CuDef*%
%ADD11R,1.000000X0.800000*%
%TD*%
%TA.AperFunction,SMDPad,CuDef*%
%ADD12RoundRect,0.128750X-0.576250X-0.386250X0.576250X-0.386250X0.576250X0.386250X-0.576250X0.386250X0*%
%TD*%
%TA.AperFunction,SMDPad,CuDef*%
%ADD13RoundRect,0.032500X-0.097500X-0.397500X0.097500X-0.397500X0.097500X0.397500X-0.097500X0.397500X0*%
%TD*%
%TA.AperFunction,SMDPad,CuDef*%
%ADD14RoundRect,0.032500X-0.397500X-0.097500X0.397500X-0.097500X0.397500X0.097500X-0.397500X0.097500X0*%
%TD*%
%TA.AperFunction,SMDPad,CuDef*%
%ADD15R,1.000000X2.000000*%
%TD*%
%TA.AperFunction,SMDPad,CuDef*%
%ADD16RoundRect,0.032500X0.097500X0.397500X-0.097500X0.397500X-0.097500X-0.397500X0.097500X-0.397500X0*%
%TD*%
%TA.AperFunction,SMDPad,CuDef*%
%ADD17RoundRect,0.032500X0.397500X0.097500X-0.397500X0.097500X-0.397500X-0.097500X0.397500X-0.097500X0*%
%TD*%
%TA.AperFunction,SMDPad,CuDef*%
%ADD18RoundRect,0.225000X-0.225000X-0.250000X0.225000X-0.250000X0.225000X0.250000X-0.225000X0.250000X0*%
%TD*%
%TA.AperFunction,SMDPad,CuDef*%
%ADD19RoundRect,0.225000X0.225000X0.250000X-0.225000X0.250000X-0.225000X-0.250000X0.225000X-0.250000X0*%
%TD*%
%TA.AperFunction,SMDPad,CuDef*%
%ADD20RoundRect,0.225000X-0.250000X0.225000X-0.250000X-0.225000X0.250000X-0.225000X0.250000X0.225000X0*%
%TD*%
%TA.AperFunction,ViaPad*%
%ADD21C,0.800000*%
%TD*%
%TA.AperFunction,ViaPad*%
%ADD22C,0.600000*%
%TD*%
%TA.AperFunction,ViaPad*%
%ADD23C,1.000000*%
%TD*%
%TA.AperFunction,ViaPad*%
%ADD24C,0.500000*%
%TD*%
%TA.AperFunction,Conductor*%
%ADD25C,0.300000*%
%TD*%
%TA.AperFunction,Conductor*%
%ADD26C,0.400000*%
%TD*%
%TA.AperFunction,Conductor*%
%ADD27C,0.500000*%
%TD*%
%TA.AperFunction,Conductor*%
%ADD28C,0.200000*%
%TD*%
G04 APERTURE END LIST*
D10*
%TO.P,1uF,1*%
%TO.N,+3.3V*%
X299400000Y-198200000D03*
%TO.P,1uF,2*%
%TO.N,GND*%
X299400000Y-196300000D03*
%TD*%
D11*
%TO.P,U104,1,VDD_1*%
%TO.N,+3.3V*%
X262730000Y-115465000D03*
%TO.P,U104,2,GND_2*%
%TO.N,GND*%
X262730000Y-117365000D03*
%TO.P,U104,3,OUTPUT_3*%
%TO.N,Net-(U104-OUTPUT)*%
X265130000Y-116415000D03*
%TD*%
%TO.P,U105,1,VDD_1*%
%TO.N,+3.3V*%
X261925000Y-151550000D03*
%TO.P,U105,2,GND_2*%
%TO.N,GND*%
X261925000Y-153450000D03*
%TO.P,U105,3,OUTPUT_3*%
%TO.N,Net-(U105-OUTPUT)*%
X264325000Y-152500000D03*
%TD*%
%TO.P,U135,1,VDD_1*%
%TO.N,+3.3V*%
X406215000Y-79225000D03*
%TO.P,U135,2,GND_2*%
%TO.N,GND*%
X406215000Y-81125000D03*
%TO.P,U135,3,OUTPUT_3*%
%TO.N,Net-(U13-D7)*%
X408615000Y-80175000D03*
%TD*%
%TO.P,U133,1,VDD_1*%
%TO.N,+3.3V*%
X370025000Y-295650000D03*
%TO.P,U133,2,GND_2*%
%TO.N,GND*%
X370025000Y-297550000D03*
%TO.P,U133,3,OUTPUT_3*%
%TO.N,Net-(U12-D1)*%
X372425000Y-296600000D03*
%TD*%
%TO.P,U116,1,VDD_1*%
%TO.N,+3.3V*%
X298125000Y-259600000D03*
%TO.P,U116,2,GND_2*%
%TO.N,GND*%
X298125000Y-261500000D03*
%TO.P,U116,3,OUTPUT_3*%
%TO.N,Net-(U10-D2)*%
X300525000Y-260550000D03*
%TD*%
%TO.P,U106,1,VDD_1*%
%TO.N,+3.3V*%
X262025000Y-187650000D03*
%TO.P,U106,2,GND_2*%
%TO.N,GND*%
X262025000Y-189550000D03*
%TO.P,U106,3,OUTPUT_3*%
%TO.N,Net-(U106-OUTPUT)*%
X264425000Y-188600000D03*
%TD*%
%TO.P,U131,1,VDD_1*%
%TO.N,+3.3V*%
X369675000Y-223650000D03*
%TO.P,U131,2,GND_2*%
%TO.N,GND*%
X369675000Y-225550000D03*
%TO.P,U131,3,OUTPUT_3*%
%TO.N,Net-(U12-D3)*%
X372075000Y-224600000D03*
%TD*%
D12*
%TO.P,U41,1,DI_1*%
%TO.N,Net-(U39-DO)*%
X339525000Y-186850000D03*
%TO.P,U41,2,CI_2*%
%TO.N,Net-(U39-CO)*%
X339525000Y-188450000D03*
%TO.P,U41,3,GND_3*%
%TO.N,GND*%
X339525000Y-190050000D03*
%TO.P,U41,4,VCC_4*%
%TO.N,+5V*%
X343825000Y-190050000D03*
%TO.P,U41,5,CO_5*%
%TO.N,Net-(U41-CO)*%
X343825000Y-188450000D03*
%TO.P,U41,6,DO_6*%
%TO.N,Net-(U41-DO)*%
X343825000Y-186850000D03*
%TD*%
%TO.P,U57,1,DI_1*%
%TO.N,Net-(U53-DO)*%
X231525000Y-330850000D03*
%TO.P,U57,2,CI_2*%
%TO.N,Net-(U53-CO)*%
X231525000Y-332450000D03*
%TO.P,U57,3,GND_3*%
%TO.N,GND*%
X231525000Y-334050000D03*
%TO.P,U57,4,VCC_4*%
%TO.N,+5V*%
X235825000Y-334050000D03*
%TO.P,U57,5,CO_5*%
%TO.N,Net-(U57-CO)*%
X235825000Y-332450000D03*
%TO.P,U57,6,DO_6*%
%TO.N,Net-(U57-DO)*%
X235825000Y-330850000D03*
%TD*%
D11*
%TO.P,U79,1,VDD_1*%
%TO.N,+3.3V*%
X152725000Y-79550000D03*
%TO.P,U79,2,GND_2*%
%TO.N,GND*%
X152725000Y-81450000D03*
%TO.P,U79,3,OUTPUT_3*%
%TO.N,Net-(U6-D7)*%
X155125000Y-80500000D03*
%TD*%
%TO.P,U113,1,VDD_1*%
%TO.N,+3.3V*%
X297725000Y-151550000D03*
%TO.P,U113,2,GND_2*%
%TO.N,GND*%
X297725000Y-153450000D03*
%TO.P,U113,3,OUTPUT_3*%
%TO.N,Net-(U10-D5)*%
X300125000Y-152500000D03*
%TD*%
D13*
%TO.P,U11,1,~{PL}_1*%
%TO.N,/Upper PCB/PL*%
X321040000Y-212915000D03*
D14*
%TO.P,U11,2,CP_2*%
%TO.N,/Upper PCB/CP*%
X320105000Y-213350000D03*
%TO.P,U11,3,D4_3*%
%TO.N,Net-(U11-D4)*%
X320105000Y-213850000D03*
%TO.P,U11,4,D5_4*%
%TO.N,Net-(U11-D5)*%
X320105000Y-214350000D03*
%TO.P,U11,5,D6_5*%
%TO.N,Net-(U11-D6)*%
X320105000Y-214850000D03*
%TO.P,U11,6,D7_6*%
%TO.N,Net-(U11-D7)*%
X320105000Y-215350000D03*
%TO.P,U11,7,~{Q7}_7*%
%TO.N,unconnected-(U11-~{Q7}-Pad7)*%
X320105000Y-215850000D03*
D13*
%TO.P,U11,8,GND_8*%
%TO.N,GND*%
X321040000Y-216285000D03*
%TO.P,U11,9,Q7_9*%
%TO.N,Net-(U11-Q7)*%
X321540000Y-216285000D03*
D14*
%TO.P,U11,10,DS_10*%
%TO.N,Net-(U10-Q7)*%
X322475000Y-215850000D03*
%TO.P,U11,11,D0_11*%
%TO.N,Net-(U11-D0)*%
X322475000Y-215350000D03*
%TO.P,U11,12,D1_12*%
%TO.N,Net-(U11-D1)*%
X322475000Y-214850000D03*
%TO.P,U11,13,D2_13*%
%TO.N,Net-(U11-D2)*%
X322475000Y-214350000D03*
%TO.P,U11,14,D3_14*%
%TO.N,Net-(U11-D3)*%
X322475000Y-213850000D03*
%TO.P,U11,15,~{CE}_15*%
%TO.N,GND*%
X322475000Y-213350000D03*
D13*
%TO.P,U11,16,VCC_16*%
%TO.N,+3.3V*%
X321540000Y-212915000D03*
D15*
%TO.P,U11,17,EP_17*%
%TO.N,unconnected-(U11-EP-Pad17)*%
X321290000Y-214600000D03*
%TD*%
D12*
%TO.P,U77,1,DI_1*%
%TO.N,Net-(U73-DO)*%
X411525000Y-330850000D03*
%TO.P,U77,2,CI_2*%
%TO.N,Net-(U73-CO)*%
X411525000Y-332450000D03*
%TO.P,U77,3,GND_3*%
%TO.N,GND*%
X411525000Y-334050000D03*
%TO.P,U77,4,VCC_4*%
%TO.N,+5V*%
X415825000Y-334050000D03*
%TO.P,U77,5,CO_5*%
%TO.N,/Upper PCB/MISO RGB*%
X415825000Y-332450000D03*
%TO.P,U77,6,DO_6*%
%TO.N,/Upper PCB/CLK Out*%
X415825000Y-330850000D03*
%TD*%
D11*
%TO.P,U130,1,VDD_1*%
%TO.N,+3.3V*%
X370125000Y-187650000D03*
%TO.P,U130,2,GND_2*%
%TO.N,GND*%
X370125000Y-189550000D03*
%TO.P,U130,3,OUTPUT_3*%
%TO.N,Net-(U12-D4)*%
X372525000Y-188600000D03*
%TD*%
D16*
%TO.P,U9,1,~{PL}_1*%
%TO.N,/Upper PCB/PL*%
X282010000Y-216085000D03*
D17*
%TO.P,U9,2,CP_2*%
%TO.N,/Upper PCB/CP*%
X282945000Y-215650000D03*
%TO.P,U9,3,D4_3*%
%TO.N,Net-(U106-OUTPUT)*%
X282945000Y-215150000D03*
%TO.P,U9,4,D5_4*%
%TO.N,Net-(U105-OUTPUT)*%
X282945000Y-214650000D03*
%TO.P,U9,5,D6_5*%
%TO.N,Net-(U104-OUTPUT)*%
X282945000Y-214150000D03*
%TO.P,U9,6,D7_6*%
%TO.N,Net-(U103-OUTPUT)*%
X282945000Y-213650000D03*
%TO.P,U9,7,~{Q7}_7*%
%TO.N,unconnected-(U9-~{Q7}-Pad7)*%
X282945000Y-213150000D03*
D16*
%TO.P,U9,8,GND_8*%
%TO.N,GND*%
X282010000Y-212715000D03*
%TO.P,U9,9,Q7_9*%
%TO.N,Net-(U10-DS)*%
X281510000Y-212715000D03*
D17*
%TO.P,U9,10,DS_10*%
%TO.N,Net-(U8-Q7)*%
X280575000Y-213150000D03*
%TO.P,U9,11,D0_11*%
%TO.N,Net-(U110-OUTPUT)*%
X280575000Y-213650000D03*
%TO.P,U9,12,D1_12*%
%TO.N,Net-(U109-OUTPUT)*%
X280575000Y-214150000D03*
%TO.P,U9,13,D2_13*%
%TO.N,Net-(U108-OUTPUT)*%
X280575000Y-214650000D03*
%TO.P,U9,14,D3_14*%
%TO.N,Net-(U107-OUTPUT)*%
X280575000Y-215150000D03*
%TO.P,U9,15,~{CE}_15*%
%TO.N,GND*%
X280575000Y-215650000D03*
D16*
%TO.P,U9,16,VCC_16*%
%TO.N,+3.3V*%
X281510000Y-216085000D03*
D15*
%TO.P,U9,17,EP_17*%
%TO.N,unconnected-(U9-EP-Pad17)*%
X281760000Y-214400000D03*
%TD*%
D12*
%TO.P,U35,1,DI_1*%
%TO.N,Net-(U33-DO)*%
X231525000Y-186850000D03*
%TO.P,U35,2,CI_2*%
%TO.N,Net-(U33-CO)*%
X231525000Y-188450000D03*
%TO.P,U35,3,GND_3*%
%TO.N,GND*%
X231525000Y-190050000D03*
%TO.P,U35,4,VCC_4*%
%TO.N,+5V*%
X235825000Y-190050000D03*
%TO.P,U35,5,CO_5*%
%TO.N,Net-(U35-CO)*%
X235825000Y-188450000D03*
%TO.P,U35,6,DO_6*%
%TO.N,Net-(U35-DO)*%
X235825000Y-186850000D03*
%TD*%
D11*
%TO.P,U127,1,VDD_1*%
%TO.N,+3.3V*%
X370475000Y-79600000D03*
%TO.P,U127,2,GND_2*%
%TO.N,GND*%
X370475000Y-81500000D03*
%TO.P,U127,3,OUTPUT_3*%
%TO.N,Net-(U12-D7)*%
X372875000Y-80550000D03*
%TD*%
%TO.P,U88,1,VDD_1*%
%TO.N,+3.3V*%
X190725000Y-115550000D03*
%TO.P,U88,2,GND_2*%
%TO.N,GND*%
X190725000Y-117450000D03*
%TO.P,U88,3,OUTPUT_3*%
%TO.N,Net-(U7-D6)*%
X193125000Y-116500000D03*
%TD*%
%TO.P,U123,1,VDD_1*%
%TO.N,+3.3V*%
X333825000Y-223750000D03*
%TO.P,U123,2,GND_2*%
%TO.N,GND*%
X333825000Y-225650000D03*
%TO.P,U123,3,OUTPUT_3*%
%TO.N,Net-(U11-D3)*%
X336225000Y-224700000D03*
%TD*%
D12*
%TO.P,U46,1,DI_1*%
%TO.N,Net-(U45-DO)*%
X159525000Y-222850000D03*
%TO.P,U46,2,CI_2*%
%TO.N,Net-(U45-CO)*%
X159525000Y-224450000D03*
%TO.P,U46,3,GND_3*%
%TO.N,GND*%
X159525000Y-226050000D03*
%TO.P,U46,4,VCC_4*%
%TO.N,+5V*%
X163825000Y-226050000D03*
%TO.P,U46,5,CO_5*%
%TO.N,Net-(U46-CO)*%
X163825000Y-224450000D03*
%TO.P,U46,6,DO_6*%
%TO.N,Net-(U46-DO)*%
X163825000Y-222850000D03*
%TD*%
D11*
%TO.P,U142,1,VDD_1*%
%TO.N,+3.3V*%
X406437500Y-331550000D03*
%TO.P,U142,2,GND_2*%
%TO.N,GND*%
X406437500Y-333450000D03*
%TO.P,U142,3,OUTPUT_3*%
%TO.N,Net-(U13-D0)*%
X408837500Y-332500000D03*
%TD*%
%TO.P,U82,1,VDD_1*%
%TO.N,+3.3V*%
X154675000Y-187550000D03*
%TO.P,U82,2,GND_2*%
%TO.N,GND*%
X154675000Y-189450000D03*
%TO.P,U82,3,OUTPUT_3*%
%TO.N,Net-(U6-D4)*%
X157075000Y-188500000D03*
%TD*%
D12*
%TO.P,U51,1,DI_1*%
%TO.N,Net-(U47-DO)*%
X195525000Y-258850000D03*
%TO.P,U51,2,CI_2*%
%TO.N,Net-(U47-CO)*%
X195525000Y-260450000D03*
%TO.P,U51,3,GND_3*%
%TO.N,GND*%
X195525000Y-262050000D03*
%TO.P,U51,4,VCC_4*%
%TO.N,+5V*%
X199825000Y-262050000D03*
%TO.P,U51,5,CO_5*%
%TO.N,Net-(U51-CO)*%
X199825000Y-260450000D03*
%TO.P,U51,6,DO_6*%
%TO.N,Net-(U51-DO)*%
X199825000Y-258850000D03*
%TD*%
%TO.P,U33,1,DI_1*%
%TO.N,Net-(U31-DO)*%
X195525000Y-186850000D03*
%TO.P,U33,2,CI_2*%
%TO.N,Net-(U31-CO)*%
X195525000Y-188450000D03*
%TO.P,U33,3,GND_3*%
%TO.N,GND*%
X195525000Y-190050000D03*
%TO.P,U33,4,VCC_4*%
%TO.N,+5V*%
X199825000Y-190050000D03*
%TO.P,U33,5,CO_5*%
%TO.N,Net-(U33-CO)*%
X199825000Y-188450000D03*
%TO.P,U33,6,DO_6*%
%TO.N,Net-(U33-DO)*%
X199825000Y-186850000D03*
%TD*%
%TO.P,U44,1,DI_1*%
%TO.N,Net-(U42-DO)*%
X411525000Y-150850000D03*
%TO.P,U44,2,CI_2*%
%TO.N,Net-(U42-CO)*%
X411525000Y-152450000D03*
%TO.P,U44,3,GND_3*%
%TO.N,GND*%
X411525000Y-154050000D03*
%TO.P,U44,4,VCC_4*%
%TO.N,+5V*%
X415825000Y-154050000D03*
%TO.P,U44,5,CO_5*%
%TO.N,Net-(U31-CI)*%
X415825000Y-152450000D03*
%TO.P,U44,6,DO_6*%
%TO.N,Net-(U31-DI)*%
X415825000Y-150850000D03*
%TD*%
%TO.P,U75,1,DI_1*%
%TO.N,Net-(U71-DO)*%
X411525000Y-258850000D03*
%TO.P,U75,2,CI_2*%
%TO.N,Net-(U71-CO)*%
X411525000Y-260450000D03*
%TO.P,U75,3,GND_3*%
%TO.N,GND*%
X411525000Y-262050000D03*
%TO.P,U75,4,VCC_4*%
%TO.N,+5V*%
X415825000Y-262050000D03*
%TO.P,U75,5,CO_5*%
%TO.N,Net-(U48-CI)*%
X415825000Y-260450000D03*
%TO.P,U75,6,DO_6*%
%TO.N,Net-(U48-DI)*%
X415825000Y-258850000D03*
%TD*%
D18*
%TO.P,100nF,1*%
%TO.N,GND*%
X208675000Y-219507500D03*
%TO.P,100nF,2*%
%TO.N,+3.3V*%
X210225000Y-219507500D03*
%TD*%
D13*
%TO.P,U12,1,~{PL}_1*%
%TO.N,/Upper PCB/PL*%
X362625000Y-212900000D03*
D14*
%TO.P,U12,2,CP_2*%
%TO.N,/Upper PCB/CP*%
X361690000Y-213335000D03*
%TO.P,U12,3,D4_3*%
%TO.N,Net-(U12-D4)*%
X361690000Y-213835000D03*
%TO.P,U12,4,D5_4*%
%TO.N,Net-(U12-D5)*%
X361690000Y-214335000D03*
%TO.P,U12,5,D6_5*%
%TO.N,Net-(U12-D6)*%
X361690000Y-214835000D03*
%TO.P,U12,6,D7_6*%
%TO.N,Net-(U12-D7)*%
X361690000Y-215335000D03*
%TO.P,U12,7,~{Q7}_7*%
%TO.N,unconnected-(U12-~{Q7}-Pad7)*%
X361690000Y-215835000D03*
D13*
%TO.P,U12,8,GND_8*%
%TO.N,GND*%
X362625000Y-216270000D03*
%TO.P,U12,9,Q7_9*%
%TO.N,Net-(U12-Q7)*%
X363125000Y-216270000D03*
D14*
%TO.P,U12,10,DS_10*%
%TO.N,Net-(U11-Q7)*%
X364060000Y-215835000D03*
%TO.P,U12,11,D0_11*%
%TO.N,Net-(U12-D0)*%
X364060000Y-215335000D03*
%TO.P,U12,12,D1_12*%
%TO.N,Net-(U12-D1)*%
X364060000Y-214835000D03*
%TO.P,U12,13,D2_13*%
%TO.N,Net-(U12-D2)*%
X364060000Y-214335000D03*
%TO.P,U12,14,D3_14*%
%TO.N,Net-(U12-D3)*%
X364060000Y-213835000D03*
%TO.P,U12,15,~{CE}_15*%
%TO.N,GND*%
X364060000Y-213335000D03*
D13*
%TO.P,U12,16,VCC_16*%
%TO.N,+3.3V*%
X363125000Y-212900000D03*
D15*
%TO.P,U12,17,EP_17*%
%TO.N,unconnected-(U12-EP-Pad17)*%
X362875000Y-214585000D03*
%TD*%
D19*
%TO.P,100nF,1*%
%TO.N,GND*%
X324037500Y-211412500D03*
%TO.P,100nF,2*%
%TO.N,+3.3V*%
X322487500Y-211412500D03*
%TD*%
D11*
%TO.P,U95,1,VDD_1*%
%TO.N,+3.3V*%
X225625000Y-79450000D03*
%TO.P,U95,2,GND_2*%
%TO.N,GND*%
X225625000Y-81350000D03*
%TO.P,U95,3,OUTPUT_3*%
%TO.N,Net-(U8-D7)*%
X228025000Y-80400000D03*
%TD*%
%TO.P,U117,1,VDD_1*%
%TO.N,+3.3V*%
X297775000Y-295650000D03*
%TO.P,U117,2,GND_2*%
%TO.N,GND*%
X297775000Y-297550000D03*
%TO.P,U117,3,OUTPUT_3*%
%TO.N,Net-(U10-D1)*%
X300175000Y-296600000D03*
%TD*%
%TO.P,U121,1,VDD_1*%
%TO.N,+3.3V*%
X333625000Y-151650000D03*
%TO.P,U121,2,GND_2*%
%TO.N,GND*%
X333625000Y-153550000D03*
%TO.P,U121,3,OUTPUT_3*%
%TO.N,Net-(U11-D5)*%
X336025000Y-152600000D03*
%TD*%
D12*
%TO.P,U60,1,DI_1*%
%TO.N,Net-(U56-DO)*%
X267525000Y-294850000D03*
%TO.P,U60,2,CI_2*%
%TO.N,Net-(U56-CO)*%
X267525000Y-296450000D03*
%TO.P,U60,3,GND_3*%
%TO.N,GND*%
X267525000Y-298050000D03*
%TO.P,U60,4,VCC_4*%
%TO.N,+5V*%
X271825000Y-298050000D03*
%TO.P,U60,5,CO_5*%
%TO.N,Net-(U60-CO)*%
X271825000Y-296450000D03*
%TO.P,U60,6,DO_6*%
%TO.N,Net-(U60-DO)*%
X271825000Y-294850000D03*
%TD*%
D19*
%TO.P,100nF,1*%
%TO.N,GND*%
X365675000Y-211192500D03*
%TO.P,100nF,2*%
%TO.N,+3.3V*%
X364125000Y-211192500D03*
%TD*%
D12*
%TO.P,U20,1,DI_1*%
%TO.N,Net-(U19-DO)*%
X375525000Y-78850000D03*
%TO.P,U20,2,CI_2*%
%TO.N,Net-(U19-CO)*%
X375525000Y-80450000D03*
%TO.P,U20,3,GND_3*%
%TO.N,GND*%
X375525000Y-82050000D03*
%TO.P,U20,4,VCC_4*%
%TO.N,+5V*%
X379825000Y-82050000D03*
%TO.P,U20,5,CO_5*%
%TO.N,Net-(U20-CO)*%
X379825000Y-80450000D03*
%TO.P,U20,6,DO_6*%
%TO.N,Net-(U20-DO)*%
X379825000Y-78850000D03*
%TD*%
D11*
%TO.P,U87,1,VDD_1*%
%TO.N,+3.3V*%
X189575000Y-79650000D03*
%TO.P,U87,2,GND_2*%
%TO.N,GND*%
X189575000Y-81550000D03*
%TO.P,U87,3,OUTPUT_3*%
%TO.N,Net-(U7-D7)*%
X191975000Y-80600000D03*
%TD*%
D18*
%TO.P,100nF,1*%
%TO.N,GND*%
X171400000Y-218075000D03*
%TO.P,100nF,2*%
%TO.N,+3.3V*%
X172950000Y-218075000D03*
%TD*%
D11*
%TO.P,U122,1,VDD_1*%
%TO.N,+3.3V*%
X333775000Y-187650000D03*
%TO.P,U122,2,GND_2*%
%TO.N,GND*%
X333775000Y-189550000D03*
%TO.P,U122,3,OUTPUT_3*%
%TO.N,Net-(U11-D4)*%
X336175000Y-188600000D03*
%TD*%
D13*
%TO.P,U10,1,~{PL}_1*%
%TO.N,/Upper PCB/PL*%
X294510000Y-212815000D03*
D14*
%TO.P,U10,2,CP_2*%
%TO.N,/Upper PCB/CP*%
X293575000Y-213250000D03*
%TO.P,U10,3,D4_3*%
%TO.N,Net-(U10-D4)*%
X293575000Y-213750000D03*
%TO.P,U10,4,D5_4*%
%TO.N,Net-(U10-D5)*%
X293575000Y-214250000D03*
%TO.P,U10,5,D6_5*%
%TO.N,Net-(U10-D6)*%
X293575000Y-214750000D03*
%TO.P,U10,6,D7_6*%
%TO.N,Net-(U10-D7)*%
X293575000Y-215250000D03*
%TO.P,U10,7,~{Q7}_7*%
%TO.N,unconnected-(U10-~{Q7}-Pad7)*%
X293575000Y-215750000D03*
D13*
%TO.P,U10,8,GND_8*%
%TO.N,GND*%
X294510000Y-216185000D03*
%TO.P,U10,9,Q7_9*%
%TO.N,Net-(U10-Q7)*%
X295010000Y-216185000D03*
D14*
%TO.P,U10,10,DS_10*%
%TO.N,Net-(U10-DS)*%
X295945000Y-215750000D03*
%TO.P,U10,11,D0_11*%
%TO.N,Net-(U10-D0)*%
X295945000Y-215250000D03*
%TO.P,U10,12,D1_12*%
%TO.N,Net-(U10-D1)*%
X295945000Y-214750000D03*
%TO.P,U10,13,D2_13*%
%TO.N,Net-(U10-D2)*%
X295945000Y-214250000D03*
%TO.P,U10,14,D3_14*%
%TO.N,Net-(U10-D3)*%
X295945000Y-213750000D03*
%TO.P,U10,15,~{CE}_15*%
%TO.N,GND*%
X295945000Y-213250000D03*
D13*
%TO.P,U10,16,VCC_16*%
%TO.N,+3.3V*%
X295010000Y-212815000D03*
D15*
%TO.P,U10,17,EP_17*%
%TO.N,unconnected-(U10-EP-Pad17)*%
X294760000Y-214500000D03*
%TD*%
D11*
%TO.P,U93,1,VDD_1*%
%TO.N,+3.3V*%
X190675000Y-295500000D03*
%TO.P,U93,2,GND_2*%
%TO.N,GND*%
X190675000Y-297400000D03*
%TO.P,U93,3,OUTPUT_3*%
%TO.N,Net-(U7-D1)*%
X193075000Y-296450000D03*
%TD*%
D12*
%TO.P,U66,1,DI_1*%
%TO.N,Net-(U62-DO)*%
X339525000Y-222850000D03*
%TO.P,U66,2,CI_2*%
%TO.N,Net-(U62-CO)*%
X339525000Y-224450000D03*
%TO.P,U66,3,GND_3*%
%TO.N,GND*%
X339525000Y-226050000D03*
%TO.P,U66,4,VCC_4*%
%TO.N,+5V*%
X343825000Y-226050000D03*
%TO.P,U66,5,CO_5*%
%TO.N,Net-(U66-CO)*%
X343825000Y-224450000D03*
%TO.P,U66,6,DO_6*%
%TO.N,Net-(U66-DO)*%
X343825000Y-222850000D03*
%TD*%
D11*
%TO.P,U96,1,VDD_1*%
%TO.N,+3.3V*%
X226825000Y-115550000D03*
%TO.P,U96,2,GND_2*%
%TO.N,GND*%
X226825000Y-117450000D03*
%TO.P,U96,3,OUTPUT_3*%
%TO.N,Net-(U8-D6)*%
X229225000Y-116500000D03*
%TD*%
%TO.P,U134,1,VDD_1*%
%TO.N,+3.3V*%
X369825000Y-331550000D03*
%TO.P,U134,2,GND_2*%
%TO.N,GND*%
X369825000Y-333450000D03*
%TO.P,U134,3,OUTPUT_3*%
%TO.N,Net-(U12-D0)*%
X372225000Y-332500000D03*
%TD*%
D19*
%TO.P,100nF,1*%
%TO.N,GND*%
X297475000Y-211317500D03*
%TO.P,100nF,2*%
%TO.N,+3.3V*%
X295925000Y-211317500D03*
%TD*%
D11*
%TO.P,U99,1,VDD_1*%
%TO.N,+3.3V*%
X226725000Y-223750000D03*
%TO.P,U99,2,GND_2*%
%TO.N,GND*%
X226725000Y-225650000D03*
%TO.P,U99,3,OUTPUT_3*%
%TO.N,Net-(U8-D3)*%
X229125000Y-224700000D03*
%TD*%
%TO.P,U84,1,VDD_1*%
%TO.N,+3.3V*%
X154475000Y-295650000D03*
%TO.P,U84,2,GND_2*%
%TO.N,GND*%
X154475000Y-297550000D03*
%TO.P,U84,3,OUTPUT_3*%
%TO.N,Net-(U6-D1)*%
X156875000Y-296600000D03*
%TD*%
%TO.P,U138,1,VDD_1*%
%TO.N,+3.3V*%
X405875000Y-187650000D03*
%TO.P,U138,2,GND_2*%
%TO.N,GND*%
X405875000Y-189550000D03*
%TO.P,U138,3,OUTPUT_3*%
%TO.N,Net-(U13-D4)*%
X408275000Y-188600000D03*
%TD*%
%TO.P,U136,1,VDD_1*%
%TO.N,+3.3V*%
X406392500Y-115575000D03*
%TO.P,U136,2,GND_2*%
%TO.N,GND*%
X406392500Y-117475000D03*
%TO.P,U136,3,OUTPUT_3*%
%TO.N,Net-(U13-D6)*%
X408792500Y-116525000D03*
%TD*%
D12*
%TO.P,U38,1,DI_1*%
%TO.N,Net-(U36-DO)*%
X303525000Y-150850000D03*
%TO.P,U38,2,CI_2*%
%TO.N,Net-(U36-CO)*%
X303525000Y-152450000D03*
%TO.P,U38,3,GND_3*%
%TO.N,GND*%
X303525000Y-154050000D03*
%TO.P,U38,4,VCC_4*%
%TO.N,+5V*%
X307825000Y-154050000D03*
%TO.P,U38,5,CO_5*%
%TO.N,Net-(U38-CO)*%
X307825000Y-152450000D03*
%TO.P,U38,6,DO_6*%
%TO.N,Net-(U38-DO)*%
X307825000Y-150850000D03*
%TD*%
%TO.P,U14,1,DI_1*%
%TO.N,/Upper PCB/MOSI*%
X159525000Y-78850000D03*
%TO.P,U14,2,CI_2*%
%TO.N,/Upper PCB/CLK 5V*%
X159525000Y-80450000D03*
%TO.P,U14,3,GND_3*%
%TO.N,GND*%
X159525000Y-82050000D03*
%TO.P,U14,4,VCC_4*%
%TO.N,+5V*%
X163825000Y-82050000D03*
%TO.P,U14,5,CO_5*%
%TO.N,Net-(U14-CO)*%
X163825000Y-80450000D03*
%TO.P,U14,6,DO_6*%
%TO.N,Net-(U14-DO)*%
X163825000Y-78850000D03*
%TD*%
%TO.P,U55,1,DI_1*%
%TO.N,Net-(U51-DO)*%
X231525000Y-258850000D03*
%TO.P,U55,2,CI_2*%
%TO.N,Net-(U51-CO)*%
X231525000Y-260450000D03*
%TO.P,U55,3,GND_3*%
%TO.N,GND*%
X231525000Y-262050000D03*
%TO.P,U55,4,VCC_4*%
%TO.N,+5V*%
X235825000Y-262050000D03*
%TO.P,U55,5,CO_5*%
%TO.N,Net-(U55-CO)*%
X235825000Y-260450000D03*
%TO.P,U55,6,DO_6*%
%TO.N,Net-(U55-DO)*%
X235825000Y-258850000D03*
%TD*%
D11*
%TO.P,U118,1,VDD_1*%
%TO.N,+3.3V*%
X297725000Y-331550000D03*
%TO.P,U118,2,GND_2*%
%TO.N,GND*%
X297725000Y-333450000D03*
%TO.P,U118,3,OUTPUT_3*%
%TO.N,Net-(U10-D0)*%
X300125000Y-332500000D03*
%TD*%
D12*
%TO.P,U25,1,DI_1*%
%TO.N,Net-(U24-DO)*%
X267525000Y-114850000D03*
%TO.P,U25,2,CI_2*%
%TO.N,Net-(U24-CO)*%
X267525000Y-116450000D03*
%TO.P,U25,3,GND_3*%
%TO.N,GND*%
X267525000Y-118050000D03*
%TO.P,U25,4,VCC_4*%
%TO.N,+5V*%
X271825000Y-118050000D03*
%TO.P,U25,5,CO_5*%
%TO.N,Net-(U25-CO)*%
X271825000Y-116450000D03*
%TO.P,U25,6,DO_6*%
%TO.N,Net-(U25-DO)*%
X271825000Y-114850000D03*
%TD*%
%TO.P,U34,1,DI_1*%
%TO.N,Net-(U32-DO)*%
X231525000Y-150850000D03*
%TO.P,U34,2,CI_2*%
%TO.N,Net-(U32-CO)*%
X231525000Y-152450000D03*
%TO.P,U34,3,GND_3*%
%TO.N,GND*%
X231525000Y-154050000D03*
%TO.P,U34,4,VCC_4*%
%TO.N,+5V*%
X235825000Y-154050000D03*
%TO.P,U34,5,CO_5*%
%TO.N,Net-(U34-CO)*%
X235825000Y-152450000D03*
%TO.P,U34,6,DO_6*%
%TO.N,Net-(U34-DO)*%
X235825000Y-150850000D03*
%TD*%
D20*
%TO.P,100nF,1*%
%TO.N,GND*%
X303425000Y-197000000D03*
%TO.P,100nF,2*%
%TO.N,+5V*%
X303425000Y-198550000D03*
%TD*%
D11*
%TO.P,U110,1,VDD_1*%
%TO.N,+3.3V*%
X262375000Y-331550000D03*
%TO.P,U110,2,GND_2*%
%TO.N,GND*%
X262375000Y-333450000D03*
%TO.P,U110,3,OUTPUT_3*%
%TO.N,Net-(U110-OUTPUT)*%
X264775000Y-332500000D03*
%TD*%
%TO.P,U137,1,VDD_1*%
%TO.N,+3.3V*%
X406325000Y-151750000D03*
%TO.P,U137,2,GND_2*%
%TO.N,GND*%
X406325000Y-153650000D03*
%TO.P,U137,3,OUTPUT_3*%
%TO.N,Net-(U13-D5)*%
X408725000Y-152700000D03*
%TD*%
D12*
%TO.P,U65,1,DI_1*%
%TO.N,Net-(U61-DO)*%
X303525000Y-330850000D03*
%TO.P,U65,2,CI_2*%
%TO.N,Net-(U61-CO)*%
X303525000Y-332450000D03*
%TO.P,U65,3,GND_3*%
%TO.N,GND*%
X303525000Y-334050000D03*
%TO.P,U65,4,VCC_4*%
%TO.N,+5V*%
X307825000Y-334050000D03*
%TO.P,U65,5,CO_5*%
%TO.N,Net-(U65-CO)*%
X307825000Y-332450000D03*
%TO.P,U65,6,DO_6*%
%TO.N,Net-(U65-DO)*%
X307825000Y-330850000D03*
%TD*%
%TO.P,U24,1,DI_1*%
%TO.N,Net-(U23-DO)*%
X231525000Y-114850000D03*
%TO.P,U24,2,CI_2*%
%TO.N,Net-(U23-CO)*%
X231525000Y-116450000D03*
%TO.P,U24,3,GND_3*%
%TO.N,GND*%
X231525000Y-118050000D03*
%TO.P,U24,4,VCC_4*%
%TO.N,+5V*%
X235825000Y-118050000D03*
%TO.P,U24,5,CO_5*%
%TO.N,Net-(U24-CO)*%
X235825000Y-116450000D03*
%TO.P,U24,6,DO_6*%
%TO.N,Net-(U24-DO)*%
X235825000Y-114850000D03*
%TD*%
%TO.P,U74,1,DI_1*%
%TO.N,Net-(U70-DO)*%
X411525000Y-222850000D03*
%TO.P,U74,2,CI_2*%
%TO.N,Net-(U70-CO)*%
X411525000Y-224450000D03*
%TO.P,U74,3,GND_3*%
%TO.N,GND*%
X411525000Y-226050000D03*
%TO.P,U74,4,VCC_4*%
%TO.N,+5V*%
X415825000Y-226050000D03*
%TO.P,U74,5,CO_5*%
%TO.N,Net-(U47-CI)*%
X415825000Y-224450000D03*
%TO.P,U74,6,DO_6*%
%TO.N,Net-(U47-DI)*%
X415825000Y-222850000D03*
%TD*%
%TO.P,U48,1,DI_1*%
%TO.N,Net-(U48-DI)*%
X159525000Y-294850000D03*
%TO.P,U48,2,CI_2*%
%TO.N,Net-(U48-CI)*%
X159525000Y-296450000D03*
%TO.P,U48,3,GND_3*%
%TO.N,GND*%
X159525000Y-298050000D03*
%TO.P,U48,4,VCC_4*%
%TO.N,+5V*%
X163825000Y-298050000D03*
%TO.P,U48,5,CO_5*%
%TO.N,Net-(U48-CO)*%
X163825000Y-296450000D03*
%TO.P,U48,6,DO_6*%
%TO.N,Net-(U48-DO)*%
X163825000Y-294850000D03*
%TD*%
D11*
%TO.P,U92,1,VDD_1*%
%TO.N,+3.3V*%
X190625000Y-259600000D03*
%TO.P,U92,2,GND_2*%
%TO.N,GND*%
X190625000Y-261500000D03*
%TO.P,U92,3,OUTPUT_3*%
%TO.N,Net-(U7-D2)*%
X193025000Y-260550000D03*
%TD*%
D12*
%TO.P,U76,1,DI_1*%
%TO.N,Net-(U72-DO)*%
X411525000Y-294850000D03*
%TO.P,U76,2,CI_2*%
%TO.N,Net-(U72-CO)*%
X411525000Y-296450000D03*
%TO.P,U76,3,GND_3*%
%TO.N,GND*%
X411525000Y-298050000D03*
%TO.P,U76,4,VCC_4*%
%TO.N,+5V*%
X415825000Y-298050000D03*
%TO.P,U76,5,CO_5*%
%TO.N,Net-(U49-CI)*%
X415825000Y-296450000D03*
%TO.P,U76,6,DO_6*%
%TO.N,Net-(U49-DI)*%
X415825000Y-294850000D03*
%TD*%
%TO.P,U26,1,DI_1*%
%TO.N,Net-(U25-DO)*%
X303525000Y-114850000D03*
%TO.P,U26,2,CI_2*%
%TO.N,Net-(U25-CO)*%
X303525000Y-116450000D03*
%TO.P,U26,3,GND_3*%
%TO.N,GND*%
X303525000Y-118050000D03*
%TO.P,U26,4,VCC_4*%
%TO.N,+5V*%
X307825000Y-118050000D03*
%TO.P,U26,5,CO_5*%
%TO.N,Net-(U26-CO)*%
X307825000Y-116450000D03*
%TO.P,U26,6,DO_6*%
%TO.N,Net-(U26-DO)*%
X307825000Y-114850000D03*
%TD*%
%TO.P,U63,1,DI_1*%
%TO.N,Net-(U59-DO)*%
X303525000Y-258850000D03*
%TO.P,U63,2,CI_2*%
%TO.N,Net-(U59-CO)*%
X303525000Y-260450000D03*
%TO.P,U63,3,GND_3*%
%TO.N,GND*%
X303525000Y-262050000D03*
%TO.P,U63,4,VCC_4*%
%TO.N,+5V*%
X307825000Y-262050000D03*
%TO.P,U63,5,CO_5*%
%TO.N,Net-(U63-CO)*%
X307825000Y-260450000D03*
%TO.P,U63,6,DO_6*%
%TO.N,Net-(U63-DO)*%
X307825000Y-258850000D03*
%TD*%
D11*
%TO.P,U128,1,VDD_1*%
%TO.N,+3.3V*%
X370175000Y-115500000D03*
%TO.P,U128,2,GND_2*%
%TO.N,GND*%
X370175000Y-117400000D03*
%TO.P,U128,3,OUTPUT_3*%
%TO.N,Net-(U12-D6)*%
X372575000Y-116450000D03*
%TD*%
D12*
%TO.P,U62,1,DI_1*%
%TO.N,Net-(U58-DO)*%
X303525000Y-222850000D03*
%TO.P,U62,2,CI_2*%
%TO.N,Net-(U58-CO)*%
X303525000Y-224450000D03*
%TO.P,U62,3,GND_3*%
%TO.N,GND*%
X303525000Y-226050000D03*
%TO.P,U62,4,VCC_4*%
%TO.N,+5V*%
X307825000Y-226050000D03*
%TO.P,U62,5,CO_5*%
%TO.N,Net-(U62-CO)*%
X307825000Y-224450000D03*
%TO.P,U62,6,DO_6*%
%TO.N,Net-(U62-DO)*%
X307825000Y-222850000D03*
%TD*%
D11*
%TO.P,U108,1,VDD_1*%
%TO.N,+3.3V*%
X261775000Y-259600000D03*
%TO.P,U108,2,GND_2*%
%TO.N,GND*%
X261775000Y-261500000D03*
%TO.P,U108,3,OUTPUT_3*%
%TO.N,Net-(U108-OUTPUT)*%
X264175000Y-260550000D03*
%TD*%
%TO.P,U94,1,VDD_1*%
%TO.N,+3.3V*%
X190325000Y-331500000D03*
%TO.P,U94,2,GND_2*%
%TO.N,GND*%
X190325000Y-333400000D03*
%TO.P,U94,3,OUTPUT_3*%
%TO.N,Net-(U7-D0)*%
X192725000Y-332450000D03*
%TD*%
%TO.P,U102,1,VDD_1*%
%TO.N,+3.3V*%
X226475000Y-331500000D03*
%TO.P,U102,2,GND_2*%
%TO.N,GND*%
X226475000Y-333400000D03*
%TO.P,U102,3,OUTPUT_3*%
%TO.N,Net-(U102-OUTPUT)*%
X228875000Y-332450000D03*
%TD*%
%TO.P,U140,1,VDD_1*%
%TO.N,+3.3V*%
X406175000Y-259700000D03*
%TO.P,U140,2,GND_2*%
%TO.N,GND*%
X406175000Y-261600000D03*
%TO.P,U140,3,OUTPUT_3*%
%TO.N,Net-(U13-D2)*%
X408575000Y-260650000D03*
%TD*%
D12*
%TO.P,U42,1,DI_1*%
%TO.N,Net-(U40-DO)*%
X375525000Y-150850000D03*
%TO.P,U42,2,CI_2*%
%TO.N,Net-(U40-CO)*%
X375525000Y-152450000D03*
%TO.P,U42,3,GND_3*%
%TO.N,GND*%
X375525000Y-154050000D03*
%TO.P,U42,4,VCC_4*%
%TO.N,+5V*%
X379825000Y-154050000D03*
%TO.P,U42,5,CO_5*%
%TO.N,Net-(U42-CO)*%
X379825000Y-152450000D03*
%TO.P,U42,6,DO_6*%
%TO.N,Net-(U42-DO)*%
X379825000Y-150850000D03*
%TD*%
%TO.P,U72,1,DI_1*%
%TO.N,Net-(U68-DO)*%
X375525000Y-294850000D03*
%TO.P,U72,2,CI_2*%
%TO.N,Net-(U68-CO)*%
X375525000Y-296450000D03*
%TO.P,U72,3,GND_3*%
%TO.N,GND*%
X375525000Y-298050000D03*
%TO.P,U72,4,VCC_4*%
%TO.N,+5V*%
X379825000Y-298050000D03*
%TO.P,U72,5,CO_5*%
%TO.N,Net-(U72-CO)*%
X379825000Y-296450000D03*
%TO.P,U72,6,DO_6*%
%TO.N,Net-(U72-DO)*%
X379825000Y-294850000D03*
%TD*%
D18*
%TO.P,100nF,1*%
%TO.N,GND*%
X278850000Y-217607500D03*
%TO.P,100nF,2*%
%TO.N,+3.3V*%
X280400000Y-217607500D03*
%TD*%
D12*
%TO.P,U67,1,DI_1*%
%TO.N,Net-(U63-DO)*%
X339525000Y-258850000D03*
%TO.P,U67,2,CI_2*%
%TO.N,Net-(U63-CO)*%
X339525000Y-260450000D03*
%TO.P,U67,3,GND_3*%
%TO.N,GND*%
X339525000Y-262050000D03*
%TO.P,U67,4,VCC_4*%
%TO.N,+5V*%
X343825000Y-262050000D03*
%TO.P,U67,5,CO_5*%
%TO.N,Net-(U67-CO)*%
X343825000Y-260450000D03*
%TO.P,U67,6,DO_6*%
%TO.N,Net-(U67-DO)*%
X343825000Y-258850000D03*
%TD*%
D11*
%TO.P,U115,1,VDD_1*%
%TO.N,+3.3V*%
X298225000Y-223550000D03*
%TO.P,U115,2,GND_2*%
%TO.N,GND*%
X298225000Y-225450000D03*
%TO.P,U115,3,OUTPUT_3*%
%TO.N,Net-(U10-D3)*%
X300625000Y-224500000D03*
%TD*%
%TO.P,U141,1,VDD_1*%
%TO.N,+3.3V*%
X406025000Y-295650000D03*
%TO.P,U141,2,GND_2*%
%TO.N,GND*%
X406025000Y-297550000D03*
%TO.P,U141,3,OUTPUT_3*%
%TO.N,Net-(U13-D1)*%
X408425000Y-296600000D03*
%TD*%
%TO.P,U120,1,VDD_1*%
%TO.N,+3.3V*%
X334775000Y-115500000D03*
%TO.P,U120,2,GND_2*%
%TO.N,GND*%
X334775000Y-117400000D03*
%TO.P,U120,3,OUTPUT_3*%
%TO.N,Net-(U11-D6)*%
X337175000Y-116450000D03*
%TD*%
D12*
%TO.P,U52,1,DI_1*%
%TO.N,Net-(U48-DO)*%
X195525000Y-294850000D03*
%TO.P,U52,2,CI_2*%
%TO.N,Net-(U48-CO)*%
X195525000Y-296450000D03*
%TO.P,U52,3,GND_3*%
%TO.N,GND*%
X195525000Y-298050000D03*
%TO.P,U52,4,VCC_4*%
%TO.N,+5V*%
X199825000Y-298050000D03*
%TO.P,U52,5,CO_5*%
%TO.N,Net-(U52-CO)*%
X199825000Y-296450000D03*
%TO.P,U52,6,DO_6*%
%TO.N,Net-(U52-DO)*%
X199825000Y-294850000D03*
%TD*%
D11*
%TO.P,U111,1,VDD_1*%
%TO.N,+3.3V*%
X298275000Y-79500000D03*
%TO.P,U111,2,GND_2*%
%TO.N,GND*%
X298275000Y-81400000D03*
%TO.P,U111,3,OUTPUT_3*%
%TO.N,Net-(U10-D7)*%
X300675000Y-80450000D03*
%TD*%
%TO.P,U112,1,VDD_1*%
%TO.N,+3.3V*%
X298687500Y-115450000D03*
%TO.P,U112,2,GND_2*%
%TO.N,GND*%
X298687500Y-117350000D03*
%TO.P,U112,3,OUTPUT_3*%
%TO.N,Net-(U10-D6)*%
X301087500Y-116400000D03*
%TD*%
D12*
%TO.P,U29,1,DI_1*%
%TO.N,Net-(U28-DO)*%
X411525000Y-114850000D03*
%TO.P,U29,2,CI_2*%
%TO.N,Net-(U28-CO)*%
X411525000Y-116450000D03*
%TO.P,U29,3,GND_3*%
%TO.N,GND*%
X411525000Y-118050000D03*
%TO.P,U29,4,VCC_4*%
%TO.N,+5V*%
X415825000Y-118050000D03*
%TO.P,U29,5,CO_5*%
%TO.N,Net-(U29-CO)*%
X415825000Y-116450000D03*
%TO.P,U29,6,DO_6*%
%TO.N,Net-(U29-DO)*%
X415825000Y-114850000D03*
%TD*%
%TO.P,U53,1,DI_1*%
%TO.N,Net-(U49-DO)*%
X195525000Y-330850000D03*
%TO.P,U53,2,CI_2*%
%TO.N,Net-(U49-CO)*%
X195525000Y-332450000D03*
%TO.P,U53,3,GND_3*%
%TO.N,GND*%
X195525000Y-334050000D03*
%TO.P,U53,4,VCC_4*%
%TO.N,+5V*%
X199825000Y-334050000D03*
%TO.P,U53,5,CO_5*%
%TO.N,Net-(U53-CO)*%
X199825000Y-332450000D03*
%TO.P,U53,6,DO_6*%
%TO.N,Net-(U53-DO)*%
X199825000Y-330850000D03*
%TD*%
%TO.P,U23,1,DI_1*%
%TO.N,Net-(U22-DO)*%
X195525000Y-114850000D03*
%TO.P,U23,2,CI_2*%
%TO.N,Net-(U22-CO)*%
X195525000Y-116450000D03*
%TO.P,U23,3,GND_3*%
%TO.N,GND*%
X195525000Y-118050000D03*
%TO.P,U23,4,VCC_4*%
%TO.N,+5V*%
X199825000Y-118050000D03*
%TO.P,U23,5,CO_5*%
%TO.N,Net-(U23-CO)*%
X199825000Y-116450000D03*
%TO.P,U23,6,DO_6*%
%TO.N,Net-(U23-DO)*%
X199825000Y-114850000D03*
%TD*%
D11*
%TO.P,U139,1,VDD_1*%
%TO.N,+3.3V*%
X405875000Y-223700000D03*
%TO.P,U139,2,GND_2*%
%TO.N,GND*%
X405875000Y-225600000D03*
%TO.P,U139,3,OUTPUT_3*%
%TO.N,Net-(U13-D3)*%
X408275000Y-224650000D03*
%TD*%
D12*
%TO.P,U49,1,DI_1*%
%TO.N,Net-(U49-DI)*%
X159525000Y-330850000D03*
%TO.P,U49,2,CI_2*%
%TO.N,Net-(U49-CI)*%
X159525000Y-332450000D03*
%TO.P,U49,3,GND_3*%
%TO.N,GND*%
X159525000Y-334050000D03*
%TO.P,U49,4,VCC_4*%
%TO.N,+5V*%
X163825000Y-334050000D03*
%TO.P,U49,5,CO_5*%
%TO.N,Net-(U49-CO)*%
X163825000Y-332450000D03*
%TO.P,U49,6,DO_6*%
%TO.N,Net-(U49-DO)*%
X163825000Y-330850000D03*
%TD*%
D13*
%TO.P,U13,1,~{PL}_1*%
%TO.N,/Upper PCB/PL*%
X395775000Y-213415000D03*
D14*
%TO.P,U13,2,CP_2*%
%TO.N,/Upper PCB/CP*%
X394840000Y-213850000D03*
%TO.P,U13,3,D4_3*%
%TO.N,Net-(U13-D4)*%
X394840000Y-214350000D03*
%TO.P,U13,4,D5_4*%
%TO.N,Net-(U13-D5)*%
X394840000Y-214850000D03*
%TO.P,U13,5,D6_5*%
%TO.N,Net-(U13-D6)*%
X394840000Y-215350000D03*
%TO.P,U13,6,D7_6*%
%TO.N,Net-(U13-D7)*%
X394840000Y-215850000D03*
%TO.P,U13,7,~{Q7}_7*%
%TO.N,unconnected-(U13-~{Q7}-Pad7)*%
X394840000Y-216350000D03*
D13*
%TO.P,U13,8,GND_8*%
%TO.N,GND*%
X395775000Y-216785000D03*
%TO.P,U13,9,Q7_9*%
%TO.N,/Upper PCB/Q7*%
X396275000Y-216785000D03*
D14*
%TO.P,U13,10,DS_10*%
%TO.N,Net-(U12-Q7)*%
X397210000Y-216350000D03*
%TO.P,U13,11,D0_11*%
%TO.N,Net-(U13-D0)*%
X397210000Y-215850000D03*
%TO.P,U13,12,D1_12*%
%TO.N,Net-(U13-D1)*%
X397210000Y-215350000D03*
%TO.P,U13,13,D2_13*%
%TO.N,Net-(U13-D2)*%
X397210000Y-214850000D03*
%TO.P,U13,14,D3_14*%
%TO.N,Net-(U13-D3)*%
X397210000Y-214350000D03*
%TO.P,U13,15,~{CE}_15*%
%TO.N,GND*%
X397210000Y-213850000D03*
D13*
%TO.P,U13,16,VCC_16*%
%TO.N,+3.3V*%
X396275000Y-213415000D03*
D15*
%TO.P,U13,17,EP_17*%
%TO.N,unconnected-(U13-EP-Pad17)*%
X396025000Y-215100000D03*
%TD*%
D12*
%TO.P,U28,1,DI_1*%
%TO.N,Net-(U27-DO)*%
X375525000Y-114850000D03*
%TO.P,U28,2,CI_2*%
%TO.N,Net-(U27-CO)*%
X375525000Y-116450000D03*
%TO.P,U28,3,GND_3*%
%TO.N,GND*%
X375525000Y-118050000D03*
%TO.P,U28,4,VCC_4*%
%TO.N,+5V*%
X379825000Y-118050000D03*
%TO.P,U28,5,CO_5*%
%TO.N,Net-(U28-CO)*%
X379825000Y-116450000D03*
%TO.P,U28,6,DO_6*%
%TO.N,Net-(U28-DO)*%
X379825000Y-114850000D03*
%TD*%
%TO.P,U39,1,DI_1*%
%TO.N,Net-(U37-DO)*%
X303525000Y-186850000D03*
%TO.P,U39,2,CI_2*%
%TO.N,Net-(U37-CO)*%
X303525000Y-188450000D03*
%TO.P,U39,3,GND_3*%
%TO.N,GND*%
X303525000Y-190050000D03*
%TO.P,U39,4,VCC_4*%
%TO.N,+5V*%
X307825000Y-190050000D03*
%TO.P,U39,5,CO_5*%
%TO.N,Net-(U39-CO)*%
X307825000Y-188450000D03*
%TO.P,U39,6,DO_6*%
%TO.N,Net-(U39-DO)*%
X307825000Y-186850000D03*
%TD*%
%TO.P,U19,1,DI_1*%
%TO.N,Net-(U18-DO)*%
X339737500Y-78850000D03*
%TO.P,U19,2,CI_2*%
%TO.N,Net-(U18-CO)*%
X339737500Y-80450000D03*
%TO.P,U19,3,GND_3*%
%TO.N,GND*%
X339737500Y-82050000D03*
%TO.P,U19,4,VCC_4*%
%TO.N,+5V*%
X344037500Y-82050000D03*
%TO.P,U19,5,CO_5*%
%TO.N,Net-(U19-CO)*%
X344037500Y-80450000D03*
%TO.P,U19,6,DO_6*%
%TO.N,Net-(U19-DO)*%
X344037500Y-78850000D03*
%TD*%
%TO.P,U22,1,DI_1*%
%TO.N,Net-(U21-DO)*%
X159525000Y-114850000D03*
%TO.P,U22,2,CI_2*%
%TO.N,Net-(U21-CO)*%
X159525000Y-116450000D03*
%TO.P,U22,3,GND_3*%
%TO.N,GND*%
X159525000Y-118050000D03*
%TO.P,U22,4,VCC_4*%
%TO.N,+5V*%
X163825000Y-118050000D03*
%TO.P,U22,5,CO_5*%
%TO.N,Net-(U22-CO)*%
X163825000Y-116450000D03*
%TO.P,U22,6,DO_6*%
%TO.N,Net-(U22-DO)*%
X163825000Y-114850000D03*
%TD*%
D11*
%TO.P,U89,1,VDD_1*%
%TO.N,+3.3V*%
X190595000Y-151725000D03*
%TO.P,U89,2,GND_2*%
%TO.N,GND*%
X190595000Y-153625000D03*
%TO.P,U89,3,OUTPUT_3*%
%TO.N,Net-(U7-D5)*%
X192995000Y-152675000D03*
%TD*%
D12*
%TO.P,U54,1,DI_1*%
%TO.N,Net-(U50-DO)*%
X231525000Y-222850000D03*
%TO.P,U54,2,CI_2*%
%TO.N,Net-(U50-CO)*%
X231525000Y-224450000D03*
%TO.P,U54,3,GND_3*%
%TO.N,GND*%
X231525000Y-226050000D03*
%TO.P,U54,4,VCC_4*%
%TO.N,+5V*%
X235825000Y-226050000D03*
%TO.P,U54,5,CO_5*%
%TO.N,Net-(U54-CO)*%
X235825000Y-224450000D03*
%TO.P,U54,6,DO_6*%
%TO.N,Net-(U54-DO)*%
X235825000Y-222850000D03*
%TD*%
%TO.P,U68,1,DI_1*%
%TO.N,Net-(U64-DO)*%
X339525000Y-294850000D03*
%TO.P,U68,2,CI_2*%
%TO.N,Net-(U64-CO)*%
X339525000Y-296450000D03*
%TO.P,U68,3,GND_3*%
%TO.N,GND*%
X339525000Y-298050000D03*
%TO.P,U68,4,VCC_4*%
%TO.N,+5V*%
X343825000Y-298050000D03*
%TO.P,U68,5,CO_5*%
%TO.N,Net-(U68-CO)*%
X343825000Y-296450000D03*
%TO.P,U68,6,DO_6*%
%TO.N,Net-(U68-DO)*%
X343825000Y-294850000D03*
%TD*%
%TO.P,U37,1,DI_1*%
%TO.N,Net-(U35-DO)*%
X267525000Y-186850000D03*
%TO.P,U37,2,CI_2*%
%TO.N,Net-(U35-CO)*%
X267525000Y-188450000D03*
%TO.P,U37,3,GND_3*%
%TO.N,GND*%
X267525000Y-190050000D03*
%TO.P,U37,4,VCC_4*%
%TO.N,+5V*%
X271825000Y-190050000D03*
%TO.P,U37,5,CO_5*%
%TO.N,Net-(U37-CO)*%
X271825000Y-188450000D03*
%TO.P,U37,6,DO_6*%
%TO.N,Net-(U37-DO)*%
X271825000Y-186850000D03*
%TD*%
%TO.P,U59,1,DI_1*%
%TO.N,Net-(U55-DO)*%
X267525000Y-258850000D03*
%TO.P,U59,2,CI_2*%
%TO.N,Net-(U55-CO)*%
X267525000Y-260450000D03*
%TO.P,U59,3,GND_3*%
%TO.N,GND*%
X267525000Y-262050000D03*
%TO.P,U59,4,VCC_4*%
%TO.N,+5V*%
X271825000Y-262050000D03*
%TO.P,U59,5,CO_5*%
%TO.N,Net-(U59-CO)*%
X271825000Y-260450000D03*
%TO.P,U59,6,DO_6*%
%TO.N,Net-(U59-DO)*%
X271825000Y-258850000D03*
%TD*%
%TO.P,U27,1,DI_1*%
%TO.N,Net-(U26-DO)*%
X339525000Y-114850000D03*
%TO.P,U27,2,CI_2*%
%TO.N,Net-(U26-CO)*%
X339525000Y-116450000D03*
%TO.P,U27,3,GND_3*%
%TO.N,GND*%
X339525000Y-118050000D03*
%TO.P,U27,4,VCC_4*%
%TO.N,+5V*%
X343825000Y-118050000D03*
%TO.P,U27,5,CO_5*%
%TO.N,Net-(U27-CO)*%
X343825000Y-116450000D03*
%TO.P,U27,6,DO_6*%
%TO.N,Net-(U27-DO)*%
X343825000Y-114850000D03*
%TD*%
%TO.P,U71,1,DI_1*%
%TO.N,Net-(U67-DO)*%
X375525000Y-258850000D03*
%TO.P,U71,2,CI_2*%
%TO.N,Net-(U67-CO)*%
X375525000Y-260450000D03*
%TO.P,U71,3,GND_3*%
%TO.N,GND*%
X375525000Y-262050000D03*
%TO.P,U71,4,VCC_4*%
%TO.N,+5V*%
X379825000Y-262050000D03*
%TO.P,U71,5,CO_5*%
%TO.N,Net-(U71-CO)*%
X379825000Y-260450000D03*
%TO.P,U71,6,DO_6*%
%TO.N,Net-(U71-DO)*%
X379825000Y-258850000D03*
%TD*%
%TO.P,U36,1,DI_1*%
%TO.N,Net-(U34-DO)*%
X267525000Y-150850000D03*
%TO.P,U36,2,CI_2*%
%TO.N,Net-(U34-CO)*%
X267525000Y-152450000D03*
%TO.P,U36,3,GND_3*%
%TO.N,GND*%
X267525000Y-154050000D03*
%TO.P,U36,4,VCC_4*%
%TO.N,+5V*%
X271825000Y-154050000D03*
%TO.P,U36,5,CO_5*%
%TO.N,Net-(U36-CO)*%
X271825000Y-152450000D03*
%TO.P,U36,6,DO_6*%
%TO.N,Net-(U36-DO)*%
X271825000Y-150850000D03*
%TD*%
D11*
%TO.P,U119,1,VDD_1*%
%TO.N,+3.3V*%
X334627500Y-79825000D03*
%TO.P,U119,2,GND_2*%
%TO.N,GND*%
X334627500Y-81725000D03*
%TO.P,U119,3,OUTPUT_3*%
%TO.N,Net-(U11-D7)*%
X337027500Y-80775000D03*
%TD*%
%TO.P,U132,1,VDD_1*%
%TO.N,+3.3V*%
X370125000Y-259750000D03*
%TO.P,U132,2,GND_2*%
%TO.N,GND*%
X370125000Y-261650000D03*
%TO.P,U132,3,OUTPUT_3*%
%TO.N,Net-(U12-D2)*%
X372525000Y-260700000D03*
%TD*%
D16*
%TO.P,U7,1,~{PL}_1*%
%TO.N,/Upper PCB/PL*%
X211510000Y-217985000D03*
D17*
%TO.P,U7,2,CP_2*%
%TO.N,/Upper PCB/CP*%
X212445000Y-217550000D03*
%TO.P,U7,3,D4_3*%
%TO.N,Net-(U7-D4)*%
X212445000Y-217050000D03*
%TO.P,U7,4,D5_4*%
%TO.N,Net-(U7-D5)*%
X212445000Y-216550000D03*
%TO.P,U7,5,D6_5*%
%TO.N,Net-(U7-D6)*%
X212445000Y-216050000D03*
%TO.P,U7,6,D7_6*%
%TO.N,Net-(U7-D7)*%
X212445000Y-215550000D03*
%TO.P,U7,7,~{Q7}_7*%
%TO.N,unconnected-(U7-~{Q7}-Pad7)*%
X212445000Y-215050000D03*
D16*
%TO.P,U7,8,GND_8*%
%TO.N,GND*%
X211510000Y-214615000D03*
%TO.P,U7,9,Q7_9*%
%TO.N,Net-(U7-Q7)*%
X211010000Y-214615000D03*
D17*
%TO.P,U7,10,DS_10*%
%TO.N,Net-(U6-Q7)*%
X210075000Y-215050000D03*
%TO.P,U7,11,D0_11*%
%TO.N,Net-(U7-D0)*%
X210075000Y-215550000D03*
%TO.P,U7,12,D1_12*%
%TO.N,Net-(U7-D1)*%
X210075000Y-216050000D03*
%TO.P,U7,13,D2_13*%
%TO.N,Net-(U7-D2)*%
X210075000Y-216550000D03*
%TO.P,U7,14,D3_14*%
%TO.N,Net-(U7-D3)*%
X210075000Y-217050000D03*
%TO.P,U7,15,~{CE}_15*%
%TO.N,GND*%
X210075000Y-217550000D03*
D16*
%TO.P,U7,16,VCC_16*%
%TO.N,+3.3V*%
X211010000Y-217985000D03*
D15*
%TO.P,U7,17,EP_17*%
%TO.N,unconnected-(U7-EP-Pad17)*%
X211260000Y-216300000D03*
%TD*%
D11*
%TO.P,U85,1,VDD_1*%
%TO.N,+3.3V*%
X154825000Y-259500000D03*
%TO.P,U85,2,GND_2*%
%TO.N,GND*%
X154825000Y-261400000D03*
%TO.P,U85,3,OUTPUT_3*%
%TO.N,Net-(U6-D2)*%
X157225000Y-260450000D03*
%TD*%
D12*
%TO.P,U64,1,DI_1*%
%TO.N,Net-(U60-DO)*%
X303525000Y-294850000D03*
%TO.P,U64,2,CI_2*%
%TO.N,Net-(U60-CO)*%
X303525000Y-296450000D03*
%TO.P,U64,3,GND_3*%
%TO.N,GND*%
X303525000Y-298050000D03*
%TO.P,U64,4,VCC_4*%
%TO.N,+5V*%
X307825000Y-298050000D03*
%TO.P,U64,5,CO_5*%
%TO.N,Net-(U64-CO)*%
X307825000Y-296450000D03*
%TO.P,U64,6,DO_6*%
%TO.N,Net-(U64-DO)*%
X307825000Y-294850000D03*
%TD*%
%TO.P,U32,1,DI_1*%
%TO.N,Net-(U30-DO)*%
X195525000Y-150850000D03*
%TO.P,U32,2,CI_2*%
%TO.N,Net-(U30-CO)*%
X195525000Y-152450000D03*
%TO.P,U32,3,GND_3*%
%TO.N,GND*%
X195525000Y-154050000D03*
%TO.P,U32,4,VCC_4*%
%TO.N,+5V*%
X199825000Y-154050000D03*
%TO.P,U32,5,CO_5*%
%TO.N,Net-(U32-CO)*%
X199825000Y-152450000D03*
%TO.P,U32,6,DO_6*%
%TO.N,Net-(U32-DO)*%
X199825000Y-150850000D03*
%TD*%
%TO.P,U58,1,DI_1*%
%TO.N,Net-(U54-DO)*%
X267525000Y-222850000D03*
%TO.P,U58,2,CI_2*%
%TO.N,Net-(U54-CO)*%
X267525000Y-224450000D03*
%TO.P,U58,3,GND_3*%
%TO.N,GND*%
X267525000Y-226050000D03*
%TO.P,U58,4,VCC_4*%
%TO.N,+5V*%
X271825000Y-226050000D03*
%TO.P,U58,5,CO_5*%
%TO.N,Net-(U58-CO)*%
X271825000Y-224450000D03*
%TO.P,U58,6,DO_6*%
%TO.N,Net-(U58-DO)*%
X271825000Y-222850000D03*
%TD*%
D19*
%TO.P,100nF,1*%
%TO.N,GND*%
X399000000Y-211917500D03*
%TO.P,100nF,2*%
%TO.N,+3.3V*%
X397450000Y-211917500D03*
%TD*%
D12*
%TO.P,U21,1,DI_1*%
%TO.N,Net-(U20-DO)*%
X411525000Y-78850000D03*
%TO.P,U21,2,CI_2*%
%TO.N,Net-(U20-CO)*%
X411525000Y-80450000D03*
%TO.P,U21,3,GND_3*%
%TO.N,GND*%
X411525000Y-82050000D03*
%TO.P,U21,4,VCC_4*%
%TO.N,+5V*%
X415825000Y-82050000D03*
%TO.P,U21,5,CO_5*%
%TO.N,Net-(U21-CO)*%
X415825000Y-80450000D03*
%TO.P,U21,6,DO_6*%
%TO.N,Net-(U21-DO)*%
X415825000Y-78850000D03*
%TD*%
%TO.P,U70,1,DI_1*%
%TO.N,Net-(U66-DO)*%
X375525000Y-222850000D03*
%TO.P,U70,2,CI_2*%
%TO.N,Net-(U66-CO)*%
X375525000Y-224450000D03*
%TO.P,U70,3,GND_3*%
%TO.N,GND*%
X375525000Y-226050000D03*
%TO.P,U70,4,VCC_4*%
%TO.N,+5V*%
X379825000Y-226050000D03*
%TO.P,U70,5,CO_5*%
%TO.N,Net-(U70-CO)*%
X379825000Y-224450000D03*
%TO.P,U70,6,DO_6*%
%TO.N,Net-(U70-DO)*%
X379825000Y-222850000D03*
%TD*%
%TO.P,U17,1,DI_1*%
%TO.N,Net-(U16-DO)*%
X267525000Y-78850000D03*
%TO.P,U17,2,CI_2*%
%TO.N,Net-(U16-CO)*%
X267525000Y-80450000D03*
%TO.P,U17,3,GND_3*%
%TO.N,GND*%
X267525000Y-82050000D03*
%TO.P,U17,4,VCC_4*%
%TO.N,+5V*%
X271825000Y-82050000D03*
%TO.P,U17,5,CO_5*%
%TO.N,Net-(U17-CO)*%
X271825000Y-80450000D03*
%TO.P,U17,6,DO_6*%
%TO.N,Net-(U17-DO)*%
X271825000Y-78850000D03*
%TD*%
D11*
%TO.P,U109,1,VDD_1*%
%TO.N,+3.3V*%
X262087500Y-295600000D03*
%TO.P,U109,2,GND_2*%
%TO.N,GND*%
X262087500Y-297500000D03*
%TO.P,U109,3,OUTPUT_3*%
%TO.N,Net-(U109-OUTPUT)*%
X264487500Y-296550000D03*
%TD*%
%TO.P,U90,1,VDD_1*%
%TO.N,+3.3V*%
X190125000Y-187500000D03*
%TO.P,U90,2,GND_2*%
%TO.N,GND*%
X190125000Y-189400000D03*
%TO.P,U90,3,OUTPUT_3*%
%TO.N,Net-(U7-D4)*%
X192525000Y-188450000D03*
%TD*%
D12*
%TO.P,U18,1,DI_1*%
%TO.N,Net-(U17-DO)*%
X303525000Y-78850000D03*
%TO.P,U18,2,CI_2*%
%TO.N,Net-(U17-CO)*%
X303525000Y-80450000D03*
%TO.P,U18,3,GND_3*%
%TO.N,GND*%
X303525000Y-82050000D03*
%TO.P,U18,4,VCC_4*%
%TO.N,+5V*%
X307825000Y-82050000D03*
%TO.P,U18,5,CO_5*%
%TO.N,Net-(U18-CO)*%
X307825000Y-80450000D03*
%TO.P,U18,6,DO_6*%
%TO.N,Net-(U18-DO)*%
X307825000Y-78850000D03*
%TD*%
%TO.P,U30,1,DI_1*%
%TO.N,Net-(U29-DO)*%
X159525000Y-150850000D03*
%TO.P,U30,2,CI_2*%
%TO.N,Net-(U29-CO)*%
X159525000Y-152450000D03*
%TO.P,U30,3,GND_3*%
%TO.N,GND*%
X159525000Y-154050000D03*
%TO.P,U30,4,VCC_4*%
%TO.N,+5V*%
X163825000Y-154050000D03*
%TO.P,U30,5,CO_5*%
%TO.N,Net-(U30-CO)*%
X163825000Y-152450000D03*
%TO.P,U30,6,DO_6*%
%TO.N,Net-(U30-DO)*%
X163825000Y-150850000D03*
%TD*%
D11*
%TO.P,U107,1,VDD_1*%
%TO.N,+3.3V*%
X262575000Y-223550000D03*
%TO.P,U107,2,GND_2*%
%TO.N,GND*%
X262575000Y-225450000D03*
%TO.P,U107,3,OUTPUT_3*%
%TO.N,Net-(U107-OUTPUT)*%
X264975000Y-224500000D03*
%TD*%
D12*
%TO.P,U45,1,DI_1*%
%TO.N,Net-(U43-DO)*%
X411525000Y-186850000D03*
%TO.P,U45,2,CI_2*%
%TO.N,Net-(U43-CO)*%
X411525000Y-188450000D03*
%TO.P,U45,3,GND_3*%
%TO.N,GND*%
X411525000Y-190050000D03*
%TO.P,U45,4,VCC_4*%
%TO.N,+5V*%
X415825000Y-190050000D03*
%TO.P,U45,5,CO_5*%
%TO.N,Net-(U45-CO)*%
X415825000Y-188450000D03*
%TO.P,U45,6,DO_6*%
%TO.N,Net-(U45-DO)*%
X415825000Y-186850000D03*
%TD*%
D16*
%TO.P,U8,1,~{PL}_1*%
%TO.N,/Upper PCB/PL*%
X247710000Y-217435000D03*
D17*
%TO.P,U8,2,CP_2*%
%TO.N,/Upper PCB/CP*%
X248645000Y-217000000D03*
%TO.P,U8,3,D4_3*%
%TO.N,Net-(U8-D4)*%
X248645000Y-216500000D03*
%TO.P,U8,4,D5_4*%
%TO.N,Net-(U8-D5)*%
X248645000Y-216000000D03*
%TO.P,U8,5,D6_5*%
%TO.N,Net-(U8-D6)*%
X248645000Y-215500000D03*
%TO.P,U8,6,D7_6*%
%TO.N,Net-(U8-D7)*%
X248645000Y-215000000D03*
%TO.P,U8,7,~{Q7}_7*%
%TO.N,unconnected-(U8-~{Q7}-Pad7)*%
X248645000Y-214500000D03*
D16*
%TO.P,U8,8,GND_8*%
%TO.N,GND*%
X247710000Y-214065000D03*
%TO.P,U8,9,Q7_9*%
%TO.N,Net-(U8-Q7)*%
X247210000Y-214065000D03*
D17*
%TO.P,U8,10,DS_10*%
%TO.N,Net-(U7-Q7)*%
X246275000Y-214500000D03*
%TO.P,U8,11,D0_11*%
%TO.N,Net-(U102-OUTPUT)*%
X246275000Y-215000000D03*
%TO.P,U8,12,D1_12*%
%TO.N,Net-(U101-OUTPUT)*%
X246275000Y-215500000D03*
%TO.P,U8,13,D2_13*%
%TO.N,Net-(U100-OUTPUT)*%
X246275000Y-216000000D03*
%TO.P,U8,14,D3_14*%
%TO.N,Net-(U8-D3)*%
X246275000Y-216500000D03*
%TO.P,U8,15,~{CE}_15*%
%TO.N,GND*%
X246275000Y-217000000D03*
D16*
%TO.P,U8,16,VCC_16*%
%TO.N,+3.3V*%
X247210000Y-217435000D03*
D15*
%TO.P,U8,17,EP_17*%
%TO.N,unconnected-(U8-EP-Pad17)*%
X247460000Y-215750000D03*
%TD*%
D12*
%TO.P,U50,1,DI_1*%
%TO.N,Net-(U46-DO)*%
X195525000Y-222850000D03*
%TO.P,U50,2,CI_2*%
%TO.N,Net-(U46-CO)*%
X195525000Y-224450000D03*
%TO.P,U50,3,GND_3*%
%TO.N,GND*%
X195525000Y-226050000D03*
%TO.P,U50,4,VCC_4*%
%TO.N,+5V*%
X199825000Y-226050000D03*
%TO.P,U50,5,CO_5*%
%TO.N,Net-(U50-CO)*%
X199825000Y-224450000D03*
%TO.P,U50,6,DO_6*%
%TO.N,Net-(U50-DO)*%
X199825000Y-222850000D03*
%TD*%
D11*
%TO.P,U91,1,VDD_1*%
%TO.N,+3.3V*%
X190775000Y-223550000D03*
%TO.P,U91,2,GND_2*%
%TO.N,GND*%
X190775000Y-225450000D03*
%TO.P,U91,3,OUTPUT_3*%
%TO.N,Net-(U7-D3)*%
X193175000Y-224500000D03*
%TD*%
D18*
%TO.P,100nF,1*%
%TO.N,GND*%
X244600000Y-218932500D03*
%TO.P,100nF,2*%
%TO.N,+3.3V*%
X246150000Y-218932500D03*
%TD*%
D11*
%TO.P,U98,1,VDD_1*%
%TO.N,+3.3V*%
X226175000Y-187550000D03*
%TO.P,U98,2,GND_2*%
%TO.N,GND*%
X226175000Y-189450000D03*
%TO.P,U98,3,OUTPUT_3*%
%TO.N,Net-(U8-D4)*%
X228575000Y-188500000D03*
%TD*%
%TO.P,U124,1,VDD_1*%
%TO.N,+3.3V*%
X333725000Y-259650000D03*
%TO.P,U124,2,GND_2*%
%TO.N,GND*%
X333725000Y-261550000D03*
%TO.P,U124,3,OUTPUT_3*%
%TO.N,Net-(U11-D2)*%
X336125000Y-260600000D03*
%TD*%
D12*
%TO.P,U56,1,DI_1*%
%TO.N,Net-(U52-DO)*%
X231525000Y-294850000D03*
%TO.P,U56,2,CI_2*%
%TO.N,Net-(U52-CO)*%
X231525000Y-296450000D03*
%TO.P,U56,3,GND_3*%
%TO.N,GND*%
X231525000Y-298050000D03*
%TO.P,U56,4,VCC_4*%
%TO.N,+5V*%
X235825000Y-298050000D03*
%TO.P,U56,5,CO_5*%
%TO.N,Net-(U56-CO)*%
X235825000Y-296450000D03*
%TO.P,U56,6,DO_6*%
%TO.N,Net-(U56-DO)*%
X235825000Y-294850000D03*
%TD*%
%TO.P,U47,1,DI_1*%
%TO.N,Net-(U47-DI)*%
X159525000Y-258850000D03*
%TO.P,U47,2,CI_2*%
%TO.N,Net-(U47-CI)*%
X159525000Y-260450000D03*
%TO.P,U47,3,GND_3*%
%TO.N,GND*%
X159525000Y-262050000D03*
%TO.P,U47,4,VCC_4*%
%TO.N,+5V*%
X163825000Y-262050000D03*
%TO.P,U47,5,CO_5*%
%TO.N,Net-(U47-CO)*%
X163825000Y-260450000D03*
%TO.P,U47,6,DO_6*%
%TO.N,Net-(U47-DO)*%
X163825000Y-258850000D03*
%TD*%
%TO.P,U43,1,DI_1*%
%TO.N,Net-(U41-DO)*%
X375525000Y-186850000D03*
%TO.P,U43,2,CI_2*%
%TO.N,Net-(U41-CO)*%
X375525000Y-188450000D03*
%TO.P,U43,3,GND_3*%
%TO.N,GND*%
X375525000Y-190050000D03*
%TO.P,U43,4,VCC_4*%
%TO.N,+5V*%
X379825000Y-190050000D03*
%TO.P,U43,5,CO_5*%
%TO.N,Net-(U43-CO)*%
X379825000Y-188450000D03*
%TO.P,U43,6,DO_6*%
%TO.N,Net-(U43-DO)*%
X379825000Y-186850000D03*
%TD*%
D20*
%TO.P,100nF,1*%
%TO.N,GND*%
X297425000Y-196675000D03*
%TO.P,100nF,2*%
%TO.N,+3.3V*%
X297425000Y-198225000D03*
%TD*%
D11*
%TO.P,U103,1,VDD_1*%
%TO.N,+3.3V*%
X261815000Y-79550000D03*
%TO.P,U103,2,GND_2*%
%TO.N,GND*%
X261815000Y-81450000D03*
%TO.P,U103,3,OUTPUT_3*%
%TO.N,Net-(U103-OUTPUT)*%
X264215000Y-80500000D03*
%TD*%
D12*
%TO.P,U16,1,DI_1*%
%TO.N,Net-(U15-DO)*%
X231525000Y-78850000D03*
%TO.P,U16,2,CI_2*%
%TO.N,Net-(U15-CO)*%
X231525000Y-80450000D03*
%TO.P,U16,3,GND_3*%
%TO.N,GND*%
X231525000Y-82050000D03*
%TO.P,U16,4,VCC_4*%
%TO.N,+5V*%
X235825000Y-82050000D03*
%TO.P,U16,5,CO_5*%
%TO.N,Net-(U16-CO)*%
X235825000Y-80450000D03*
%TO.P,U16,6,DO_6*%
%TO.N,Net-(U16-DO)*%
X235825000Y-78850000D03*
%TD*%
D11*
%TO.P,U81,1,VDD_1*%
%TO.N,+3.3V*%
X154725000Y-151650000D03*
%TO.P,U81,2,GND_2*%
%TO.N,GND*%
X154725000Y-153550000D03*
%TO.P,U81,3,OUTPUT_3*%
%TO.N,Net-(U6-D5)*%
X157125000Y-152600000D03*
%TD*%
D16*
%TO.P,U6,1,~{PL}_1*%
%TO.N,/Upper PCB/PL*%
X174425000Y-216455000D03*
D17*
%TO.P,U6,2,CP_2*%
%TO.N,/Upper PCB/CP*%
X175360000Y-216020000D03*
%TO.P,U6,3,D4_3*%
%TO.N,Net-(U6-D4)*%
X175360000Y-215520000D03*
%TO.P,U6,4,D5_4*%
%TO.N,Net-(U6-D5)*%
X175360000Y-215020000D03*
%TO.P,U6,5,D6_5*%
%TO.N,Net-(U6-D6)*%
X175360000Y-214520000D03*
%TO.P,U6,6,D7_6*%
%TO.N,Net-(U6-D7)*%
X175360000Y-214020000D03*
%TO.P,U6,7,~{Q7}_7*%
%TO.N,unconnected-(U6-~{Q7}-Pad7)*%
X175360000Y-213520000D03*
D16*
%TO.P,U6,8,GND_8*%
%TO.N,GND*%
X174425000Y-213085000D03*
%TO.P,U6,9,Q7_9*%
%TO.N,Net-(U6-Q7)*%
X173925000Y-213085000D03*
D17*
%TO.P,U6,10,DS_10*%
%TO.N,GND*%
X172990000Y-213520000D03*
%TO.P,U6,11,D0_11*%
%TO.N,Net-(U6-D0)*%
X172990000Y-214020000D03*
%TO.P,U6,12,D1_12*%
%TO.N,Net-(U6-D1)*%
X172990000Y-214520000D03*
%TO.P,U6,13,D2_13*%
%TO.N,Net-(U6-D2)*%
X172990000Y-215020000D03*
%TO.P,U6,14,D3_14*%
%TO.N,Net-(U6-D3)*%
X172990000Y-215520000D03*
%TO.P,U6,15,~{CE}_15*%
%TO.N,GND*%
X172990000Y-216020000D03*
D16*
%TO.P,U6,16,VCC_16*%
%TO.N,+3.3V*%
X173925000Y-216455000D03*
D15*
%TO.P,U6,17,EP_17*%
%TO.N,unconnected-(U6-EP-Pad17)*%
X174175000Y-214770000D03*
%TD*%
D11*
%TO.P,U80,1,VDD_1*%
%TO.N,+3.3V*%
X154675000Y-115600000D03*
%TO.P,U80,2,GND_2*%
%TO.N,GND*%
X154675000Y-117500000D03*
%TO.P,U80,3,OUTPUT_3*%
%TO.N,Net-(U6-D6)*%
X157075000Y-116550000D03*
%TD*%
D12*
%TO.P,U15,1,DI_1*%
%TO.N,Net-(U14-DO)*%
X195525000Y-78850000D03*
%TO.P,U15,2,CI_2*%
%TO.N,Net-(U14-CO)*%
X195525000Y-80450000D03*
%TO.P,U15,3,GND_3*%
%TO.N,GND*%
X195525000Y-82050000D03*
%TO.P,U15,4,VCC_4*%
%TO.N,+5V*%
X199825000Y-82050000D03*
%TO.P,U15,5,CO_5*%
%TO.N,Net-(U15-CO)*%
X199825000Y-80450000D03*
%TO.P,U15,6,DO_6*%
%TO.N,Net-(U15-DO)*%
X199825000Y-78850000D03*
%TD*%
D11*
%TO.P,U114,1,VDD_1*%
%TO.N,+3.3V*%
X298325000Y-187500000D03*
%TO.P,U114,2,GND_2*%
%TO.N,GND*%
X298325000Y-189400000D03*
%TO.P,U114,3,OUTPUT_3*%
%TO.N,Net-(U10-D4)*%
X300725000Y-188450000D03*
%TD*%
D10*
%TO.P,1uF,1*%
%TO.N,+5V*%
X301600000Y-198500000D03*
%TO.P,1uF,2*%
%TO.N,GND*%
X301600000Y-196600000D03*
%TD*%
D12*
%TO.P,U31,1,DI_1*%
%TO.N,Net-(U31-DI)*%
X159525000Y-186850000D03*
%TO.P,U31,2,CI_2*%
%TO.N,Net-(U31-CI)*%
X159525000Y-188450000D03*
%TO.P,U31,3,GND_3*%
%TO.N,GND*%
X159525000Y-190050000D03*
%TO.P,U31,4,VCC_4*%
%TO.N,+5V*%
X163825000Y-190050000D03*
%TO.P,U31,5,CO_5*%
%TO.N,Net-(U31-CO)*%
X163825000Y-188450000D03*
%TO.P,U31,6,DO_6*%
%TO.N,Net-(U31-DO)*%
X163825000Y-186850000D03*
%TD*%
D11*
%TO.P,U97,1,VDD_1*%
%TO.N,+3.3V*%
X226657500Y-151825000D03*
%TO.P,U97,2,GND_2*%
%TO.N,GND*%
X226657500Y-153725000D03*
%TO.P,U97,3,OUTPUT_3*%
%TO.N,Net-(U8-D5)*%
X229057500Y-152775000D03*
%TD*%
%TO.P,U100,1,VDD_1*%
%TO.N,+3.3V*%
X226225000Y-259500000D03*
%TO.P,U100,2,GND_2*%
%TO.N,GND*%
X226225000Y-261400000D03*
%TO.P,U100,3,OUTPUT_3*%
%TO.N,Net-(U100-OUTPUT)*%
X228625000Y-260450000D03*
%TD*%
%TO.P,U86,1,VDD_1*%
%TO.N,+3.3V*%
X154475000Y-331500000D03*
%TO.P,U86,2,GND_2*%
%TO.N,GND*%
X154475000Y-333400000D03*
%TO.P,U86,3,OUTPUT_3*%
%TO.N,Net-(U6-D0)*%
X156875000Y-332450000D03*
%TD*%
D12*
%TO.P,U40,1,DI_1*%
%TO.N,Net-(U38-DO)*%
X339525000Y-150850000D03*
%TO.P,U40,2,CI_2*%
%TO.N,Net-(U38-CO)*%
X339525000Y-152450000D03*
%TO.P,U40,3,GND_3*%
%TO.N,GND*%
X339525000Y-154050000D03*
%TO.P,U40,4,VCC_4*%
%TO.N,+5V*%
X343825000Y-154050000D03*
%TO.P,U40,5,CO_5*%
%TO.N,Net-(U40-CO)*%
X343825000Y-152450000D03*
%TO.P,U40,6,DO_6*%
%TO.N,Net-(U40-DO)*%
X343825000Y-150850000D03*
%TD*%
D11*
%TO.P,U126,1,VDD_1*%
%TO.N,+3.3V*%
X333775000Y-331550000D03*
%TO.P,U126,2,GND_2*%
%TO.N,GND*%
X333775000Y-333450000D03*
%TO.P,U126,3,OUTPUT_3*%
%TO.N,Net-(U11-D0)*%
X336175000Y-332500000D03*
%TD*%
D12*
%TO.P,U73,1,DI_1*%
%TO.N,Net-(U69-DO)*%
X375525000Y-330850000D03*
%TO.P,U73,2,CI_2*%
%TO.N,Net-(U69-CO)*%
X375525000Y-332450000D03*
%TO.P,U73,3,GND_3*%
%TO.N,GND*%
X375525000Y-334050000D03*
%TO.P,U73,4,VCC_4*%
%TO.N,+5V*%
X379825000Y-334050000D03*
%TO.P,U73,5,CO_5*%
%TO.N,Net-(U73-CO)*%
X379825000Y-332450000D03*
%TO.P,U73,6,DO_6*%
%TO.N,Net-(U73-DO)*%
X379825000Y-330850000D03*
%TD*%
D11*
%TO.P,U101,1,VDD_1*%
%TO.N,+3.3V*%
X226225000Y-295600000D03*
%TO.P,U101,2,GND_2*%
%TO.N,GND*%
X226225000Y-297500000D03*
%TO.P,U101,3,OUTPUT_3*%
%TO.N,Net-(U101-OUTPUT)*%
X228625000Y-296550000D03*
%TD*%
D12*
%TO.P,U69,1,DI_1*%
%TO.N,Net-(U65-DO)*%
X339525000Y-330850000D03*
%TO.P,U69,2,CI_2*%
%TO.N,Net-(U65-CO)*%
X339525000Y-332450000D03*
%TO.P,U69,3,GND_3*%
%TO.N,GND*%
X339525000Y-334050000D03*
%TO.P,U69,4,VCC_4*%
%TO.N,+5V*%
X343825000Y-334050000D03*
%TO.P,U69,5,CO_5*%
%TO.N,Net-(U69-CO)*%
X343825000Y-332450000D03*
%TO.P,U69,6,DO_6*%
%TO.N,Net-(U69-DO)*%
X343825000Y-330850000D03*
%TD*%
%TO.P,U61,1,DI_1*%
%TO.N,Net-(U57-DO)*%
X267525000Y-330850000D03*
%TO.P,U61,2,CI_2*%
%TO.N,Net-(U57-CO)*%
X267525000Y-332450000D03*
%TO.P,U61,3,GND_3*%
%TO.N,GND*%
X267525000Y-334050000D03*
%TO.P,U61,4,VCC_4*%
%TO.N,+5V*%
X271825000Y-334050000D03*
%TO.P,U61,5,CO_5*%
%TO.N,Net-(U61-CO)*%
X271825000Y-332450000D03*
%TO.P,U61,6,DO_6*%
%TO.N,Net-(U61-DO)*%
X271825000Y-330850000D03*
%TD*%
D11*
%TO.P,U129,1,VDD_1*%
%TO.N,+3.3V*%
X369575000Y-151700000D03*
%TO.P,U129,2,GND_2*%
%TO.N,GND*%
X369575000Y-153600000D03*
%TO.P,U129,3,OUTPUT_3*%
%TO.N,Net-(U12-D5)*%
X371975000Y-152650000D03*
%TD*%
%TO.P,U125,1,VDD_1*%
%TO.N,+3.3V*%
X334075000Y-295650000D03*
%TO.P,U125,2,GND_2*%
%TO.N,GND*%
X334075000Y-297550000D03*
%TO.P,U125,3,OUTPUT_3*%
%TO.N,Net-(U11-D1)*%
X336475000Y-296600000D03*
%TD*%
%TO.P,U83,1,VDD_1*%
%TO.N,+3.3V*%
X154225000Y-223550000D03*
%TO.P,U83,2,GND_2*%
%TO.N,GND*%
X154225000Y-225450000D03*
%TO.P,U83,3,OUTPUT_3*%
%TO.N,Net-(U6-D3)*%
X156625000Y-224500000D03*
%TD*%
D21*
%TO.N,+3.3V*%
X402325000Y-282550000D03*
D22*
X281375000Y-221250000D03*
X174475000Y-218050000D03*
D21*
X280225000Y-242000000D03*
X202175000Y-277550000D03*
X404875000Y-151750000D03*
X295425000Y-259600000D03*
X224625000Y-331350000D03*
D22*
X396325000Y-211050000D03*
D21*
X332225000Y-223750000D03*
X403825000Y-115600000D03*
X295325000Y-242200000D03*
X321875000Y-278500000D03*
X331725000Y-259650000D03*
X332925000Y-185650000D03*
X261075000Y-223500000D03*
X188825000Y-259600000D03*
X369125000Y-185700000D03*
X207625000Y-277600000D03*
X154475000Y-329800000D03*
X224675000Y-185750000D03*
X260375000Y-331450000D03*
X188275000Y-79650000D03*
X368125000Y-259700000D03*
X295675000Y-223550000D03*
X154725000Y-150300000D03*
X189375000Y-223550000D03*
X322725000Y-123900000D03*
X241825000Y-274200000D03*
X247275000Y-274250000D03*
X367775000Y-295600000D03*
X368075000Y-151700000D03*
X368775000Y-79450000D03*
D23*
X299025000Y-199400000D03*
D21*
X363525000Y-283150000D03*
X296400000Y-115525000D03*
X274775000Y-241950000D03*
X404325000Y-259650000D03*
X325075000Y-85050000D03*
X300775000Y-242250000D03*
X261125000Y-185700000D03*
X224575000Y-259500000D03*
X225375000Y-223750000D03*
X188425000Y-115550000D03*
D22*
X211475000Y-219300000D03*
D21*
X368125000Y-331550000D03*
X332125000Y-331500000D03*
X154675000Y-114400000D03*
D24*
X363925000Y-209450000D03*
D21*
X368125000Y-223650000D03*
X322175000Y-191800000D03*
X260375000Y-295600000D03*
X260300000Y-115725000D03*
X368975000Y-283200000D03*
X396875000Y-282500000D03*
X189075000Y-151650000D03*
X259925000Y-259600000D03*
X322775000Y-119850000D03*
X404825000Y-79450000D03*
X367275000Y-115550000D03*
X332875000Y-79550000D03*
X260375000Y-151600000D03*
X225225000Y-151800000D03*
X188675000Y-295500000D03*
X188825000Y-188450000D03*
X322525000Y-161650000D03*
X154675000Y-186300000D03*
X154825000Y-257900000D03*
X404225000Y-295600000D03*
D22*
X321325000Y-211700000D03*
D21*
X404775000Y-185800000D03*
X297275000Y-185650000D03*
X260275000Y-79550000D03*
X223925000Y-79450000D03*
X322575000Y-157600000D03*
X154475000Y-294150000D03*
X325025000Y-89100000D03*
D24*
X247210000Y-218365000D03*
D21*
X188525000Y-331350000D03*
X322125000Y-195850000D03*
X332175000Y-151650000D03*
X295525000Y-295600000D03*
X152725000Y-78300000D03*
X224525000Y-115550000D03*
X154225000Y-222100000D03*
X404175000Y-223700000D03*
X296125000Y-151650000D03*
X332325000Y-115500000D03*
X224425000Y-295600000D03*
X332575000Y-295650000D03*
X327325000Y-278550000D03*
X404775000Y-331550000D03*
D22*
X294875000Y-211700000D03*
D21*
X296125000Y-331450000D03*
X296275000Y-79675000D03*
D24*
%TO.N,GND*%
X302100000Y-81525000D03*
X211775000Y-213550000D03*
D21*
X286075000Y-196800000D03*
D24*
X373400000Y-153375000D03*
X409475000Y-189900000D03*
D21*
X253375000Y-148850000D03*
D24*
X266245000Y-117580000D03*
D22*
X208725000Y-218300000D03*
D21*
X346375000Y-209225000D03*
D24*
X301575000Y-153600000D03*
X320425000Y-217400000D03*
X265775000Y-189550000D03*
X373525000Y-226550000D03*
X409675000Y-226700000D03*
X265525000Y-262500000D03*
D22*
X365275000Y-212500000D03*
D24*
X229925000Y-298050000D03*
D21*
X288975000Y-199200000D03*
D24*
X266025000Y-334500000D03*
D21*
X253325000Y-154050000D03*
D24*
X302200000Y-117325000D03*
D21*
X181925000Y-148725000D03*
X277625000Y-198600000D03*
D24*
X265825000Y-298500000D03*
X193075000Y-226550000D03*
X410125000Y-81550000D03*
X158225000Y-117500000D03*
X373925000Y-334450000D03*
D21*
X293575000Y-205450000D03*
D22*
X171440000Y-216870000D03*
D24*
X193675000Y-262650000D03*
D22*
X323625000Y-212650000D03*
D21*
X245225000Y-189975000D03*
D24*
X174525000Y-212050000D03*
X361825000Y-217400000D03*
X409625000Y-262650000D03*
X230150000Y-153475000D03*
X373900000Y-189575000D03*
X229475000Y-226750000D03*
X157925000Y-262500000D03*
X410025000Y-117450000D03*
X157625000Y-81500000D03*
D21*
X157825000Y-334800000D03*
D24*
X265725000Y-81800000D03*
D21*
X346325000Y-214425000D03*
D24*
X281925000Y-211550000D03*
X337825000Y-226600000D03*
X158250000Y-153475000D03*
X301775000Y-262600000D03*
X230400000Y-81425000D03*
X338300000Y-81575000D03*
X337875000Y-334500000D03*
X194325000Y-117350000D03*
X301825000Y-298650000D03*
D21*
X305800000Y-200300000D03*
D24*
X337775000Y-298500000D03*
X301975000Y-189300000D03*
X265700000Y-153525000D03*
X410025000Y-153600000D03*
X230250000Y-117225000D03*
X374200000Y-81375000D03*
X230100000Y-189475000D03*
X338250000Y-117475000D03*
X158225000Y-189700000D03*
D22*
X398565000Y-213300000D03*
D24*
X172775000Y-212050000D03*
D21*
X287125000Y-220450000D03*
D24*
X194250000Y-81525000D03*
X301475000Y-226500000D03*
X395025000Y-217900000D03*
X229775000Y-262500000D03*
X194025000Y-188550000D03*
X194075000Y-334400000D03*
D21*
X181875000Y-153925000D03*
D22*
X279525000Y-216550000D03*
D24*
X410075000Y-334500000D03*
X230025000Y-334400000D03*
X337800000Y-189525000D03*
X301675000Y-334600000D03*
X157825000Y-298750000D03*
X194175000Y-153550000D03*
D22*
X296925000Y-212950000D03*
D24*
X193925000Y-298450000D03*
X247710000Y-213100000D03*
X409775000Y-298550000D03*
X373575000Y-262750000D03*
D22*
X245175000Y-217800000D03*
D21*
X245275000Y-184775000D03*
D24*
X337425000Y-262700000D03*
X157925000Y-226050000D03*
X293675000Y-217250000D03*
X373875000Y-298550000D03*
X337450000Y-153125000D03*
X373950000Y-117675000D03*
X265275000Y-226500000D03*
%TO.N,Net-(U104-OUTPUT)*%
X284750000Y-212650000D03*
X283375000Y-211700000D03*
%TO.N,Net-(U105-OUTPUT)*%
X282825000Y-211100000D03*
X285350000Y-213100000D03*
%TO.N,Net-(U12-D1)*%
X372425000Y-295400000D03*
X365650000Y-215100000D03*
%TO.N,Net-(U10-D2)*%
X300525000Y-259600000D03*
X298600000Y-215225000D03*
%TO.N,Net-(U106-OUTPUT)*%
X286100000Y-212625000D03*
X282275000Y-210150000D03*
%TO.N,Net-(U12-D3)*%
X366325000Y-213950000D03*
X372075000Y-223550000D03*
%TO.N,Net-(U39-DO)*%
X337875000Y-186850000D03*
X309175000Y-186850000D03*
D22*
%TO.N,Net-(U39-CO)*%
X309175000Y-188450000D03*
X337875000Y-188150000D03*
D21*
%TO.N,+5V*%
X237425000Y-82550000D03*
X309325000Y-154050000D03*
X273525000Y-82550000D03*
X414625000Y-156350000D03*
X201275000Y-298050000D03*
X345575000Y-154150000D03*
X237525000Y-118250000D03*
X345475000Y-226050000D03*
X309375000Y-334050000D03*
X271825000Y-191750000D03*
X381475000Y-82700000D03*
X309525000Y-82550000D03*
X415825000Y-227900000D03*
X317375000Y-265700000D03*
X201425000Y-82700000D03*
X165375000Y-298050000D03*
X381425000Y-190000000D03*
X345475000Y-334050000D03*
X199875000Y-227900000D03*
X237375000Y-334050000D03*
X381525000Y-298050000D03*
D23*
X303475000Y-200300000D03*
D21*
X417425000Y-334050000D03*
X237575000Y-262050000D03*
X313875000Y-233700000D03*
X201375000Y-262050000D03*
X415175000Y-83700000D03*
X415325000Y-300300000D03*
X237325000Y-190050000D03*
X345775000Y-82650000D03*
X381475000Y-154100000D03*
X345325000Y-190050000D03*
X201225000Y-190050000D03*
X381525000Y-226050000D03*
X309275000Y-298050000D03*
X381625000Y-262050000D03*
X235825000Y-155900000D03*
X165425000Y-154050000D03*
X165425000Y-118350000D03*
X309425000Y-262000000D03*
X318825000Y-300600000D03*
X237425000Y-226050000D03*
X313875000Y-229550000D03*
X273325000Y-334050000D03*
X165175000Y-190050000D03*
X345575000Y-118150000D03*
X345625000Y-262050000D03*
X237325000Y-298050000D03*
X165625000Y-226000000D03*
X317375000Y-269850000D03*
X165475000Y-262050000D03*
X309325000Y-118100000D03*
X201325000Y-154050000D03*
X309175000Y-190050000D03*
X414475000Y-120000000D03*
X309325000Y-226050000D03*
X273275000Y-226050000D03*
X201275000Y-334050000D03*
X415825000Y-264400000D03*
X273625000Y-118200000D03*
X165425000Y-82450000D03*
X273375000Y-154050000D03*
X273425000Y-298050000D03*
X165275000Y-334050000D03*
X345275000Y-298050000D03*
X381525000Y-118100000D03*
X273525000Y-262050000D03*
X318825000Y-304750000D03*
X381325000Y-334050000D03*
X200125000Y-119850000D03*
X415275000Y-191850000D03*
D22*
%TO.N,Net-(U41-CO)*%
X345325000Y-188250000D03*
X374025000Y-188000000D03*
%TO.N,Net-(U41-DO)*%
X374175000Y-186850000D03*
X345475000Y-186850000D03*
D24*
%TO.N,/Upper PCB/PL*%
X395775000Y-212300000D03*
X282025000Y-217050000D03*
X175425000Y-217500000D03*
X293825000Y-211850000D03*
X282225000Y-205700000D03*
X320325000Y-211900000D03*
X248725000Y-218700000D03*
X212725000Y-219300000D03*
X362625000Y-211750000D03*
%TO.N,/Upper PCB/CP*%
X360625000Y-212900000D03*
X250150000Y-217550000D03*
X177800000Y-216475000D03*
X214625000Y-218375000D03*
X393775000Y-213400000D03*
X292575000Y-212750000D03*
X318975000Y-212850000D03*
X284025000Y-216350000D03*
%TO.N,Net-(U11-Q7)*%
X321975000Y-217500000D03*
X364025000Y-217600000D03*
%TO.N,Net-(U10-Q7)*%
X295325000Y-217250000D03*
X322125000Y-218100000D03*
%TO.N,Net-(U11-D0)*%
X336175000Y-331550000D03*
X323550000Y-215600000D03*
%TO.N,Net-(U11-D1)*%
X324200000Y-215050000D03*
X336475000Y-295400000D03*
%TO.N,Net-(U11-D2)*%
X336125000Y-259550000D03*
X324975000Y-215425000D03*
%TO.N,Net-(U11-D3)*%
X324975000Y-213850000D03*
X336225000Y-223500000D03*
%TO.N,/Upper PCB/MISO RGB*%
X398475000Y-202250000D03*
%TO.N,Net-(U10-DS)*%
X280975000Y-211650000D03*
X295325000Y-218000000D03*
%TO.N,Net-(U8-Q7)*%
X247025000Y-212500000D03*
X280175000Y-212350000D03*
%TO.N,Net-(U110-OUTPUT)*%
X265075000Y-331450000D03*
X279575000Y-213700000D03*
%TO.N,Net-(U109-OUTPUT)*%
X264487500Y-295700000D03*
X278475000Y-214150000D03*
%TO.N,Net-(U108-OUTPUT)*%
X264175000Y-259600000D03*
X277175000Y-214650000D03*
%TO.N,Net-(U107-OUTPUT)*%
X264975000Y-223300000D03*
X275725000Y-215150000D03*
%TO.N,Net-(U33-DO)*%
X201375000Y-186850000D03*
X229975000Y-186850000D03*
%TO.N,Net-(U33-CO)*%
X201275000Y-188450000D03*
X230125000Y-187950000D03*
%TO.N,Net-(U35-CO)*%
X237425000Y-188450000D03*
X266025000Y-188100000D03*
%TO.N,Net-(U35-DO)*%
X266025000Y-186950000D03*
X237325000Y-186850000D03*
%TO.N,Net-(U7-D6)*%
X212825000Y-213550000D03*
X214675000Y-215650000D03*
D22*
%TO.N,Net-(U45-DO)*%
X408275000Y-194550000D03*
X160175000Y-221050000D03*
%TO.N,Net-(U45-CO)*%
X157875000Y-221750000D03*
X408275000Y-193400000D03*
D24*
%TO.N,Net-(U13-D0)*%
X398275000Y-216500000D03*
X408825000Y-331300000D03*
%TO.N,Net-(U6-D4)*%
X178875000Y-213600000D03*
X174625000Y-209500000D03*
%TO.N,Net-(U31-DO)*%
X165275000Y-186200000D03*
X194075000Y-186200000D03*
%TO.N,Net-(U31-CO)*%
X193975000Y-187500000D03*
X165075000Y-188400000D03*
%TO.N,Net-(U42-DO)*%
X410025000Y-150850000D03*
X381275000Y-150850000D03*
%TO.N,Net-(U42-CO)*%
X381275000Y-152400000D03*
X410175000Y-152400000D03*
%TO.N,Net-(U31-CI)*%
X411325000Y-158700000D03*
X158025000Y-185500000D03*
%TO.N,Net-(U31-DI)*%
X159775000Y-185200000D03*
X411325000Y-160100000D03*
%TO.N,Net-(U48-CI)*%
X409675000Y-266700000D03*
X157825000Y-293550000D03*
%TO.N,Net-(U48-DI)*%
X409675000Y-268300000D03*
X159775000Y-293150000D03*
%TO.N,Net-(U12-Q7)*%
X397325000Y-217900000D03*
X363275000Y-217250000D03*
%TO.N,Net-(U12-D0)*%
X372225000Y-331300000D03*
X365112500Y-215862500D03*
%TO.N,Net-(U12-D2)*%
X372525000Y-259500000D03*
X366400000Y-215050000D03*
%TO.N,Net-(U10-D1)*%
X300175000Y-295600000D03*
X297825000Y-216025000D03*
%TO.N,Net-(U19-CO)*%
X374225000Y-80450000D03*
X345475000Y-80450000D03*
%TO.N,Net-(U20-CO)*%
X381225000Y-80450000D03*
X410225000Y-80450000D03*
%TO.N,Net-(U10-D0)*%
X296925000Y-215550000D03*
X300125000Y-331550000D03*
%TO.N,Net-(U10-D3)*%
X300625000Y-223200000D03*
X299250000Y-214375000D03*
%TO.N,Net-(U7-D1)*%
X193075000Y-295350000D03*
X207625000Y-216050000D03*
%TO.N,Net-(U8-D6)*%
X249075000Y-213100000D03*
X250475000Y-214775000D03*
%TO.N,Net-(U8-D3)*%
X229125000Y-223600000D03*
X237675000Y-220950000D03*
%TO.N,Net-(U36-DO)*%
X301675000Y-150850000D03*
X273375000Y-150850000D03*
%TO.N,Net-(U36-CO)*%
X301925000Y-152450000D03*
X273325000Y-152450000D03*
%TO.N,Net-(U38-CO)*%
X309225000Y-152450000D03*
X337875000Y-152450000D03*
%TO.N,Net-(U38-DO)*%
X337875000Y-150850000D03*
X309225000Y-150850000D03*
%TO.N,/Upper PCB/MOSI*%
X163700000Y-83475000D03*
%TO.N,/Upper PCB/CLK 5V*%
X162950000Y-83775000D03*
%TO.N,Net-(U14-CO)*%
X194175000Y-80700000D03*
X165275000Y-80450000D03*
%TO.N,Net-(U24-DO)*%
X237475000Y-114850000D03*
X266125000Y-114850000D03*
%TO.N,Net-(U24-CO)*%
X261525000Y-116450000D03*
X237425000Y-116450000D03*
%TO.N,Net-(U25-CO)*%
X297475000Y-116450000D03*
X273575000Y-116450000D03*
%TO.N,Net-(U25-DO)*%
X301525000Y-114250000D03*
X273525000Y-114850000D03*
%TO.N,Net-(U32-DO)*%
X230025000Y-150850000D03*
X201375000Y-150850000D03*
%TO.N,Net-(U32-CO)*%
X230150000Y-151800000D03*
X201325000Y-152450000D03*
%TO.N,Net-(U34-CO)*%
X237975000Y-152450000D03*
X265925000Y-152450000D03*
%TO.N,Net-(U34-DO)*%
X265975000Y-150850000D03*
X237225000Y-150850000D03*
%TO.N,Net-(U23-DO)*%
X201925000Y-114900000D03*
X230175000Y-114900000D03*
%TO.N,Net-(U23-CO)*%
X225575000Y-116450000D03*
X201875000Y-116400000D03*
%TO.N,Net-(U47-CI)*%
X158075000Y-257400000D03*
X411425000Y-231000000D03*
%TO.N,Net-(U47-DI)*%
X411425000Y-232250000D03*
X160225000Y-257350000D03*
%TO.N,Net-(U7-D2)*%
X193025000Y-259450000D03*
X205275000Y-216550000D03*
%TO.N,Net-(U49-CI)*%
X157975000Y-329500000D03*
X411575000Y-301800000D03*
%TO.N,Net-(U49-DI)*%
X411625000Y-303100000D03*
X160025000Y-329200000D03*
%TO.N,Net-(U26-CO)*%
X333575000Y-116450000D03*
X309275000Y-116450000D03*
%TO.N,Net-(U26-DO)*%
X337125000Y-114350000D03*
X309275000Y-114850000D03*
%TO.N,Net-(U7-D0)*%
X209075000Y-215550000D03*
X192725000Y-331550000D03*
%TO.N,Net-(U102-OUTPUT)*%
X245175000Y-215100000D03*
X228875000Y-331400000D03*
%TO.N,Net-(U13-D2)*%
X408575000Y-259450000D03*
X400125000Y-215900000D03*
%TO.N,Net-(U40-DO)*%
X373825000Y-150850000D03*
X345225000Y-150850000D03*
%TO.N,Net-(U40-CO)*%
X373825000Y-152450000D03*
X345175000Y-152450000D03*
%TO.N,Net-(U13-D1)*%
X408425000Y-295450000D03*
X398725000Y-215700000D03*
%TO.N,Net-(U28-DO)*%
X410075000Y-114600000D03*
X381325000Y-114850000D03*
%TO.N,Net-(U28-CO)*%
X381325000Y-116450000D03*
X405125000Y-116450000D03*
%TO.N,Net-(U29-CO)*%
X158125000Y-149500000D03*
X411525000Y-121300000D03*
%TO.N,Net-(U29-DO)*%
X159875000Y-149250000D03*
X411475000Y-122300000D03*
%TO.N,Net-(U22-DO)*%
X165325000Y-114850000D03*
X194225000Y-114850000D03*
%TO.N,Net-(U22-CO)*%
X165325000Y-116450000D03*
X189375000Y-116450000D03*
%TO.N,Net-(U13-D3)*%
X400225000Y-214350000D03*
X408325000Y-223700000D03*
%TO.N,/Upper PCB/Q7*%
X396275000Y-217850000D03*
%TO.N,Net-(U27-DO)*%
X345575000Y-114850000D03*
X373675000Y-114500000D03*
%TO.N,Net-(U27-CO)*%
X345625000Y-116450000D03*
X368725000Y-116450000D03*
%TO.N,Net-(U37-DO)*%
X273225000Y-186850000D03*
X302025000Y-186850000D03*
%TO.N,Net-(U37-CO)*%
X302125000Y-187950000D03*
X274125000Y-188350000D03*
%TO.N,Net-(U18-CO)*%
X309175000Y-80450000D03*
X338375000Y-80450000D03*
%TO.N,Net-(U21-DO)*%
X415325000Y-87050000D03*
X160825000Y-113300000D03*
%TO.N,Net-(U21-CO)*%
X414875000Y-85800000D03*
X158275000Y-113250000D03*
%TO.N,Net-(U7-D5)*%
X215375000Y-215825000D03*
X212125000Y-212100000D03*
%TO.N,Net-(U7-D4)*%
X216175000Y-216200000D03*
X211375000Y-210500000D03*
%TO.N,Net-(U7-Q7)*%
X210625000Y-213300000D03*
X245275000Y-213500000D03*
%TO.N,Net-(U6-Q7)*%
X209025000Y-214500000D03*
X173625000Y-209750000D03*
%TO.N,Net-(U7-D3)*%
X193175000Y-223450000D03*
X203875000Y-217050000D03*
%TO.N,Net-(U30-DO)*%
X165375000Y-150850000D03*
X194125000Y-150850000D03*
%TO.N,Net-(U30-CO)*%
X194175000Y-151850000D03*
X165425000Y-152450000D03*
%TO.N,Net-(U16-CO)*%
X266175000Y-80450000D03*
X237275000Y-80450000D03*
%TO.N,Net-(U17-CO)*%
X302225000Y-80450000D03*
X273275000Y-80450000D03*
D22*
%TO.N,Net-(U43-DO)*%
X381425000Y-186850000D03*
X409775000Y-186850000D03*
%TO.N,Net-(U43-CO)*%
X409825000Y-188050000D03*
X381425000Y-188450000D03*
D24*
%TO.N,Net-(U8-D4)*%
X251875000Y-215325000D03*
X247750000Y-210475000D03*
%TO.N,Net-(U8-D5)*%
X248525000Y-211900000D03*
X251125000Y-214400000D03*
%TO.N,Net-(U101-OUTPUT)*%
X228625000Y-295500000D03*
X244325000Y-215500000D03*
%TO.N,Net-(U100-OUTPUT)*%
X242975000Y-216000000D03*
X228625000Y-259500000D03*
%TO.N,Net-(U15-CO)*%
X201225000Y-80500000D03*
X230275000Y-80500000D03*
%TO.N,Net-(U6-D5)*%
X178075000Y-213575000D03*
X175125000Y-210350000D03*
%TO.N,Net-(U6-D6)*%
X175775000Y-211900000D03*
X177175000Y-213525000D03*
D22*
%TO.N,Net-(U6-D0)*%
X171775000Y-213300000D03*
X156925000Y-330300000D03*
%TD*%
%TO.N,+3.3V*%
D25*
X321540000Y-212915000D02*
X321540000Y-211915000D01*
D26*
X189150000Y-151725000D02*
X189075000Y-151650000D01*
X152725000Y-78300000D02*
X152725000Y-79550000D01*
D25*
X363150000Y-211917500D02*
X363875000Y-211192500D01*
D26*
X226475000Y-331500000D02*
X224775000Y-331500000D01*
D25*
X396375000Y-212575000D02*
X396542500Y-212575000D01*
D26*
X327325000Y-278550000D02*
X321925000Y-278550000D01*
X224775000Y-331500000D02*
X224625000Y-331350000D01*
D25*
X396542500Y-212575000D02*
X397200000Y-211917500D01*
X211010000Y-217985000D02*
X211010000Y-218485000D01*
X281510000Y-216085000D02*
X281510000Y-216635000D01*
D26*
X332175000Y-331550000D02*
X332125000Y-331500000D01*
D25*
X396275000Y-213415000D02*
X396325000Y-213365000D01*
X397200000Y-211917500D02*
X397450000Y-211917500D01*
D26*
X370125000Y-259750000D02*
X368175000Y-259750000D01*
X370175000Y-115500000D02*
X367325000Y-115500000D01*
D25*
X246400000Y-218932500D02*
X246150000Y-218932500D01*
D26*
X370125000Y-187650000D02*
X369125000Y-186650000D01*
D27*
X299400000Y-198200000D02*
X299400000Y-199025000D01*
D26*
X402325000Y-282550000D02*
X396925000Y-282550000D01*
D25*
X281375000Y-216882500D02*
X280650000Y-217607500D01*
D26*
X406325000Y-151750000D02*
X404875000Y-151750000D01*
D25*
X281375000Y-216770000D02*
X281375000Y-216882500D01*
D26*
X262375000Y-331550000D02*
X260475000Y-331550000D01*
X297725000Y-151550000D02*
X297625000Y-151650000D01*
D25*
X295675000Y-211317500D02*
X295925000Y-211317500D01*
D26*
X367325000Y-115500000D02*
X367275000Y-115550000D01*
X300775000Y-242250000D02*
X295375000Y-242250000D01*
X226225000Y-295600000D02*
X224425000Y-295600000D01*
X260425000Y-151550000D02*
X260375000Y-151600000D01*
X368175000Y-259750000D02*
X368125000Y-259700000D01*
D25*
X211010000Y-218485000D02*
X211010000Y-218972500D01*
D26*
X405875000Y-223700000D02*
X404175000Y-223700000D01*
X225625000Y-79450000D02*
X223925000Y-79450000D01*
X406437500Y-331550000D02*
X404775000Y-331550000D01*
X297625000Y-151650000D02*
X296125000Y-151650000D01*
X189175000Y-188450000D02*
X188825000Y-188450000D01*
X405875000Y-187650000D02*
X404775000Y-186550000D01*
X334075000Y-295650000D02*
X332575000Y-295650000D01*
X226175000Y-187550000D02*
X224675000Y-186050000D01*
D25*
X363125000Y-210250000D02*
X363925000Y-209450000D01*
D26*
X154825000Y-259500000D02*
X154825000Y-257900000D01*
X370475000Y-79600000D02*
X370325000Y-79450000D01*
X190675000Y-295500000D02*
X188675000Y-295500000D01*
D25*
X363125000Y-212900000D02*
X363125000Y-212375000D01*
D26*
X190595000Y-151725000D02*
X189150000Y-151725000D01*
X296350000Y-79675000D02*
X296525000Y-79500000D01*
X260300000Y-115725000D02*
X260300000Y-115555000D01*
X369125000Y-186650000D02*
X369125000Y-185700000D01*
X190625000Y-259600000D02*
X188825000Y-259600000D01*
D25*
X294975000Y-211800000D02*
X294975000Y-212780000D01*
D26*
X404375000Y-259700000D02*
X404325000Y-259650000D01*
X154475000Y-295650000D02*
X154475000Y-294150000D01*
D25*
X322237500Y-211412500D02*
X322487500Y-211412500D01*
D26*
X369675000Y-223650000D02*
X368125000Y-223650000D01*
X322175000Y-191800000D02*
X322125000Y-191850000D01*
D25*
X281510000Y-216635000D02*
X281375000Y-216770000D01*
D26*
X404775000Y-186550000D02*
X404775000Y-185800000D01*
X325025000Y-85100000D02*
X325025000Y-89100000D01*
D25*
X173200000Y-218075000D02*
X172950000Y-218075000D01*
D26*
X297775000Y-295650000D02*
X295575000Y-295650000D01*
X296225000Y-331550000D02*
X296125000Y-331450000D01*
X404275000Y-295650000D02*
X404225000Y-295600000D01*
D25*
X173925000Y-217350000D02*
X173200000Y-218075000D01*
D26*
X226725000Y-223750000D02*
X225375000Y-223750000D01*
D25*
X321540000Y-211915000D02*
X321325000Y-211700000D01*
X396325000Y-213365000D02*
X396325000Y-211050000D01*
D26*
X333625000Y-151650000D02*
X332175000Y-151650000D01*
X322775000Y-119850000D02*
X322725000Y-119900000D01*
X333775000Y-331550000D02*
X332175000Y-331550000D01*
X261925000Y-151550000D02*
X260425000Y-151550000D01*
X188675000Y-331500000D02*
X188525000Y-331350000D01*
X367825000Y-295650000D02*
X367775000Y-295600000D01*
D25*
X363125000Y-212375000D02*
X363125000Y-210250000D01*
X211475000Y-219300000D02*
X211475000Y-218950000D01*
D26*
X325075000Y-85050000D02*
X325025000Y-85100000D01*
X260300000Y-115555000D02*
X260390000Y-115465000D01*
X333775000Y-187650000D02*
X332925000Y-186800000D01*
X322575000Y-157600000D02*
X322525000Y-157650000D01*
X154225000Y-223550000D02*
X154225000Y-222100000D01*
X296525000Y-79500000D02*
X298275000Y-79500000D01*
X297275000Y-186450000D02*
X297275000Y-185650000D01*
X190325000Y-331500000D02*
X188675000Y-331500000D01*
D27*
X298350000Y-199400000D02*
X299025000Y-199400000D01*
D25*
X294875000Y-211700000D02*
X295292500Y-211700000D01*
D26*
X296275000Y-79675000D02*
X296350000Y-79675000D01*
X261125000Y-223550000D02*
X261075000Y-223500000D01*
D25*
X211010000Y-218972500D02*
X210475000Y-219507500D01*
D26*
X154475000Y-331500000D02*
X154475000Y-329800000D01*
X224675000Y-186050000D02*
X224675000Y-185750000D01*
X370325000Y-79450000D02*
X368775000Y-79450000D01*
X296475000Y-115450000D02*
X298687500Y-115450000D01*
X406175000Y-259700000D02*
X404375000Y-259700000D01*
X260390000Y-115465000D02*
X262730000Y-115465000D01*
X226225000Y-259500000D02*
X224575000Y-259500000D01*
X322725000Y-119900000D02*
X322725000Y-123900000D01*
X296400000Y-115525000D02*
X296475000Y-115450000D01*
X369575000Y-151700000D02*
X368075000Y-151700000D01*
X280225000Y-242000000D02*
X274825000Y-242000000D01*
X370025000Y-295650000D02*
X367825000Y-295650000D01*
X226657500Y-151825000D02*
X225250000Y-151825000D01*
X190125000Y-187500000D02*
X189175000Y-188450000D01*
X405050000Y-79225000D02*
X404825000Y-79450000D01*
X332325000Y-115500000D02*
X334775000Y-115500000D01*
X188275000Y-79650000D02*
X189575000Y-79650000D01*
D25*
X363875000Y-211192500D02*
X364125000Y-211192500D01*
D26*
X154675000Y-115600000D02*
X154675000Y-114400000D01*
X403850000Y-115575000D02*
X403825000Y-115600000D01*
X261775000Y-259600000D02*
X259925000Y-259600000D01*
D25*
X321540000Y-212110000D02*
X322237500Y-211412500D01*
D28*
X247210000Y-218365000D02*
X247210000Y-217435000D01*
D26*
X225250000Y-151825000D02*
X225225000Y-151800000D01*
X207625000Y-277600000D02*
X202225000Y-277600000D01*
D25*
X246967500Y-218365000D02*
X246400000Y-218932500D01*
X281375000Y-216770000D02*
X281375000Y-221250000D01*
X174475000Y-217900000D02*
X173925000Y-217350000D01*
D26*
X298125000Y-259600000D02*
X295425000Y-259600000D01*
D27*
X297425000Y-198225000D02*
X297425000Y-198475000D01*
D26*
X297725000Y-331550000D02*
X296225000Y-331550000D01*
X262087500Y-295600000D02*
X260375000Y-295600000D01*
D25*
X174475000Y-218050000D02*
X174475000Y-217900000D01*
D26*
X333725000Y-259650000D02*
X331725000Y-259650000D01*
D27*
X299400000Y-199025000D02*
X299025000Y-199400000D01*
D25*
X294975000Y-212780000D02*
X295010000Y-212815000D01*
X280650000Y-217607500D02*
X280400000Y-217607500D01*
X173925000Y-217350000D02*
X173925000Y-217005000D01*
X295292500Y-211700000D02*
X295675000Y-211317500D01*
D26*
X406392500Y-115575000D02*
X403850000Y-115575000D01*
X333825000Y-223750000D02*
X332225000Y-223750000D01*
X368975000Y-283200000D02*
X363575000Y-283200000D01*
X190775000Y-223550000D02*
X189375000Y-223550000D01*
D25*
X210475000Y-219507500D02*
X210225000Y-219507500D01*
X294875000Y-211700000D02*
X294975000Y-211800000D01*
D26*
X154725000Y-150300000D02*
X154725000Y-151650000D01*
X298225000Y-223550000D02*
X295675000Y-223550000D01*
X247275000Y-274250000D02*
X241875000Y-274250000D01*
X262575000Y-223550000D02*
X261125000Y-223550000D01*
D27*
X297425000Y-198475000D02*
X298350000Y-199400000D01*
D25*
X211475000Y-218950000D02*
X211010000Y-218485000D01*
D26*
X298325000Y-187500000D02*
X297275000Y-186450000D01*
X332925000Y-186800000D02*
X332925000Y-185650000D01*
X261125000Y-186750000D02*
X261125000Y-185700000D01*
X261815000Y-79550000D02*
X260275000Y-79550000D01*
X190725000Y-115550000D02*
X188425000Y-115550000D01*
D25*
X173925000Y-216455000D02*
X173925000Y-217005000D01*
D26*
X322525000Y-157650000D02*
X322525000Y-161650000D01*
X262025000Y-187650000D02*
X261125000Y-186750000D01*
X333150000Y-79825000D02*
X332875000Y-79550000D01*
D25*
X396325000Y-212625000D02*
X396375000Y-212575000D01*
D26*
X322125000Y-191850000D02*
X322125000Y-195850000D01*
X406025000Y-295650000D02*
X404275000Y-295650000D01*
D25*
X247210000Y-218365000D02*
X246967500Y-218365000D01*
D26*
X226825000Y-115550000D02*
X224525000Y-115550000D01*
X406215000Y-79225000D02*
X405050000Y-79225000D01*
X369825000Y-331550000D02*
X368125000Y-331550000D01*
X295575000Y-295650000D02*
X295525000Y-295600000D01*
X334627500Y-79825000D02*
X333150000Y-79825000D01*
X260475000Y-331550000D02*
X260375000Y-331450000D01*
X154675000Y-187550000D02*
X154675000Y-186300000D01*
D25*
X321540000Y-212175000D02*
X321540000Y-212110000D01*
%TO.N,GND*%
D28*
X409675000Y-152450000D02*
X409675000Y-153250000D01*
X337800000Y-189525000D02*
X338325000Y-190050000D01*
D26*
X301600000Y-196600000D02*
X301600000Y-196375000D01*
D28*
X194925000Y-262650000D02*
X195525000Y-262050000D01*
X267025000Y-82050000D02*
X267525000Y-82050000D01*
D25*
X246275000Y-217000000D02*
X245975000Y-217000000D01*
D28*
X409600000Y-116025000D02*
X409600000Y-116300000D01*
X406437500Y-333450000D02*
X406437500Y-333650000D01*
X409675000Y-153250000D02*
X410025000Y-153600000D01*
X265725000Y-81800000D02*
X266775000Y-81800000D01*
X158825000Y-298750000D02*
X159525000Y-298050000D01*
D25*
X172990000Y-216020000D02*
X172140000Y-216870000D01*
D28*
X370475000Y-81500000D02*
X372075000Y-79900000D01*
X336375000Y-80100000D02*
X337625000Y-80100000D01*
X226225000Y-297500000D02*
X226775000Y-298050000D01*
X410025000Y-153600000D02*
X410475000Y-154050000D01*
D26*
X157825000Y-334800000D02*
X158775000Y-334800000D01*
D28*
X406975000Y-226700000D02*
X409675000Y-226700000D01*
D25*
X365675000Y-211192500D02*
X365675000Y-212100000D01*
D28*
X410125000Y-81550000D02*
X410625000Y-82050000D01*
X230400000Y-81425000D02*
X230900000Y-81425000D01*
X337175000Y-152350000D02*
X336725000Y-151900000D01*
X261775000Y-261500000D02*
X262775000Y-262500000D01*
X336975000Y-188700000D02*
X337800000Y-189525000D01*
X228475000Y-115800000D02*
X226825000Y-117450000D01*
X406215000Y-81125000D02*
X406350000Y-81125000D01*
X301625000Y-188050000D02*
X301625000Y-188950000D01*
X157925000Y-226050000D02*
X159525000Y-226050000D01*
X395775000Y-216785000D02*
X395775000Y-217150000D01*
X301075000Y-152150000D02*
X301075000Y-153100000D01*
X302975000Y-262600000D02*
X303525000Y-262050000D01*
X299375000Y-151800000D02*
X300725000Y-151800000D01*
X157925000Y-188000000D02*
X157925000Y-189400000D01*
X374325000Y-118050000D02*
X375525000Y-118050000D01*
X266225000Y-154050000D02*
X267525000Y-154050000D01*
X334627500Y-81725000D02*
X334750000Y-81725000D01*
X338875000Y-262700000D02*
X339525000Y-262050000D01*
D25*
X297475000Y-212482500D02*
X297007500Y-212950000D01*
D28*
X371925000Y-115800000D02*
X373250000Y-115800000D01*
D25*
X244600000Y-218932500D02*
X244600000Y-218375000D01*
D26*
X305800000Y-197075000D02*
X304175000Y-195450000D01*
D28*
X369825000Y-333450000D02*
X370825000Y-334450000D01*
X409625000Y-262650000D02*
X410925000Y-262650000D01*
X266025000Y-334500000D02*
X267075000Y-334500000D01*
X337450000Y-153125000D02*
X337175000Y-152850000D01*
X371225000Y-151950000D02*
X372675000Y-151950000D01*
D26*
X299925000Y-193650000D02*
X303525000Y-190050000D01*
D28*
X154675000Y-117500000D02*
X156325000Y-115850000D01*
X229475000Y-226750000D02*
X230825000Y-226750000D01*
D25*
X322925000Y-213350000D02*
X323625000Y-212650000D01*
D28*
X261925000Y-153450000D02*
X263525000Y-151850000D01*
X261815000Y-81450000D02*
X261925000Y-81450000D01*
X172990000Y-213520000D02*
X172990000Y-212265000D01*
X262575000Y-225450000D02*
X263625000Y-226500000D01*
X409675000Y-226700000D02*
X410875000Y-226700000D01*
X339075000Y-298500000D02*
X339525000Y-298050000D01*
D25*
X244600000Y-218375000D02*
X245175000Y-217800000D01*
D28*
X373400000Y-153375000D02*
X374075000Y-154050000D01*
X409525000Y-79800000D02*
X409525000Y-80950000D01*
X370175000Y-117400000D02*
X370325000Y-117400000D01*
X157675000Y-187750000D02*
X157925000Y-188000000D01*
X337825000Y-81100000D02*
X338300000Y-81575000D01*
X282010000Y-212715000D02*
X282010000Y-211635000D01*
D26*
X300600000Y-205425000D02*
X300575000Y-205450000D01*
D28*
X298925000Y-117350000D02*
X300325000Y-115950000D01*
D26*
X286575000Y-196800000D02*
X286075000Y-196800000D01*
D28*
X194175000Y-153550000D02*
X193875000Y-153250000D01*
X231075000Y-118050000D02*
X231525000Y-118050000D01*
X334750000Y-81725000D02*
X336375000Y-80100000D01*
X406175000Y-261600000D02*
X407225000Y-262650000D01*
X228600000Y-152000000D02*
X229600000Y-152000000D01*
X230150000Y-153475000D02*
X230725000Y-154050000D01*
X157925000Y-189400000D02*
X158225000Y-189700000D01*
X301300000Y-187725000D02*
X301625000Y-188050000D01*
D25*
X365675000Y-212100000D02*
X365275000Y-212500000D01*
D28*
X195125000Y-298450000D02*
X195525000Y-298050000D01*
X303075000Y-226500000D02*
X303525000Y-226050000D01*
X408875000Y-187850000D02*
X409225000Y-188200000D01*
X226175000Y-189450000D02*
X226325000Y-189450000D01*
X229225000Y-187800000D02*
X229525000Y-188100000D01*
X265700000Y-153525000D02*
X266225000Y-154050000D01*
X294510000Y-216185000D02*
X293675000Y-217020000D01*
X158025000Y-116100000D02*
X158025000Y-117300000D01*
X338475000Y-117700000D02*
X338250000Y-117475000D01*
X158775000Y-118050000D02*
X159525000Y-118050000D01*
D25*
X399000000Y-213082500D02*
X398782500Y-213300000D01*
D26*
X305800000Y-200300000D02*
X305800000Y-197075000D01*
D28*
X405975000Y-189550000D02*
X407675000Y-187850000D01*
D25*
X208675000Y-218342500D02*
X208715000Y-218302500D01*
X399000000Y-211917500D02*
X399000000Y-213082500D01*
D28*
X193550000Y-151975000D02*
X192300000Y-151975000D01*
X406875000Y-298550000D02*
X409775000Y-298550000D01*
X262025000Y-189550000D02*
X263675000Y-187900000D01*
X230100000Y-189475000D02*
X230675000Y-190050000D01*
X302625000Y-82050000D02*
X303525000Y-82050000D01*
X157825000Y-298750000D02*
X158825000Y-298750000D01*
X299925000Y-79750000D02*
X301350000Y-79750000D01*
X297725000Y-153450000D02*
X299375000Y-151800000D01*
D25*
X209325000Y-218300000D02*
X208725000Y-218300000D01*
D28*
X335025000Y-298500000D02*
X337775000Y-298500000D01*
X172990000Y-212265000D02*
X172775000Y-212050000D01*
X227275000Y-79700000D02*
X225625000Y-81350000D01*
X230100000Y-117075000D02*
X230100000Y-116075000D01*
X195025000Y-226550000D02*
X195525000Y-226050000D01*
X191275000Y-334400000D02*
X194075000Y-334400000D01*
X300325000Y-115950000D02*
X300325000Y-115725000D01*
X226775000Y-298050000D02*
X229925000Y-298050000D01*
X370975000Y-298550000D02*
X373875000Y-298550000D01*
D26*
X304175000Y-195450000D02*
X300675000Y-195450000D01*
D28*
X190325000Y-333450000D02*
X191275000Y-334400000D01*
X301525000Y-79925000D02*
X301525000Y-80950000D01*
X226475000Y-333600000D02*
X227275000Y-334400000D01*
X194250000Y-81525000D02*
X194775000Y-82050000D01*
D25*
X364440000Y-213335000D02*
X364060000Y-213335000D01*
D28*
X336725000Y-151900000D02*
X335275000Y-151900000D01*
X409600000Y-116300000D02*
X409725000Y-116425000D01*
D25*
X297007500Y-212950000D02*
X296925000Y-212950000D01*
D28*
X229525000Y-188900000D02*
X230100000Y-189475000D01*
X263087500Y-298500000D02*
X262087500Y-297500000D01*
X230250000Y-117225000D02*
X231075000Y-118050000D01*
X228575000Y-152000000D02*
X228600000Y-152000000D01*
X335275000Y-151900000D02*
X333625000Y-153550000D01*
X339525000Y-154050000D02*
X338975000Y-153500000D01*
X406350000Y-81125000D02*
X408025000Y-79450000D01*
X262730000Y-117365000D02*
X264395000Y-115700000D01*
X409525000Y-80950000D02*
X410125000Y-81550000D01*
X301925000Y-117050000D02*
X302200000Y-117325000D01*
D26*
X245225000Y-184825000D02*
X245275000Y-184775000D01*
D28*
X301575000Y-153600000D02*
X302025000Y-154050000D01*
D25*
X296625000Y-213250000D02*
X295945000Y-213250000D01*
D28*
X337425000Y-262700000D02*
X338875000Y-262700000D01*
D25*
X208675000Y-219507500D02*
X208675000Y-218342500D01*
D28*
X337775000Y-298500000D02*
X339075000Y-298500000D01*
X156325000Y-115850000D02*
X157775000Y-115850000D01*
X338775000Y-82050000D02*
X339737500Y-82050000D01*
X337625000Y-80100000D02*
X337825000Y-80300000D01*
X337825000Y-80300000D02*
X337825000Y-81100000D01*
X405875000Y-189550000D02*
X405975000Y-189550000D01*
X193875000Y-153250000D02*
X193875000Y-152300000D01*
X226475000Y-333400000D02*
X226475000Y-333600000D01*
D25*
X296925000Y-212950000D02*
X296625000Y-213250000D01*
D28*
X320425000Y-216900000D02*
X320425000Y-217400000D01*
X230900000Y-81425000D02*
X231525000Y-82050000D01*
X370125000Y-261650000D02*
X371225000Y-262750000D01*
X194175000Y-153550000D02*
X194675000Y-154050000D01*
X194775000Y-82050000D02*
X195525000Y-82050000D01*
D26*
X245225000Y-189975000D02*
X245225000Y-184825000D01*
D28*
X193675000Y-262650000D02*
X194925000Y-262650000D01*
D26*
X299925000Y-194700000D02*
X299925000Y-193650000D01*
D28*
X334775000Y-117400000D02*
X336475000Y-115700000D01*
X266775000Y-81800000D02*
X267025000Y-82050000D01*
X373950000Y-117675000D02*
X374325000Y-118050000D01*
X230250000Y-117225000D02*
X230100000Y-117075000D01*
X229825000Y-115800000D02*
X228475000Y-115800000D01*
X263675000Y-187900000D02*
X265050000Y-187900000D01*
D26*
X181875000Y-153925000D02*
X181875000Y-148775000D01*
D28*
X395775000Y-217150000D02*
X395025000Y-217900000D01*
D25*
X398782500Y-213300000D02*
X398565000Y-213300000D01*
D28*
X191225000Y-79900000D02*
X189575000Y-81550000D01*
X263625000Y-226500000D02*
X265275000Y-226500000D01*
X190800000Y-117450000D02*
X192450000Y-115800000D01*
X193775000Y-115800000D02*
X194075000Y-116100000D01*
X333775000Y-333450000D02*
X334825000Y-334500000D01*
X338300000Y-81575000D02*
X338775000Y-82050000D01*
X193925000Y-298450000D02*
X195125000Y-298450000D01*
X301350000Y-79750000D02*
X301525000Y-79925000D01*
X334875000Y-262700000D02*
X337425000Y-262700000D01*
X374075000Y-154050000D02*
X375525000Y-154050000D01*
X194075000Y-116100000D02*
X194075000Y-117100000D01*
X301775000Y-262600000D02*
X302975000Y-262600000D01*
X293675000Y-217020000D02*
X293675000Y-217250000D01*
X321040000Y-216285000D02*
X320425000Y-216900000D01*
X337175000Y-152850000D02*
X337175000Y-152350000D01*
X407225000Y-262650000D02*
X409625000Y-262650000D01*
X301075000Y-153100000D02*
X301575000Y-153600000D01*
X194075000Y-334400000D02*
X195175000Y-334400000D01*
X156375000Y-187750000D02*
X157675000Y-187750000D01*
X190725000Y-117450000D02*
X190800000Y-117450000D01*
X337975000Y-115850000D02*
X337975000Y-117200000D01*
X231075000Y-262500000D02*
X231525000Y-262050000D01*
X192625000Y-79900000D02*
X191225000Y-79900000D01*
X301525000Y-80950000D02*
X302100000Y-81525000D01*
X298225000Y-225450000D02*
X299275000Y-226500000D01*
X302025000Y-154050000D02*
X303525000Y-154050000D01*
X301475000Y-226500000D02*
X303075000Y-226500000D01*
X265775000Y-189550000D02*
X266275000Y-190050000D01*
X229775000Y-262500000D02*
X231075000Y-262500000D01*
X227325000Y-262500000D02*
X229775000Y-262500000D01*
D25*
X278850000Y-217225000D02*
X279525000Y-216550000D01*
D28*
X336975000Y-188100000D02*
X336975000Y-188700000D01*
X263525000Y-151850000D02*
X264975000Y-151850000D01*
X373100000Y-187850000D02*
X373325000Y-188075000D01*
X302200000Y-117325000D02*
X302925000Y-118050000D01*
X265225000Y-80250000D02*
X265225000Y-81300000D01*
X227275000Y-334400000D02*
X230025000Y-334400000D01*
X230400000Y-81425000D02*
X228675000Y-79700000D01*
X406437500Y-333650000D02*
X407287500Y-334500000D01*
X262775000Y-262500000D02*
X265525000Y-262500000D01*
X409425000Y-115850000D02*
X409600000Y-116025000D01*
X195025000Y-118050000D02*
X195525000Y-118050000D01*
X158250000Y-153475000D02*
X158825000Y-154050000D01*
X193075000Y-226550000D02*
X195025000Y-226550000D01*
X409175000Y-79450000D02*
X409525000Y-79800000D01*
X409225000Y-188200000D02*
X409225000Y-189650000D01*
X155625000Y-79500000D02*
X154675000Y-79500000D01*
X267075000Y-334500000D02*
X267525000Y-334050000D01*
X265775000Y-115700000D02*
X265930000Y-115855000D01*
X265275000Y-226500000D02*
X267075000Y-226500000D01*
X194675000Y-154050000D02*
X195525000Y-154050000D01*
D25*
X398565000Y-213300000D02*
X398015000Y-213850000D01*
D28*
X265225000Y-81300000D02*
X265725000Y-81800000D01*
D26*
X288975000Y-218600000D02*
X287125000Y-220450000D01*
D28*
X333725000Y-261550000D02*
X334875000Y-262700000D01*
X226725000Y-225650000D02*
X227825000Y-226750000D01*
X373425000Y-117150000D02*
X373950000Y-117675000D01*
X230725000Y-154050000D02*
X231525000Y-154050000D01*
X265825000Y-298500000D02*
X263087500Y-298500000D01*
X371825000Y-187850000D02*
X373100000Y-187850000D01*
X333775000Y-189550000D02*
X335425000Y-187900000D01*
X265525000Y-262500000D02*
X267075000Y-262500000D01*
X298875000Y-334600000D02*
X301675000Y-334600000D01*
X299275000Y-226500000D02*
X301475000Y-226500000D01*
X157775000Y-115850000D02*
X158025000Y-116100000D01*
X265375000Y-189150000D02*
X265775000Y-189550000D01*
X298325000Y-189400000D02*
X300000000Y-187725000D01*
X408025000Y-79450000D02*
X409175000Y-79450000D01*
X158175000Y-82050000D02*
X159525000Y-82050000D01*
D26*
X253325000Y-148900000D02*
X253375000Y-148850000D01*
D28*
X229825000Y-153150000D02*
X230150000Y-153475000D01*
X265175000Y-153000000D02*
X265700000Y-153525000D01*
X226657500Y-153725000D02*
X226850000Y-153725000D01*
X334775000Y-226600000D02*
X337825000Y-226600000D01*
X157625000Y-81500000D02*
X155625000Y-79500000D01*
X158225000Y-117500000D02*
X158775000Y-118050000D01*
X267075000Y-262500000D02*
X267525000Y-262050000D01*
X301625000Y-188950000D02*
X301975000Y-189300000D01*
X211510000Y-214615000D02*
X211510000Y-213815000D01*
X230025000Y-334400000D02*
X231175000Y-334400000D01*
D25*
X245975000Y-217000000D02*
X245175000Y-217800000D01*
D28*
X375025000Y-226550000D02*
X375525000Y-226050000D01*
D26*
X301600000Y-196375000D02*
X300675000Y-195450000D01*
D28*
X409225000Y-189650000D02*
X409475000Y-189900000D01*
X372675000Y-151950000D02*
X372975000Y-152250000D01*
D26*
X301950000Y-195450000D02*
X301750000Y-195450000D01*
D28*
X299225000Y-262600000D02*
X301775000Y-262600000D01*
X337975000Y-117200000D02*
X338250000Y-117475000D01*
X157775000Y-151950000D02*
X157975000Y-152150000D01*
X302925000Y-118050000D02*
X303525000Y-118050000D01*
X408175000Y-115850000D02*
X409425000Y-115850000D01*
X303225000Y-298350000D02*
X303525000Y-298050000D01*
X410025000Y-117450000D02*
X410625000Y-118050000D01*
X265375000Y-188225000D02*
X265375000Y-189150000D01*
X229525000Y-188100000D02*
X229525000Y-188900000D01*
X174425000Y-212150000D02*
X174525000Y-212050000D01*
D26*
X298590000Y-196675000D02*
X298965000Y-196300000D01*
D28*
X362625000Y-216270000D02*
X362625000Y-216600000D01*
X410925000Y-262650000D02*
X411525000Y-262050000D01*
X282010000Y-211635000D02*
X281925000Y-211550000D01*
X194025000Y-188550000D02*
X195525000Y-190050000D01*
X374200000Y-81375000D02*
X374875000Y-82050000D01*
X193075000Y-226550000D02*
X192575000Y-226050000D01*
X374375000Y-190050000D02*
X375525000Y-190050000D01*
D26*
X303425000Y-196925000D02*
X301950000Y-195450000D01*
D28*
X230100000Y-116075000D02*
X229825000Y-115800000D01*
X231175000Y-334400000D02*
X231525000Y-334050000D01*
X410625000Y-82050000D02*
X411525000Y-82050000D01*
X226325000Y-189450000D02*
X227975000Y-187800000D01*
X154475000Y-297550000D02*
X155675000Y-298750000D01*
X338325000Y-190050000D02*
X339525000Y-190050000D01*
D26*
X346325000Y-209275000D02*
X346375000Y-209225000D01*
D28*
X336775000Y-187900000D02*
X336975000Y-188100000D01*
X192300000Y-151975000D02*
X190650000Y-153625000D01*
X406550000Y-117475000D02*
X408175000Y-115850000D01*
X265050000Y-187900000D02*
X265375000Y-188225000D01*
X263425000Y-334500000D02*
X266025000Y-334500000D01*
X371225000Y-262750000D02*
X373575000Y-262750000D01*
D25*
X172140000Y-216870000D02*
X171440000Y-216870000D01*
D26*
X305800000Y-200300000D02*
X300675000Y-205425000D01*
D28*
X373250000Y-115800000D02*
X373425000Y-115975000D01*
X302100000Y-81525000D02*
X302625000Y-82050000D01*
X266275000Y-190050000D02*
X267525000Y-190050000D01*
X158825000Y-154050000D02*
X159525000Y-154050000D01*
X211510000Y-213815000D02*
X211775000Y-213550000D01*
X195175000Y-334400000D02*
X195525000Y-334050000D01*
X373425000Y-115975000D02*
X373425000Y-117150000D01*
X370675000Y-226550000D02*
X373525000Y-226550000D01*
X370825000Y-334450000D02*
X373925000Y-334450000D01*
X263575000Y-79800000D02*
X264775000Y-79800000D01*
X229825000Y-152225000D02*
X229825000Y-153150000D01*
X154825000Y-261400000D02*
X155925000Y-262500000D01*
X266245000Y-117580000D02*
X266715000Y-118050000D01*
X409725000Y-117150000D02*
X410025000Y-117450000D01*
X337825000Y-153500000D02*
X337450000Y-153125000D01*
X335425000Y-187900000D02*
X336775000Y-187900000D01*
D26*
X346325000Y-214425000D02*
X346325000Y-209275000D01*
D25*
X171400000Y-216910000D02*
X171440000Y-216870000D01*
D28*
X373575000Y-262750000D02*
X374825000Y-262750000D01*
X265825000Y-298500000D02*
X266275000Y-298050000D01*
D25*
X297475000Y-211317500D02*
X297475000Y-212482500D01*
D26*
X300675000Y-195450000D02*
X299925000Y-194700000D01*
D28*
X158025000Y-117300000D02*
X158225000Y-117500000D01*
X190650000Y-153625000D02*
X190595000Y-153625000D01*
X190675000Y-297400000D02*
X191725000Y-298450000D01*
X409475000Y-189900000D02*
X409625000Y-190050000D01*
X300325000Y-115725000D02*
X300425000Y-115625000D01*
X301675000Y-334600000D02*
X302975000Y-334600000D01*
X375125000Y-334450000D02*
X375525000Y-334050000D01*
X264775000Y-79800000D02*
X265225000Y-80250000D01*
X373875000Y-298550000D02*
X375025000Y-298550000D01*
X266275000Y-298050000D02*
X267525000Y-298050000D01*
X267075000Y-226500000D02*
X267525000Y-226050000D01*
X333825000Y-225650000D02*
X334775000Y-226600000D01*
D25*
X365275000Y-212500000D02*
X364440000Y-213335000D01*
D26*
X299925000Y-195775000D02*
X299925000Y-194700000D01*
X181875000Y-148775000D02*
X181925000Y-148725000D01*
D28*
X298125000Y-261500000D02*
X299225000Y-262600000D01*
D26*
X297425000Y-196675000D02*
X298590000Y-196675000D01*
D28*
X406025000Y-297700000D02*
X406875000Y-298550000D01*
X301700000Y-115625000D02*
X301925000Y-115850000D01*
X247710000Y-213100000D02*
X247710000Y-214065000D01*
X194325000Y-117350000D02*
X195025000Y-118050000D01*
X373725000Y-80900000D02*
X374200000Y-81375000D01*
X370025000Y-297600000D02*
X370975000Y-298550000D01*
D25*
X324037500Y-212237500D02*
X323625000Y-212650000D01*
D28*
X407675000Y-187850000D02*
X408875000Y-187850000D01*
X159075000Y-262500000D02*
X159525000Y-262050000D01*
X174425000Y-213085000D02*
X174425000Y-212150000D01*
X300425000Y-115625000D02*
X301700000Y-115625000D01*
X302125000Y-298350000D02*
X303225000Y-298350000D01*
X302975000Y-334600000D02*
X303525000Y-334050000D01*
X374825000Y-262750000D02*
X375525000Y-262050000D01*
X191375000Y-226050000D02*
X190775000Y-225450000D01*
X373525000Y-226550000D02*
X375025000Y-226550000D01*
X406392500Y-117475000D02*
X406550000Y-117475000D01*
X192450000Y-115800000D02*
X193775000Y-115800000D01*
X192575000Y-226050000D02*
X191375000Y-226050000D01*
X264975000Y-151850000D02*
X265175000Y-152050000D01*
X301925000Y-115850000D02*
X301925000Y-117050000D01*
X191725000Y-298450000D02*
X193925000Y-298450000D01*
X229600000Y-152000000D02*
X229825000Y-152225000D01*
X154675000Y-79500000D02*
X152725000Y-81450000D01*
X230825000Y-226750000D02*
X231525000Y-226050000D01*
X336475000Y-115700000D02*
X337825000Y-115700000D01*
X300000000Y-187725000D02*
X301300000Y-187725000D01*
X265175000Y-152050000D02*
X265175000Y-153000000D01*
X302725000Y-190050000D02*
X303525000Y-190050000D01*
X194025000Y-188550000D02*
X192875000Y-187400000D01*
X411025000Y-298550000D02*
X411525000Y-298050000D01*
X226225000Y-261400000D02*
X227325000Y-262500000D01*
X193875000Y-152300000D02*
X193550000Y-151975000D01*
D25*
X324037500Y-211412500D02*
X324037500Y-212237500D01*
D28*
X265930000Y-115855000D02*
X265930000Y-117265000D01*
X407287500Y-334500000D02*
X410075000Y-334500000D01*
X373525000Y-79900000D02*
X373725000Y-80100000D01*
X156325000Y-151950000D02*
X157775000Y-151950000D01*
X227975000Y-187800000D02*
X229225000Y-187800000D01*
X410475000Y-154050000D02*
X411525000Y-154050000D01*
X334075000Y-297550000D02*
X335025000Y-298500000D01*
X226850000Y-153725000D02*
X228575000Y-152000000D01*
X405875000Y-225600000D02*
X406975000Y-226700000D01*
X369675000Y-225550000D02*
X370675000Y-226550000D01*
X337825000Y-115700000D02*
X337975000Y-115850000D01*
D26*
X300675000Y-205425000D02*
X300600000Y-205425000D01*
D28*
X407925000Y-152050000D02*
X409275000Y-152050000D01*
X264395000Y-115700000D02*
X265775000Y-115700000D01*
X157975000Y-152150000D02*
X157975000Y-153200000D01*
D26*
X299400000Y-196300000D02*
X299925000Y-195775000D01*
D28*
X362625000Y-216600000D02*
X361825000Y-217400000D01*
D26*
X155875000Y-334800000D02*
X154475000Y-333400000D01*
D28*
X261925000Y-81450000D02*
X263575000Y-79800000D01*
X339075000Y-334500000D02*
X339525000Y-334050000D01*
X338475000Y-117700000D02*
X339175000Y-117700000D01*
X372075000Y-79900000D02*
X373525000Y-79900000D01*
X301975000Y-189300000D02*
X302725000Y-190050000D01*
X409725000Y-116425000D02*
X409725000Y-117150000D01*
X158225000Y-189700000D02*
X158575000Y-190050000D01*
D25*
X280425000Y-215650000D02*
X279525000Y-216550000D01*
X171400000Y-218075000D02*
X171400000Y-216910000D01*
D28*
X374875000Y-82050000D02*
X375525000Y-82050000D01*
X155925000Y-262500000D02*
X157925000Y-262500000D01*
X157975000Y-153200000D02*
X158250000Y-153475000D01*
X157625000Y-81500000D02*
X158175000Y-82050000D01*
X158575000Y-190050000D02*
X159525000Y-190050000D01*
X375525000Y-81900000D02*
X375525000Y-82050000D01*
X373900000Y-189575000D02*
X374375000Y-190050000D01*
X406325000Y-153650000D02*
X407925000Y-152050000D01*
D26*
X158775000Y-334800000D02*
X159525000Y-334050000D01*
D28*
X373325000Y-188075000D02*
X373325000Y-189000000D01*
X409275000Y-152050000D02*
X409675000Y-152450000D01*
X337825000Y-226600000D02*
X338975000Y-226600000D01*
X154725000Y-153550000D02*
X156325000Y-151950000D01*
X227825000Y-226750000D02*
X229475000Y-226750000D01*
D26*
X253325000Y-154050000D02*
X253325000Y-148900000D01*
D28*
X301825000Y-298650000D02*
X298875000Y-298650000D01*
D26*
X300575000Y-205450000D02*
X293575000Y-205450000D01*
D28*
X300725000Y-151800000D02*
X301075000Y-152150000D01*
D25*
X280575000Y-215650000D02*
X280425000Y-215650000D01*
X398015000Y-213850000D02*
X397210000Y-213850000D01*
D28*
X157925000Y-262500000D02*
X159075000Y-262500000D01*
X228675000Y-79700000D02*
X227275000Y-79700000D01*
X410075000Y-334500000D02*
X411075000Y-334500000D01*
X229925000Y-298050000D02*
X231525000Y-298050000D01*
X265930000Y-117265000D02*
X266245000Y-117580000D01*
X266715000Y-118050000D02*
X267525000Y-118050000D01*
D25*
X210075000Y-217550000D02*
X209325000Y-218300000D01*
D28*
X409775000Y-298550000D02*
X411025000Y-298550000D01*
X410625000Y-118050000D02*
X411525000Y-118050000D01*
D26*
X303425000Y-197000000D02*
X303425000Y-196925000D01*
D28*
X409625000Y-190050000D02*
X411525000Y-190050000D01*
X194250000Y-81525000D02*
X192625000Y-79900000D01*
X337875000Y-334500000D02*
X339075000Y-334500000D01*
X262375000Y-333450000D02*
X263425000Y-334500000D01*
X370125000Y-189550000D02*
X371825000Y-187850000D01*
X191775000Y-262650000D02*
X193675000Y-262650000D01*
X370325000Y-117400000D02*
X371925000Y-115800000D01*
X155675000Y-298750000D02*
X157825000Y-298750000D01*
X373325000Y-189000000D02*
X373900000Y-189575000D01*
X192125000Y-187400000D02*
X190125000Y-189400000D01*
X373725000Y-80100000D02*
X373725000Y-80900000D01*
X194075000Y-117100000D02*
X194325000Y-117350000D01*
X372975000Y-152950000D02*
X373400000Y-153375000D01*
X298875000Y-298650000D02*
X297775000Y-297550000D01*
X339175000Y-117700000D02*
X339525000Y-118050000D01*
X298275000Y-81400000D02*
X299925000Y-79750000D01*
X334825000Y-334500000D02*
X337875000Y-334500000D01*
D26*
X157825000Y-334800000D02*
X155875000Y-334800000D01*
X288975000Y-199200000D02*
X288975000Y-218600000D01*
D28*
X230675000Y-190050000D02*
X231525000Y-190050000D01*
X338975000Y-226600000D02*
X339525000Y-226050000D01*
X154225000Y-225450000D02*
X154825000Y-226050000D01*
X298687500Y-117350000D02*
X298925000Y-117350000D01*
X338975000Y-153500000D02*
X337825000Y-153500000D01*
X301825000Y-298650000D02*
X302125000Y-298350000D01*
D25*
X278850000Y-217607500D02*
X278850000Y-217225000D01*
D28*
X154675000Y-189450000D02*
X156375000Y-187750000D01*
X369575000Y-153600000D02*
X371225000Y-151950000D01*
X372975000Y-152250000D02*
X372975000Y-152950000D01*
X192875000Y-187400000D02*
X192125000Y-187400000D01*
D25*
X322475000Y-213350000D02*
X322925000Y-213350000D01*
D26*
X288975000Y-199200000D02*
X286575000Y-196800000D01*
D28*
X190625000Y-261500000D02*
X191775000Y-262650000D01*
X297725000Y-333450000D02*
X298875000Y-334600000D01*
X410875000Y-226700000D02*
X411525000Y-226050000D01*
X375025000Y-298550000D02*
X375525000Y-298050000D01*
X411075000Y-334500000D02*
X411525000Y-334050000D01*
D26*
X298965000Y-196300000D02*
X299400000Y-196300000D01*
D28*
X373925000Y-334450000D02*
X375125000Y-334450000D01*
X154825000Y-226050000D02*
X157925000Y-226050000D01*
%TO.N,Net-(U104-OUTPUT)*%
X283400000Y-211675000D02*
X283400000Y-138125000D01*
X283375000Y-211700000D02*
X283400000Y-211675000D01*
X284750000Y-212925000D02*
X283525000Y-214150000D01*
X265175000Y-119750000D02*
X265175000Y-116460000D01*
X265175000Y-116460000D02*
X265130000Y-116415000D01*
X283525000Y-214150000D02*
X282945000Y-214150000D01*
X283400000Y-138125000D02*
X283475000Y-138050000D01*
X284750000Y-212650000D02*
X284750000Y-212925000D01*
X283475000Y-138050000D02*
X265175000Y-119750000D01*
%TO.N,Net-(U105-OUTPUT)*%
X282825000Y-211100000D02*
X282775000Y-211050000D01*
X283800000Y-214650000D02*
X282945000Y-214650000D01*
X285350000Y-213100000D02*
X283800000Y-214650000D01*
X282825000Y-173950000D02*
X282875000Y-173900000D01*
X264325000Y-155350000D02*
X264325000Y-152500000D01*
X282875000Y-173900000D02*
X264325000Y-155350000D01*
X282825000Y-211100000D02*
X282825000Y-173950000D01*
%TO.N,Net-(U13-D7)*%
X391625000Y-99250000D02*
X408625000Y-82250000D01*
X408625000Y-80185000D02*
X408615000Y-80175000D01*
X393575000Y-215850000D02*
X391625000Y-213900000D01*
X391625000Y-213900000D02*
X391625000Y-99250000D01*
X408625000Y-82250000D02*
X408625000Y-80185000D01*
X394840000Y-215850000D02*
X393575000Y-215850000D01*
%TO.N,Net-(U12-D1)*%
X372425000Y-295400000D02*
X372425000Y-296600000D01*
X365650000Y-215100000D02*
X365400000Y-214850000D01*
X365210000Y-214835000D02*
X364060000Y-214835000D01*
X365225000Y-214850000D02*
X365210000Y-214835000D01*
X365400000Y-214850000D02*
X365225000Y-214850000D01*
%TO.N,Net-(U10-D2)*%
X297650000Y-214250000D02*
X295945000Y-214250000D01*
X298600000Y-215225000D02*
X298600000Y-215200000D01*
X300525000Y-260550000D02*
X300525000Y-259600000D01*
X298600000Y-215200000D02*
X297650000Y-214250000D01*
%TO.N,Net-(U106-OUTPUT)*%
X282025000Y-209900000D02*
X282025000Y-208550000D01*
X264475000Y-191000000D02*
X264475000Y-188650000D01*
X286100000Y-213375000D02*
X284325000Y-215150000D01*
X282025000Y-208550000D02*
X264475000Y-191000000D01*
X264475000Y-188650000D02*
X264425000Y-188600000D01*
X282275000Y-210150000D02*
X282025000Y-209900000D01*
X284325000Y-215150000D02*
X282945000Y-215150000D01*
X286100000Y-212625000D02*
X286100000Y-213375000D01*
%TO.N,Net-(U12-D3)*%
X364060000Y-213835000D02*
X366210000Y-213835000D01*
X372075000Y-223550000D02*
X372075000Y-224600000D01*
X366210000Y-213835000D02*
X366325000Y-213950000D01*
%TO.N,Net-(U39-DO)*%
X337875000Y-186850000D02*
X339525000Y-186850000D01*
X307825000Y-186850000D02*
X309175000Y-186850000D01*
%TO.N,Net-(U39-CO)*%
X309175000Y-188450000D02*
X307825000Y-188450000D01*
X339525000Y-188450000D02*
X338175000Y-188450000D01*
X338175000Y-188450000D02*
X337875000Y-188150000D01*
%TO.N,+5V*%
D26*
X317375000Y-265700000D02*
X317375000Y-269850000D01*
X236925000Y-82050000D02*
X237425000Y-82550000D01*
X236025000Y-118250000D02*
X237525000Y-118250000D01*
X415825000Y-155150000D02*
X414625000Y-156350000D01*
X381425000Y-154050000D02*
X381475000Y-154100000D01*
X415825000Y-298050000D02*
X415825000Y-299800000D01*
X307825000Y-226050000D02*
X309325000Y-226050000D01*
X415825000Y-226050000D02*
X415825000Y-227900000D01*
X271825000Y-190050000D02*
X271825000Y-191750000D01*
X415825000Y-334050000D02*
X417425000Y-334050000D01*
X343825000Y-262050000D02*
X345625000Y-262050000D01*
X415825000Y-262050000D02*
X415825000Y-264400000D01*
X379825000Y-118050000D02*
X381475000Y-118050000D01*
X271825000Y-298050000D02*
X273425000Y-298050000D01*
X343825000Y-154050000D02*
X345475000Y-154050000D01*
X307825000Y-262050000D02*
X309375000Y-262050000D01*
X415825000Y-191300000D02*
X415275000Y-191850000D01*
X343825000Y-334050000D02*
X345475000Y-334050000D01*
X163825000Y-262050000D02*
X165475000Y-262050000D01*
X163825000Y-226050000D02*
X165575000Y-226050000D01*
X199825000Y-262050000D02*
X201375000Y-262050000D01*
X381375000Y-190050000D02*
X381425000Y-190000000D01*
X415825000Y-154050000D02*
X415825000Y-155150000D01*
X273475000Y-118050000D02*
X273625000Y-118200000D01*
X379825000Y-154050000D02*
X381425000Y-154050000D01*
X318825000Y-300600000D02*
X318825000Y-304750000D01*
X415825000Y-299800000D02*
X415325000Y-300300000D01*
X307825000Y-334050000D02*
X309375000Y-334050000D01*
X379825000Y-226050000D02*
X381525000Y-226050000D01*
X345475000Y-154050000D02*
X345575000Y-154150000D01*
X271825000Y-334050000D02*
X273325000Y-334050000D01*
X343825000Y-118050000D02*
X345475000Y-118050000D01*
X415825000Y-118650000D02*
X414475000Y-120000000D01*
X309375000Y-262050000D02*
X309425000Y-262000000D01*
X379825000Y-334050000D02*
X381325000Y-334050000D01*
D27*
X302325000Y-199925000D02*
X303100000Y-199925000D01*
X303100000Y-199925000D02*
X303475000Y-200300000D01*
D26*
X163825000Y-118050000D02*
X164125000Y-118350000D01*
X235825000Y-298050000D02*
X237325000Y-298050000D01*
X200775000Y-82050000D02*
X201425000Y-82700000D01*
X165575000Y-226050000D02*
X165625000Y-226000000D01*
X235825000Y-82050000D02*
X236925000Y-82050000D01*
X163825000Y-82050000D02*
X165025000Y-82050000D01*
X163825000Y-154050000D02*
X165425000Y-154050000D01*
X235825000Y-334050000D02*
X237375000Y-334050000D01*
X309275000Y-118050000D02*
X309325000Y-118100000D01*
X235825000Y-226050000D02*
X237425000Y-226050000D01*
D27*
X303475000Y-198600000D02*
X303425000Y-198550000D01*
X303475000Y-200300000D02*
X303475000Y-198600000D01*
D26*
X415825000Y-118050000D02*
X415825000Y-118650000D01*
X344037500Y-82050000D02*
X345175000Y-82050000D01*
X235825000Y-154050000D02*
X235825000Y-155900000D01*
X307825000Y-118050000D02*
X309275000Y-118050000D01*
X165025000Y-82050000D02*
X165425000Y-82450000D01*
X313875000Y-229550000D02*
X313875000Y-233700000D01*
X271825000Y-226050000D02*
X273275000Y-226050000D01*
X415825000Y-190050000D02*
X415825000Y-191300000D01*
X235825000Y-190050000D02*
X237325000Y-190050000D01*
X199825000Y-82050000D02*
X200775000Y-82050000D01*
X345175000Y-82050000D02*
X345775000Y-82650000D01*
X271825000Y-154050000D02*
X273375000Y-154050000D01*
X271825000Y-118050000D02*
X273475000Y-118050000D01*
X271825000Y-262050000D02*
X273525000Y-262050000D01*
X199825000Y-227850000D02*
X199875000Y-227900000D01*
X379825000Y-190050000D02*
X381375000Y-190050000D01*
X380475000Y-82700000D02*
X381475000Y-82700000D01*
X272325000Y-82550000D02*
X273525000Y-82550000D01*
X307825000Y-82050000D02*
X308325000Y-82550000D01*
X415825000Y-82050000D02*
X415825000Y-83050000D01*
X379825000Y-82050000D02*
X380475000Y-82700000D01*
D27*
X301600000Y-199200000D02*
X302325000Y-199925000D01*
D26*
X343825000Y-298050000D02*
X345275000Y-298050000D01*
X379825000Y-262050000D02*
X381625000Y-262050000D01*
X271825000Y-82050000D02*
X272325000Y-82550000D01*
X199825000Y-190050000D02*
X201225000Y-190050000D01*
X163825000Y-298050000D02*
X165375000Y-298050000D01*
X235825000Y-118050000D02*
X236025000Y-118250000D01*
X308325000Y-82550000D02*
X309525000Y-82550000D01*
X381475000Y-118050000D02*
X381525000Y-118100000D01*
X343825000Y-190050000D02*
X345325000Y-190050000D01*
X199825000Y-118050000D02*
X200125000Y-118350000D01*
X199825000Y-298050000D02*
X201275000Y-298050000D01*
X199825000Y-334050000D02*
X201275000Y-334050000D01*
X200125000Y-118350000D02*
X200125000Y-119850000D01*
D27*
X301600000Y-198500000D02*
X301600000Y-199200000D01*
D26*
X415825000Y-83050000D02*
X415175000Y-83700000D01*
X345475000Y-118050000D02*
X345575000Y-118150000D01*
X163825000Y-190050000D02*
X165175000Y-190050000D01*
D27*
X303475000Y-200300000D02*
X303475000Y-200120000D01*
D26*
X199825000Y-154050000D02*
X201325000Y-154050000D01*
X199825000Y-226050000D02*
X199825000Y-227850000D01*
X343825000Y-226050000D02*
X345475000Y-226050000D01*
X307825000Y-154050000D02*
X309325000Y-154050000D01*
X163825000Y-334050000D02*
X165275000Y-334050000D01*
X235825000Y-262050000D02*
X237575000Y-262050000D01*
X307825000Y-298050000D02*
X309275000Y-298050000D01*
X164125000Y-118350000D02*
X165425000Y-118350000D01*
X307825000Y-190050000D02*
X309175000Y-190050000D01*
X379825000Y-298050000D02*
X381525000Y-298050000D01*
%TO.N,Net-(U41-CO)*%
D28*
X345325000Y-188250000D02*
X344025000Y-188250000D01*
X374475000Y-188450000D02*
X374025000Y-188000000D01*
X375525000Y-188450000D02*
X374475000Y-188450000D01*
X344025000Y-188250000D02*
X343825000Y-188450000D01*
%TO.N,Net-(U41-DO)*%
X343825000Y-186850000D02*
X345475000Y-186850000D01*
X374175000Y-186850000D02*
X375525000Y-186850000D01*
%TO.N,Net-(U53-DO)*%
X229625000Y-330300000D02*
X200375000Y-330300000D01*
X231525000Y-330850000D02*
X230175000Y-330850000D01*
X230175000Y-330850000D02*
X229625000Y-330300000D01*
X200375000Y-330300000D02*
X199825000Y-330850000D01*
%TO.N,Net-(U53-CO)*%
X199825000Y-332450000D02*
X226775000Y-332450000D01*
X227775000Y-333450000D02*
X230525000Y-333450000D01*
X230525000Y-333450000D02*
X231525000Y-332450000D01*
X226775000Y-332450000D02*
X227775000Y-333450000D01*
%TO.N,Net-(U57-CO)*%
X263875000Y-333450000D02*
X266525000Y-333450000D01*
X266525000Y-333450000D02*
X267525000Y-332450000D01*
X262875000Y-332450000D02*
X263875000Y-333450000D01*
X235825000Y-332450000D02*
X262875000Y-332450000D01*
%TO.N,Net-(U57-DO)*%
X267525000Y-330850000D02*
X267225000Y-330550000D01*
X267225000Y-330550000D02*
X236125000Y-330550000D01*
X236125000Y-330550000D02*
X235825000Y-330850000D01*
%TO.N,Net-(U6-D7)*%
X176475000Y-213550000D02*
X176475000Y-105100000D01*
X176005000Y-214020000D02*
X176475000Y-213550000D01*
X155125000Y-83750000D02*
X155125000Y-80500000D01*
X176475000Y-105100000D02*
X155125000Y-83750000D01*
X175360000Y-214020000D02*
X176005000Y-214020000D01*
%TO.N,Net-(U10-D5)*%
X291325000Y-212900000D02*
X291325000Y-163350000D01*
X291325000Y-163350000D02*
X300075000Y-154600000D01*
X293575000Y-214250000D02*
X292675000Y-214250000D01*
X300075000Y-152550000D02*
X300125000Y-152500000D01*
X300075000Y-154600000D02*
X300075000Y-152550000D01*
X292675000Y-214250000D02*
X291325000Y-212900000D01*
%TO.N,/Upper PCB/PL*%
X212725000Y-219300000D02*
X212725000Y-219200000D01*
X321040000Y-212615000D02*
X321040000Y-212915000D01*
X212725000Y-219200000D02*
X211510000Y-217985000D01*
X247725000Y-217700000D02*
X247725000Y-217450000D01*
X282025000Y-216100000D02*
X282010000Y-216085000D01*
X174425000Y-216455000D02*
X174430000Y-216455000D01*
X320325000Y-211900000D02*
X321040000Y-212615000D01*
X294510000Y-212535000D02*
X294510000Y-212815000D01*
X362625000Y-211750000D02*
X362625000Y-212900000D01*
X174430000Y-216455000D02*
X175425000Y-217450000D01*
X175425000Y-217450000D02*
X175425000Y-217500000D01*
X248725000Y-218700000D02*
X247725000Y-217700000D01*
X247725000Y-217450000D02*
X247710000Y-217435000D01*
X293825000Y-211850000D02*
X294510000Y-212535000D01*
X282025000Y-217050000D02*
X282025000Y-216100000D01*
X395775000Y-212300000D02*
X395775000Y-213415000D01*
%TO.N,/Upper PCB/CP*%
X319475000Y-213350000D02*
X318975000Y-212850000D01*
X214400000Y-218150000D02*
X214625000Y-218375000D01*
X248975000Y-217000000D02*
X248645000Y-217000000D01*
X293575000Y-213250000D02*
X293075000Y-213250000D01*
X175640000Y-216300000D02*
X175360000Y-216020000D01*
X293075000Y-213250000D02*
X292575000Y-212750000D01*
X394840000Y-213850000D02*
X394225000Y-213850000D01*
X177010000Y-216475000D02*
X176835000Y-216300000D01*
X176835000Y-216300000D02*
X175640000Y-216300000D01*
X250150000Y-217550000D02*
X249525000Y-217550000D01*
X249525000Y-217550000D02*
X248975000Y-217000000D01*
X394225000Y-213850000D02*
X393775000Y-213400000D01*
X212445000Y-217550000D02*
X213045000Y-218150000D01*
X283325000Y-215650000D02*
X282945000Y-215650000D01*
X284025000Y-216350000D02*
X283325000Y-215650000D01*
X361255000Y-212900000D02*
X360625000Y-212900000D01*
X177800000Y-216475000D02*
X177010000Y-216475000D01*
X213045000Y-218150000D02*
X214400000Y-218150000D01*
X361690000Y-213335000D02*
X361255000Y-212900000D01*
X320105000Y-213350000D02*
X319475000Y-213350000D01*
%TO.N,Net-(U11-D4)*%
X320105000Y-213850000D02*
X318875000Y-213850000D01*
X318875000Y-213850000D02*
X318025000Y-213000000D01*
X336175000Y-190900000D02*
X336175000Y-188600000D01*
X318025000Y-213000000D02*
X318025000Y-209050000D01*
X318025000Y-209050000D02*
X336175000Y-190900000D01*
%TO.N,Net-(U11-D5)*%
X317275000Y-173650000D02*
X336025000Y-154900000D01*
X336025000Y-154900000D02*
X336025000Y-152600000D01*
X318475000Y-214350000D02*
X317275000Y-213150000D01*
X320105000Y-214350000D02*
X318475000Y-214350000D01*
X317275000Y-213150000D02*
X317275000Y-173650000D01*
%TO.N,Net-(U11-D6)*%
X337170000Y-116455000D02*
X337175000Y-116450000D01*
X320105000Y-214850000D02*
X318225000Y-214850000D01*
X318225000Y-214850000D02*
X316425000Y-213050000D01*
X316425000Y-139800000D02*
X337170000Y-119055000D01*
X316425000Y-213050000D02*
X316425000Y-139800000D01*
X337170000Y-118525000D02*
X337170000Y-116455000D01*
X337170000Y-119055000D02*
X337170000Y-118525000D01*
%TO.N,Net-(U11-D7)*%
X315675000Y-104400000D02*
X337025000Y-83050000D01*
X337025000Y-80777500D02*
X337027500Y-80775000D01*
X337025000Y-83050000D02*
X337025000Y-80777500D01*
X317975000Y-215350000D02*
X315675000Y-213050000D01*
X320105000Y-215350000D02*
X317975000Y-215350000D01*
X315675000Y-213050000D02*
X315675000Y-104400000D01*
%TO.N,Net-(U11-Q7)*%
X364025000Y-217600000D02*
X364025000Y-215870000D01*
X321540000Y-217165000D02*
X321540000Y-216285000D01*
X321975000Y-217500000D02*
X321875000Y-217500000D01*
X321875000Y-217500000D02*
X321540000Y-217165000D01*
X364025000Y-215870000D02*
X364060000Y-215835000D01*
%TO.N,Net-(U10-Q7)*%
X322475000Y-217750000D02*
X322475000Y-215850000D01*
X295325000Y-216500000D02*
X295010000Y-216185000D01*
X295325000Y-217250000D02*
X295325000Y-216500000D01*
X322125000Y-218100000D02*
X322475000Y-217750000D01*
%TO.N,Net-(U11-D0)*%
X323550000Y-215575000D02*
X323325000Y-215350000D01*
X323550000Y-215600000D02*
X323550000Y-215575000D01*
X336175000Y-331550000D02*
X336175000Y-332500000D01*
X323325000Y-215350000D02*
X322475000Y-215350000D01*
%TO.N,Net-(U11-D1)*%
X324200000Y-215050000D02*
X324100000Y-215050000D01*
X323900000Y-214850000D02*
X322475000Y-214850000D01*
X336475000Y-295400000D02*
X336475000Y-296600000D01*
X324100000Y-215050000D02*
X323900000Y-214850000D01*
%TO.N,Net-(U11-D2)*%
X324975000Y-215075000D02*
X324250000Y-214350000D01*
X324975000Y-215425000D02*
X324975000Y-215075000D01*
X336125000Y-259550000D02*
X336125000Y-260600000D01*
X324250000Y-214350000D02*
X322475000Y-214350000D01*
%TO.N,Net-(U11-D3)*%
X336225000Y-224700000D02*
X336225000Y-223500000D01*
X324975000Y-213850000D02*
X322475000Y-213850000D01*
%TO.N,Net-(U73-DO)*%
X409575000Y-330450000D02*
X380225000Y-330450000D01*
X409975000Y-330850000D02*
X409575000Y-330450000D01*
X380225000Y-330450000D02*
X379825000Y-330850000D01*
X411525000Y-330850000D02*
X409975000Y-330850000D01*
%TO.N,Net-(U73-CO)*%
X379825000Y-332450000D02*
X407175000Y-332450000D01*
X410425000Y-333550000D02*
X411525000Y-332450000D01*
X408275000Y-333550000D02*
X410425000Y-333550000D01*
X407175000Y-332450000D02*
X408275000Y-333550000D01*
%TO.N,/Upper PCB/MISO RGB*%
X423875000Y-210650000D02*
X415475000Y-202250000D01*
X415475000Y-202250000D02*
X398475000Y-202250000D01*
X415825000Y-332450000D02*
X423875000Y-324400000D01*
X423875000Y-324400000D02*
X423875000Y-210650000D01*
%TO.N,Net-(U12-D4)*%
X360175000Y-213200000D02*
X360175000Y-202950000D01*
X372525000Y-190600000D02*
X372525000Y-188600000D01*
X361655000Y-213800000D02*
X360775000Y-213800000D01*
X361690000Y-213835000D02*
X361655000Y-213800000D01*
X360775000Y-213800000D02*
X360175000Y-213200000D01*
X360175000Y-202950000D02*
X372525000Y-190600000D01*
%TO.N,Net-(U103-OUTPUT)*%
X283925000Y-213150000D02*
X283925000Y-105200000D01*
X282945000Y-213650000D02*
X283425000Y-213650000D01*
X283425000Y-213650000D02*
X283925000Y-213150000D01*
X264225000Y-85500000D02*
X264225000Y-80510000D01*
X283925000Y-105200000D02*
X264225000Y-85500000D01*
X264225000Y-80510000D02*
X264215000Y-80500000D01*
%TO.N,Net-(U10-DS)*%
X280975000Y-212180000D02*
X281510000Y-212715000D01*
X295325000Y-218000000D02*
X295945000Y-217380000D01*
X280975000Y-211650000D02*
X280975000Y-212180000D01*
X295945000Y-217380000D02*
X295945000Y-215750000D01*
%TO.N,Net-(U8-Q7)*%
X247025000Y-213200000D02*
X247225000Y-213400000D01*
X280575000Y-212750000D02*
X280575000Y-213150000D01*
X247225000Y-213400000D02*
X247225000Y-214050000D01*
X247225000Y-214050000D02*
X247210000Y-214065000D01*
X280175000Y-212350000D02*
X280575000Y-212750000D01*
X247025000Y-212500000D02*
X247025000Y-213200000D01*
%TO.N,Net-(U110-OUTPUT)*%
X280525000Y-213700000D02*
X280575000Y-213650000D01*
X279575000Y-213700000D02*
X280525000Y-213700000D01*
X264775000Y-332500000D02*
X264775000Y-331750000D01*
X264775000Y-331750000D02*
X265075000Y-331450000D01*
%TO.N,Net-(U109-OUTPUT)*%
X280575000Y-214150000D02*
X278475000Y-214150000D01*
X264487500Y-295700000D02*
X264487500Y-296550000D01*
%TO.N,Net-(U108-OUTPUT)*%
X264175000Y-260550000D02*
X264175000Y-259600000D01*
X280575000Y-214650000D02*
X277175000Y-214650000D01*
%TO.N,Net-(U107-OUTPUT)*%
X280575000Y-215150000D02*
X275725000Y-215150000D01*
X264975000Y-224500000D02*
X264975000Y-223300000D01*
%TO.N,Net-(U33-DO)*%
X201375000Y-186850000D02*
X199825000Y-186850000D01*
X231525000Y-186850000D02*
X229975000Y-186850000D01*
%TO.N,Net-(U33-CO)*%
X231525000Y-188450000D02*
X230625000Y-188450000D01*
X201275000Y-188450000D02*
X199825000Y-188450000D01*
X230625000Y-188450000D02*
X230125000Y-187950000D01*
%TO.N,Net-(U35-CO)*%
X267525000Y-188450000D02*
X266375000Y-188450000D01*
X237425000Y-188450000D02*
X235825000Y-188450000D01*
X266375000Y-188450000D02*
X266025000Y-188100000D01*
%TO.N,Net-(U35-DO)*%
X235825000Y-186850000D02*
X237325000Y-186850000D01*
X266025000Y-186950000D02*
X267425000Y-186950000D01*
X267425000Y-186950000D02*
X267525000Y-186850000D01*
%TO.N,Net-(U12-D7)*%
X358225000Y-213400000D02*
X358225000Y-97250000D01*
X361605000Y-215250000D02*
X360075000Y-215250000D01*
X360075000Y-215250000D02*
X358225000Y-213400000D01*
X361690000Y-215335000D02*
X361605000Y-215250000D01*
X372875000Y-82600000D02*
X372875000Y-80550000D01*
X358225000Y-97250000D02*
X372875000Y-82600000D01*
%TO.N,Net-(U7-D6)*%
X212825000Y-140600000D02*
X193225000Y-121000000D01*
X193225000Y-116600000D02*
X193125000Y-116500000D01*
X193225000Y-120300000D02*
X193225000Y-116600000D01*
X214225000Y-215825000D02*
X214500000Y-215825000D01*
X214225000Y-215825000D02*
X214000000Y-216050000D01*
X214000000Y-216050000D02*
X212445000Y-216050000D01*
X193225000Y-121000000D02*
X193225000Y-120300000D01*
X212825000Y-213550000D02*
X212825000Y-140600000D01*
X214500000Y-215825000D02*
X214675000Y-215650000D01*
%TO.N,Net-(U45-DO)*%
X160175000Y-222200000D02*
X159525000Y-222850000D01*
X415825000Y-186850000D02*
X418925000Y-189950000D01*
X418925000Y-191550000D02*
X415925000Y-194550000D01*
X415925000Y-194550000D02*
X408275000Y-194550000D01*
X418925000Y-189950000D02*
X418925000Y-191550000D01*
X160175000Y-221050000D02*
X160175000Y-222200000D01*
%TO.N,Net-(U45-CO)*%
X417875000Y-190000000D02*
X417875000Y-191350000D01*
X157875000Y-222800000D02*
X159525000Y-224450000D01*
X416325000Y-188450000D02*
X417875000Y-190000000D01*
X415825000Y-188450000D02*
X416325000Y-188450000D01*
X157875000Y-221750000D02*
X157875000Y-222800000D01*
X417875000Y-191350000D02*
X415825000Y-193400000D01*
X415825000Y-193400000D02*
X408275000Y-193400000D01*
%TO.N,Net-(U46-CO)*%
X191325000Y-224450000D02*
X192525000Y-225650000D01*
X192525000Y-225650000D02*
X194325000Y-225650000D01*
X194325000Y-225650000D02*
X195525000Y-224450000D01*
X163825000Y-224450000D02*
X191325000Y-224450000D01*
%TO.N,Net-(U46-DO)*%
X195525000Y-222850000D02*
X194275000Y-222850000D01*
X193775000Y-222350000D02*
X164325000Y-222350000D01*
X194275000Y-222850000D02*
X193775000Y-222350000D01*
X164325000Y-222350000D02*
X163825000Y-222850000D01*
%TO.N,Net-(U13-D0)*%
X397210000Y-215850000D02*
X397625000Y-215850000D01*
X408837500Y-332500000D02*
X408837500Y-331312500D01*
X397625000Y-215850000D02*
X398275000Y-216500000D01*
X408837500Y-331312500D02*
X408825000Y-331300000D01*
%TO.N,Net-(U6-D4)*%
X176955000Y-215520000D02*
X175360000Y-215520000D01*
X157175000Y-188600000D02*
X157075000Y-188500000D01*
X157175000Y-192050000D02*
X157175000Y-188600000D01*
X178875000Y-213600000D02*
X176955000Y-215520000D01*
X174625000Y-209500000D02*
X157175000Y-192050000D01*
%TO.N,Net-(U47-DO)*%
X195525000Y-258850000D02*
X195225000Y-258550000D01*
X195225000Y-258550000D02*
X164125000Y-258550000D01*
X164125000Y-258550000D02*
X163825000Y-258850000D01*
%TO.N,Net-(U47-CO)*%
X194375000Y-261600000D02*
X195525000Y-260450000D01*
X192425000Y-261600000D02*
X194375000Y-261600000D01*
X191275000Y-260450000D02*
X192425000Y-261600000D01*
X163825000Y-260450000D02*
X191275000Y-260450000D01*
%TO.N,Net-(U51-CO)*%
X230325000Y-261650000D02*
X231525000Y-260450000D01*
X199825000Y-260450000D02*
X226875000Y-260450000D01*
X228075000Y-261650000D02*
X230325000Y-261650000D01*
X226875000Y-260450000D02*
X228075000Y-261650000D01*
%TO.N,Net-(U51-DO)*%
X200375000Y-258300000D02*
X199825000Y-258850000D01*
X229525000Y-258300000D02*
X200375000Y-258300000D01*
X231525000Y-258850000D02*
X230075000Y-258850000D01*
X230075000Y-258850000D02*
X229525000Y-258300000D01*
%TO.N,Net-(U31-DO)*%
X164475000Y-186200000D02*
X163825000Y-186850000D01*
X165275000Y-186200000D02*
X164475000Y-186200000D01*
X195525000Y-186850000D02*
X194875000Y-186200000D01*
X194875000Y-186200000D02*
X194075000Y-186200000D01*
%TO.N,Net-(U31-CO)*%
X195525000Y-188450000D02*
X194925000Y-188450000D01*
X194925000Y-188450000D02*
X193975000Y-187500000D01*
X165075000Y-188400000D02*
X163875000Y-188400000D01*
X163875000Y-188400000D02*
X163825000Y-188450000D01*
%TO.N,Net-(U42-DO)*%
X410025000Y-150850000D02*
X411525000Y-150850000D01*
X379825000Y-150850000D02*
X381275000Y-150850000D01*
%TO.N,Net-(U42-CO)*%
X410225000Y-152450000D02*
X410175000Y-152400000D01*
X411525000Y-152450000D02*
X410225000Y-152450000D01*
X379875000Y-152400000D02*
X379825000Y-152450000D01*
X381275000Y-152400000D02*
X379875000Y-152400000D01*
%TO.N,Net-(U31-CI)*%
X415925000Y-158700000D02*
X411325000Y-158700000D01*
X418325000Y-156300000D02*
X415925000Y-158700000D01*
X415825000Y-152450000D02*
X416175000Y-152450000D01*
X416175000Y-152450000D02*
X418325000Y-154600000D01*
X418325000Y-154600000D02*
X418325000Y-156300000D01*
X158025000Y-185500000D02*
X158025000Y-186950000D01*
X158025000Y-186950000D02*
X159525000Y-188450000D01*
%TO.N,Net-(U31-DI)*%
X159775000Y-186600000D02*
X159525000Y-186850000D01*
X411325000Y-160100000D02*
X411375000Y-160050000D01*
X416625000Y-160050000D02*
X419725000Y-156950000D01*
X419725000Y-156950000D02*
X419725000Y-154650000D01*
X411375000Y-160050000D02*
X416625000Y-160050000D01*
X159775000Y-185200000D02*
X159775000Y-186600000D01*
X419725000Y-154650000D02*
X415925000Y-150850000D01*
X415925000Y-150850000D02*
X415825000Y-150850000D01*
%TO.N,Net-(U71-DO)*%
X411525000Y-258850000D02*
X409775000Y-258850000D01*
X409375000Y-258450000D02*
X380225000Y-258450000D01*
X409775000Y-258850000D02*
X409375000Y-258450000D01*
X380225000Y-258450000D02*
X379825000Y-258850000D01*
%TO.N,Net-(U71-CO)*%
X379825000Y-260450000D02*
X406625000Y-260450000D01*
X407875000Y-261700000D02*
X410275000Y-261700000D01*
X410275000Y-261700000D02*
X411525000Y-260450000D01*
X406625000Y-260450000D02*
X407875000Y-261700000D01*
%TO.N,Net-(U48-CI)*%
X417275000Y-260450000D02*
X419575000Y-262750000D01*
X415825000Y-260450000D02*
X417275000Y-260450000D01*
X419575000Y-263150000D02*
X415925000Y-266800000D01*
X415925000Y-266800000D02*
X409775000Y-266800000D01*
X409775000Y-266800000D02*
X409675000Y-266700000D01*
X419575000Y-262750000D02*
X419575000Y-263150000D01*
X157825000Y-293550000D02*
X157825000Y-294750000D01*
X157825000Y-294750000D02*
X159525000Y-296450000D01*
%TO.N,Net-(U48-DI)*%
X159775000Y-293150000D02*
X159775000Y-294600000D01*
X409725000Y-268350000D02*
X416875000Y-268350000D01*
X416875000Y-268350000D02*
X421125000Y-264100000D01*
X421125000Y-264100000D02*
X421125000Y-262750000D01*
X159775000Y-294600000D02*
X159525000Y-294850000D01*
X421125000Y-262750000D02*
X417225000Y-258850000D01*
X409675000Y-268300000D02*
X409725000Y-268350000D01*
X417225000Y-258850000D02*
X415825000Y-258850000D01*
%TO.N,Net-(U12-D5)*%
X371975000Y-154500000D02*
X371975000Y-152650000D01*
X360510000Y-214335000D02*
X359525000Y-213350000D01*
X359525000Y-166950000D02*
X371975000Y-154500000D01*
X361690000Y-214335000D02*
X360510000Y-214335000D01*
X359525000Y-213350000D02*
X359525000Y-166950000D01*
%TO.N,Net-(U12-D6)*%
X358925000Y-132900000D02*
X372575000Y-119250000D01*
X360375000Y-214800000D02*
X358925000Y-213350000D01*
X361655000Y-214800000D02*
X360375000Y-214800000D01*
X372575000Y-119250000D02*
X372575000Y-116450000D01*
X361690000Y-214835000D02*
X361655000Y-214800000D01*
X358925000Y-213350000D02*
X358925000Y-132900000D01*
%TO.N,Net-(U12-Q7)*%
X363125000Y-217100000D02*
X363275000Y-217250000D01*
X363125000Y-216270000D02*
X363125000Y-217100000D01*
X397325000Y-216465000D02*
X397210000Y-216350000D01*
X397325000Y-217900000D02*
X397325000Y-216465000D01*
%TO.N,Net-(U12-D0)*%
X365025000Y-215700000D02*
X364660000Y-215335000D01*
X372225000Y-331300000D02*
X372225000Y-332500000D01*
X365025000Y-215775000D02*
X365025000Y-215700000D01*
X364660000Y-215335000D02*
X364060000Y-215335000D01*
X365112500Y-215862500D02*
X365025000Y-215775000D01*
%TO.N,Net-(U12-D2)*%
X366400000Y-215050000D02*
X366375000Y-215050000D01*
X366375000Y-215050000D02*
X365660000Y-214335000D01*
X372525000Y-259500000D02*
X372525000Y-260700000D01*
X365660000Y-214335000D02*
X364060000Y-214335000D01*
%TO.N,Net-(U8-D7)*%
X248645000Y-215000000D02*
X249075000Y-215000000D01*
X249075000Y-215000000D02*
X249825000Y-214250000D01*
X228075000Y-80450000D02*
X228025000Y-80400000D01*
X249825000Y-106450000D02*
X228075000Y-84700000D01*
X228075000Y-84700000D02*
X228075000Y-80450000D01*
X249825000Y-214250000D02*
X249825000Y-106450000D01*
%TO.N,Net-(U10-D1)*%
X300175000Y-295600000D02*
X300175000Y-296600000D01*
X296975000Y-214750000D02*
X295945000Y-214750000D01*
X297825000Y-215600000D02*
X296975000Y-214750000D01*
X297825000Y-216025000D02*
X297825000Y-215600000D01*
%TO.N,Net-(U56-DO)*%
X235825000Y-294850000D02*
X267525000Y-294850000D01*
%TO.N,Net-(U56-CO)*%
X235825000Y-296450000D02*
X262425000Y-296450000D01*
X262425000Y-296450000D02*
X263575000Y-297600000D01*
X263575000Y-297600000D02*
X266375000Y-297600000D01*
X266375000Y-297600000D02*
X267525000Y-296450000D01*
%TO.N,Net-(U60-CO)*%
X271825000Y-296450000D02*
X298075000Y-296450000D01*
X299075000Y-297450000D02*
X302525000Y-297450000D01*
X298075000Y-296450000D02*
X299075000Y-297450000D01*
X302525000Y-297450000D02*
X303525000Y-296450000D01*
%TO.N,Net-(U60-DO)*%
X272225000Y-294450000D02*
X271825000Y-294850000D01*
X301375000Y-294850000D02*
X300975000Y-294450000D01*
X300975000Y-294450000D02*
X272225000Y-294450000D01*
X303525000Y-294850000D02*
X301375000Y-294850000D01*
%TO.N,Net-(U19-DO)*%
X344037500Y-78850000D02*
X375525000Y-78850000D01*
%TO.N,Net-(U19-CO)*%
X374225000Y-80450000D02*
X375525000Y-80450000D01*
X344037500Y-80450000D02*
X345475000Y-80450000D01*
%TO.N,Net-(U20-CO)*%
X379825000Y-80450000D02*
X381225000Y-80450000D01*
X410225000Y-80450000D02*
X411525000Y-80450000D01*
%TO.N,Net-(U20-DO)*%
X404325000Y-78850000D02*
X404975000Y-78200000D01*
X379825000Y-78850000D02*
X404325000Y-78850000D01*
X404975000Y-78200000D02*
X410875000Y-78200000D01*
X410875000Y-78200000D02*
X411525000Y-78850000D01*
%TO.N,Net-(U7-D7)*%
X212445000Y-215550000D02*
X213175000Y-215550000D01*
X213625000Y-215100000D02*
X213625000Y-105400000D01*
X192025000Y-80650000D02*
X191975000Y-80600000D01*
X191975000Y-83750000D02*
X191975000Y-80600000D01*
X213625000Y-105400000D02*
X191975000Y-83750000D01*
X213175000Y-215550000D02*
X213625000Y-215100000D01*
X191775000Y-80800000D02*
X191975000Y-80600000D01*
%TO.N,Net-(U10-D4)*%
X291975000Y-199450000D02*
X300725000Y-190700000D01*
X293575000Y-213750000D02*
X292775000Y-213750000D01*
X300725000Y-190700000D02*
X300725000Y-188450000D01*
X291975000Y-212950000D02*
X291975000Y-199450000D01*
X292775000Y-213750000D02*
X291975000Y-212950000D01*
%TO.N,Net-(U10-D6)*%
X301082500Y-119192500D02*
X301082500Y-118675000D01*
X290775000Y-213000000D02*
X290775000Y-129650000D01*
X290775000Y-129650000D02*
X301082500Y-119342500D01*
X301082500Y-119342500D02*
X301082500Y-119192500D01*
X292525000Y-214750000D02*
X290775000Y-213000000D01*
X293575000Y-214750000D02*
X292525000Y-214750000D01*
X301082500Y-116405000D02*
X301087500Y-116400000D01*
X301082500Y-118675000D02*
X301082500Y-116405000D01*
%TO.N,Net-(U10-D7)*%
X290025000Y-93700000D02*
X300685000Y-83040000D01*
X300685000Y-80460000D02*
X300675000Y-80450000D01*
X293575000Y-215250000D02*
X292275000Y-215250000D01*
X290025000Y-213000000D02*
X290025000Y-93700000D01*
X292275000Y-215250000D02*
X290025000Y-213000000D01*
X300685000Y-83040000D02*
X300685000Y-80460000D01*
%TO.N,Net-(U10-D0)*%
X300125000Y-332500000D02*
X300125000Y-331550000D01*
X296925000Y-215550000D02*
X296625000Y-215250000D01*
X296625000Y-215250000D02*
X295945000Y-215250000D01*
%TO.N,Net-(U10-D3)*%
X298625000Y-213750000D02*
X295945000Y-213750000D01*
X299250000Y-214375000D02*
X298625000Y-213750000D01*
X300625000Y-224500000D02*
X300625000Y-223200000D01*
%TO.N,Net-(U7-D1)*%
X193075000Y-295350000D02*
X193075000Y-296450000D01*
X207625000Y-216050000D02*
X210075000Y-216050000D01*
%TO.N,Net-(U62-DO)*%
X339525000Y-222850000D02*
X337325000Y-222850000D01*
X337325000Y-222850000D02*
X337025000Y-222550000D01*
X337025000Y-222550000D02*
X308125000Y-222550000D01*
X308125000Y-222550000D02*
X307825000Y-222850000D01*
%TO.N,Net-(U62-CO)*%
X307825000Y-224450000D02*
X334325000Y-224450000D01*
X338275000Y-225700000D02*
X339525000Y-224450000D01*
X335575000Y-225700000D02*
X338275000Y-225700000D01*
X334325000Y-224450000D02*
X335575000Y-225700000D01*
%TO.N,Net-(U66-CO)*%
X371425000Y-225700000D02*
X374275000Y-225700000D01*
X374275000Y-225700000D02*
X375525000Y-224450000D01*
X343825000Y-224450000D02*
X370175000Y-224450000D01*
X370175000Y-224450000D02*
X371425000Y-225700000D01*
%TO.N,Net-(U66-DO)*%
X372875000Y-222450000D02*
X344225000Y-222450000D01*
X373275000Y-222850000D02*
X372875000Y-222450000D01*
X375525000Y-222850000D02*
X373275000Y-222850000D01*
X344225000Y-222450000D02*
X343825000Y-222850000D01*
%TO.N,Net-(U8-D6)*%
X250475000Y-214775000D02*
X250425000Y-214775000D01*
X229207500Y-120782500D02*
X229207500Y-119075000D01*
X249075000Y-213100000D02*
X249075000Y-140650000D01*
X229207500Y-116517500D02*
X229225000Y-116500000D01*
X249700000Y-215500000D02*
X248645000Y-215500000D01*
X229207500Y-119075000D02*
X229207500Y-116517500D01*
X249075000Y-140650000D02*
X229207500Y-120782500D01*
X250425000Y-214775000D02*
X249700000Y-215500000D01*
%TO.N,Net-(U8-D3)*%
X242125000Y-216500000D02*
X237675000Y-220950000D01*
X229125000Y-223600000D02*
X229125000Y-224700000D01*
X246275000Y-216500000D02*
X242125000Y-216500000D01*
%TO.N,Net-(U6-D1)*%
X151775000Y-220600000D02*
X151775000Y-286600000D01*
X156875000Y-291700000D02*
X156875000Y-296600000D01*
X172990000Y-214520000D02*
X157855000Y-214520000D01*
X151775000Y-286600000D02*
X156875000Y-291700000D01*
X157855000Y-214520000D02*
X151775000Y-220600000D01*
%TO.N,Net-(U13-D4)*%
X393225000Y-206000000D02*
X408275000Y-190950000D01*
X393225000Y-213800000D02*
X393225000Y-206000000D01*
X393775000Y-214350000D02*
X393225000Y-213800000D01*
X394840000Y-214350000D02*
X393775000Y-214350000D01*
X408275000Y-190950000D02*
X408275000Y-188600000D01*
%TO.N,Net-(U13-D6)*%
X408775000Y-118700000D02*
X408775000Y-116542500D01*
X393675000Y-215350000D02*
X392225000Y-213900000D01*
X408775000Y-116542500D02*
X408792500Y-116525000D01*
X392225000Y-135250000D02*
X408775000Y-118700000D01*
X392225000Y-213900000D02*
X392225000Y-135250000D01*
X394840000Y-215350000D02*
X393675000Y-215350000D01*
%TO.N,Net-(U36-DO)*%
X273375000Y-150850000D02*
X271825000Y-150850000D01*
X303525000Y-150850000D02*
X301675000Y-150850000D01*
%TO.N,Net-(U36-CO)*%
X271825000Y-152450000D02*
X273325000Y-152450000D01*
X301925000Y-152450000D02*
X303525000Y-152450000D01*
%TO.N,Net-(U38-CO)*%
X309225000Y-152450000D02*
X307825000Y-152450000D01*
X339525000Y-152450000D02*
X337875000Y-152450000D01*
%TO.N,Net-(U38-DO)*%
X337875000Y-150850000D02*
X339525000Y-150850000D01*
X307825000Y-150850000D02*
X309225000Y-150850000D01*
%TO.N,/Upper PCB/MOSI*%
X160525000Y-79850000D02*
X159525000Y-78850000D01*
X163700000Y-83475000D02*
X160525000Y-80300000D01*
X160525000Y-80300000D02*
X160525000Y-79850000D01*
%TO.N,/Upper PCB/CLK 5V*%
X162950000Y-83775000D02*
X162850000Y-83775000D01*
X162850000Y-83775000D02*
X159525000Y-80450000D01*
%TO.N,Net-(U14-CO)*%
X165275000Y-80450000D02*
X163825000Y-80450000D01*
X195275000Y-80700000D02*
X195525000Y-80450000D01*
X194175000Y-80700000D02*
X195275000Y-80700000D01*
%TO.N,Net-(U14-DO)*%
X163825000Y-78850000D02*
X195525000Y-78850000D01*
%TO.N,Net-(U55-CO)*%
X263575000Y-261650000D02*
X266325000Y-261650000D01*
X266325000Y-261650000D02*
X267525000Y-260450000D01*
X262375000Y-260450000D02*
X263575000Y-261650000D01*
X235825000Y-260450000D02*
X262375000Y-260450000D01*
%TO.N,Net-(U55-DO)*%
X265425000Y-258850000D02*
X265075000Y-258500000D01*
X265075000Y-258500000D02*
X236175000Y-258500000D01*
X236175000Y-258500000D02*
X235825000Y-258850000D01*
X267525000Y-258850000D02*
X265425000Y-258850000D01*
%TO.N,Net-(U24-DO)*%
X266125000Y-114850000D02*
X267525000Y-114850000D01*
X235825000Y-114850000D02*
X237475000Y-114850000D01*
%TO.N,Net-(U24-CO)*%
X261525000Y-116450000D02*
X263075000Y-116450000D01*
X263075000Y-116450000D02*
X264175000Y-115350000D01*
X235825000Y-116450000D02*
X237425000Y-116450000D01*
X266425000Y-115350000D02*
X267525000Y-116450000D01*
X264175000Y-115350000D02*
X266425000Y-115350000D01*
%TO.N,Net-(U25-CO)*%
X297475000Y-116450000D02*
X299075000Y-116450000D01*
X300625000Y-114900000D02*
X301975000Y-114900000D01*
X301975000Y-114900000D02*
X303525000Y-116450000D01*
X271825000Y-116450000D02*
X273575000Y-116450000D01*
X299075000Y-116450000D02*
X300625000Y-114900000D01*
%TO.N,Net-(U25-DO)*%
X301525000Y-114250000D02*
X302700000Y-114250000D01*
X271825000Y-114850000D02*
X273525000Y-114850000D01*
X303300000Y-114850000D02*
X303525000Y-114850000D01*
X302700000Y-114250000D02*
X303300000Y-114850000D01*
%TO.N,Net-(U32-DO)*%
X231525000Y-150850000D02*
X230025000Y-150850000D01*
X201375000Y-150850000D02*
X199825000Y-150850000D01*
%TO.N,Net-(U32-CO)*%
X199825000Y-152450000D02*
X201325000Y-152450000D01*
X230875000Y-151800000D02*
X231525000Y-152450000D01*
X230150000Y-151800000D02*
X230875000Y-151800000D01*
%TO.N,Net-(U34-CO)*%
X267525000Y-152450000D02*
X265925000Y-152450000D01*
X237975000Y-152450000D02*
X235825000Y-152450000D01*
%TO.N,Net-(U34-DO)*%
X265975000Y-150850000D02*
X267525000Y-150850000D01*
X235825000Y-150850000D02*
X237225000Y-150850000D01*
%TO.N,Net-(U13-D5)*%
X394840000Y-214850000D02*
X393725000Y-214850000D01*
X392725000Y-170750000D02*
X408725000Y-154750000D01*
X408725000Y-154750000D02*
X408725000Y-152700000D01*
X392725000Y-213850000D02*
X392725000Y-170750000D01*
X393725000Y-214850000D02*
X392725000Y-213850000D01*
%TO.N,Net-(U61-DO)*%
X301575000Y-330500000D02*
X272175000Y-330500000D01*
X303525000Y-330850000D02*
X301925000Y-330850000D01*
X301925000Y-330850000D02*
X301575000Y-330500000D01*
X272175000Y-330500000D02*
X271825000Y-330850000D01*
%TO.N,Net-(U61-CO)*%
X298425000Y-332450000D02*
X299525000Y-333550000D01*
X299525000Y-333550000D02*
X302425000Y-333550000D01*
X271825000Y-332450000D02*
X298425000Y-332450000D01*
X302425000Y-333550000D02*
X303525000Y-332450000D01*
%TO.N,Net-(U65-CO)*%
X334525000Y-332450000D02*
X335725000Y-333650000D01*
X338325000Y-333650000D02*
X339525000Y-332450000D01*
X307825000Y-332450000D02*
X334525000Y-332450000D01*
X335725000Y-333650000D02*
X338325000Y-333650000D01*
%TO.N,Net-(U65-DO)*%
X308225000Y-330450000D02*
X307825000Y-330850000D01*
X337275000Y-330450000D02*
X308225000Y-330450000D01*
X339525000Y-330850000D02*
X337675000Y-330850000D01*
X337675000Y-330850000D02*
X337275000Y-330450000D01*
%TO.N,Net-(U23-DO)*%
X201875000Y-114850000D02*
X201925000Y-114900000D01*
X230175000Y-114900000D02*
X231475000Y-114900000D01*
X231475000Y-114900000D02*
X231525000Y-114850000D01*
X199825000Y-114850000D02*
X201875000Y-114850000D01*
%TO.N,Net-(U23-CO)*%
X225575000Y-116450000D02*
X227225000Y-116450000D01*
X201825000Y-116450000D02*
X201875000Y-116400000D01*
X229950000Y-115350000D02*
X231050000Y-116450000D01*
X227225000Y-116450000D02*
X228325000Y-115350000D01*
X228325000Y-115350000D02*
X229950000Y-115350000D01*
X231050000Y-116450000D02*
X231525000Y-116450000D01*
X199825000Y-116450000D02*
X201825000Y-116450000D01*
%TO.N,Net-(U70-DO)*%
X380475000Y-222200000D02*
X379825000Y-222850000D01*
X409575000Y-222850000D02*
X408925000Y-222200000D01*
X411525000Y-222850000D02*
X409575000Y-222850000D01*
X408925000Y-222200000D02*
X380475000Y-222200000D01*
%TO.N,Net-(U70-CO)*%
X407625000Y-225750000D02*
X410225000Y-225750000D01*
X379825000Y-224450000D02*
X406325000Y-224450000D01*
X406325000Y-224450000D02*
X407625000Y-225750000D01*
X410225000Y-225750000D02*
X411525000Y-224450000D01*
%TO.N,Net-(U47-CI)*%
X416675000Y-224450000D02*
X419075000Y-226850000D01*
X415875000Y-231000000D02*
X411425000Y-231000000D01*
X415825000Y-224450000D02*
X416675000Y-224450000D01*
X158075000Y-257400000D02*
X158075000Y-259000000D01*
X158075000Y-259000000D02*
X159525000Y-260450000D01*
X419075000Y-226850000D02*
X419075000Y-227800000D01*
X419075000Y-227800000D02*
X415875000Y-231000000D01*
%TO.N,Net-(U47-DI)*%
X416875000Y-222850000D02*
X420875000Y-226850000D01*
X420875000Y-226850000D02*
X420875000Y-228350000D01*
X160225000Y-258150000D02*
X159525000Y-258850000D01*
X160225000Y-257350000D02*
X160225000Y-258150000D01*
X415825000Y-222850000D02*
X416875000Y-222850000D01*
X420875000Y-228350000D02*
X416975000Y-232250000D01*
X416975000Y-232250000D02*
X411425000Y-232250000D01*
%TO.N,Net-(U48-CO)*%
X194475000Y-297500000D02*
X195525000Y-296450000D01*
X191225000Y-296450000D02*
X192275000Y-297500000D01*
X163825000Y-296450000D02*
X191225000Y-296450000D01*
X192275000Y-297500000D02*
X194475000Y-297500000D01*
%TO.N,Net-(U48-DO)*%
X195525000Y-294850000D02*
X194275000Y-294850000D01*
X193875000Y-294450000D02*
X164225000Y-294450000D01*
X194275000Y-294850000D02*
X193875000Y-294450000D01*
X164225000Y-294450000D02*
X163825000Y-294850000D01*
%TO.N,Net-(U7-D2)*%
X205275000Y-216550000D02*
X210075000Y-216550000D01*
X193025000Y-259450000D02*
X193025000Y-260550000D01*
%TO.N,Net-(U72-DO)*%
X409625000Y-294850000D02*
X409175000Y-294400000D01*
X411525000Y-294850000D02*
X409625000Y-294850000D01*
X409175000Y-294400000D02*
X380275000Y-294400000D01*
X380275000Y-294400000D02*
X379825000Y-294850000D01*
%TO.N,Net-(U72-CO)*%
X410375000Y-297600000D02*
X411525000Y-296450000D01*
X407525000Y-297600000D02*
X410375000Y-297600000D01*
X406375000Y-296450000D02*
X407525000Y-297600000D01*
X379825000Y-296450000D02*
X406375000Y-296450000D01*
%TO.N,Net-(U49-CI)*%
X157975000Y-330900000D02*
X159525000Y-332450000D01*
X415825000Y-296450000D02*
X416225000Y-296450000D01*
X416225000Y-296450000D02*
X417900000Y-298125000D01*
X157975000Y-329500000D02*
X157975000Y-330900000D01*
X411575000Y-301800000D02*
X411525000Y-301800000D01*
X417900000Y-300125000D02*
X416225000Y-301800000D01*
X416225000Y-301800000D02*
X411575000Y-301800000D01*
X417900000Y-298125000D02*
X417900000Y-300125000D01*
%TO.N,Net-(U49-DI)*%
X419625000Y-297900000D02*
X419625000Y-300900000D01*
X411575000Y-303150000D02*
X411625000Y-303100000D01*
X417425000Y-303100000D02*
X411625000Y-303100000D01*
X160025000Y-330350000D02*
X159525000Y-330850000D01*
X416575000Y-294850000D02*
X419625000Y-297900000D01*
X160025000Y-329200000D02*
X160025000Y-330350000D01*
X419625000Y-300900000D02*
X417425000Y-303100000D01*
X415825000Y-294850000D02*
X416575000Y-294850000D01*
%TO.N,Net-(U26-CO)*%
X333575000Y-116450000D02*
X335187500Y-116450000D01*
X336412500Y-115225000D02*
X338300000Y-115225000D01*
X335187500Y-116450000D02*
X336412500Y-115225000D01*
X338300000Y-115225000D02*
X339525000Y-116450000D01*
X307825000Y-116450000D02*
X309275000Y-116450000D01*
%TO.N,Net-(U26-DO)*%
X337125000Y-114350000D02*
X339025000Y-114350000D01*
X339025000Y-114350000D02*
X339525000Y-114850000D01*
X307825000Y-114850000D02*
X309275000Y-114850000D01*
%TO.N,Net-(U59-DO)*%
X301475000Y-258350000D02*
X272325000Y-258350000D01*
X303525000Y-258850000D02*
X301975000Y-258850000D01*
X301975000Y-258850000D02*
X301475000Y-258350000D01*
X272325000Y-258350000D02*
X271825000Y-258850000D01*
%TO.N,Net-(U59-CO)*%
X299875000Y-261650000D02*
X302325000Y-261650000D01*
X302325000Y-261650000D02*
X303525000Y-260450000D01*
X298675000Y-260450000D02*
X299875000Y-261650000D01*
X271825000Y-260450000D02*
X298675000Y-260450000D01*
%TO.N,Net-(U63-CO)*%
X335425000Y-261650000D02*
X338325000Y-261650000D01*
X334225000Y-260450000D02*
X335425000Y-261650000D01*
X307825000Y-260450000D02*
X334225000Y-260450000D01*
X338325000Y-261650000D02*
X339525000Y-260450000D01*
%TO.N,Net-(U63-DO)*%
X337425000Y-258850000D02*
X336975000Y-258400000D01*
X339525000Y-258850000D02*
X337425000Y-258850000D01*
X336975000Y-258400000D02*
X308275000Y-258400000D01*
X308275000Y-258400000D02*
X307825000Y-258850000D01*
%TO.N,Net-(U58-DO)*%
X272175000Y-222500000D02*
X271825000Y-222850000D01*
X301375000Y-222500000D02*
X272175000Y-222500000D01*
X301725000Y-222850000D02*
X301375000Y-222500000D01*
X303525000Y-222850000D02*
X301725000Y-222850000D01*
%TO.N,Net-(U58-CO)*%
X302375000Y-225600000D02*
X303525000Y-224450000D01*
X271825000Y-224450000D02*
X298775000Y-224450000D01*
X299925000Y-225600000D02*
X302375000Y-225600000D01*
X298775000Y-224450000D02*
X299925000Y-225600000D01*
%TO.N,Net-(U7-D0)*%
X192725000Y-331550000D02*
X192725000Y-332500000D01*
X209075000Y-215550000D02*
X210075000Y-215550000D01*
%TO.N,Net-(U102-OUTPUT)*%
X228875000Y-332450000D02*
X228875000Y-331400000D01*
X245175000Y-215100000D02*
X245275000Y-215000000D01*
X245275000Y-215000000D02*
X246275000Y-215000000D01*
%TO.N,Net-(U13-D2)*%
X399075000Y-214850000D02*
X400125000Y-215900000D01*
X397210000Y-214850000D02*
X399075000Y-214850000D01*
X408575000Y-260650000D02*
X408575000Y-259450000D01*
%TO.N,Net-(U40-DO)*%
X373825000Y-150850000D02*
X375525000Y-150850000D01*
X343825000Y-150850000D02*
X345225000Y-150850000D01*
%TO.N,Net-(U40-CO)*%
X345175000Y-152450000D02*
X343825000Y-152450000D01*
X375525000Y-152450000D02*
X373825000Y-152450000D01*
%TO.N,Net-(U68-DO)*%
X375525000Y-294850000D02*
X373675000Y-294850000D01*
X344325000Y-294350000D02*
X343825000Y-294850000D01*
X373675000Y-294850000D02*
X373175000Y-294350000D01*
X373175000Y-294350000D02*
X344325000Y-294350000D01*
%TO.N,Net-(U68-CO)*%
X370225000Y-296450000D02*
X371325000Y-297550000D01*
X374425000Y-297550000D02*
X375525000Y-296450000D01*
X371325000Y-297550000D02*
X374425000Y-297550000D01*
X343825000Y-296450000D02*
X370225000Y-296450000D01*
%TO.N,Net-(U67-CO)*%
X370575000Y-260450000D02*
X371825000Y-261700000D01*
X374275000Y-261700000D02*
X375525000Y-260450000D01*
X343825000Y-260450000D02*
X370575000Y-260450000D01*
X371825000Y-261700000D02*
X374275000Y-261700000D01*
%TO.N,Net-(U67-DO)*%
X344175000Y-258500000D02*
X343825000Y-258850000D01*
X373575000Y-258500000D02*
X344175000Y-258500000D01*
X373925000Y-258850000D02*
X373575000Y-258500000D01*
X375525000Y-258850000D02*
X373925000Y-258850000D01*
%TO.N,Net-(U13-D1)*%
X398375000Y-215350000D02*
X398725000Y-215700000D01*
X397210000Y-215350000D02*
X398375000Y-215350000D01*
X408425000Y-296600000D02*
X408425000Y-295450000D01*
%TO.N,Net-(U52-CO)*%
X227475000Y-297450000D02*
X230525000Y-297450000D01*
X230525000Y-297450000D02*
X231525000Y-296450000D01*
X199825000Y-296450000D02*
X226475000Y-296450000D01*
X226475000Y-296450000D02*
X227475000Y-297450000D01*
%TO.N,Net-(U52-DO)*%
X229375000Y-294500000D02*
X200175000Y-294500000D01*
X231525000Y-294850000D02*
X229725000Y-294850000D01*
X200175000Y-294500000D02*
X199825000Y-294850000D01*
X229725000Y-294850000D02*
X229375000Y-294500000D01*
%TO.N,Net-(U28-DO)*%
X379825000Y-114850000D02*
X381325000Y-114850000D01*
X411275000Y-114600000D02*
X411525000Y-114850000D01*
X410075000Y-114600000D02*
X411275000Y-114600000D01*
%TO.N,Net-(U28-CO)*%
X405125000Y-116450000D02*
X406975000Y-116450000D01*
X406975000Y-116450000D02*
X407925000Y-115500000D01*
X410575000Y-115500000D02*
X411525000Y-116450000D01*
X379825000Y-116450000D02*
X381325000Y-116450000D01*
X407925000Y-115500000D02*
X410575000Y-115500000D01*
%TO.N,Net-(U29-CO)*%
X158125000Y-151050000D02*
X159525000Y-152450000D01*
X415825000Y-116450000D02*
X416425000Y-116450000D01*
X417875000Y-119250000D02*
X415825000Y-121300000D01*
X158125000Y-149500000D02*
X158125000Y-151050000D01*
X416425000Y-116450000D02*
X417875000Y-117900000D01*
X415825000Y-121300000D02*
X411525000Y-121300000D01*
X417875000Y-117900000D02*
X417875000Y-119250000D01*
%TO.N,Net-(U29-DO)*%
X417625000Y-122300000D02*
X411475000Y-122300000D01*
X419525000Y-120400000D02*
X417625000Y-122300000D01*
X159875000Y-149250000D02*
X159875000Y-150500000D01*
X419525000Y-117650000D02*
X419525000Y-120400000D01*
X159875000Y-150500000D02*
X159525000Y-150850000D01*
X415825000Y-114850000D02*
X416725000Y-114850000D01*
X416725000Y-114850000D02*
X419525000Y-117650000D01*
%TO.N,Net-(U49-DO)*%
X195525000Y-330850000D02*
X194025000Y-330850000D01*
X194025000Y-330850000D02*
X193575000Y-330400000D01*
X164275000Y-330400000D02*
X163825000Y-330850000D01*
X193575000Y-330400000D02*
X164275000Y-330400000D01*
%TO.N,Net-(U49-CO)*%
X190825000Y-332450000D02*
X191775000Y-333400000D01*
X163825000Y-332450000D02*
X190825000Y-332450000D01*
X191775000Y-333400000D02*
X194575000Y-333400000D01*
X194575000Y-333400000D02*
X195525000Y-332450000D01*
%TO.N,Net-(U22-DO)*%
X163825000Y-114850000D02*
X165325000Y-114850000D01*
X194225000Y-114850000D02*
X195525000Y-114850000D01*
%TO.N,Net-(U22-CO)*%
X192225000Y-115350000D02*
X194425000Y-115350000D01*
X194425000Y-115350000D02*
X195525000Y-116450000D01*
X189375000Y-116450000D02*
X191125000Y-116450000D01*
X163825000Y-116450000D02*
X165325000Y-116450000D01*
X191125000Y-116450000D02*
X192225000Y-115350000D01*
%TO.N,Net-(U13-D3)*%
X397210000Y-214350000D02*
X400225000Y-214350000D01*
X408325000Y-223700000D02*
X408325000Y-224600000D01*
X408325000Y-224600000D02*
X408275000Y-224650000D01*
%TO.N,/Upper PCB/Q7*%
X396275000Y-217850000D02*
X396275000Y-216785000D01*
%TO.N,Net-(U27-DO)*%
X343825000Y-114850000D02*
X345575000Y-114850000D01*
X373675000Y-114500000D02*
X375175000Y-114500000D01*
X375175000Y-114500000D02*
X375525000Y-114850000D01*
%TO.N,Net-(U27-CO)*%
X370625000Y-116450000D02*
X371625000Y-115450000D01*
X371625000Y-115450000D02*
X374525000Y-115450000D01*
X343825000Y-116450000D02*
X345625000Y-116450000D01*
X368725000Y-116450000D02*
X370625000Y-116450000D01*
X374525000Y-115450000D02*
X375525000Y-116450000D01*
%TO.N,Net-(U37-DO)*%
X271825000Y-186850000D02*
X273225000Y-186850000D01*
X302025000Y-186850000D02*
X303525000Y-186850000D01*
%TO.N,Net-(U37-CO)*%
X271925000Y-188350000D02*
X271825000Y-188450000D01*
X303525000Y-188450000D02*
X302625000Y-188450000D01*
X302625000Y-188450000D02*
X302125000Y-187950000D01*
X274125000Y-188350000D02*
X271925000Y-188350000D01*
%TO.N,Net-(U18-DO)*%
X307825000Y-78850000D02*
X339737500Y-78850000D01*
%TO.N,Net-(U18-CO)*%
X307825000Y-80450000D02*
X309175000Y-80450000D01*
X338375000Y-80450000D02*
X339737500Y-80450000D01*
%TO.N,Net-(U21-DO)*%
X420025000Y-82200000D02*
X416675000Y-78850000D01*
X160825000Y-113300000D02*
X159525000Y-114600000D01*
X416675000Y-78850000D02*
X415825000Y-78850000D01*
X415975000Y-87050000D02*
X420025000Y-83000000D01*
X420025000Y-83000000D02*
X420025000Y-82200000D01*
X159525000Y-114600000D02*
X159525000Y-114850000D01*
X415325000Y-87050000D02*
X415975000Y-87050000D01*
%TO.N,Net-(U21-CO)*%
X418625000Y-82050000D02*
X418625000Y-83150000D01*
X417025000Y-80450000D02*
X418625000Y-82050000D01*
X415975000Y-85800000D02*
X414875000Y-85800000D01*
X418625000Y-83150000D02*
X415975000Y-85800000D01*
X415825000Y-80450000D02*
X417025000Y-80450000D01*
X158275000Y-113250000D02*
X158275000Y-115200000D01*
X158275000Y-115200000D02*
X159525000Y-116450000D01*
%TO.N,Net-(U7-D5)*%
X214650000Y-216550000D02*
X212445000Y-216550000D01*
X193125000Y-152805000D02*
X192995000Y-152675000D01*
X193125000Y-155550000D02*
X193125000Y-152805000D01*
X212125000Y-174550000D02*
X193125000Y-155550000D01*
X212125000Y-212100000D02*
X212125000Y-174550000D01*
X215375000Y-215825000D02*
X214650000Y-216550000D01*
%TO.N,Net-(U50-DO)*%
X230075000Y-222850000D02*
X229775000Y-222550000D01*
X229775000Y-222550000D02*
X200125000Y-222550000D01*
X200125000Y-222550000D02*
X199825000Y-222850000D01*
X231525000Y-222850000D02*
X230075000Y-222850000D01*
%TO.N,Net-(U50-CO)*%
X230225000Y-225750000D02*
X231525000Y-224450000D01*
X228525000Y-225750000D02*
X230225000Y-225750000D01*
X199825000Y-224450000D02*
X227225000Y-224450000D01*
X227225000Y-224450000D02*
X228525000Y-225750000D01*
%TO.N,Net-(U54-CO)*%
X235825000Y-224450000D02*
X263125000Y-224450000D01*
X263125000Y-224450000D02*
X264275000Y-225600000D01*
X266375000Y-225600000D02*
X267525000Y-224450000D01*
X264275000Y-225600000D02*
X266375000Y-225600000D01*
%TO.N,Net-(U54-DO)*%
X236325000Y-222350000D02*
X235825000Y-222850000D01*
X266325000Y-222850000D02*
X265825000Y-222350000D01*
X265825000Y-222350000D02*
X236325000Y-222350000D01*
X267525000Y-222850000D02*
X266325000Y-222850000D01*
%TO.N,Net-(U64-DO)*%
X339525000Y-294850000D02*
X337775000Y-294850000D01*
X337775000Y-294850000D02*
X337325000Y-294400000D01*
X308275000Y-294400000D02*
X307825000Y-294850000D01*
X337325000Y-294400000D02*
X308275000Y-294400000D01*
%TO.N,Net-(U64-CO)*%
X338575000Y-297400000D02*
X339525000Y-296450000D01*
X334375000Y-296450000D02*
X335325000Y-297400000D01*
X307825000Y-296450000D02*
X334375000Y-296450000D01*
X335325000Y-297400000D02*
X338575000Y-297400000D01*
%TO.N,Net-(U7-D4)*%
X215900000Y-216475000D02*
X216175000Y-216200000D01*
X211375000Y-210500000D02*
X192575000Y-191700000D01*
X192575000Y-191700000D02*
X192575000Y-188500000D01*
X215750000Y-216475000D02*
X215900000Y-216475000D01*
X215750000Y-216475000D02*
X215175000Y-217050000D01*
X215175000Y-217050000D02*
X212445000Y-217050000D01*
X192575000Y-188500000D02*
X192525000Y-188450000D01*
%TO.N,Net-(U7-Q7)*%
X211010000Y-214615000D02*
X210625000Y-214230000D01*
X210625000Y-214230000D02*
X210625000Y-213300000D01*
X245275000Y-213500000D02*
X246275000Y-214500000D01*
%TO.N,Net-(U6-Q7)*%
X173625000Y-209750000D02*
X173625000Y-212785000D01*
X173625000Y-212785000D02*
X173925000Y-213085000D01*
X209575000Y-215050000D02*
X210075000Y-215050000D01*
X209025000Y-214500000D02*
X209575000Y-215050000D01*
%TO.N,Net-(U7-D3)*%
X193175000Y-223450000D02*
X193175000Y-224500000D01*
X203875000Y-217050000D02*
X210075000Y-217050000D01*
%TO.N,Net-(U6-D2)*%
X152625000Y-220650000D02*
X158255000Y-215020000D01*
X157225000Y-258400000D02*
X152625000Y-253800000D01*
X157225000Y-260450000D02*
X157225000Y-258400000D01*
X152625000Y-253800000D02*
X152625000Y-220650000D01*
X158255000Y-215020000D02*
X172990000Y-215020000D01*
%TO.N,Net-(U30-DO)*%
X163825000Y-150850000D02*
X165375000Y-150850000D01*
X194125000Y-150850000D02*
X195525000Y-150850000D01*
%TO.N,Net-(U30-CO)*%
X163825000Y-152450000D02*
X165425000Y-152450000D01*
X194925000Y-151850000D02*
X195525000Y-152450000D01*
X194175000Y-151850000D02*
X194925000Y-151850000D01*
%TO.N,Net-(U16-DO)*%
X235825000Y-78850000D02*
X267525000Y-78850000D01*
%TO.N,Net-(U16-CO)*%
X235825000Y-80450000D02*
X237275000Y-80450000D01*
X266175000Y-80450000D02*
X267525000Y-80450000D01*
%TO.N,Net-(U17-CO)*%
X271825000Y-80450000D02*
X273275000Y-80450000D01*
X302225000Y-80450000D02*
X303525000Y-80450000D01*
%TO.N,Net-(U17-DO)*%
X271825000Y-78850000D02*
X303525000Y-78850000D01*
%TO.N,Net-(U43-DO)*%
X409775000Y-186850000D02*
X411525000Y-186850000D01*
X379825000Y-186850000D02*
X381425000Y-186850000D01*
%TO.N,Net-(U43-CO)*%
X410225000Y-188450000D02*
X409825000Y-188050000D01*
X411525000Y-188450000D02*
X410225000Y-188450000D01*
X381425000Y-188450000D02*
X379825000Y-188450000D01*
%TO.N,Net-(U8-D4)*%
X251875000Y-215350000D02*
X250725000Y-216500000D01*
X251875000Y-215325000D02*
X251875000Y-215350000D01*
X247750000Y-210475000D02*
X228575000Y-191300000D01*
X250725000Y-216500000D02*
X248645000Y-216500000D01*
X228575000Y-191300000D02*
X228575000Y-188500000D01*
%TO.N,Net-(U8-D5)*%
X251125000Y-214400000D02*
X251075000Y-214400000D01*
X251075000Y-214400000D02*
X251125000Y-214450000D01*
X251125000Y-214450000D02*
X251125000Y-214975000D01*
X249375000Y-215950000D02*
X249325000Y-216000000D01*
X248425000Y-211800000D02*
X248425000Y-174600000D01*
X248525000Y-211900000D02*
X248425000Y-211800000D01*
X251125000Y-214975000D02*
X250150000Y-215950000D01*
X248425000Y-174600000D02*
X229075000Y-155250000D01*
X249325000Y-216000000D02*
X248645000Y-216000000D01*
X229075000Y-152792500D02*
X229057500Y-152775000D01*
X250150000Y-215950000D02*
X249375000Y-215950000D01*
X229075000Y-155250000D02*
X229075000Y-152792500D01*
%TO.N,Net-(U101-OUTPUT)*%
X246175000Y-215600000D02*
X246275000Y-215500000D01*
X244425000Y-215600000D02*
X246175000Y-215600000D01*
X228625000Y-295500000D02*
X228625000Y-296550000D01*
X244325000Y-215500000D02*
X244425000Y-215600000D01*
%TO.N,Net-(U100-OUTPUT)*%
X228625000Y-260450000D02*
X228625000Y-259500000D01*
X246275000Y-216000000D02*
X242975000Y-216000000D01*
%TO.N,Net-(U15-DO)*%
X199825000Y-78850000D02*
X199975000Y-78700000D01*
X199975000Y-78700000D02*
X231375000Y-78700000D01*
X231375000Y-78700000D02*
X231525000Y-78850000D01*
%TO.N,Net-(U15-CO)*%
X199875000Y-80500000D02*
X201225000Y-80500000D01*
X230275000Y-80500000D02*
X231475000Y-80500000D01*
X199825000Y-80450000D02*
X199875000Y-80500000D01*
X231475000Y-80500000D02*
X231525000Y-80450000D01*
%TO.N,Net-(U6-D5)*%
X176630000Y-215020000D02*
X175360000Y-215020000D01*
X157275000Y-152750000D02*
X157125000Y-152600000D01*
X157275000Y-155350000D02*
X157275000Y-152750000D01*
X178075000Y-213575000D02*
X176630000Y-215020000D01*
X175125000Y-210350000D02*
X175125000Y-173200000D01*
X175125000Y-173200000D02*
X157275000Y-155350000D01*
%TO.N,Net-(U6-D6)*%
X175775000Y-211900000D02*
X175775000Y-138450000D01*
X175775000Y-138450000D02*
X157175000Y-119850000D01*
X177175000Y-213525000D02*
X176775000Y-213925000D01*
X176775000Y-214075000D02*
X176330000Y-214520000D01*
X176330000Y-214520000D02*
X175360000Y-214520000D01*
X157175000Y-119850000D02*
X157175000Y-116650000D01*
X157175000Y-116650000D02*
X157075000Y-116550000D01*
X176775000Y-213925000D02*
X176775000Y-214075000D01*
%TO.N,Net-(U6-D0)*%
X156925000Y-330300000D02*
X156925000Y-332400000D01*
X156925000Y-332400000D02*
X156875000Y-332450000D01*
X172495000Y-214020000D02*
X171775000Y-213300000D01*
X172990000Y-214020000D02*
X172495000Y-214020000D01*
%TO.N,Net-(U6-D3)*%
X163325000Y-215500000D02*
X156625000Y-222200000D01*
X156625000Y-222200000D02*
X156625000Y-224500000D01*
X172990000Y-215520000D02*
X172970000Y-215500000D01*
X172970000Y-215500000D02*
X163325000Y-215500000D01*
%TO.N,Net-(U69-DO)*%
X373475000Y-330850000D02*
X373075000Y-330450000D01*
X375525000Y-330850000D02*
X373475000Y-330850000D01*
X373075000Y-330450000D02*
X344225000Y-330450000D01*
X344225000Y-330450000D02*
X343825000Y-330850000D01*
%TO.N,Net-(U69-CO)*%
X374525000Y-333450000D02*
X375525000Y-332450000D01*
X343825000Y-332450000D02*
X370425000Y-332450000D01*
X371425000Y-333450000D02*
X374525000Y-333450000D01*
X370425000Y-332450000D02*
X371425000Y-333450000D01*
%TD*%
M02*
