%TF.GenerationSoftware,KiCad,Pcbnew,10.0.1*%
%TF.CreationDate,2026-06-20T20:30:36+02:00*%
%TF.ProjectId,Upper PCB,55707065-7220-4504-9342-2e6b69636164,rev?*%
%TF.SameCoordinates,Original*%
%TF.FileFunction,Paste,Top*%
%TF.FilePolarity,Positive*%
%FSLAX46Y46*%
G04 Gerber Fmt 4.6, Leading zero omitted, Abs format (unit mm)*
G04 Created by KiCad (PCBNEW 10.0.1) date 2026-06-20 20:30:36*
%MOMM*%
%LPD*%
G01*
G04 APERTURE LIST*
G04 Aperture macros list*
%AMRoundRect*
0 Rectangle with rounded corners*
0 $1 Rounding radius*
0 $2 $3 $4 $5 $6 $7 $8 $9 X,Y pos of 4 corners*
0 Add a 4 corners polygon primitive as box body*
4,1,4,$2,$3,$4,$5,$6,$7,$8,$9,$2,$3,0*
0 Add four circle primitives for the rounded corners*
1,1,$1+$1,$2,$3*
1,1,$1+$1,$4,$5*
1,1,$1+$1,$6,$7*
1,1,$1+$1,$8,$9*
0 Add four rect primitives between the rounded corners*
20,1,$1+$1,$2,$3,$4,$5,0*
20,1,$1+$1,$4,$5,$6,$7,0*
20,1,$1+$1,$6,$7,$8,$9,0*
20,1,$1+$1,$8,$9,$2,$3,0*%
G04 Aperture macros list end*
%ADD10C,0.010000*%
%ADD11RoundRect,0.250000X-0.325000X-0.650000X0.325000X-0.650000X0.325000X0.650000X-0.325000X0.650000X0*%
%ADD12RoundRect,0.135000X0.185000X-0.135000X0.185000X0.135000X-0.185000X0.135000X-0.185000X-0.135000X0*%
%ADD13RoundRect,0.135000X0.135000X0.185000X-0.135000X0.185000X-0.135000X-0.185000X0.135000X-0.185000X0*%
%ADD14RoundRect,0.135000X-0.135000X-0.185000X0.135000X-0.185000X0.135000X0.185000X-0.135000X0.185000X0*%
%ADD15RoundRect,0.032500X0.097500X0.397500X-0.097500X0.397500X-0.097500X-0.397500X0.097500X-0.397500X0*%
%ADD16RoundRect,0.032500X0.397500X0.097500X-0.397500X0.097500X-0.397500X-0.097500X0.397500X-0.097500X0*%
%ADD17RoundRect,0.032500X-0.097500X-0.397500X0.097500X-0.397500X0.097500X0.397500X-0.097500X0.397500X0*%
%ADD18RoundRect,0.032500X-0.397500X-0.097500X0.397500X-0.097500X0.397500X0.097500X-0.397500X0.097500X0*%
%ADD19RoundRect,0.128750X-0.576250X-0.386250X0.576250X-0.386250X0.576250X0.386250X-0.576250X0.386250X0*%
%ADD20R,1.000000X0.800000*%
%ADD21RoundRect,0.250000X0.475000X-0.250000X0.475000X0.250000X-0.475000X0.250000X-0.475000X-0.250000X0*%
%ADD22RoundRect,0.225000X-0.225000X-0.250000X0.225000X-0.250000X0.225000X0.250000X-0.225000X0.250000X0*%
%ADD23RoundRect,0.225000X0.225000X0.250000X-0.225000X0.250000X-0.225000X-0.250000X0.225000X-0.250000X0*%
%ADD24RoundRect,0.225000X-0.250000X0.225000X-0.250000X-0.225000X0.250000X-0.225000X0.250000X0.225000X0*%
G04 APERTURE END LIST*
D10*
%TO.C,U6*%
X174495000Y-215400000D02*
X173855000Y-215400000D01*
X173855000Y-214140000D01*
X174495000Y-214140000D01*
X174495000Y-215400000D01*
G36*
X174495000Y-215400000D02*
G01*
X173855000Y-215400000D01*
X173855000Y-214140000D01*
X174495000Y-214140000D01*
X174495000Y-215400000D01*
G37*
%TO.C,U7*%
X211580000Y-216930000D02*
X210940000Y-216930000D01*
X210940000Y-215670000D01*
X211580000Y-215670000D01*
X211580000Y-216930000D01*
G36*
X211580000Y-216930000D02*
G01*
X210940000Y-216930000D01*
X210940000Y-215670000D01*
X211580000Y-215670000D01*
X211580000Y-216930000D01*
G37*
%TO.C,U8*%
X247780000Y-216380000D02*
X247140000Y-216380000D01*
X247140000Y-215120000D01*
X247780000Y-215120000D01*
X247780000Y-216380000D01*
G36*
X247780000Y-216380000D02*
G01*
X247140000Y-216380000D01*
X247140000Y-215120000D01*
X247780000Y-215120000D01*
X247780000Y-216380000D01*
G37*
%TO.C,U9*%
X282080000Y-215030000D02*
X281440000Y-215030000D01*
X281440000Y-213770000D01*
X282080000Y-213770000D01*
X282080000Y-215030000D01*
G36*
X282080000Y-215030000D02*
G01*
X281440000Y-215030000D01*
X281440000Y-213770000D01*
X282080000Y-213770000D01*
X282080000Y-215030000D01*
G37*
%TO.C,U10*%
X295080000Y-215130000D02*
X294440000Y-215130000D01*
X294440000Y-213870000D01*
X295080000Y-213870000D01*
X295080000Y-215130000D01*
G36*
X295080000Y-215130000D02*
G01*
X294440000Y-215130000D01*
X294440000Y-213870000D01*
X295080000Y-213870000D01*
X295080000Y-215130000D01*
G37*
%TO.C,U11*%
X321610000Y-215230000D02*
X320970000Y-215230000D01*
X320970000Y-213970000D01*
X321610000Y-213970000D01*
X321610000Y-215230000D01*
G36*
X321610000Y-215230000D02*
G01*
X320970000Y-215230000D01*
X320970000Y-213970000D01*
X321610000Y-213970000D01*
X321610000Y-215230000D01*
G37*
%TO.C,U12*%
X363195000Y-215215000D02*
X362555000Y-215215000D01*
X362555000Y-213955000D01*
X363195000Y-213955000D01*
X363195000Y-215215000D01*
G36*
X363195000Y-215215000D02*
G01*
X362555000Y-215215000D01*
X362555000Y-213955000D01*
X363195000Y-213955000D01*
X363195000Y-215215000D01*
G37*
%TO.C,U13*%
X396345000Y-215730000D02*
X395705000Y-215730000D01*
X395705000Y-214470000D01*
X396345000Y-214470000D01*
X396345000Y-215730000D01*
G36*
X396345000Y-215730000D02*
G01*
X395705000Y-215730000D01*
X395705000Y-214470000D01*
X396345000Y-214470000D01*
X396345000Y-215730000D01*
G37*
%TD*%
D11*
%TO.C,22uF*%
X299025000Y-201475000D03*
X301975000Y-201475000D03*
%TD*%
%TO.C,22uF*%
X294050000Y-201450000D03*
X297000000Y-201450000D03*
%TD*%
D12*
%TO.C,10Kohm*%
X366850000Y-294735000D03*
X366850000Y-293715000D03*
%TD*%
%TO.C,10Kohm*%
X403275000Y-294760000D03*
X403275000Y-293740000D03*
%TD*%
%TO.C,10Kohm*%
X367200000Y-222785000D03*
X367200000Y-221765000D03*
%TD*%
%TO.C,10Kohm*%
X403850000Y-330685000D03*
X403850000Y-329665000D03*
%TD*%
%TO.C,10Kohm*%
X367200000Y-330685000D03*
X367200000Y-329665000D03*
%TD*%
%TO.C,10Kohm*%
X331175000Y-330610000D03*
X331175000Y-329590000D03*
%TD*%
%TO.C,10Kohm*%
X331650000Y-294785000D03*
X331650000Y-293765000D03*
%TD*%
%TO.C,10Kohm*%
X331300000Y-222885000D03*
X331300000Y-221865000D03*
%TD*%
%TO.C,10Kohm*%
X294300000Y-223285000D03*
X294300000Y-222265000D03*
%TD*%
%TO.C,10Kohm*%
X403375000Y-258735000D03*
X403375000Y-257715000D03*
%TD*%
%TO.C,10Kohm*%
X367250000Y-258885000D03*
X367250000Y-257865000D03*
%TD*%
%TO.C,10Kohm*%
X330800000Y-258785000D03*
X330800000Y-257765000D03*
%TD*%
%TO.C,10Kohm*%
X294500000Y-258735000D03*
X294500000Y-257715000D03*
%TD*%
%TO.C,10Kohm*%
X294600000Y-294735000D03*
X294600000Y-293715000D03*
%TD*%
%TO.C,10Kohm*%
X260150000Y-222635000D03*
X260150000Y-221615000D03*
%TD*%
%TO.C,10Kohm*%
X259000000Y-258710000D03*
X259000000Y-257690000D03*
%TD*%
%TO.C,10Kohm*%
X259450000Y-294735000D03*
X259450000Y-293715000D03*
%TD*%
%TO.C,10Kohm*%
X295200000Y-330585000D03*
X295200000Y-329565000D03*
%TD*%
%TO.C,10Kohm*%
X259450000Y-329540000D03*
X259450000Y-330560000D03*
%TD*%
%TO.C,10Kohm*%
X223362500Y-223047500D03*
X223362500Y-222027500D03*
%TD*%
%TO.C,10Kohm*%
X223637500Y-258647500D03*
X223637500Y-257627500D03*
%TD*%
%TO.C,10Kohm*%
X223725000Y-330485000D03*
X223725000Y-329465000D03*
%TD*%
%TO.C,10Kohm*%
X188450000Y-222685000D03*
X188450000Y-221665000D03*
%TD*%
%TO.C,10Kohm*%
X187900000Y-258735000D03*
X187900000Y-257715000D03*
%TD*%
%TO.C,10Kohm*%
X223500000Y-294735000D03*
X223500000Y-293715000D03*
%TD*%
%TO.C,10Kohm*%
X187725000Y-294610000D03*
X187725000Y-293590000D03*
%TD*%
%TO.C,10Kohm*%
X187600000Y-330485000D03*
X187600000Y-329465000D03*
%TD*%
D13*
%TO.C,10Kohm*%
X156710000Y-328300000D03*
X155690000Y-328300000D03*
%TD*%
%TO.C,10Kohm*%
X154235000Y-256525000D03*
X153215000Y-256525000D03*
%TD*%
%TO.C,10Kohm*%
X156185000Y-292400000D03*
X155165000Y-292400000D03*
%TD*%
%TO.C,10Kohm*%
X156410000Y-220200000D03*
X155390000Y-220200000D03*
%TD*%
D14*
%TO.C,10Kohm*%
X155115000Y-191325000D03*
X156135000Y-191325000D03*
%TD*%
%TO.C,10Kohm*%
X155165000Y-155325000D03*
X156185000Y-155325000D03*
%TD*%
%TO.C,10Kohm*%
X155215000Y-119875000D03*
X156235000Y-119875000D03*
%TD*%
%TO.C,10Kohm*%
X189965000Y-192425000D03*
X190985000Y-192425000D03*
%TD*%
%TO.C,10Kohm*%
X190515000Y-156600000D03*
X191535000Y-156600000D03*
%TD*%
%TO.C,10Kohm*%
X226640000Y-191500000D03*
X227660000Y-191500000D03*
%TD*%
%TO.C,10Kohm*%
X227115000Y-155725000D03*
X228135000Y-155725000D03*
%TD*%
%TO.C,10Kohm*%
X190615000Y-120175000D03*
X191635000Y-120175000D03*
%TD*%
%TO.C,10Kohm*%
X226715000Y-120175000D03*
X227735000Y-120175000D03*
%TD*%
%TO.C,10Kohm*%
X262515000Y-191500000D03*
X263535000Y-191500000D03*
%TD*%
%TO.C,10Kohm*%
X262365000Y-155975000D03*
X263385000Y-155975000D03*
%TD*%
%TO.C,10Kohm*%
X262290000Y-120100000D03*
X263310000Y-120100000D03*
%TD*%
%TO.C,10Kohm*%
X297240000Y-191900000D03*
X298260000Y-191900000D03*
%TD*%
%TO.C,10Kohm*%
X296465000Y-155950000D03*
X297485000Y-155950000D03*
%TD*%
%TO.C,10Kohm*%
X296840000Y-120550000D03*
X297860000Y-120550000D03*
%TD*%
%TO.C,10Kohm*%
X332802500Y-192087500D03*
X333822500Y-192087500D03*
%TD*%
%TO.C,10Kohm*%
X332627500Y-156112500D03*
X333647500Y-156112500D03*
%TD*%
%TO.C,10Kohm*%
X333802500Y-120237500D03*
X334822500Y-120237500D03*
%TD*%
%TO.C,10Kohm*%
X369165000Y-191500000D03*
X370185000Y-191500000D03*
%TD*%
%TO.C,10Kohm*%
X368465000Y-155550000D03*
X369485000Y-155550000D03*
%TD*%
%TO.C,10Kohm*%
X369302500Y-119662500D03*
X370322500Y-119662500D03*
%TD*%
%TO.C,10Kohm*%
X402065000Y-223175000D03*
X403085000Y-223175000D03*
%TD*%
%TO.C,10Kohm*%
X405015000Y-191400000D03*
X406035000Y-191400000D03*
%TD*%
%TO.C,10Kohm*%
X405315000Y-155350000D03*
X406335000Y-155350000D03*
%TD*%
%TO.C,10Kohm*%
X405365000Y-119325000D03*
X406385000Y-119325000D03*
%TD*%
%TO.C,10Kohm*%
X404840000Y-83150000D03*
X405860000Y-83150000D03*
%TD*%
%TO.C,10Kohm*%
X369290000Y-83725000D03*
X370310000Y-83725000D03*
%TD*%
%TO.C,10Kohm*%
X333315000Y-84575000D03*
X334335000Y-84575000D03*
%TD*%
%TO.C,10Kohm*%
X296740000Y-84700000D03*
X297760000Y-84700000D03*
%TD*%
%TO.C,10Kohm*%
X263285000Y-83925000D03*
X262265000Y-83925000D03*
%TD*%
%TO.C,10Kohm*%
X226115000Y-84075000D03*
X227135000Y-84075000D03*
%TD*%
%TO.C,10Kohm*%
X189990000Y-83550000D03*
X191010000Y-83550000D03*
%TD*%
D15*
%TO.C,U6*%
X173925000Y-216455000D03*
D16*
X172990000Y-216020000D03*
X172990000Y-215520000D03*
X172990000Y-215020000D03*
X172990000Y-214520000D03*
X172990000Y-214020000D03*
X172990000Y-213520000D03*
D15*
X173925000Y-213085000D03*
X174425000Y-213085000D03*
D16*
X175360000Y-213520000D03*
X175360000Y-214020000D03*
X175360000Y-214520000D03*
X175360000Y-215020000D03*
X175360000Y-215520000D03*
X175360000Y-216020000D03*
D15*
X174425000Y-216455000D03*
%TD*%
%TO.C,U7*%
X211010000Y-217985000D03*
D16*
X210075000Y-217550000D03*
X210075000Y-217050000D03*
X210075000Y-216550000D03*
X210075000Y-216050000D03*
X210075000Y-215550000D03*
X210075000Y-215050000D03*
D15*
X211010000Y-214615000D03*
X211510000Y-214615000D03*
D16*
X212445000Y-215050000D03*
X212445000Y-215550000D03*
X212445000Y-216050000D03*
X212445000Y-216550000D03*
X212445000Y-217050000D03*
X212445000Y-217550000D03*
D15*
X211510000Y-217985000D03*
%TD*%
%TO.C,U8*%
X247210000Y-217435000D03*
D16*
X246275000Y-217000000D03*
X246275000Y-216500000D03*
X246275000Y-216000000D03*
X246275000Y-215500000D03*
X246275000Y-215000000D03*
X246275000Y-214500000D03*
D15*
X247210000Y-214065000D03*
X247710000Y-214065000D03*
D16*
X248645000Y-214500000D03*
X248645000Y-215000000D03*
X248645000Y-215500000D03*
X248645000Y-216000000D03*
X248645000Y-216500000D03*
X248645000Y-217000000D03*
D15*
X247710000Y-217435000D03*
%TD*%
%TO.C,U9*%
X281510000Y-216085000D03*
D16*
X280575000Y-215650000D03*
X280575000Y-215150000D03*
X280575000Y-214650000D03*
X280575000Y-214150000D03*
X280575000Y-213650000D03*
X280575000Y-213150000D03*
D15*
X281510000Y-212715000D03*
X282010000Y-212715000D03*
D16*
X282945000Y-213150000D03*
X282945000Y-213650000D03*
X282945000Y-214150000D03*
X282945000Y-214650000D03*
X282945000Y-215150000D03*
X282945000Y-215650000D03*
D15*
X282010000Y-216085000D03*
%TD*%
D17*
%TO.C,U10*%
X295010000Y-212815000D03*
D18*
X295945000Y-213250000D03*
X295945000Y-213750000D03*
X295945000Y-214250000D03*
X295945000Y-214750000D03*
X295945000Y-215250000D03*
X295945000Y-215750000D03*
D17*
X295010000Y-216185000D03*
X294510000Y-216185000D03*
D18*
X293575000Y-215750000D03*
X293575000Y-215250000D03*
X293575000Y-214750000D03*
X293575000Y-214250000D03*
X293575000Y-213750000D03*
X293575000Y-213250000D03*
D17*
X294510000Y-212815000D03*
%TD*%
%TO.C,U11*%
X321540000Y-212915000D03*
D18*
X322475000Y-213350000D03*
X322475000Y-213850000D03*
X322475000Y-214350000D03*
X322475000Y-214850000D03*
X322475000Y-215350000D03*
X322475000Y-215850000D03*
D17*
X321540000Y-216285000D03*
X321040000Y-216285000D03*
D18*
X320105000Y-215850000D03*
X320105000Y-215350000D03*
X320105000Y-214850000D03*
X320105000Y-214350000D03*
X320105000Y-213850000D03*
X320105000Y-213350000D03*
D17*
X321040000Y-212915000D03*
%TD*%
%TO.C,U12*%
X363125000Y-212900000D03*
D18*
X364060000Y-213335000D03*
X364060000Y-213835000D03*
X364060000Y-214335000D03*
X364060000Y-214835000D03*
X364060000Y-215335000D03*
X364060000Y-215835000D03*
D17*
X363125000Y-216270000D03*
X362625000Y-216270000D03*
D18*
X361690000Y-215835000D03*
X361690000Y-215335000D03*
X361690000Y-214835000D03*
X361690000Y-214335000D03*
X361690000Y-213835000D03*
X361690000Y-213335000D03*
D17*
X362625000Y-212900000D03*
%TD*%
%TO.C,U13*%
X396275000Y-213415000D03*
D18*
X397210000Y-213850000D03*
X397210000Y-214350000D03*
X397210000Y-214850000D03*
X397210000Y-215350000D03*
X397210000Y-215850000D03*
X397210000Y-216350000D03*
D17*
X396275000Y-216785000D03*
X395775000Y-216785000D03*
D18*
X394840000Y-216350000D03*
X394840000Y-215850000D03*
X394840000Y-215350000D03*
X394840000Y-214850000D03*
X394840000Y-214350000D03*
X394840000Y-213850000D03*
D17*
X395775000Y-213415000D03*
%TD*%
D19*
%TO.C,U14*%
X163825000Y-78850000D03*
X163825000Y-80450000D03*
X163825000Y-82050000D03*
X159525000Y-82050000D03*
X159525000Y-80450000D03*
X159525000Y-78850000D03*
%TD*%
%TO.C,U15*%
X199825000Y-78850000D03*
X199825000Y-80450000D03*
X199825000Y-82050000D03*
X195525000Y-82050000D03*
X195525000Y-80450000D03*
X195525000Y-78850000D03*
%TD*%
%TO.C,U16*%
X235825000Y-78850000D03*
X235825000Y-80450000D03*
X235825000Y-82050000D03*
X231525000Y-82050000D03*
X231525000Y-80450000D03*
X231525000Y-78850000D03*
%TD*%
%TO.C,U17*%
X271825000Y-78850000D03*
X271825000Y-80450000D03*
X271825000Y-82050000D03*
X267525000Y-82050000D03*
X267525000Y-80450000D03*
X267525000Y-78850000D03*
%TD*%
%TO.C,U18*%
X307825000Y-78850000D03*
X307825000Y-80450000D03*
X307825000Y-82050000D03*
X303525000Y-82050000D03*
X303525000Y-80450000D03*
X303525000Y-78850000D03*
%TD*%
%TO.C,U19*%
X344037500Y-78850000D03*
X344037500Y-80450000D03*
X344037500Y-82050000D03*
X339737500Y-82050000D03*
X339737500Y-80450000D03*
X339737500Y-78850000D03*
%TD*%
%TO.C,U20*%
X379825000Y-78850000D03*
X379825000Y-80450000D03*
X379825000Y-82050000D03*
X375525000Y-82050000D03*
X375525000Y-80450000D03*
X375525000Y-78850000D03*
%TD*%
%TO.C,U21*%
X415825000Y-78850000D03*
X415825000Y-80450000D03*
X415825000Y-82050000D03*
X411525000Y-82050000D03*
X411525000Y-80450000D03*
X411525000Y-78850000D03*
%TD*%
%TO.C,U22*%
X163825000Y-114850000D03*
X163825000Y-116450000D03*
X163825000Y-118050000D03*
X159525000Y-118050000D03*
X159525000Y-116450000D03*
X159525000Y-114850000D03*
%TD*%
%TO.C,U23*%
X199825000Y-114850000D03*
X199825000Y-116450000D03*
X199825000Y-118050000D03*
X195525000Y-118050000D03*
X195525000Y-116450000D03*
X195525000Y-114850000D03*
%TD*%
%TO.C,U24*%
X235825000Y-114850000D03*
X235825000Y-116450000D03*
X235825000Y-118050000D03*
X231525000Y-118050000D03*
X231525000Y-116450000D03*
X231525000Y-114850000D03*
%TD*%
%TO.C,U25*%
X271825000Y-114850000D03*
X271825000Y-116450000D03*
X271825000Y-118050000D03*
X267525000Y-118050000D03*
X267525000Y-116450000D03*
X267525000Y-114850000D03*
%TD*%
%TO.C,U26*%
X307825000Y-114850000D03*
X307825000Y-116450000D03*
X307825000Y-118050000D03*
X303525000Y-118050000D03*
X303525000Y-116450000D03*
X303525000Y-114850000D03*
%TD*%
%TO.C,U27*%
X343825000Y-114850000D03*
X343825000Y-116450000D03*
X343825000Y-118050000D03*
X339525000Y-118050000D03*
X339525000Y-116450000D03*
X339525000Y-114850000D03*
%TD*%
%TO.C,U28*%
X379825000Y-114850000D03*
X379825000Y-116450000D03*
X379825000Y-118050000D03*
X375525000Y-118050000D03*
X375525000Y-116450000D03*
X375525000Y-114850000D03*
%TD*%
%TO.C,U29*%
X415825000Y-114850000D03*
X415825000Y-116450000D03*
X415825000Y-118050000D03*
X411525000Y-118050000D03*
X411525000Y-116450000D03*
X411525000Y-114850000D03*
%TD*%
%TO.C,U30*%
X163825000Y-150850000D03*
X163825000Y-152450000D03*
X163825000Y-154050000D03*
X159525000Y-154050000D03*
X159525000Y-152450000D03*
X159525000Y-150850000D03*
%TD*%
%TO.C,U31*%
X163825000Y-186850000D03*
X163825000Y-188450000D03*
X163825000Y-190050000D03*
X159525000Y-190050000D03*
X159525000Y-188450000D03*
X159525000Y-186850000D03*
%TD*%
%TO.C,U32*%
X199825000Y-150850000D03*
X199825000Y-152450000D03*
X199825000Y-154050000D03*
X195525000Y-154050000D03*
X195525000Y-152450000D03*
X195525000Y-150850000D03*
%TD*%
%TO.C,U33*%
X199825000Y-186850000D03*
X199825000Y-188450000D03*
X199825000Y-190050000D03*
X195525000Y-190050000D03*
X195525000Y-188450000D03*
X195525000Y-186850000D03*
%TD*%
%TO.C,U34*%
X235825000Y-150850000D03*
X235825000Y-152450000D03*
X235825000Y-154050000D03*
X231525000Y-154050000D03*
X231525000Y-152450000D03*
X231525000Y-150850000D03*
%TD*%
%TO.C,U35*%
X235825000Y-186850000D03*
X235825000Y-188450000D03*
X235825000Y-190050000D03*
X231525000Y-190050000D03*
X231525000Y-188450000D03*
X231525000Y-186850000D03*
%TD*%
%TO.C,U36*%
X271825000Y-150850000D03*
X271825000Y-152450000D03*
X271825000Y-154050000D03*
X267525000Y-154050000D03*
X267525000Y-152450000D03*
X267525000Y-150850000D03*
%TD*%
%TO.C,U37*%
X271825000Y-186850000D03*
X271825000Y-188450000D03*
X271825000Y-190050000D03*
X267525000Y-190050000D03*
X267525000Y-188450000D03*
X267525000Y-186850000D03*
%TD*%
%TO.C,U38*%
X307825000Y-150850000D03*
X307825000Y-152450000D03*
X307825000Y-154050000D03*
X303525000Y-154050000D03*
X303525000Y-152450000D03*
X303525000Y-150850000D03*
%TD*%
%TO.C,U39*%
X307825000Y-186850000D03*
X307825000Y-188450000D03*
X307825000Y-190050000D03*
X303525000Y-190050000D03*
X303525000Y-188450000D03*
X303525000Y-186850000D03*
%TD*%
%TO.C,U40*%
X343825000Y-150850000D03*
X343825000Y-152450000D03*
X343825000Y-154050000D03*
X339525000Y-154050000D03*
X339525000Y-152450000D03*
X339525000Y-150850000D03*
%TD*%
%TO.C,U41*%
X343825000Y-186850000D03*
X343825000Y-188450000D03*
X343825000Y-190050000D03*
X339525000Y-190050000D03*
X339525000Y-188450000D03*
X339525000Y-186850000D03*
%TD*%
%TO.C,U42*%
X379825000Y-150850000D03*
X379825000Y-152450000D03*
X379825000Y-154050000D03*
X375525000Y-154050000D03*
X375525000Y-152450000D03*
X375525000Y-150850000D03*
%TD*%
%TO.C,U43*%
X379825000Y-186850000D03*
X379825000Y-188450000D03*
X379825000Y-190050000D03*
X375525000Y-190050000D03*
X375525000Y-188450000D03*
X375525000Y-186850000D03*
%TD*%
%TO.C,U44*%
X415825000Y-150850000D03*
X415825000Y-152450000D03*
X415825000Y-154050000D03*
X411525000Y-154050000D03*
X411525000Y-152450000D03*
X411525000Y-150850000D03*
%TD*%
%TO.C,U45*%
X415825000Y-186850000D03*
X415825000Y-188450000D03*
X415825000Y-190050000D03*
X411525000Y-190050000D03*
X411525000Y-188450000D03*
X411525000Y-186850000D03*
%TD*%
%TO.C,U46*%
X163825000Y-222850000D03*
X163825000Y-224450000D03*
X163825000Y-226050000D03*
X159525000Y-226050000D03*
X159525000Y-224450000D03*
X159525000Y-222850000D03*
%TD*%
%TO.C,U47*%
X163825000Y-258850000D03*
X163825000Y-260450000D03*
X163825000Y-262050000D03*
X159525000Y-262050000D03*
X159525000Y-260450000D03*
X159525000Y-258850000D03*
%TD*%
%TO.C,U48*%
X163825000Y-294850000D03*
X163825000Y-296450000D03*
X163825000Y-298050000D03*
X159525000Y-298050000D03*
X159525000Y-296450000D03*
X159525000Y-294850000D03*
%TD*%
%TO.C,U49*%
X163825000Y-330850000D03*
X163825000Y-332450000D03*
X163825000Y-334050000D03*
X159525000Y-334050000D03*
X159525000Y-332450000D03*
X159525000Y-330850000D03*
%TD*%
%TO.C,U50*%
X199825000Y-222850000D03*
X199825000Y-224450000D03*
X199825000Y-226050000D03*
X195525000Y-226050000D03*
X195525000Y-224450000D03*
X195525000Y-222850000D03*
%TD*%
%TO.C,U51*%
X199825000Y-258850000D03*
X199825000Y-260450000D03*
X199825000Y-262050000D03*
X195525000Y-262050000D03*
X195525000Y-260450000D03*
X195525000Y-258850000D03*
%TD*%
%TO.C,U52*%
X199825000Y-294850000D03*
X199825000Y-296450000D03*
X199825000Y-298050000D03*
X195525000Y-298050000D03*
X195525000Y-296450000D03*
X195525000Y-294850000D03*
%TD*%
%TO.C,U53*%
X199825000Y-330850000D03*
X199825000Y-332450000D03*
X199825000Y-334050000D03*
X195525000Y-334050000D03*
X195525000Y-332450000D03*
X195525000Y-330850000D03*
%TD*%
%TO.C,U54*%
X235825000Y-222850000D03*
X235825000Y-224450000D03*
X235825000Y-226050000D03*
X231525000Y-226050000D03*
X231525000Y-224450000D03*
X231525000Y-222850000D03*
%TD*%
%TO.C,U55*%
X235825000Y-258850000D03*
X235825000Y-260450000D03*
X235825000Y-262050000D03*
X231525000Y-262050000D03*
X231525000Y-260450000D03*
X231525000Y-258850000D03*
%TD*%
%TO.C,U56*%
X235825000Y-294850000D03*
X235825000Y-296450000D03*
X235825000Y-298050000D03*
X231525000Y-298050000D03*
X231525000Y-296450000D03*
X231525000Y-294850000D03*
%TD*%
%TO.C,U57*%
X235825000Y-330850000D03*
X235825000Y-332450000D03*
X235825000Y-334050000D03*
X231525000Y-334050000D03*
X231525000Y-332450000D03*
X231525000Y-330850000D03*
%TD*%
%TO.C,U58*%
X271825000Y-222850000D03*
X271825000Y-224450000D03*
X271825000Y-226050000D03*
X267525000Y-226050000D03*
X267525000Y-224450000D03*
X267525000Y-222850000D03*
%TD*%
%TO.C,U59*%
X271825000Y-258850000D03*
X271825000Y-260450000D03*
X271825000Y-262050000D03*
X267525000Y-262050000D03*
X267525000Y-260450000D03*
X267525000Y-258850000D03*
%TD*%
%TO.C,U60*%
X271825000Y-294850000D03*
X271825000Y-296450000D03*
X271825000Y-298050000D03*
X267525000Y-298050000D03*
X267525000Y-296450000D03*
X267525000Y-294850000D03*
%TD*%
%TO.C,U61*%
X271825000Y-330850000D03*
X271825000Y-332450000D03*
X271825000Y-334050000D03*
X267525000Y-334050000D03*
X267525000Y-332450000D03*
X267525000Y-330850000D03*
%TD*%
%TO.C,U62*%
X307825000Y-222850000D03*
X307825000Y-224450000D03*
X307825000Y-226050000D03*
X303525000Y-226050000D03*
X303525000Y-224450000D03*
X303525000Y-222850000D03*
%TD*%
%TO.C,U63*%
X307825000Y-258850000D03*
X307825000Y-260450000D03*
X307825000Y-262050000D03*
X303525000Y-262050000D03*
X303525000Y-260450000D03*
X303525000Y-258850000D03*
%TD*%
%TO.C,U64*%
X307825000Y-294850000D03*
X307825000Y-296450000D03*
X307825000Y-298050000D03*
X303525000Y-298050000D03*
X303525000Y-296450000D03*
X303525000Y-294850000D03*
%TD*%
%TO.C,U65*%
X307825000Y-330850000D03*
X307825000Y-332450000D03*
X307825000Y-334050000D03*
X303525000Y-334050000D03*
X303525000Y-332450000D03*
X303525000Y-330850000D03*
%TD*%
%TO.C,U66*%
X343825000Y-222850000D03*
X343825000Y-224450000D03*
X343825000Y-226050000D03*
X339525000Y-226050000D03*
X339525000Y-224450000D03*
X339525000Y-222850000D03*
%TD*%
%TO.C,U67*%
X343825000Y-258850000D03*
X343825000Y-260450000D03*
X343825000Y-262050000D03*
X339525000Y-262050000D03*
X339525000Y-260450000D03*
X339525000Y-258850000D03*
%TD*%
%TO.C,U68*%
X343825000Y-294850000D03*
X343825000Y-296450000D03*
X343825000Y-298050000D03*
X339525000Y-298050000D03*
X339525000Y-296450000D03*
X339525000Y-294850000D03*
%TD*%
%TO.C,U69*%
X343825000Y-330850000D03*
X343825000Y-332450000D03*
X343825000Y-334050000D03*
X339525000Y-334050000D03*
X339525000Y-332450000D03*
X339525000Y-330850000D03*
%TD*%
%TO.C,U70*%
X379825000Y-222850000D03*
X379825000Y-224450000D03*
X379825000Y-226050000D03*
X375525000Y-226050000D03*
X375525000Y-224450000D03*
X375525000Y-222850000D03*
%TD*%
%TO.C,U71*%
X379825000Y-258850000D03*
X379825000Y-260450000D03*
X379825000Y-262050000D03*
X375525000Y-262050000D03*
X375525000Y-260450000D03*
X375525000Y-258850000D03*
%TD*%
%TO.C,U72*%
X379825000Y-294850000D03*
X379825000Y-296450000D03*
X379825000Y-298050000D03*
X375525000Y-298050000D03*
X375525000Y-296450000D03*
X375525000Y-294850000D03*
%TD*%
%TO.C,U73*%
X379825000Y-330850000D03*
X379825000Y-332450000D03*
X379825000Y-334050000D03*
X375525000Y-334050000D03*
X375525000Y-332450000D03*
X375525000Y-330850000D03*
%TD*%
%TO.C,U74*%
X415825000Y-222850000D03*
X415825000Y-224450000D03*
X415825000Y-226050000D03*
X411525000Y-226050000D03*
X411525000Y-224450000D03*
X411525000Y-222850000D03*
%TD*%
%TO.C,U75*%
X415825000Y-258850000D03*
X415825000Y-260450000D03*
X415825000Y-262050000D03*
X411525000Y-262050000D03*
X411525000Y-260450000D03*
X411525000Y-258850000D03*
%TD*%
%TO.C,U76*%
X415825000Y-294850000D03*
X415825000Y-296450000D03*
X415825000Y-298050000D03*
X411525000Y-298050000D03*
X411525000Y-296450000D03*
X411525000Y-294850000D03*
%TD*%
%TO.C,U77*%
X415825000Y-330850000D03*
X415825000Y-332450000D03*
X415825000Y-334050000D03*
X411525000Y-334050000D03*
X411525000Y-332450000D03*
X411525000Y-330850000D03*
%TD*%
D20*
%TO.C,U79*%
X155125000Y-80500000D03*
X152725000Y-81450000D03*
X152725000Y-79550000D03*
%TD*%
%TO.C,U80*%
X157075000Y-116550000D03*
X154675000Y-117500000D03*
X154675000Y-115600000D03*
%TD*%
%TO.C,U81*%
X157125000Y-152600000D03*
X154725000Y-153550000D03*
X154725000Y-151650000D03*
%TD*%
%TO.C,U82*%
X157075000Y-188500000D03*
X154675000Y-189450000D03*
X154675000Y-187550000D03*
%TD*%
%TO.C,U83*%
X156625000Y-224500000D03*
X154225000Y-225450000D03*
X154225000Y-223550000D03*
%TD*%
%TO.C,U84*%
X156875000Y-296600000D03*
X154475000Y-297550000D03*
X154475000Y-295650000D03*
%TD*%
%TO.C,U85*%
X157225000Y-260450000D03*
X154825000Y-261400000D03*
X154825000Y-259500000D03*
%TD*%
%TO.C,U86*%
X156875000Y-332450000D03*
X154475000Y-333400000D03*
X154475000Y-331500000D03*
%TD*%
%TO.C,U87*%
X191975000Y-80600000D03*
X189575000Y-81550000D03*
X189575000Y-79650000D03*
%TD*%
%TO.C,U88*%
X193125000Y-116500000D03*
X190725000Y-117450000D03*
X190725000Y-115550000D03*
%TD*%
%TO.C,U89*%
X192995000Y-152675000D03*
X190595000Y-153625000D03*
X190595000Y-151725000D03*
%TD*%
%TO.C,U90*%
X192525000Y-188450000D03*
X190125000Y-189400000D03*
X190125000Y-187500000D03*
%TD*%
%TO.C,U91*%
X193175000Y-224500000D03*
X190775000Y-225450000D03*
X190775000Y-223550000D03*
%TD*%
%TO.C,U92*%
X193025000Y-260550000D03*
X190625000Y-261500000D03*
X190625000Y-259600000D03*
%TD*%
%TO.C,U93*%
X193075000Y-296450000D03*
X190675000Y-297400000D03*
X190675000Y-295500000D03*
%TD*%
%TO.C,U94*%
X192725000Y-332450000D03*
X190325000Y-333400000D03*
X190325000Y-331500000D03*
%TD*%
%TO.C,U95*%
X228025000Y-80400000D03*
X225625000Y-81350000D03*
X225625000Y-79450000D03*
%TD*%
%TO.C,U96*%
X229225000Y-116500000D03*
X226825000Y-117450000D03*
X226825000Y-115550000D03*
%TD*%
%TO.C,U97*%
X229057500Y-152775000D03*
X226657500Y-153725000D03*
X226657500Y-151825000D03*
%TD*%
%TO.C,U98*%
X228575000Y-188500000D03*
X226175000Y-189450000D03*
X226175000Y-187550000D03*
%TD*%
%TO.C,U99*%
X229125000Y-224700000D03*
X226725000Y-225650000D03*
X226725000Y-223750000D03*
%TD*%
%TO.C,U100*%
X228625000Y-260450000D03*
X226225000Y-261400000D03*
X226225000Y-259500000D03*
%TD*%
%TO.C,U101*%
X228625000Y-296550000D03*
X226225000Y-297500000D03*
X226225000Y-295600000D03*
%TD*%
%TO.C,U102*%
X228875000Y-332450000D03*
X226475000Y-333400000D03*
X226475000Y-331500000D03*
%TD*%
%TO.C,U103*%
X264215000Y-80500000D03*
X261815000Y-81450000D03*
X261815000Y-79550000D03*
%TD*%
%TO.C,U104*%
X265130000Y-116415000D03*
X262730000Y-117365000D03*
X262730000Y-115465000D03*
%TD*%
%TO.C,U105*%
X264325000Y-152500000D03*
X261925000Y-153450000D03*
X261925000Y-151550000D03*
%TD*%
%TO.C,U106*%
X264425000Y-188600000D03*
X262025000Y-189550000D03*
X262025000Y-187650000D03*
%TD*%
%TO.C,U107*%
X264975000Y-224500000D03*
X262575000Y-225450000D03*
X262575000Y-223550000D03*
%TD*%
%TO.C,U108*%
X264175000Y-260550000D03*
X261775000Y-261500000D03*
X261775000Y-259600000D03*
%TD*%
%TO.C,U109*%
X264487500Y-296550000D03*
X262087500Y-297500000D03*
X262087500Y-295600000D03*
%TD*%
%TO.C,U110*%
X264775000Y-332500000D03*
X262375000Y-333450000D03*
X262375000Y-331550000D03*
%TD*%
%TO.C,U111*%
X300675000Y-80450000D03*
X298275000Y-81400000D03*
X298275000Y-79500000D03*
%TD*%
%TO.C,U112*%
X301087500Y-116400000D03*
X298687500Y-117350000D03*
X298687500Y-115450000D03*
%TD*%
%TO.C,U113*%
X300125000Y-152500000D03*
X297725000Y-153450000D03*
X297725000Y-151550000D03*
%TD*%
%TO.C,U114*%
X300725000Y-188450000D03*
X298325000Y-189400000D03*
X298325000Y-187500000D03*
%TD*%
%TO.C,U115*%
X300625000Y-224500000D03*
X298225000Y-225450000D03*
X298225000Y-223550000D03*
%TD*%
%TO.C,U116*%
X300525000Y-260550000D03*
X298125000Y-261500000D03*
X298125000Y-259600000D03*
%TD*%
%TO.C,U117*%
X300175000Y-296600000D03*
X297775000Y-297550000D03*
X297775000Y-295650000D03*
%TD*%
%TO.C,U118*%
X300125000Y-332500000D03*
X297725000Y-333450000D03*
X297725000Y-331550000D03*
%TD*%
%TO.C,U119*%
X337027500Y-80775000D03*
X334627500Y-81725000D03*
X334627500Y-79825000D03*
%TD*%
%TO.C,U120*%
X337175000Y-116450000D03*
X334775000Y-117400000D03*
X334775000Y-115500000D03*
%TD*%
%TO.C,U121*%
X336025000Y-152600000D03*
X333625000Y-153550000D03*
X333625000Y-151650000D03*
%TD*%
%TO.C,U122*%
X336175000Y-188600000D03*
X333775000Y-189550000D03*
X333775000Y-187650000D03*
%TD*%
%TO.C,U123*%
X336225000Y-224700000D03*
X333825000Y-225650000D03*
X333825000Y-223750000D03*
%TD*%
%TO.C,U124*%
X336125000Y-260600000D03*
X333725000Y-261550000D03*
X333725000Y-259650000D03*
%TD*%
%TO.C,U125*%
X336475000Y-296600000D03*
X334075000Y-297550000D03*
X334075000Y-295650000D03*
%TD*%
%TO.C,U126*%
X336175000Y-332500000D03*
X333775000Y-333450000D03*
X333775000Y-331550000D03*
%TD*%
%TO.C,U127*%
X372875000Y-80550000D03*
X370475000Y-81500000D03*
X370475000Y-79600000D03*
%TD*%
%TO.C,U128*%
X372575000Y-116450000D03*
X370175000Y-117400000D03*
X370175000Y-115500000D03*
%TD*%
%TO.C,U129*%
X371975000Y-152650000D03*
X369575000Y-153600000D03*
X369575000Y-151700000D03*
%TD*%
%TO.C,U130*%
X372525000Y-188600000D03*
X370125000Y-189550000D03*
X370125000Y-187650000D03*
%TD*%
%TO.C,U131*%
X372075000Y-224600000D03*
X369675000Y-225550000D03*
X369675000Y-223650000D03*
%TD*%
%TO.C,U132*%
X372525000Y-260700000D03*
X370125000Y-261650000D03*
X370125000Y-259750000D03*
%TD*%
%TO.C,U133*%
X372425000Y-296600000D03*
X370025000Y-297550000D03*
X370025000Y-295650000D03*
%TD*%
%TO.C,U134*%
X372225000Y-332500000D03*
X369825000Y-333450000D03*
X369825000Y-331550000D03*
%TD*%
%TO.C,U135*%
X408615000Y-80175000D03*
X406215000Y-81125000D03*
X406215000Y-79225000D03*
%TD*%
%TO.C,U136*%
X408792500Y-116525000D03*
X406392500Y-117475000D03*
X406392500Y-115575000D03*
%TD*%
%TO.C,U137*%
X408725000Y-152700000D03*
X406325000Y-153650000D03*
X406325000Y-151750000D03*
%TD*%
%TO.C,U138*%
X408275000Y-188600000D03*
X405875000Y-189550000D03*
X405875000Y-187650000D03*
%TD*%
%TO.C,U139*%
X408275000Y-224650000D03*
X405875000Y-225600000D03*
X405875000Y-223700000D03*
%TD*%
%TO.C,U140*%
X408575000Y-260650000D03*
X406175000Y-261600000D03*
X406175000Y-259700000D03*
%TD*%
%TO.C,U141*%
X408425000Y-296600000D03*
X406025000Y-297550000D03*
X406025000Y-295650000D03*
%TD*%
%TO.C,U142*%
X408837500Y-332500000D03*
X406437500Y-333450000D03*
X406437500Y-331550000D03*
%TD*%
D14*
%TO.C,10Kohm*%
X153165000Y-83325000D03*
X154185000Y-83325000D03*
%TD*%
D21*
%TO.C,1uF*%
X299400000Y-198200000D03*
X299400000Y-196300000D03*
%TD*%
D22*
%TO.C,100nF*%
X208675000Y-219507500D03*
X210225000Y-219507500D03*
%TD*%
D23*
%TO.C,100nF*%
X324037500Y-211412500D03*
X322487500Y-211412500D03*
%TD*%
%TO.C,100nF*%
X365675000Y-211192500D03*
X364125000Y-211192500D03*
%TD*%
D22*
%TO.C,100nF*%
X171400000Y-218075000D03*
X172950000Y-218075000D03*
%TD*%
D23*
%TO.C,100nF*%
X297475000Y-211317500D03*
X295925000Y-211317500D03*
%TD*%
D24*
%TO.C,100nF*%
X303425000Y-197000000D03*
X303425000Y-198550000D03*
%TD*%
D22*
%TO.C,100nF*%
X278850000Y-217607500D03*
X280400000Y-217607500D03*
%TD*%
D23*
%TO.C,100nF*%
X399000000Y-211917500D03*
X397450000Y-211917500D03*
%TD*%
D22*
%TO.C,100nF*%
X244600000Y-218932500D03*
X246150000Y-218932500D03*
%TD*%
D24*
%TO.C,100nF*%
X297425000Y-196675000D03*
X297425000Y-198225000D03*
%TD*%
D21*
%TO.C,1uF*%
X301600000Y-198500000D03*
X301600000Y-196600000D03*
%TD*%
M02*
